  0
SECTION
  2
HEADER
  9
$ACADVER
  1
AC1024
  9
$ACADMAINTVER
 70
6
  9
$DWGCODEPAGE
  3
ANSI_1252
  9
$LASTSAVEDBY
  1
ezdxf
  9
$INSBASE
 10
0.0
 20
0.0
 30
0.0
  9
$EXTMIN
 10
1e+20
 20
1e+20
 30
1e+20
  9
$EXTMAX
 10
-1e+20
 20
-1e+20
 30
-1e+20
  9
$LIMMIN
 10
0.0
 20
0.0
  9
$LIMMAX
 10
420.0
 20
297.0
  9
$ORTHOMODE
 70
0
  9
$REGENMODE
 70
1
  9
$FILLMODE
 70
1
  9
$QTEXTMODE
 70
0
  9
$MIRRTEXT
 70
1
  9
$LTSCALE
 40
1.0
  9
$ATTMODE
 70
1
  9
$TEXTSIZE
 40
2.5
  9
$TRACEWID
 40
1.0
  9
$TEXTSTYLE
  7
Standard
  9
$CLAYER
  8
0
  9
$CELTYPE
  6
ByLayer
  9
$CECOLOR
 62
256
  9
$CELTSCALE
 40
1.0
  9
$DISPSILH
 70
0
  9
$DIMSCALE
 40
1.0
  9
$DIMASZ
 40
2.5
  9
$DIMEXO
 40
0.625
  9
$DIMDLI
 40
3.75
  9
$DIMRND
 40
0.0
  9
$DIMDLE
 40
0.0
  9
$DIMEXE
 40
1.25
  9
$DIMTP
 40
0.0
  9
$DIMTM
 40
0.0
  9
$DIMTXT
 40
2.5
  9
$DIMCEN
 40
2.5
  9
$DIMTSZ
 40
0.0
  9
$DIMTOL
 70
0
  9
$DIMLIM
 70
0
  9
$DIMTIH
 70
0
  9
$DIMTOH
 70
0
  9
$DIMSE1
 70
0
  9
$DIMSE2
 70
0
  9
$DIMTAD
 70
1
  9
$DIMZIN
 70
8
  9
$DIMBLK
  1

  9
$DIMASO
 70
1
  9
$DIMSHO
 70
1
  9
$DIMPOST
  1

  9
$DIMAPOST
  1

  9
$DIMALT
 70
0
  9
$DIMALTD
 70
3
  9
$DIMALTF
 40
0.03937007874
  9
$DIMLFAC
 40
1.0
  9
$DIMTOFL
 70
1
  9
$DIMTVP
 40
0.0
  9
$DIMTIX
 70
0
  9
$DIMSOXD
 70
0
  9
$DIMSAH
 70
0
  9
$DIMBLK1
  1

  9
$DIMBLK2
  1

  9
$DIMSTYLE
  2
ISO-25
  9
$DIMCLRD
 70
0
  9
$DIMCLRE
 70
0
  9
$DIMCLRT
 70
0
  9
$DIMTFAC
 40
1.0
  9
$DIMGAP
 40
0.625
  9
$DIMJUST
 70
0
  9
$DIMSD1
 70
0
  9
$DIMSD2
 70
0
  9
$DIMTOLJ
 70
0
  9
$DIMTZIN
 70
8
  9
$DIMALTZ
 70
0
  9
$DIMALTTZ
 70
0
  9
$DIMUPT
 70
0
  9
$DIMDEC
 70
2
  9
$DIMTDEC
 70
2
  9
$DIMALTU
 70
2
  9
$DIMALTTD
 70
3
  9
$DIMTXSTY
  7
Standard
  9
$DIMAUNIT
 70
0
  9
$DIMADEC
 70
0
  9
$DIMALTRND
 40
0.0
  9
$DIMAZIN
 70
0
  9
$DIMDSEP
 70
44
  9
$DIMATFIT
 70
3
  9
$DIMFRAC
 70
0
  9
$DIMLDRBLK
  1

  9
$DIMLUNIT
 70
2
  9
$DIMLWD
 70
-2
  9
$DIMLWE
 70
-2
  9
$DIMTMOVE
 70
0
  9
$DIMFXL
 40
1.0
  9
$DIMFXLON
 70
0
  9
$DIMJOGANG
 40
0.785398163397
  9
$DIMTFILL
 70
0
  9
$DIMTFILLCLR
 70
0
  9
$DIMARCSYM
 70
0
  9
$DIMLTYPE
  6

  9
$DIMLTEX1
  6

  9
$DIMLTEX2
  6

  9
$DIMTXTDIRECTION
 70
0
  9
$LUNITS
 70
2
  9
$LUPREC
 70
4
  9
$SKETCHINC
 40
1.0
  9
$FILLETRAD
 40
10.0
  9
$AUNITS
 70
0
  9
$AUPREC
 70
2
  9
$MENU
  1
.
  9
$ELEVATION
 40
0.0
  9
$PELEVATION
 40
0.0
  9
$THICKNESS
 40
0.0
  9
$LIMCHECK
 70
0
  9
$CHAMFERA
 40
0.0
  9
$CHAMFERB
 40
0.0
  9
$CHAMFERC
 40
0.0
  9
$CHAMFERD
 40
0.0
  9
$SKPOLY
 70
0
  9
$TDCREATE
 40
2461243.480011574
  9
$TDUCREATE
 40
2458532.153996898
  9
$TDUPDATE
 40
2461243.480011574
  9
$TDUUPDATE
 40
2458532.1544311
  9
$TDINDWG
 40
0.0
  9
$TDUSRTIMER
 40
0.0
  9
$USRTIMER
 70
1
  9
$ANGBASE
 50
0.0
  9
$ANGDIR
 70
0
  9
$PDMODE
 70
0
  9
$PDSIZE
 40
0.0
  9
$PLINEWID
 40
0.0
  9
$SPLFRAME
 70
0
  9
$SPLINETYPE
 70
6
  9
$SPLINESEGS
 70
8
  9
$HANDSEED
  5
36
  9
$SURFTAB1
 70
6
  9
$SURFTAB2
 70
6
  9
$SURFTYPE
 70
6
  9
$SURFU
 70
6
  9
$SURFV
 70
6
  9
$UCSBASE
  2

  9
$UCSNAME
  2

  9
$UCSORG
 10
0.0
 20
0.0
 30
0.0
  9
$UCSXDIR
 10
1.0
 20
0.0
 30
0.0
  9
$UCSYDIR
 10
0.0
 20
1.0
 30
0.0
  9
$UCSORTHOREF
  2

  9
$UCSORTHOVIEW
 70
0
  9
$UCSORGTOP
 10
0.0
 20
0.0
 30
0.0
  9
$UCSORGBOTTOM
 10
0.0
 20
0.0
 30
0.0
  9
$UCSORGLEFT
 10
0.0
 20
0.0
 30
0.0
  9
$UCSORGRIGHT
 10
0.0
 20
0.0
 30
0.0
  9
$UCSORGFRONT
 10
0.0
 20
0.0
 30
0.0
  9
$UCSORGBACK
 10
0.0
 20
0.0
 30
0.0
  9
$PUCSBASE
  2

  9
$PUCSNAME
  2

  9
$PUCSORG
 10
0.0
 20
0.0
 30
0.0
  9
$PUCSXDIR
 10
1.0
 20
0.0
 30
0.0
  9
$PUCSYDIR
 10
0.0
 20
1.0
 30
0.0
  9
$PUCSORTHOREF
  2

  9
$PUCSORTHOVIEW
 70
0
  9
$PUCSORGTOP
 10
0.0
 20
0.0
 30
0.0
  9
$PUCSORGBOTTOM
 10
0.0
 20
0.0
 30
0.0
  9
$PUCSORGLEFT
 10
0.0
 20
0.0
 30
0.0
  9
$PUCSORGRIGHT
 10
0.0
 20
0.0
 30
0.0
  9
$PUCSORGFRONT
 10
0.0
 20
0.0
 30
0.0
  9
$PUCSORGBACK
 10
0.0
 20
0.0
 30
0.0
  9
$USERI1
 70
0
  9
$USERI2
 70
0
  9
$USERI3
 70
0
  9
$USERI4
 70
0
  9
$USERI5
 70
0
  9
$USERR1
 40
0.0
  9
$USERR2
 40
0.0
  9
$USERR3
 40
0.0
  9
$USERR4
 40
0.0
  9
$USERR5
 40
0.0
  9
$WORLDVIEW
 70
1
  9
$SHADEDGE
 70
3
  9
$SHADEDIF
 70
70
  9
$TILEMODE
 70
1
  9
$MAXACTVP
 70
64
  9
$PINSBASE
 10
0.0
 20
0.0
 30
0.0
  9
$PLIMCHECK
 70
0
  9
$PEXTMIN
 10
1e+20
 20
1e+20
 30
1e+20
  9
$PEXTMAX
 10
-1e+20
 20
-1e+20
 30
-1e+20
  9
$PLIMMIN
 10
0.0
 20
0.0
  9
$PLIMMAX
 10
420.0
 20
297.0
  9
$UNITMODE
 70
0
  9
$VISRETAIN
 70
1
  9
$PLINEGEN
 70
0
  9
$PSLTSCALE
 70
1
  9
$TREEDEPTH
 70
3020
  9
$CMLSTYLE
  2
Standard
  9
$CMLJUST
 70
0
  9
$CMLSCALE
 40
20.0
  9
$PROXYGRAPHICS
 70
1
  9
$MEASUREMENT
 70
1
  9
$CELWEIGHT
370
-1
  9
$ENDCAPS
280
0
  9
$JOINSTYLE
280
0
  9
$LWDISPLAY
290
0
  9
$INSUNITS
 70
6
  9
$HYPERLINKBASE
  1

  9
$STYLESHEET
  1

  9
$XEDIT
290
1
  9
$CEPSNTYPE
380
0
  9
$PSTYLEMODE
290
1
  9
$FINGERPRINTGUID
  2
{461FCC09-F226-4E69-93E0-994D0EEFBDCD}
  9
$VERSIONGUID
  2
{D900C046-6CFA-4C59-A3D5-44BFF8D07EE1}
  9
$EXTNAMES
290
1
  9
$PSVPSCALE
 40
0.0
  9
$OLESTARTUP
290
0
  9
$SORTENTS
280
127
  9
$INDEXCTL
280
0
  9
$HIDETEXT
280
1
  9
$XCLIPFRAME
280
1
  9
$HALOGAP
280
0
  9
$OBSCOLOR
 70
257
  9
$OBSLTYPE
280
0
  9
$INTERSECTIONDISPLAY
280
0
  9
$INTERSECTIONCOLOR
 70
257
  9
$DIMASSOC
280
2
  9
$PROJECTNAME
  1

  9
$CAMERADISPLAY
290
0
  9
$LENSLENGTH
 40
50.0
  9
$CAMERAHEIGHT
 40
0.0
  9
$STEPSPERSEC
 40
24.0
  9
$STEPSIZE
 40
100.0
  9
$3DDWFPREC
 40
2.0
  9
$PSOLWIDTH
 40
0.005
  9
$PSOLHEIGHT
 40
0.08
  9
$LOFTANG1
 40
1.570796326795
  9
$LOFTANG2
 40
1.570796326795
  9
$LOFTMAG1
 40
0.0
  9
$LOFTMAG2
 40
0.0
  9
$LOFTPARAM
 70
7
  9
$LOFTNORMALS
280
1
  9
$LATITUDE
 40
37.795
  9
$LONGITUDE
 40
-122.394
  9
$NORTHDIRECTION
 40
0.0
  9
$TIMEZONE
 70
-8000
  9
$LIGHTGLYPHDISPLAY
280
1
  9
$TILEMODELIGHTSYNCH
280
1
  9
$CMATERIAL
347
20
  9
$SOLIDHIST
280
0
  9
$SHOWHIST
280
1
  9
$DWFFRAME
280
2
  9
$DGNFRAME
280
2
  9
$REALWORLDSCALE
290
1
  9
$INTERFERECOLOR
 62
256
  9
$CSHADOW
280
0
  9
$SHADOWPLANELOCATION
 40
0.0
  0
ENDSEC
  0
SECTION
  2
CLASSES
  0
CLASS
  1
ACDBDICTIONARYWDFLT
  2
AcDbDictionaryWithDefault
  3
ObjectDBX Classes
 90
0
 91
0
280
0
281
0
  0
CLASS
  1
SUN
  2
AcDbSun
  3
SCENEOE
 90
1153
 91
0
280
0
281
0
  0
CLASS
  1
VISUALSTYLE
  2
AcDbVisualStyle
  3
ObjectDBX Classes
 90
4095
 91
0
280
0
281
0
  0
CLASS
  1
MATERIAL
  2
AcDbMaterial
  3
ObjectDBX Classes
 90
1153
 91
0
280
0
281
0
  0
CLASS
  1
SCALE
  2
AcDbScale
  3
ObjectDBX Classes
 90
1153
 91
0
280
0
281
0
  0
CLASS
  1
TABLESTYLE
  2
AcDbTableStyle
  3
ObjectDBX Classes
 90
4095
 91
0
280
0
281
0
  0
CLASS
  1
MLEADERSTYLE
  2
AcDbMLeaderStyle
  3
ACDB_MLEADERSTYLE_CLASS
 90
4095
 91
0
280
0
281
0
  0
CLASS
  1
DICTIONARYVAR
  2
AcDbDictionaryVar
  3
ObjectDBX Classes
 90
0
 91
0
280
0
281
0
  0
CLASS
  1
CELLSTYLEMAP
  2
AcDbCellStyleMap
  3
ObjectDBX Classes
 90
1152
 91
0
280
0
281
0
  0
CLASS
  1
MENTALRAYRENDERSETTINGS
  2
AcDbMentalRayRenderSettings
  3
SCENEOE
 90
1024
 91
0
280
0
281
0
  0
CLASS
  1
ACDBDETAILVIEWSTYLE
  2
AcDbDetailViewStyle
  3
ObjectDBX Classes
 90
1025
 91
0
280
0
281
0
  0
CLASS
  1
ACDBSECTIONVIEWSTYLE
  2
AcDbSectionViewStyle
  3
ObjectDBX Classes
 90
1025
 91
0
280
0
281
0
  0
CLASS
  1
RASTERVARIABLES
  2
AcDbRasterVariables
  3
ISM
 90
0
 91
0
280
0
281
0
  0
CLASS
  1
ACDBPLACEHOLDER
  2
AcDbPlaceHolder
  3
ObjectDBX Classes
 90
0
 91
0
280
0
281
0
  0
CLASS
  1
LAYOUT
  2
AcDbLayout
  3
ObjectDBX Classes
 90
0
 91
0
280
0
281
0
  0
ENDSEC
  0
SECTION
  2
TABLES
  0
TABLE
  2
VPORT
  5
8
330
0
100
AcDbSymbolTable
 70
1
  0
VPORT
  5
23
330
8
100
AcDbSymbolTableRecord
100
AcDbViewportTableRecord
  2
*Active
 70
0
 10
0.0
 20
0.0
 11
1.0
 21
1.0
 12
0.0
 22
0.0
 13
0.0
 23
0.0
 14
0.5
 24
0.5
 15
0.5
 25
0.5
 16
0.0
 26
0.0
 36
1.0
 17
0.0
 27
0.0
 37
0.0
 40
1000.0
 41
1.34
 42
50.0
 43
0.0
 44
0.0
 50
0.0
 51
0.0
 71
0
 72
1000
 73
1
 74
3
 75
0
 76
0
 77
0
 78
0
281
0
 65
0
146
0.0
  0
ENDTAB
  0
TABLE
  2
LTYPE
  5
2
330
0
100
AcDbSymbolTable
 70
3
  0
LTYPE
  5
24
330
2
100
AcDbSymbolTableRecord
100
AcDbLinetypeTableRecord
  2
ByBlock
 70
0
  3

 72
65
 73
0
 40
0.0
  0
LTYPE
  5
25
330
2
100
AcDbSymbolTableRecord
100
AcDbLinetypeTableRecord
  2
ByLayer
 70
0
  3

 72
65
 73
0
 40
0.0
  0
LTYPE
  5
26
330
2
100
AcDbSymbolTableRecord
100
AcDbLinetypeTableRecord
  2
Continuous
 70
0
  3

 72
65
 73
0
 40
0.0
  0
ENDTAB
  0
TABLE
  2
LAYER
  5
1
330
0
100
AcDbSymbolTable
 70
5
  0
LAYER
  5
27
330
1
100
AcDbSymbolTableRecord
100
AcDbLayerTableRecord
  2
0
 70
0
 62
7
  6
Continuous
370
-3
390
13
347
21
  0
LAYER
  5
28
330
1
100
AcDbSymbolTableRecord
100
AcDbLayerTableRecord
  2
Defpoints
 70
0
 62
7
  6
Continuous
290
0
370
-3
390
13
347
21
  0
LAYER
  5
2F
330
1
100
AcDbSymbolTableRecord
100
AcDbLayerTableRecord
  2
OUTER
 70
0
 62
7
  6
Continuous
370
-3
390
13
347
21
  0
LAYER
  5
30
330
1
100
AcDbSymbolTableRecord
100
AcDbLayerTableRecord
  2
HOLES
 70
0
 62
1
  6
Continuous
370
-3
390
13
347
21
  0
LAYER
  5
31
330
1
100
AcDbSymbolTableRecord
100
AcDbLayerTableRecord
  2
DETAILS
 70
0
 62
3
  6
Continuous
370
-3
390
13
347
21
  0
ENDTAB
  0
TABLE
  2
STYLE
  5
5
330
0
100
AcDbSymbolTable
 70
1
  0
STYLE
  5
29
330
5
100
AcDbSymbolTableRecord
100
AcDbTextStyleTableRecord
  2
Standard
 70
0
 40
0.0
 41
1.0
 50
0.0
 71
0
 42
2.5
  3
txt
  4

  0
ENDTAB
  0
TABLE
  2
VIEW
  5
7
330
0
100
AcDbSymbolTable
 70
0
  0
ENDTAB
  0
TABLE
  2
UCS
  5
6
330
0
100
AcDbSymbolTable
 70
0
  0
ENDTAB
  0
TABLE
  2
APPID
  5
3
330
0
100
AcDbSymbolTable
 70
3
  0
APPID
  5
2A
330
3
100
AcDbSymbolTableRecord
100
AcDbRegAppTableRecord
  2
ACAD
 70
0
  0
APPID
  5
33
330
3
100
AcDbSymbolTableRecord
100
AcDbRegAppTableRecord
  2
HATCHBACKGROUNDCOLOR
 70
0
  0
APPID
  5
34
330
3
100
AcDbSymbolTableRecord
100
AcDbRegAppTableRecord
  2
EZDXF
 70
0
  0
ENDTAB
  0
TABLE
  2
DIMSTYLE
  5
4
330
0
100
AcDbSymbolTable
 70
1
100
AcDbDimStyleTable
  0
DIMSTYLE
105
2B
330
4
100
AcDbSymbolTableRecord
100
AcDbDimStyleTableRecord
  2
Standard
 70
0
 40
1.0
 41
2.5
 42
0.625
 43
3.75
 44
1.25
 45
0.0
 46
0.0
 47
0.0
 48
0.0
 49
2.5
140
2.5
141
2.5
142
0.0
143
0.03937007874
144
1.0
145
0.0
146
1.0
147
0.625
148
0.0
 69
0
 70
0
 71
0
 72
0
 73
0
 74
0
 75
0
 76
0
 77
1
 78
8
 79
3
170
0
171
3
172
1
173
0
174
0
175
0
176
0
177
0
178
0
179
2
271
2
272
2
273
2
274
3
275
0
276
0
277
2
278
44
279
0
280
0
281
0
282
0
283
0
284
8
285
0
286
0
288
0
289
3
290
0
371
-2
372
-2
  0
ENDTAB
  0
TABLE
  2
BLOCK_RECORD
  5
9
330
0
100
AcDbSymbolTable
 70
2
  0
BLOCK_RECORD
  5
17
330
9
100
AcDbSymbolTableRecord
100
AcDbBlockTableRecord
  2
*Model_Space
340
1A
 70
0
280
1
281
0
  0
BLOCK_RECORD
  5
1B
330
9
100
AcDbSymbolTableRecord
100
AcDbBlockTableRecord
  2
*Paper_Space
340
1E
 70
0
280
1
281
0
  0
ENDTAB
  0
ENDSEC
  0
SECTION
  2
BLOCKS
  0
BLOCK
  5
18
330
17
100
AcDbEntity
  8
0
100
AcDbBlockBegin
  2
*Model_Space
 70
0
 10
0.0
 20
0.0
 30
0.0
  3
*Model_Space
  1

  0
ENDBLK
  5
19
330
17
100
AcDbEntity
  8
0
100
AcDbBlockEnd
  0
BLOCK
  5
1C
330
1B
100
AcDbEntity
  8
0
100
AcDbBlockBegin
  2
*Paper_Space
 70
0
 10
0.0
 20
0.0
 30
0.0
  3
*Paper_Space
  1

  0
ENDBLK
  5
1D
330
1B
100
AcDbEntity
  8
0
100
AcDbBlockEnd
  0
ENDSEC
  0
SECTION
  2
ENTITIES
  0
LWPOLYLINE
  5
32
330
17
100
AcDbEntity
  8
OUTER
100
AcDbPolyline
 90
754
 70
1
 10
142.0
 20
165.7
 10
141.84420166015624
 20
165.83643798828126
 10
141.77315673828124
 20
165.89931640625
 10
141.68896484375
 20
165.97462158203126
 10
141.59161376953125
 20
166.06270751953124
 10
141.50333251953126
 20
166.1445556640625
 10
141.41328125
 20
166.22996826171874
 10
141.32410888671876
 20
166.31685791015624
 10
141.23756103515626
 20
166.4031494140625
 10
141.15245361328124
 20
166.4888916015625
 10
141.06910400390626
 20
166.5734619140625
 10
140.9875
 20
166.65660400390624
 10
140.90675048828126
 20
166.73826904296874
 10
140.82603759765624
 20
166.81904296875
 10
140.74443359375
 20
166.8995361328125
 10
140.66195068359374
 20
166.98033447265624
 10
140.5785888671875
 20
167.0622802734375
 10
140.49437255859374
 20
167.14539794921876
 10
140.40927734375
 20
167.2296875
 10
140.32330322265625
 20
167.31513671875
 10
140.23643798828124
 20
167.40146484375
 10
140.14871826171876
 20
167.48837890625
 10
140.05982666015626
 20
167.5755859375
 10
139.96947021484374
 20
167.66279296875
 10
139.8773681640625
 20
167.74970703125
 10
139.7832275390625
 20
167.8357421875
 10
139.68734130859374
 20
167.92032470703126
 10
139.59000244140626
 20
168.003125
 10
139.49149169921876
 20
168.08392333984375
 10
139.39208984375
 20
168.16209716796874
 10
139.2921142578125
 20
168.2370361328125
 10
139.1921630859375
 20
168.30908203125
 10
139.0927734375
 20
168.37908935546875
 10
138.99425048828124
 20
168.4476318359375
 10
138.89691162109375
 20
168.51441650390626
 10
138.80103759765626
 20
168.5791748046875
 10
138.70689697265624
 20
168.64217529296874
 10
138.61478271484376
 20
168.70372314453124
 10
138.52413330078124
 20
168.76322021484376
 10
138.434375
 20
168.81981201171874
 10
138.34490966796875
 20
168.87349853515624
 10
138.25513916015626
 20
168.9251220703125
 10
138.16448974609375
 20
168.97559814453126
 10
138.07237548828124
 20
169.02576904296876
 10
137.9782470703125
 20
169.07623291015625
 10
137.88236083984376
 20
169.1278564453125
 10
137.78502197265624
 20
169.18153076171876
 10
137.68651123046874
 20
169.23695068359376
 10
137.587109375
 20
169.2935546875
 10
137.4871337890625
 20
169.35072021484376
 10
137.3868896484375
 20
169.40732421875
 10
137.28662109375
 20
169.46302490234376
 10
137.1863525390625
 20
169.517578125
 10
137.0861083984375
 20
169.5709716796875
 10
136.98583984375
 20
169.6243408203125
 10
136.8855712890625
 20
169.67918701171874
 10
136.7853271484375
 20
169.7369384765625
 10
136.68505859375
 20
169.79935302734376
 10
136.58477783203125
 20
169.8670166015625
 10
136.48453369140626
 20
169.94051513671874
 10
136.38426513671874
 20
170.01986083984374
 10
136.28428955078124
 20
170.1041259765625
 10
136.18489990234374
 20
170.1916259765625
 10
136.08638916015624
 20
170.2805908203125
 10
135.9890380859375
 20
170.36895751953125
 10
135.89315185546874
 20
170.45587158203125
 10
135.79901123046875
 20
170.54044189453126
 10
135.70692138671876
 20
170.62181396484374
 10
135.61627197265625
 20
170.69940185546875
 10
135.52679443359375
 20
170.77376708984374
 10
135.43819580078124
 20
170.84522705078126
 10
135.35018310546874
 20
170.91494140625
 10
135.26246337890626
 20
170.983203125
 10
135.1747314453125
 20
171.05028076171874
 10
135.08671875
 20
171.1173583984375
 10
134.9989990234375
 20
171.1853271484375
 10
134.9112548828125
 20
171.25413818359374
 10
134.82353515625
 20
171.32471923828126
 10
134.7358154296875
 20
171.39677734375
 10
134.6480712890625
 20
171.47027587890625
 10
134.56036376953125
 20
171.54493408203126
 10
134.4726318359375
 20
171.6196044921875
 10
134.38460693359374
 20
171.6939697265625
 10
134.29688720703126
 20
171.76776123046875
 10
134.2091552734375
 20
171.83980712890624
 10
134.12115478515625
 20
171.9097900390625
 10
134.0325439453125
 20
171.9774658203125
 10
133.94307861328124
 20
172.0430908203125
 10
133.85242919921876
 20
172.10697021484376
 10
133.7603271484375
 20
172.1682373046875
 10
133.66619873046875
 20
172.22657470703126
 10
133.57030029296874
 20
172.2820068359375
 10
133.47294921875
 20
172.33450927734376
 10
133.3744384765625
 20
172.3838134765625
 10
133.27503662109376
 20
172.42960205078126
 10
133.17508544921876
 20
172.47249755859374
 10
133.07481689453124
 20
172.51422119140625
 10
132.97454833984375
 20
172.55653076171876
 10
132.8742919921875
 20
172.60115966796874
 10
132.77403564453124
 20
172.6489990234375
 10
132.6737548828125
 20
172.70150146484374
 10
132.5735107421875
 20
172.75897216796875
 10
132.47325439453124
 20
172.82081298828126
 10
132.3729736328125
 20
172.88526611328126
 10
132.2727294921875
 20
172.9497314453125
 10
132.1724609375
 20
173.01126708984376
 10
132.0721923828125
 20
173.0681640625
 10
131.9719482421875
 20
173.11834716796875
 10
131.8716796875
 20
173.1615234375
 10
131.7714111328125
 20
173.19769287109375
 10
131.6711669921875
 20
173.22774658203124
 10
131.57088623046874
 20
173.25343017578126
 10
131.4706298828125
 20
173.2770751953125
 10
131.37037353515626
 20
173.30013427734374
 10
131.27010498046874
 20
173.3240966796875
 10
131.16983642578126
 20
173.3491943359375
 10
131.06956787109374
 20
173.37545166015624
 10
130.9693115234375
 20
173.40289306640625
 10
130.86905517578126
 20
173.43118896484376
 10
130.7687744140625
 20
173.4597900390625
 10
130.6685302734375
 20
173.48839111328124
 10
130.56826171875
 20
173.51669921875
 10
130.4679931640625
 20
173.5447265625
 10
130.3677490234375
 20
173.57303466796876
 10
130.26746826171876
 20
173.60135498046876
 10
130.1672119140625
 20
173.62935791015624
 10
130.06695556640625
 20
173.65679931640625
 10
129.96668701171876
 20
173.68336181640626
 10
129.8667236328125
 20
173.70875244140626
 10
129.76761474609376
 20
173.73265380859374
 10
129.66854248046874
 20
173.75540771484376
 10
129.57149658203124
 20
173.77696533203124
 10
129.4785400390625
 20
173.79730224609375
 10
129.37828369140624
 20
173.82093505859376
 10
129.29234619140624
 20
173.84146728515626
 10
129.2204345703125
 20
173.8591552734375
 10
129.06433205035395
 20
173.90228299437067
 10
125.65276895681234
 20
173.30073237459004
 10
125.49444580078125
 20
173.27193603515624
 10
125.4215087890625
 20
173.26103515625
 10
125.3343505859375
 20
173.2491455078125
 10
125.23265380859375
 20
173.23629150390624
 10
125.13837890625
 20
173.22769775390626
 10
125.03994140625
 20
173.22037353515626
 10
124.93944091796875
 20
173.21439208984376
 10
124.83892822265625
 20
173.2098876953125
 10
124.7375244140625
 20
173.2060546875
 10
124.63583984375
 20
173.20252685546876
 10
124.5341552734375
 20
173.19871826171874
 10
124.4324462890625
 20
173.19315185546876
 10
124.33077392578124
 20
173.185546875
 10
124.2290771484375
 20
173.1753173828125
 10
124.12738037109375
 20
173.16190185546876
 10
124.02569580078125
 20
173.1446533203125
 10
123.9239990234375
 20
173.12364501953124
 10
123.82232666015625
 20
173.09970703125
 10
123.72061767578126
 20
173.07373046875
 10
123.6189208984375
 20
173.0457275390625
 10
123.51724853515626
 20
173.01624755859376
 10
123.41553955078125
 20
172.9859130859375
 10
123.3138427734375
 20
172.9552734375
 10
123.21217041015625
 20
172.9249267578125
 10
123.11046142578125
 20
172.8943115234375
 10
123.00877685546875
 20
172.86365966796876
 10
122.90709228515625
 20
172.83331298828125
 10
122.80567626953125
 20
172.80352783203125
 10
122.70517578125
 20
172.7745361328125
 10
122.60467529296875
 20
172.7455322265625
 10
122.50623779296875
 20
172.7166259765625
 10
122.41197509765625
 20
172.6887939453125
 10
122.31026611328124
 20
172.65640869140626
 10
122.22310791015624
 20
172.62818603515626
 10
122.1501708984375
 20
172.6038818359375
 10
121.99184894689775
 20
172.54622691926957
 10
112.81274778378831
 20
170.92770372556092
 10
112.65584716796874
 20
170.8721923828125
 10
112.58355712890625
 20
170.848828125
 10
112.49718017578125
 20
170.82200927734374
 10
112.39639892578126
 20
170.79173583984374
 10
112.3029541015625
 20
170.76611328125
 10
112.20543212890625
 20
170.7397705078125
 10
112.10582275390625
 20
170.71295166015625
 10
112.0062255859375
 20
170.68583984375
 10
111.90574951171875
 20
170.6572998046875
 10
111.80496826171876
 20
170.6270263671875
 10
111.70418701171874
 20
170.59443359375
 10
111.60340576171875
 20
170.55977783203124
 10
111.50262451171875
 20
170.52340087890624
 10
111.40213623046876
 20
170.4855224609375
 10
111.30252685546876
 20
170.4464599609375
 10
111.20291748046876
 20
170.4056396484375
 10
111.10537109375
 20
170.36414794921876
 10
111.0119384765625
 20
170.3236328125
 10
110.9111572265625
 20
170.27762451171876
 10
110.8247802734375
 20
170.23739013671874
 10
110.75250244140625
 20
170.2029541015625
 10
110.59559102261296
 20
170.12500455329828
 10
107.60054705560268
 20
169.59689749350625
 10
107.4466552734375
 20
169.48094482421874
 10
107.3757568359375
 20
169.43018798828126
 10
107.29102783203125
 20
169.3706787109375
 10
107.19217529296876
 20
169.30235595703124
 10
107.10052490234375
 20
169.24208984375
 10
107.00484619140624
 20
169.1803955078125
 10
106.90714111328126
 20
169.1177001953125
 10
106.8094482421875
 20
169.0552978515625
 10
106.71087646484375
 20
168.99224853515625
 10
106.61202392578124
 20
168.9288818359375
 10
106.51317138671875
 20
168.86551513671876
 10
106.4143310546875
 20
168.80216064453126
 10
106.31546630859376
 20
168.7390869140625
 10
106.2166259765625
 20
168.6774658203125
 10
106.1177734375
 20
168.6176025390625
 10
106.0192138671875
 20
168.5589111328125
 10
105.921240234375
 20
168.5013916015625
 10
105.82413330078126
 20
168.44443359375
 10
105.7281982421875
 20
168.38807373046876
 10
105.6337158203125
 20
168.33170166015626
 10
105.5409912109375
 20
168.27445068359376
 10
105.45028076171874
 20
168.21546630859376
 10
105.3610595703125
 20
168.15504150390626
 10
105.27269287109375
 20
168.09342041015626
 10
105.1846435546875
 20
168.0312255859375
 10
105.09627685546874
 20
167.9687255859375
 10
105.0070556640625
 20
167.90623779296874
 10
104.91636962890625
 20
167.8443359375
 10
104.82364501953126
 20
167.78448486328125
 10
104.72916259765626
 20
167.726953125
 10
104.6332275390625
 20
167.67147216796874
 10
104.53612060546875
 20
167.61741943359374
 10
104.43814697265626
 20
167.56427001953125
 10
104.33958740234375
 20
167.51229248046874
 10
104.24073486328125
 20
167.4611572265625
 10
104.14188232421876
 20
167.40946044921876
 10
104.04302978515625
 20
167.35689697265624
 10
103.94417724609374
 20
167.30316162109375
 10
103.84532470703125
 20
167.248828125
 10
103.74647216796875
 20
167.1945068359375
 10
103.64761962890626
 20
167.13961181640624
 10
103.5490478515625
 20
167.08382568359374
 10
103.45135498046875
 20
167.02813720703125
 10
103.35364990234375
 20
166.9709716796875
 10
103.2579833984375
 20
166.9139404296875
 10
103.16632080078125
 20
166.8577392578125
 10
103.06746826171874
 20
166.79234619140624
 10
102.9827392578125
 20
166.73486328125
 10
102.91185302734375
 20
166.68558349609376
 10
102.75794515570647
 20
166.57137669190703
 10
95.35314795367852
 20
165.265711158515
 10
95.18822021484375
 20
165.1715576171875
 10
95.11223754882812
 20
165.13121337890624
 10
95.021435546875
 20
165.08433837890624
 10
94.91549682617188
 20
165.03089599609376
 10
94.81727905273438
 20
164.9846923828125
 10
94.71474609375
 20
164.9375
 10
94.61004028320312
 20
164.88934326171875
 10
94.50533447265624
 20
164.84119873046876
 10
94.39970703125
 20
164.7927490234375
 10
94.29376831054688
 20
164.7442626953125
 10
94.18783569335938
 20
164.69580078125
 10
94.08189086914062
 20
164.64820556640626
 10
93.97595825195313
 20
164.60147705078126
 10
93.87001953125
 20
164.55679931640626
 10
93.76407470703126
 20
164.51416015625
 10
93.65814208984375
 20
164.4726806640625
 10
93.552197265625
 20
164.43150634765624
 10
93.44625854492188
 20
164.39061279296874
 10
93.34032592773437
 20
164.34884033203124
 10
93.23438720703125
 20
164.30592041015626
 10
93.12844848632812
 20
164.26065673828126
 10
93.022509765625
 20
164.2130615234375
 10
92.91656494140625
 20
164.1631103515625
 10
92.81063232421874
 20
164.11143798828124
 10
92.7046875
 20
164.05743408203125
 10
92.59874877929687
 20
164.00166015625
 10
92.492822265625
 20
163.94473876953126
 10
92.38687744140626
 20
163.8875244140625
 10
92.28094482421875
 20
163.83001708984375
 10
92.175
 20
163.77281494140624
 10
92.06906127929688
 20
163.7161865234375
 10
91.963134765625
 20
163.66129150390626
 10
91.85718994140625
 20
163.60843505859376
 10
91.75125122070312
 20
163.5570556640625
 10
91.6453125
 20
163.50625
 10
91.53937377929688
 20
163.4554443359375
 10
91.43344116210938
 20
163.40377197265624
 10
91.32749633789062
 20
163.35064697265625
 10
91.22185668945312
 20
163.29515380859374
 10
91.11679077148438
 20
163.2364990234375
 10
91.01259765625
 20
163.17489013671874
 10
90.90957641601562
 20
163.1112548828125
 10
90.80801391601562
 20
163.04617919921876
 10
90.70819091796875
 20
162.9804931640625
 10
90.61041259765625
 20
162.91424560546875
 10
90.51409301757812
 20
162.84739990234374
 10
90.4189453125
 20
162.78056640625
 10
90.32467041015624
 20
162.7131591796875
 10
90.23098754882812
 20
162.6442626953125
 10
90.13757934570313
 20
162.5736328125
 10
90.04417724609375
 20
162.500390625
 10
89.95048217773437
 20
162.4248046875
 10
89.857080078125
 20
162.34718017578126
 10
89.76367797851563
 20
162.26751708984375
 10
89.66998901367188
 20
162.1866943359375
 10
89.57571411132812
 20
162.10556640625
 10
89.48055419921874
 20
162.0247314453125
 10
89.38423461914063
 20
161.94478759765624
 10
89.28646850585938
 20
161.8654052734375
 10
89.18665161132813
 20
161.78631591796875
 10
89.08508911132813
 20
161.70723876953124
 10
88.98206787109375
 20
161.62784423828126
 10
88.878173828125
 20
161.54788818359376
 10
88.77398681640625
 20
161.4670654296875
 10
88.67008666992187
 20
161.38563232421876
 10
88.56705932617187
 20
161.3039306640625
 10
88.46550903320312
 20
161.22222900390625
 10
88.36568603515624
 20
161.14080810546875
 10
88.267919921875
 20
161.05909423828126
 10
88.17159423828124
 20
160.97681884765626
 10
88.07644653320312
 20
160.89364013671874
 10
87.98216552734375
 20
160.80902099609375
 10
87.88847045898437
 20
160.72294921875
 10
87.79507446289062
 20
160.63541259765626
 10
87.70167236328125
 20
160.5464111328125
 10
87.60827026367187
 20
160.4568359375
 10
87.51574096679687
 20
160.3666748046875
 10
87.42409057617188
 20
160.27591552734376
 10
87.33331298828125
 20
160.1845947265625
 10
87.243701171875
 20
160.09239501953124
 10
87.15554809570312
 20
159.9990234375
 10
87.06914672851562
 20
159.90419921875
 10
86.98389892578125
 20
159.80733642578124
 10
86.89924926757813
 20
159.7087158203125
 10
86.81546630859376
 20
159.60863037109374
 10
86.73285522460938
 20
159.5073974609375
 10
86.65082397460938
 20
159.4052734375
 10
86.56879272460938
 20
159.30260009765624
 10
86.48646850585938
 20
159.19959716796876
 10
86.40473022460938
 20
159.09659423828126
 10
86.32386474609375
 20
158.99361572265624
 10
86.24386596679688
 20
158.890625
 10
86.16474609375
 20
158.78763427734376
 10
86.08766479492188
 20
158.68465576171874
 10
86.01380615234375
 20
158.58165283203124
 10
85.94343872070313
 20
158.47896728515624
 10
85.8759765625
 20
158.37685546875
 10
85.81085205078125
 20
158.27559814453124
 10
85.74777221679688
 20
158.17552490234374
 10
85.68644409179687
 20
158.0769287109375
 10
85.62569580078124
 20
157.9800537109375
 10
85.56436157226562
 20
157.88521728515624
 10
85.50245361328125
 20
157.79183349609374
 10
85.43995361328125
 20
157.6993408203125
 10
85.37774658203125
 20
157.6071533203125
 10
85.31612548828124
 20
157.51466064453126
 10
85.25537719726563
 20
157.4212890625
 10
85.19608764648437
 20
157.32646484375
 10
85.13883666992187
 20
157.22958984375
 10
85.08333740234374
 20
157.13096923828124
 10
85.02987670898438
 20
157.0308837890625
 10
84.977587890625
 20
156.9296630859375
 10
84.92587890625
 20
156.8275390625
 10
84.874169921875
 20
156.72484130859374
 10
84.82186889648438
 20
156.62186279296876
 10
84.76869506835938
 20
156.51885986328125
 10
84.71465454101562
 20
156.41588134765624
 10
84.65973510742188
 20
156.312890625
 10
84.60482788085938
 20
156.2098876953125
 10
84.55048828125
 20
156.1072021484375
 10
84.49760131835937
 20
156.005078125
 10
84.44676513671875
 20
155.9038330078125
 10
84.39796752929688
 20
155.80377197265625
 10
84.351220703125
 20
155.7051513671875
 10
84.30563354492188
 20
155.60828857421876
 10
84.26033935546874
 20
155.5134521484375
 10
84.2150390625
 20
155.4200927734375
 10
84.16885986328126
 20
155.32757568359375
 10
84.12152709960938
 20
155.2353759765625
 10
84.07301635742188
 20
155.14288330078125
 10
84.02335205078126
 20
155.04952392578124
 10
83.97339477539063
 20
154.9546875
 10
83.92345581054687
 20
154.85811767578124
 10
83.87385864257813
 20
154.76070556640624
 10
83.82425537109376
 20
154.6618408203125
 10
83.77564697265625
 20
154.56390380859375
 10
83.72904052734376
 20
154.46927490234376
 10
83.67820434570312
 20
154.36658935546876
 10
83.63433227539062
 20
154.2783203125
 10
83.59741821289063
 20
154.20445556640624
 10
83.51586864346307
 20
154.04410378735219
 10
87.18849511032161
 20
133.21560407561046
 10
87.20855712890625
 20
133.0629150390625
 10
87.21937866210938
 20
132.9926025390625
 10
87.23319091796876
 20
132.9085693359375
 10
87.25032958984374
 20
132.81051025390624
 10
87.26867065429687
 20
132.71988525390626
 10
87.28882446289063
 20
132.6260986328125
 10
87.31007080078125
 20
132.5303466796875
 10
87.33139038085938
 20
132.43658447265625
 10
87.35206909179688
 20
132.34595947265626
 10
87.37300415039063
 20
132.24788818359374
 10
87.39060668945312
 20
132.1638427734375
 10
87.40463256835938
 20
132.09349365234374
 10
87.43168917783534
 20
131.94085305319055
 10
87.84913529434549
 20
129.57339848195647
 10
87.93594970703126
 20
129.41112060546874
 10
87.97429809570312
 20
129.33634033203126
 10
88.01929931640625
 20
129.24698486328126
 10
88.07127685546875
 20
129.14273681640626
 10
88.11786499023438
 20
129.04609375
 10
88.16627807617188
 20
128.9451904296875
 10
88.21591186523438
 20
128.84215087890624
 10
88.26611328125
 20
128.73912353515624
 10
88.31749267578125
 20
128.63516845703126
 10
88.37034301757812
 20
128.5309326171875
 10
88.42435913085937
 20
128.42667236328126
 10
88.479541015625
 20
128.3224365234375
 10
88.53646850585938
 20
128.21817626953126
 10
88.59486694335938
 20
128.1139404296875
 10
88.65413208007813
 20
128.00966796875
 10
88.71397705078125
 20
127.90543212890626
 10
88.77411499023438
 20
127.801171875
 10
88.83425903320312
 20
127.69691162109375
 10
88.89351806640624
 20
127.59266357421875
 10
88.95103149414062
 20
127.48841552734375
 10
89.00679321289063
 20
127.38416748046875
 10
89.06168212890626
 20
127.2799072265625
 10
89.11657104492187
 20
127.17567138671875
 10
89.17175903320313
 20
127.0714111328125
 10
89.22840576171875
 20
126.9671630859375
 10
89.28795776367187
 20
126.8629150390625
 10
89.35100708007812
 20
126.7586669921875
 10
89.41814575195312
 20
126.6544189453125
 10
89.48877563476563
 20
126.5501708984375
 10
89.56203002929688
 20
126.4459228515625
 10
89.63732299804687
 20
126.3416748046875
 10
89.71322021484374
 20
126.2377197265625
 10
89.78822021484375
 20
126.1343505859375
 10
89.861767578125
 20
126.03184814453125
 10
89.93270263671874
 20
125.93050537109374
 10
90.00099487304688
 20
125.8306396484375
 10
90.06754760742187
 20
125.73250732421874
 10
90.13323364257812
 20
125.63642578125
 10
90.19920043945312
 20
125.541796875
 10
90.26661987304688
 20
125.44805908203125
 10
90.33638305664063
 20
125.35458984375
 10
90.40964965820312
 20
125.26083984375
 10
90.48670043945313
 20
125.1662109375
 10
90.56695556640625
 20
125.0701171875
 10
90.64983520507812
 20
124.9719970703125
 10
90.73474731445313
 20
124.87213134765625
 10
90.82112426757813
 20
124.77108154296874
 10
90.90867309570312
 20
124.66944580078125
 10
90.99708251953125
 20
124.56783447265624
 10
91.086083984375
 20
124.466796875
 10
91.17567138671875
 20
124.3669189453125
 10
91.26585083007812
 20
124.26881103515625
 10
91.35659790039062
 20
124.17271728515625
 10
91.44793090820312
 20
124.07838134765625
 10
91.53926391601563
 20
123.98548583984375
 10
91.63001098632813
 20
123.89378662109375
 10
91.72046508789063
 20
123.80323486328125
 10
91.81092529296875
 20
123.71414794921876
 10
91.90167846679688
 20
123.62679443359374
 10
91.99271850585937
 20
123.54150390625
 10
92.08405151367188
 20
123.45853271484376
 10
92.17597045898438
 20
123.3784912109375
 10
92.26876220703124
 20
123.3022216796875
 10
92.36185302734376
 20
123.22974853515625
 10
92.454638671875
 20
123.1601806640625
 10
92.54655151367187
 20
123.09266357421875
 10
92.637890625
 20
123.02662353515625
 10
92.72892456054687
 20
122.96202392578125
 10
92.819970703125
 20
122.89801025390625
 10
92.91130981445312
 20
122.83311767578125
 10
93.00352172851562
 20
122.7670654296875
 10
93.09717407226563
 20
122.7004150390625
 10
93.19288330078125
 20
122.63408203125
 10
93.29034423828125
 20
122.56800537109375
 10
93.3892578125
 20
122.50196533203125
 10
93.48934326171874
 20
122.4367919921875
 10
93.59029541015624
 20
122.37335205078125
 10
93.69183349609375
 20
122.31165771484375
 10
93.79366455078124
 20
122.2514404296875
 10
93.89549560546875
 20
122.19150390625
 10
93.99732055664063
 20
122.1318603515625
 10
94.09915161132812
 20
122.07279052734376
 10
94.2009765625
 20
122.01373291015625
 10
94.30280151367188
 20
121.95496826171875
 10
94.40463256835938
 20
121.89677734375
 10
94.50646362304687
 20
121.83946533203125
 10
94.60829467773438
 20
121.78448486328125
 10
94.71011962890626
 20
121.73214111328124
 10
94.81195068359375
 20
121.68212890625
 10
94.91378173828124
 20
121.63443603515626
 10
95.01561279296875
 20
121.5882080078125
 10
95.11744384765625
 20
121.54344482421875
 10
95.21927490234376
 20
121.50010986328125
 10
95.32110595703125
 20
121.45709228515625
 10
95.42293701171874
 20
121.4140625
 10
95.52476196289062
 20
121.37103271484375
 10
95.62659301757813
 20
121.32801513671875
 10
95.72841796875
 20
121.28529052734375
 10
95.83024291992187
 20
121.24227294921874
 10
95.93207397460938
 20
121.1986572265625
 10
96.03390502929688
 20
121.1550537109375
 10
96.13573608398437
 20
121.11201171875
 10
96.23756103515625
 20
121.07015380859374
 10
96.33939208984376
 20
121.03004150390625
 10
96.44122314453125
 20
120.99197998046876
 10
96.54305419921874
 20
120.95655517578125
 10
96.64488525390625
 20
120.92373046875
 10
96.74671630859375
 20
120.89354248046875
 10
96.84854736328126
 20
120.86536865234375
 10
96.95037841796875
 20
120.83868408203125
 10
97.05220336914063
 20
120.81256103515625
 10
97.15403442382812
 20
120.7870361328125
 10
97.255859375
 20
120.7620849609375
 10
97.35768432617188
 20
120.7380126953125
 10
97.45951538085937
 20
120.71424560546875
 10
97.56134643554688
 20
120.69044189453125
 10
97.66317749023438
 20
120.66607666015625
 10
97.76500244140625
 20
120.64141845703125
 10
97.86683349609375
 20
120.61590576171875
 10
97.96866455078126
 20
120.58890380859376
 10
98.07049560546875
 20
120.55987548828125
 10
98.17232666015624
 20
120.52939453125
 10
98.27415771484375
 20
120.498046875
 10
98.37598876953125
 20
120.46727294921875
 10
98.47781982421876
 20
120.43763427734375
 10
98.57964477539062
 20
120.409765625
 10
98.68147583007813
 20
120.38421630859375
 10
98.78330078125
 20
120.36162109375
 10
98.88512573242187
 20
120.34163818359374
 10
98.98695678710938
 20
120.32398681640625
 10
99.08878784179687
 20
120.30748291015625
 10
99.19061889648438
 20
120.2912841796875
 10
99.29244384765624
 20
120.2753662109375
 10
99.39427490234375
 20
120.2597412109375
 10
99.49610595703125
 20
120.24412841796875
 10
99.59764404296875
 20
120.228515625
 10
99.69828491210937
 20
120.2129638671875
 10
99.79892578125
 20
120.1968017578125
 10
99.89749755859376
 20
120.1807373046875
 10
99.99190063476563
 20
120.16453857421875
 10
100.09373779296875
 20
120.14310302734376
 10
100.18101196289062
 20
120.12369384765626
 10
100.25404663085938
 20
120.10635986328126
 10
100.41257300920577
 20
120.06156673951163
 10
139.2682609564664
 20
126.91287287860239
 10
139.42410888671876
 20
127.0191162109375
 10
139.49588623046876
 20
127.0656982421875
 10
139.58167724609376
 20
127.12015380859376
 10
139.68177490234376
 20
127.18311767578125
 10
139.77459716796875
 20
127.23919677734375
 10
139.87147216796876
 20
127.2971435546875
 10
139.97039794921875
 20
127.35540771484375
 10
140.0693359375
 20
127.41251220703126
 10
140.169140625
 20
127.47022705078125
 10
140.26922607421875
 20
127.52823486328126
 10
140.36929931640626
 20
127.5853759765625
 10
140.46937255859376
 20
127.64134521484375
 10
140.56947021484376
 20
127.69586181640625
 10
140.66956787109376
 20
127.74920654296875
 10
140.76966552734376
 20
127.801953125
 10
140.8697509765625
 20
127.8538330078125
 10
140.9698486328125
 20
127.9048583984375
 10
141.06993408203124
 20
127.95587158203125
 10
141.17003173828124
 20
128.00745849609376
 10
141.27012939453124
 20
128.06021728515626
 10
141.37022705078124
 20
128.11473388671874
 10
141.47032470703124
 20
128.17069091796876
 10
141.57042236328124
 20
128.228125
 10
141.67052001953124
 20
128.28701171875
 10
141.77061767578124
 20
128.34705810546876
 10
141.87071533203124
 20
128.4079833984375
 10
141.97081298828124
 20
128.46949462890626
 10
142.07091064453124
 20
128.53070068359375
 10
142.17100830078124
 20
128.5919189453125
 10
142.27110595703124
 20
128.65313720703125
 10
142.37091064453125
 20
128.71435546875
 10
142.47012939453126
 20
128.77586669921874
 10
142.5684814453125
 20
128.8382568359375
 10
142.6656494140625
 20
128.90208740234374
 10
142.7613525390625
 20
128.96795654296875
 10
142.8553466796875
 20
129.03531494140626
 10
142.94698486328124
 20
129.10439453125
 10
143.0365966796875
 20
129.1755126953125
 10
143.1244384765625
 20
129.2484130859375
 10
143.21053466796874
 20
129.32215576171876
 10
143.29488525390624
 20
129.39591064453126
 10
143.37747802734376
 20
129.4696533203125
 10
143.4583251953125
 20
129.54459228515626
 10
143.5383056640625
 20
129.6209716796875
 10
143.61741943359374
 20
129.6988037109375
 10
143.69564208984374
 20
129.77838134765625
 10
143.77359619140626
 20
129.86029052734375
 10
143.8518310546875
 20
129.94512939453125
 10
143.9306396484375
 20
130.0325927734375
 10
144.01002197265626
 20
130.12149658203126
 10
144.0891357421875
 20
130.21097412109376
 10
144.1670654296875
 20
130.30107421875
 10
144.24295654296876
 20
130.3917236328125
 10
144.31593017578126
 20
130.4826904296875
 10
144.38511962890624
 20
130.5736328125
 10
144.4502197265625
 20
130.6645751953125
 10
144.5118408203125
 20
130.7558349609375
 10
144.5708251953125
 20
130.84736328125
 10
144.62864990234374
 20
130.93831787109374
 10
144.68677978515626
 20
131.02783203125
 10
144.74576416015626
 20
131.11585693359376
 10
144.80592041015626
 20
131.20242919921876
 10
144.86722412109376
 20
131.28756103515624
 10
144.9288330078125
 20
131.37122802734376
 10
144.9895751953125
 20
131.45430908203124
 10
145.0482666015625
 20
131.53797607421876
 10
145.10347900390624
 20
131.62340087890624
 10
145.1548828125
 20
131.71083984375
 10
145.20277099609376
 20
131.80062255859374
 10
145.24776611328124
 20
131.8930419921875
 10
145.29073486328124
 20
131.98836669921874
 10
145.33309326171874
 20
132.08603515625
 10
145.3757568359375
 20
132.18543701171876
 10
145.42015380859374
 20
132.2860107421875
 10
145.46689453125
 20
132.38746337890626
 10
145.51624755859376
 20
132.48948974609374
 10
145.5673828125
 20
132.5918212890625
 10
145.6193603515625
 20
132.694140625
 10
145.6713623046875
 20
132.7964599609375
 10
145.72247314453125
 20
132.89879150390624
 10
145.7715576171875
 20
133.00111083984376
 10
145.8177001953125
 20
133.1034423828125
 10
145.8600830078125
 20
133.20576171875
 10
145.8995361328125
 20
133.3080810546875
 10
145.9369384765625
 20
133.41041259765626
 10
145.97232666015626
 20
133.51273193359376
 10
146.00653076171875
 20
133.6150634765625
 10
146.04044189453126
 20
133.7173828125
 10
146.07464599609375
 20
133.8197021484375
 10
146.11002197265626
 20
133.92203369140626
 10
146.1462646484375
 20
134.02435302734375
 10
146.18309326171874
 20
134.1266845703125
 10
146.22109375
 20
134.22900390625
 10
146.25966796875
 20
134.3313232421875
 10
146.29853515625
 20
134.43365478515625
 10
146.33798828125
 20
134.53597412109374
 10
146.37744140625
 20
134.6383056640625
 10
146.41689453125
 20
134.740625
 10
146.4560546875
 20
134.8429443359375
 10
146.49462890625
 20
134.94527587890624
 10
146.533203125
 20
135.04759521484374
 10
146.57149658203124
 20
135.1499267578125
 10
146.6092041015625
 20
135.25224609375
 10
146.64691162109375
 20
135.3545654296875
 10
146.68463134765625
 20
135.45689697265624
 10
146.72291259765626
 20
135.55921630859376
 10
146.76148681640626
 20
135.6615478515625
 10
146.80006103515626
 20
135.7638671875
 10
146.83922119140624
 20
135.8661865234375
 10
146.87867431640626
 20
135.96851806640626
 10
146.9178466796875
 20
136.07083740234376
 10
146.9564208984375
 20
136.1731689453125
 10
146.9938232421875
 20
136.27548828125
 10
147.0306396484375
 20
136.3778076171875
 10
147.06690673828126
 20
136.48013916015626
 10
147.1022705078125
 20
136.58245849609375
 10
147.13734130859376
 20
136.6847900390625
 10
147.1730224609375
 20
136.787109375
 10
147.20985107421876
 20
136.8894287109375
 10
147.2487060546875
 20
136.99176025390625
 10
147.2893310546875
 20
137.09407958984374
 10
147.3314208984375
 20
137.1964111328125
 10
147.37464599609376
 20
137.29873046875
 10
147.4187744140625
 20
137.4010498046875
 10
147.46260986328124
 20
137.50338134765624
 10
147.50555419921875
 20
137.60570068359374
 10
147.54617919921876
 20
137.7080322265625
 10
147.58387451171876
 20
137.8103515625
 10
147.61895751953125
 20
137.9126708984375
 10
147.65169677734374
 20
138.01500244140624
 10
147.68153076171876
 20
138.11732177734376
 10
147.7087646484375
 20
138.2196533203125
 10
147.7333251953125
 20
138.32197265625
 10
147.75616455078125
 20
138.4242919921875
 10
147.778125
 20
138.52662353515626
 10
147.79892578125
 20
138.62894287109376
 10
147.81826171875
 20
138.7312744140625
 10
147.83671875
 20
138.83359375
 10
147.85458984375
 20
138.9359130859375
 10
147.87218017578124
 20
139.03824462890626
 10
147.8894775390625
 20
139.14056396484375
 10
147.90560302734374
 20
139.2428955078125
 10
147.92056884765626
 20
139.34521484375
 10
147.93436279296876
 20
139.4475341796875
 10
147.9467041015625
 20
139.54986572265625
 10
147.95728759765626
 20
139.6521728515625
 10
147.96583251953126
 20
139.7545166015625
 10
147.97205810546876
 20
139.8568359375
 10
147.97652587890624
 20
139.9591552734375
 10
147.9795166015625
 20
140.06146240234375
 10
147.98135986328126
 20
140.1637939453125
 10
147.98233642578126
 20
140.2661376953125
 10
147.98272705078125
 20
140.36845703125
 10
147.98282470703126
 20
140.4707763671875
 10
147.98292236328126
 20
140.57308349609374
 10
147.98302001953124
 20
140.6754150390625
 10
147.98311767578124
 20
140.77774658203126
 10
147.98321533203125
 20
140.88006591796875
 10
147.98331298828126
 20
140.98238525390624
 10
147.98341064453126
 20
141.08470458984374
 10
147.98350830078124
 20
141.1870361328125
 10
147.98360595703124
 20
141.28935546875
 10
147.98369140625
 20
141.3916748046875
 10
147.9837890625
 20
141.49400634765624
 10
147.98388671875
 20
141.5960205078125
 10
147.983984375
 20
141.69715576171876
 10
147.98408203125
 20
141.79830322265624
 10
147.9841796875
 20
141.8973388671875
 10
147.98426513671876
 20
141.9921875
 10
147.98436279296874
 20
142.09453125
 10
147.9844482421875
 20
142.18223876953124
 10
147.98448486328124
 20
142.25562744140626
 10
147.9846338719218
 20
142.41492323510164
 10
144.3925146587381
 20
162.78684362272995
 10
144.27974853515624
 20
162.9381591796875
 10
144.22841796875
 20
163.00787353515625
 10
144.16727294921876
 20
163.0911865234375
 10
144.09569091796874
 20
163.18837890625
 10
144.02965087890624
 20
163.27850341796875
 10
143.95975341796876
 20
163.3725830078125
 10
143.88748779296876
 20
163.46864013671876
 10
143.81463623046875
 20
163.56470947265626
 10
143.74049072265626
 20
163.66163330078126
 10
143.66541748046876
 20
163.7588134765625
 10
143.59034423828126
 20
163.8560302734375
 10
143.51497802734374
 20
163.95322265625
 10
143.44019775390626
 20
164.0504150390625
 10
143.36571044921874
 20
164.1476318359375
 10
143.29034423828125
 20
164.24481201171875
 10
143.21383056640624
 20
164.3420166015625
 10
143.13582763671874
 20
164.43922119140626
 10
143.05582275390626
 20
164.53612060546874
 10
142.97403564453126
 20
164.6324462890625
 10
142.88992919921876
 20
164.7279052734375
 10
142.80377197265625
 20
164.82218017578126
 10
142.71705322265626
 20
164.9150146484375
 10
142.63035888671874
 20
165.0057861328125
 10
142.54468994140626
 20
165.09368896484375
 10
142.46046142578126
 20
165.18013916015624
 10
142.37947998046874
 20
165.26373291015625
 10
142.30382080078124
 20
165.34305419921876
 10
142.22672119140626
 20
165.4288818359375
 10
142.1617919921875
 20
165.50228271484374
 10
142.10870361328125
 20
165.5638427734375
  0
ENDSEC
  0
SECTION
  2
OBJECTS
  0
DICTIONARY
  5
A
330
0
100
AcDbDictionary
281
1
  3
ACAD_COLOR
350
B
  3
ACAD_GROUP
350
C
  3
ACAD_LAYOUT
350
D
  3
ACAD_MATERIAL
350
E
  3
ACAD_MLEADERSTYLE
350
F
  3
ACAD_MLINESTYLE
350
10
  3
ACAD_PLOTSETTINGS
350
11
  3
ACAD_PLOTSTYLENAME
350
12
  3
ACAD_SCALELIST
350
14
  3
ACAD_TABLESTYLE
350
15
  3
ACAD_VISUALSTYLE
350
16
  3
EZDXF_META
350
2D
  0
DICTIONARY
  5
B
330
A
100
AcDbDictionary
281
1
  0
DICTIONARY
  5
C
330
A
100
AcDbDictionary
281
1
  0
DICTIONARY
  5
D
330
A
100
AcDbDictionary
281
1
  3
Model
350
1A
  3
Layout1
350
1E
  0
DICTIONARY
  5
E
330
A
100
AcDbDictionary
281
1
  3
ByBlock
350
1F
  3
ByLayer
350
20
  3
Global
350
21
  0
DICTIONARY
  5
F
330
A
100
AcDbDictionary
281
1
  3
Standard
350
2C
  0
DICTIONARY
  5
10
330
A
100
AcDbDictionary
281
1
  3
Standard
350
22
  0
DICTIONARY
  5
11
330
A
100
AcDbDictionary
281
1
  0
ACDBDICTIONARYWDFLT
  5
12
330
A
100
AcDbDictionary
281
1
  3
Normal
350
13
100
AcDbDictionaryWithDefault
340
13
  0
ACDBPLACEHOLDER
  5
13
330
12
  0
DICTIONARY
  5
14
330
A
100
AcDbDictionary
281
1
  0
DICTIONARY
  5
15
330
A
100
AcDbDictionary
281
1
  0
DICTIONARY
  5
16
330
A
100
AcDbDictionary
281
1
  0
LAYOUT
  5
1A
330
D
100
AcDbPlotSettings
  1

  4
A3
  6

 40
7.5
 41
20.0
 42
7.5
 43
20.0
 44
420.0
 45
297.0
 46
0.0
 47
0.0
 48
0.0
 49
0.0
140
0.0
141
0.0
142
1.0
143
1.0
 70
1024
 72
1
 73
0
 74
5
  7

 75
16
 76
0
 77
2
 78
300
147
1.0
148
0.0
149
0.0
100
AcDbLayout
  1
Model
 70
1
 71
0
 10
0.0
 20
0.0
 11
420.0
 21
297.0
 12
0.0
 22
0.0
 32
0.0
 14
1e+20
 24
1e+20
 34
1e+20
 15
-1e+20
 25
-1e+20
 35
-1e+20
146
0.0
 13
0.0
 23
0.0
 33
0.0
 16
1.0
 26
0.0
 36
0.0
 17
0.0
 27
1.0
 37
0.0
 76
1
330
17
  0
LAYOUT
  5
1E
330
D
100
AcDbPlotSettings
  1

  4
A3
  6

 40
7.5
 41
20.0
 42
7.5
 43
20.0
 44
420.0
 45
297.0
 46
0.0
 47
0.0
 48
0.0
 49
0.0
140
0.0
141
0.0
142
1.0
143
1.0
 70
0
 72
1
 73
0
 74
5
  7

 75
16
 76
0
 77
2
 78
300
147
1.0
148
0.0
149
0.0
100
AcDbLayout
  1
Layout1
 70
1
 71
1
 10
0.0
 20
0.0
 11
420.0
 21
297.0
 12
0.0
 22
0.0
 32
0.0
 14
1e+20
 24
1e+20
 34
1e+20
 15
-1e+20
 25
-1e+20
 35
-1e+20
146
0.0
 13
0.0
 23
0.0
 33
0.0
 16
1.0
 26
0.0
 36
0.0
 17
0.0
 27
1.0
 37
0.0
 76
1
330
1B
  0
MATERIAL
  5
1F
102
{ACAD_REACTORS
330
E
102
}
330
E
100
AcDbMaterial
  1
ByBlock
  2

 70
0
 40
1.0
 71
1
 41
1.0
 91
-1023410177
 42
1.0
 72
1
  3

 73
1
 74
1
 75
1
 44
0.5
 73
0
 45
1.0
 46
1.0
 77
1
  4

 78
1
 79
1
170
1
 48
1.0
171
1
  6

172
1
173
1
174
1
140
1.0
141
1.0
175
1
  7

176
1
177
1
178
1
143
1.0
179
1
  8

270
1
271
1
272
1
145
1.0
146
1.0
273
1
  9

274
1
275
1
276
1
 42
1.0
 72
1
  3

 73
1
 74
1
 75
1
 94
63
  0
MATERIAL
  5
20
102
{ACAD_REACTORS
330
E
102
}
330
E
100
AcDbMaterial
  1
ByLayer
  2

 70
0
 40
1.0
 71
1
 41
1.0
 91
-1023410177
 42
1.0
 72
1
  3

 73
1
 74
1
 75
1
 44
0.5
 73
0
 45
1.0
 46
1.0
 77
1
  4

 78
1
 79
1
170
1
 48
1.0
171
1
  6

172
1
173
1
174
1
140
1.0
141
1.0
175
1
  7

176
1
177
1
178
1
143
1.0
179
1
  8

270
1
271
1
272
1
145
1.0
146
1.0
273
1
  9

274
1
275
1
276
1
 42
1.0
 72
1
  3

 73
1
 74
1
 75
1
 94
63
  0
MATERIAL
  5
21
102
{ACAD_REACTORS
330
E
102
}
330
E
100
AcDbMaterial
  1
Global
  2

 70
0
 40
1.0
 71
1
 41
1.0
 91
-1023410177
 42
1.0
 72
1
  3

 73
1
 74
1
 75
1
 44
0.5
 73
0
 45
1.0
 46
1.0
 77
1
  4

 78
1
 79
1
170
1
 48
1.0
171
1
  6

172
1
173
1
174
1
140
1.0
141
1.0
175
1
  7

176
1
177
1
178
1
143
1.0
179
1
  8

270
1
271
1
272
1
145
1.0
146
1.0
273
1
  9

274
1
275
1
276
1
 42
1.0
 72
1
  3

 73
1
 74
1
 75
1
 94
63
  0
MLINESTYLE
  5
22
102
{ACAD_REACTORS
330
10
102
}
330
10
100
AcDbMlineStyle
  2
Standard
 70
0
  3

 62
256
 51
90.0
 52
90.0
 71
2
 49
0.5
 62
256
  6
BYLAYER
 49
-0.5
 62
256
  6
BYLAYER
  0
MLEADERSTYLE
  5
2C
102
{ACAD_REACTORS
330
F
102
}
330
F
100
AcDbMLeaderStyle
179
2
170
2
171
1
172
0
 90
2
 40
0.0
 41
0.0
173
1
 91
-1056964608
 92
-2
290
1
 42
2.0
291
1
 43
8.0
  3
Standard
 44
4.0
300

342
29
174
1
175
1
176
0
178
1
 93
-1056964608
 45
4.0
292
0
297
0
 46
4.0
 94
-1056964608
 47
1.0
 49
1.0
140
1.0
294
1
141
0.0
177
0
142
1.0
295
0
296
0
143
3.75
271
0
272
9
273
9
  0
DICTIONARY
  5
2D
330
A
100
AcDbDictionary
280
1
281
1
  3
CREATED_BY_EZDXF
350
2E
  3
WRITTEN_BY_EZDXF
350
35
  0
DICTIONARYVAR
  5
2E
330
2D
100
DictionaryVariables
280
0
  1
1.4.4 @ 2026-07-21T10:31:13.923343+00:00
  0
DICTIONARYVAR
  5
35
330
2D
100
DictionaryVariables
280
0
  1
1.4.4 @ 2026-07-21T10:31:13.936225+00:00
  0
ENDSEC
  0
EOF
