0
SECTION
2
HEADER
9
$ACADVER
1
AC1014
9
$INSUNITS
70
4
9
$HANDSEED
5
FFFF
0
ENDSEC
0
SECTION
2
TABLES
0
TABLE
2
LTYPE
70
1
0
LTYPE
2
CONTINUOUS
70
0
3
Solid line
72
65
73
0
40
0.000000
0
ENDTAB
0
TABLE
2
LAYER
70
3
0
LAYER
2
0
70
0
62
7
6
CONTINUOUS
0
LAYER
2
OUTER
70
0
62
3
6
CONTINUOUS
0
LAYER
2
HOLES
70
0
62
1
6
CONTINUOUS
0
ENDTAB
0
ENDSEC
0
SECTION
2
ENTITIES
0
LWPOLYLINE
100
AcDbEntity
8
OUTER
100
AcDbPolyline
90
222
70
1
10
51.207107
20
200.250000
10
50.750000
20
199.250000
10
50.500000
20
183.250000
10
50.250000
20
183.000000
10
50.250000
20
175.750000
10
50.000000
20
175.500000
10
50.000000
20
166.500000
10
49.750000
20
166.250000
10
49.750000
20
154.500000
10
49.500000
20
154.250000
10
49.500000
20
146.500000
10
49.250000
20
146.250000
10
49.250000
20
142.000000
10
49.000000
20
141.750000
10
48.750000
20
125.250000
10
48.500000
20
125.000000
10
48.500000
20
117.250000
10
48.250000
20
117.000000
10
48.250000
20
103.750000
10
48.000000
20
103.500000
10
48.000000
20
93.000000
10
47.750000
20
92.750000
10
47.750000
20
89.750000
10
48.000000
20
89.500000
10
48.000000
20
88.973098
10
49.000000
20
88.250000
10
57.259536
20
88.009536
10
57.750000
20
88.500000
10
57.750000
20
92.030520
10
59.000000
20
92.750000
10
60.000000
20
92.750000
10
60.250000
20
92.500000
10
63.750000
20
92.500000
10
65.000000
20
91.780520
10
65.000000
20
89.000000
10
65.250000
20
88.750000
10
65.250000
20
88.250000
10
65.750000
20
87.750000
10
68.750000
20
87.750000
10
69.000000
20
87.500000
10
76.250000
20
87.500000
10
76.500000
20
87.250000
10
77.250000
20
87.250000
10
77.767568
20
87.559870
10
78.023859
20
91.293670
10
79.250000
20
92.000000
10
82.250000
20
92.000000
10
82.500000
20
91.750000
10
84.000000
20
91.750000
10
85.250000
20
91.030520
10
85.250000
20
87.723098
10
86.250000
20
87.000000
10
97.751675
20
86.751675
10
98.000000
20
87.000000
10
98.000000
20
88.000000
10
98.250000
20
88.250000
10
98.250000
20
90.530520
10
99.500000
20
91.250000
10
104.000000
20
91.250000
10
105.250000
20
90.530520
10
105.250000
20
87.750000
10
105.500000
20
87.500000
10
105.500000
20
87.000000
10
106.000000
20
86.500000
10
107.750000
20
86.500000
10
108.000000
20
86.250000
10
115.500000
20
86.250000
10
115.750000
20
86.000000
10
117.750000
20
86.000000
10
118.245150
20
86.297872
10
118.510846
20
90.036498
10
119.750000
20
90.750000
10
120.750000
20
90.750000
10
121.000000
20
90.500000
10
124.250000
20
90.500000
10
125.500000
20
89.780520
10
125.500000
20
86.750000
10
125.750000
20
86.250000
10
126.500000
20
85.750000
10
135.489228
20
85.489228
10
136.000000
20
86.000000
10
136.000000
20
91.000000
10
136.250000
20
91.250000
10
136.250000
20
93.780520
10
137.500000
20
94.500000
10
140.000000
20
94.500000
10
140.500000
20
94.750000
10
140.750000
20
95.250000
10
140.750000
20
100.500000
10
141.000000
20
100.750000
10
141.000000
20
103.500000
10
140.500000
20
104.000000
10
139.250000
20
104.500000
10
138.949532
20
105.000000
10
138.000000
20
105.000000
10
136.750000
20
105.719480
10
136.750000
20
109.000000
10
137.000000
20
109.250000
10
137.000000
20
114.530520
10
138.250000
20
115.250000
10
141.000000
20
115.250000
10
141.500000
20
115.750000
10
141.500000
20
118.000000
10
141.750000
20
118.250000
10
141.750000
20
124.313514
10
139.500000
20
125.750000
10
139.000000
20
125.750000
10
137.750000
20
126.469480
10
137.750000
20
133.250000
10
138.000000
20
133.500000
10
138.000000
20
135.280520
10
139.250000
20
136.000000
10
141.750000
20
136.000000
10
142.250000
20
136.500000
10
142.250000
20
137.750000
10
142.500000
20
138.000000
10
142.500000
20
143.000000
10
142.750000
20
143.250000
10
142.750000
20
143.750000
10
142.500000
20
144.000000
10
142.500000
20
145.250000
10
142.250000
20
145.500000
10
141.750000
20
145.500000
10
140.500000
20
146.250000
10
139.750000
20
146.250000
10
138.500000
20
146.969480
10
138.500000
20
149.250000
10
138.750000
20
149.500000
10
138.750000
20
157.530520
10
140.000000
20
158.250000
10
141.750000
20
158.250000
10
142.000000
20
158.500000
10
142.500000
20
158.500000
10
143.000000
20
159.000000
10
143.000000
20
159.500000
10
143.250000
20
159.750000
10
143.250000
20
167.500000
10
143.000000
20
168.000000
10
142.500000
20
168.250000
10
142.000000
20
168.250000
10
140.752169
20
168.968285
10
140.324550
20
168.739430
10
139.000000
20
169.469481
10
139.000000
20
178.030520
10
140.250000
20
178.750000
10
141.750000
20
178.750000
10
143.000000
20
179.250000
10
143.250000
20
179.500000
10
143.250000
20
181.250000
10
143.500000
20
181.500000
10
143.500000
20
188.000000
10
143.250000
20
188.500000
10
142.500000
20
189.000000
10
140.500000
20
189.250000
10
139.250000
20
189.969480
10
139.250000
20
197.768237
10
138.500000
20
198.250000
10
137.750000
20
198.250000
10
136.719670
20
198.719670
10
136.500000
20
198.500000
10
135.500000
20
198.500000
10
135.250000
20
198.750000
10
134.750000
20
198.750000
10
134.467131
20
198.467131
10
134.000000
20
198.750000
10
132.000000
20
198.750000
10
131.729226
20
198.479226
10
128.750000
20
198.739793
10
128.750000
20
198.250000
10
128.500000
20
198.000000
10
128.500000
20
194.969480
10
127.250000
20
194.250000
10
122.750000
20
194.250000
10
121.500000
20
194.969480
10
121.500000
20
196.500000
10
121.774725
20
196.774725
10
121.494779
20
198.247656
10
120.500000
20
198.500000
10
119.750000
20
199.000000
10
109.000000
20
199.000000
10
108.500000
20
198.500000
10
108.500000
20
195.219480
10
107.250000
20
194.500000
10
102.500000
20
194.500000
10
101.250000
20
195.219480
10
101.250000
20
196.750000
10
101.504761
20
197.004761
10
101.211797
20
198.546189
10
99.750000
20
199.250000
10
94.500000
20
199.250000
10
94.245256
20
199.504744
10
93.004744
20
199.245256
10
92.750000
20
199.500000
10
89.000000
20
199.500000
10
88.500000
20
199.000000
10
88.228375
20
195.707561
10
87.000000
20
195.000000
10
82.250000
20
195.000000
10
80.983845
20
195.728384
10
81.262015
20
197.987985
10
81.000000
20
198.250000
10
81.000000
20
198.949540
10
80.500000
20
199.250000
10
80.000000
20
199.250000
10
79.750000
20
199.500000
10
78.500000
20
199.500000
10
78.250000
20
199.750000
10
68.550460
20
199.750000
10
68.250000
20
199.250000
10
68.250000
20
196.500000
10
67.750000
20
195.750000
10
66.750000
20
195.250000
10
64.500000
20
195.250000
10
64.218558
20
195.531442
10
63.252998
20
195.247002
10
63.000000
20
195.500000
10
62.000000
20
195.500000
10
60.750000
20
196.219480
10
60.750000
20
199.280520
10
59.500000
20
200.000000
10
58.250000
20
200.000000
10
58.000000
20
200.250000
0
LWPOLYLINE
100
AcDbEntity
8
HOLES
100
AcDbPolyline
90
264
70
1
10
52.750000
20
199.500000
10
53.750000
20
200.000000
10
59.000000
20
199.750000
10
60.500000
20
198.812911
10
60.500000
20
198.250000
10
60.750000
20
198.000000
10
60.750000
20
195.250000
10
63.000000
20
195.250000
10
63.250000
20
195.000000
10
64.250000
20
195.000000
10
64.532869
20
195.282869
10
65.000000
20
195.000000
10
67.750000
20
195.000000
10
68.500000
20
194.500000
10
69.500000
20
194.500000
10
69.750000
20
194.750000
10
69.750000
20
195.250000
10
69.500000
20
195.500000
10
69.500000
20
198.000000
10
70.250000
20
199.000000
10
71.250000
20
199.500000
10
78.000000
20
199.500000
10
78.250000
20
199.250000
10
79.250000
20
199.250000
10
80.250000
20
198.750000
10
81.000000
20
198.000000
10
81.000000
20
197.000000
10
80.745341
20
196.745341
10
81.022681
20
194.750000
10
87.000000
20
194.750000
10
87.250000
20
194.500000
10
88.000000
20
194.500000
10
88.750000
20
194.000000
10
89.750000
20
194.000000
10
90.000000
20
194.250000
10
90.000000
20
195.750000
10
89.727471
20
196.022529
10
90.002974
20
198.314766
10
91.543792
20
199.277023
10
92.000000
20
199.000000
10
99.500000
20
199.000000
10
101.000000
20
198.062909
10
101.000000
20
195.000000
10
101.250000
20
194.750000
10
101.250000
20
194.250000
10
108.000000
20
194.250000
10
108.750000
20
193.750000
10
110.000000
20
193.750000
10
110.250000
20
194.000000
10
110.250000
20
197.812909
10
111.750000
20
198.750000
10
119.250000
20
198.750000
10
120.750000
20
198.000000
10
121.250000
20
197.500000
10
121.250000
20
195.000000
10
121.707107
20
194.000000
10
127.750000
20
194.000000
10
129.000000
20
193.250000
10
130.250000
20
193.250000
10
130.500000
20
193.500000
10
130.500000
20
197.000000
10
131.250000
20
197.750000
10
132.250000
20
198.250000
10
137.000000
20
198.250000
10
138.500000
20
197.500000
10
139.000000
20
197.000000
10
139.000000
20
189.250000
10
139.250000
20
189.000000
10
141.250000
20
189.000000
10
142.750000
20
188.250000
10
143.250000
20
187.750000
10
143.250000
20
181.750000
10
143.000000
20
181.500000
10
143.000000
20
180.500000
10
142.500000
20
180.000000
10
141.470979
20
179.529021
10
141.250000
20
179.750000
10
140.750000
20
179.750000
10
140.500000
20
179.500000
10
139.231763
20
179.500000
10
138.750000
20
178.750000
10
138.750000
20
168.750000
10
139.000000
20
168.500000
10
140.000000
20
168.500000
10
140.750000
20
168.000000
10
141.500000
20
168.000000
10
142.500000
20
167.500000
10
143.000000
20
167.000000
10
143.000000
20
164.500000
10
142.750000
20
164.250000
10
142.750000
20
159.750000
10
142.250000
20
159.250000
10
140.500000
20
158.500000
10
139.750000
20
158.500000
10
139.500000
20
158.750000
10
138.500000
20
158.750000
10
138.250000
20
158.500000
10
138.500000
20
158.250000
10
138.500000
20
148.000000
10
138.250000
20
147.750000
10
138.250000
20
146.000000
10
139.750000
20
146.000000
10
140.500000
20
145.500000
10
141.000000
20
145.500000
10
142.000000
20
145.000000
10
142.500000
20
144.500000
10
142.500000
20
141.750000
10
142.250000
20
141.500000
10
142.250000
20
138.750000
10
142.000000
20
138.500000
10
142.000000
20
136.937094
10
140.500000
20
136.000000
10
139.000000
20
136.000000
10
138.750000
20
136.250000
10
138.250000
20
136.250000
10
137.750000
20
135.949532
10
137.750000
20
135.500000
10
137.250000
20
135.000000
10
137.750000
20
134.500000
10
137.750000
20
132.500000
10
137.500000
20
132.250000
10
137.500000
20
124.500000
10
138.000000
20
124.500000
10
138.750000
20
125.000000
10
139.500000
20
125.000000
10
141.000000
20
124.250000
10
141.500000
20
123.750000
10
141.500000
20
118.500000
10
141.250000
20
118.250000
10
141.250000
20
116.500000
10
140.750000
20
116.000000
10
139.750000
20
115.500000
10
137.000000
20
115.500000
10
137.000000
20
114.500000
10
136.750000
20
114.250000
10
136.750000
20
112.250000
10
136.000000
20
111.500000
10
135.278883
20
111.231634
10
136.750000
20
110.312906
10
136.750000
20
108.750000
10
136.500000
20
108.500000
10
136.500000
20
105.500000
10
136.750000
20
105.250000
10
136.750000
20
104.000000
10
135.736590
20
102.763410
10
136.031442
20
102.468558
10
137.000000
20
102.753882
10
137.000000
20
103.312906
10
138.465208
20
104.227944
10
140.250000
20
103.500000
10
140.738886
20
103.011114
10
140.482737
20
95.676313
10
139.000000
20
94.750000
10
136.250000
20
94.750000
10
136.000000
20
94.500000
10
136.000000
20
89.500000
10
135.750000
20
89.250000
10
135.750000
20
86.750000
10
135.250000
20
86.250000
10
134.250000
20
85.750000
10
130.500000
20
85.750000
10
130.250000
20
86.000000
10
128.750000
20
86.000000
10
127.750000
20
86.500000
10
127.250000
20
87.000000
10
127.250000
20
90.000000
10
127.478590
20
90.228590
10
127.250000
20
90.750000
10
126.737306
20
90.973918
10
125.940423
20
90.481417
10
125.500000
20
90.750000
10
119.750000
20
90.750000
10
119.500000
20
91.000000
10
118.750000
20
91.000000
10
118.250000
20
90.699532
10
118.250000
20
87.500000
10
117.500000
20
86.750000
10
116.500000
20
86.250000
10
114.000000
20
86.250000
10
113.750000
20
86.500000
10
108.750000
20
86.500000
10
107.750000
20
87.000000
10
107.000000
20
87.750000
10
107.000000
20
91.500000
10
106.000000
20
91.500000
10
105.750000
20
91.250000
10
104.500000
20
91.250000
10
104.250000
20
91.500000
10
98.000000
20
91.500000
10
98.000000
20
87.937099
10
96.500000
20
87.000000
10
91.000000
20
87.000000
10
90.750000
20
87.250000
10
88.250000
20
87.250000
10
87.250000
20
87.750000
10
86.750000
20
88.250000
10
86.750000
20
92.000000
10
86.500000
20
92.250000
10
86.000000
20
92.250000
10
85.736530
20
91.986530
10
78.044016
20
92.237958
10
77.750000
20
91.750000
10
77.750000
20
88.687099
10
76.250000
20
87.750000
10
68.250000
20
87.750000
10
67.250000
20
88.250000
10
66.500000
20
89.000000
10
66.500000
20
91.750000
10
66.750000
20
92.000000
10
66.750000
20
92.500000
10
66.500000
20
92.750000
10
65.750000
20
92.750000
10
65.500000
20
92.500000
10
64.500000
20
92.500000
10
64.250000
20
92.750000
10
57.763257
20
92.750000
10
57.491053
20
89.181509
10
56.000000
20
88.250000
10
51.500000
20
88.250000
10
49.750000
20
89.000000
10
49.250000
20
89.500000
10
49.250000
20
92.250000
10
49.500000
20
92.500000
10
49.500000
20
93.000000
10
49.250000
20
93.250000
10
49.250000
20
94.250000
10
49.500000
20
94.500000
10
49.500000
20
100.750000
10
49.750000
20
101.000000
10
49.750000
20
104.000000
10
49.500000
20
104.250000
10
49.500000
20
105.250000
10
50.000000
20
105.750000
10
49.750000
20
106.000000
10
49.750000
20
107.500000
10
50.000000
20
107.750000
10
50.250000
20
119.750000
10
50.500000
20
120.000000
10
50.500000
20
128.250000
10
50.750000
20
128.500000
10
50.750000
20
133.750000
10
51.000000
20
134.000000
10
51.250000
20
146.750000
10
51.500000
20
147.000000
10
51.500000
20
151.250000
10
51.750000
20
151.500000
10
51.750000
20
152.500000
10
51.500000
20
152.750000
10
51.500000
20
154.250000
10
51.782872
20
154.532872
10
51.500000
20
155.000000
10
51.500000
20
156.250000
10
51.760906
20
156.510906
10
51.496860
20
160.496860
10
51.750000
20
160.750000
10
51.750000
20
173.500000
10
52.000000
20
173.750000
10
52.000000
20
191.250000
10
52.250000
20
191.500000
10
52.250000
20
192.000000
10
52.000000
20
192.250000
10
52.000000
20
193.750000
10
52.250000
20
194.000000
10
52.250000
20
199.000000
0
ENDSEC
0
EOF
