0
SECTION
2
HEADER
9
$ACADVER
1
AC1014
9
$INSUNITS
70
4
9
$HANDSEED
5
FFFF
0
ENDSEC
0
SECTION
2
TABLES
0
TABLE
2
LTYPE
70
1
0
LTYPE
2
CONTINUOUS
70
0
3
Solid line
72
65
73
0
40
0.000000
0
ENDTAB
0
TABLE
2
LAYER
70
3
0
LAYER
2
0
70
0
62
7
6
CONTINUOUS
0
LAYER
2
OUTER
70
0
62
3
6
CONTINUOUS
0
LAYER
2
HOLES
70
0
62
1
6
CONTINUOUS
0
ENDTAB
0
ENDSEC
0
SECTION
2
ENTITIES
0
LWPOLYLINE
100
AcDbEntity
8
OUTER
100
AcDbPolyline
90
402
70
1
10
146.750000
20
204.500000
10
143.000000
20
204.500000
10
142.750000
20
204.250000
10
141.250000
20
204.250000
10
141.000000
20
204.000000
10
139.500000
20
204.000000
10
139.250000
20
203.750000
10
138.250000
20
203.750000
10
138.000000
20
203.500000
10
133.000000
20
203.000000
10
132.750000
20
202.750000
10
131.750000
20
202.750000
10
131.500000
20
202.500000
10
130.250000
20
202.500000
10
130.000000
20
202.250000
10
128.750000
20
202.250000
10
128.500000
20
202.000000
10
127.250000
20
202.000000
10
127.000000
20
201.750000
10
125.750000
20
201.750000
10
125.500000
20
201.500000
10
124.250000
20
201.500000
10
124.000000
20
201.250000
10
122.750000
20
201.250000
10
122.500000
20
201.000000
10
120.750000
20
201.000000
10
120.500000
20
200.750000
10
119.500000
20
200.750000
10
119.250000
20
200.500000
10
118.250000
20
200.500000
10
118.000000
20
200.250000
10
115.000000
20
200.000000
10
114.750000
20
199.750000
10
113.750000
20
199.750000
10
113.500000
20
199.500000
10
112.000000
20
199.500000
10
111.750000
20
199.250000
10
110.750000
20
199.250000
10
110.500000
20
199.000000
10
109.250000
20
199.000000
10
109.000000
20
198.750000
10
107.750000
20
198.750000
10
107.500000
20
198.500000
10
106.000000
20
198.500000
10
105.750000
20
198.250000
10
104.500000
20
198.250000
10
104.250000
20
198.000000
10
102.750000
20
198.000000
10
102.500000
20
197.750000
10
101.500000
20
197.750000
10
101.250000
20
197.500000
10
98.250000
20
197.250000
10
98.000000
20
197.000000
10
95.500000
20
196.750000
10
95.250000
20
196.500000
10
94.000000
20
196.500000
10
93.750000
20
196.250000
10
92.750000
20
196.250000
10
92.500000
20
196.000000
10
91.000000
20
196.000000
10
90.750000
20
195.750000
10
89.750000
20
195.750000
10
89.500000
20
195.500000
10
88.250000
20
195.500000
10
88.000000
20
195.250000
10
86.750000
20
195.250000
10
86.500000
20
195.000000
10
85.000000
20
195.000000
10
84.750000
20
194.750000
10
83.500000
20
194.750000
10
83.250000
20
194.500000
10
82.250000
20
194.500000
10
82.000000
20
194.250000
10
77.750000
20
193.750000
10
77.500000
20
193.500000
10
76.500000
20
193.500000
10
76.250000
20
193.250000
10
73.250000
20
193.000000
10
73.000000
20
192.750000
10
72.000000
20
192.750000
10
71.750000
20
192.500000
10
70.500000
20
192.500000
10
70.250000
20
192.250000
10
67.500000
20
192.000000
10
67.250000
20
191.750000
10
66.250000
20
191.750000
10
66.000000
20
191.500000
10
63.250000
20
191.250000
10
63.000000
20
191.000000
10
62.000000
20
191.000000
10
61.750000
20
190.750000
10
60.250000
20
190.750000
10
60.000000
20
190.500000
10
59.000000
20
190.500000
10
58.750000
20
190.250000
10
54.500000
20
189.750000
10
52.500000
20
189.000000
10
52.000000
20
188.000000
10
52.000000
20
187.250000
10
51.500000
20
186.750000
10
50.750000
20
186.469670
10
50.750000
20
185.000000
10
51.000000
20
184.750000
10
51.000000
20
183.250000
10
51.250000
20
183.000000
10
51.250000
20
181.500000
10
51.500000
20
181.250000
10
51.500000
20
179.500000
10
51.750000
20
179.250000
10
51.750000
20
178.000000
10
52.000000
20
177.750000
10
52.500000
20
172.750000
10
52.750000
20
172.500000
10
52.750000
20
171.250000
10
53.000000
20
171.000000
10
53.000000
20
169.750000
10
53.250000
20
169.500000
10
53.250000
20
167.750000
10
53.500000
20
167.500000
10
53.750000
20
164.500000
10
54.000000
20
164.250000
10
54.000000
20
162.750000
10
54.250000
20
162.500000
10
54.500000
20
159.500000
10
54.750000
20
159.250000
10
54.750000
20
158.000000
10
55.000000
20
157.750000
10
55.250000
20
154.250000
10
55.500000
20
154.000000
10
55.750000
20
151.500000
10
56.000000
20
151.250000
10
56.000000
20
150.250000
10
56.250000
20
150.000000
10
56.250000
20
148.500000
10
56.500000
20
148.250000
10
56.500000
20
146.750000
10
56.750000
20
146.500000
10
56.750000
20
145.000000
10
57.000000
20
144.750000
10
57.000000
20
143.000000
10
57.500000
20
141.750000
10
58.000000
20
136.500000
10
58.250000
20
136.250000
10
58.250000
20
135.000000
10
58.500000
20
134.750000
10
58.500000
20
133.500000
10
58.750000
20
133.250000
10
58.750000
20
132.000000
10
59.000000
20
131.750000
10
59.000000
20
130.000000
10
59.250000
20
129.750000
10
59.250000
20
129.300468
10
59.783440
20
129.014980
10
59.506854
20
127.243146
10
59.750000
20
127.000000
10
59.750000
20
125.500000
10
60.000000
20
125.250000
10
60.000000
20
123.250000
10
60.250000
20
123.000000
10
60.250000
20
122.000000
10
60.499796
20
122.249796
10
62.000000
20
121.312904
10
62.000000
20
119.250000
10
62.250000
20
119.000000
10
62.250000
20
117.750000
10
62.500000
20
117.500000
10
62.500000
20
116.250000
10
62.750000
20
116.000000
10
62.750000
20
114.500000
10
62.250000
20
114.000000
10
61.500000
20
113.719670
10
61.500000
20
113.500000
10
61.750000
20
113.750000
10
63.000000
20
113.000000
10
63.250000
20
112.500000
10
63.250000
20
110.976685
10
62.500000
20
110.418662
10
62.500000
20
110.306120
10
63.500000
20
109.793886
10
63.500000
20
108.750000
10
63.000000
20
108.250000
10
62.250000
20
107.969670
10
62.250000
20
107.750000
10
62.500000
20
108.000000
10
63.991952
20
107.126467
10
64.250000
20
103.750000
10
64.500000
20
103.500000
10
64.750000
20
100.500000
10
65.000000
20
100.250000
10
65.000000
20
98.750000
10
65.250000
20
98.500000
10
65.250000
20
97.500000
10
65.745706
20
97.004294
10
68.000000
20
97.250000
10
68.250000
20
97.500000
10
69.750000
20
97.500000
10
70.000000
20
97.750000
10
71.250000
20
97.750000
10
71.500000
20
98.000000
10
72.750000
20
98.000000
10
73.992722
20
97.284531
10
74.268049
20
94.220608
10
75.000000
20
93.750000
10
75.500000
20
93.750000
10
75.750000
20
94.000000
10
80.000000
20
94.500000
10
80.250000
20
94.750000
10
81.250000
20
94.750000
10
81.500000
20
95.000000
10
82.500000
20
95.000000
10
83.250000
20
95.481763
10
83.250000
20
99.280520
10
84.500000
20
100.000000
10
85.250000
20
100.000000
10
85.500000
20
100.250000
10
86.750000
20
100.250000
10
87.000000
20
100.500000
10
88.250000
20
100.500000
10
88.500000
20
100.750000
10
89.750000
20
100.750000
10
90.000000
20
101.000000
10
91.500000
20
101.000000
10
91.750000
20
101.250000
10
93.000000
20
101.250000
10
93.250000
20
101.500000
10
93.750000
20
101.500000
10
95.000000
20
100.780520
10
95.000000
20
99.750000
10
95.282869
20
99.282869
10
95.480325
20
99.480325
10
96.690671
20
98.813220
10
97.003882
20
97.750000
10
99.250000
20
97.750000
10
99.500000
20
98.000000
10
100.750000
20
98.000000
10
101.000000
20
98.250000
10
102.250000
20
98.250000
10
102.500000
20
98.500000
10
103.750000
20
98.500000
10
104.000000
20
98.750000
10
105.690313
20
98.982759
10
106.000000
20
99.500000
10
106.000000
20
100.250000
10
105.750000
20
100.500000
10
105.750000
20
103.030520
10
107.000000
20
103.750000
10
109.500000
20
104.000000
10
109.750000
20
104.250000
10
111.000000
20
104.250000
10
111.250000
20
104.500000
10
112.750000
20
104.500000
10
113.000000
20
104.750000
10
114.250000
20
104.750000
10
114.500000
20
105.000000
10
115.500000
20
105.000000
10
115.750000
20
105.250000
10
116.250000
20
105.250000
10
117.469044
20
104.547581
10
117.741768
20
102.278470
10
118.199491
20
102.523436
10
120.322122
20
101.238131
10
120.750000
20
101.500000
10
122.250000
20
101.500000
10
122.500000
20
101.750000
10
123.750000
20
101.750000
10
124.000000
20
102.000000
10
125.250000
20
102.000000
10
125.500000
20
102.250000
10
126.750000
20
102.250000
10
127.000000
20
102.500000
10
128.000000
20
102.500000
10
128.771213
20
102.994873
10
128.510950
20
106.786555
10
129.750000
20
107.500000
10
131.000000
20
107.500000
10
131.250000
20
107.750000
10
132.250000
20
107.750000
10
132.500000
20
108.000000
10
135.500000
20
108.250000
10
135.750000
20
108.500000
10
137.000000
20
108.500000
10
137.250000
20
108.750000
10
138.500000
20
108.750000
10
138.788648
20
109.038648
10
140.250000
20
108.298936
10
140.250000
20
107.750000
10
140.500000
20
107.500000
10
140.500000
20
106.000000
10
140.782874
20
105.532874
10
141.000000
20
105.750000
10
141.500000
20
105.750000
10
142.750000
20
105.000000
10
145.500000
20
105.250000
10
145.750000
20
105.500000
10
147.000000
20
105.500000
10
147.250000
20
105.750000
10
148.500000
20
105.750000
10
148.750000
20
106.000000
10
150.000000
20
106.000000
10
150.250000
20
106.250000
10
151.250000
20
106.250000
10
151.750000
20
106.550468
10
151.750000
20
107.000000
10
152.000000
20
107.250000
10
151.750000
20
107.500000
10
151.750000
20
109.000000
10
151.500000
20
109.250000
10
151.500000
20
110.530520
10
152.750000
20
111.250000
10
156.000000
20
111.500000
10
156.250000
20
111.750000
10
158.500000
20
112.000000
10
159.686542
20
112.420021
10
160.021447
20
113.228553
10
159.750000
20
113.500000
10
159.500000
20
116.750000
10
159.250000
20
117.000000
10
159.250000
20
118.250000
10
159.000000
20
118.500000
10
159.000000
20
120.250000
10
158.750000
20
120.500000
10
158.750000
20
121.750000
10
158.500000
20
122.000000
10
158.500000
20
123.750000
10
158.250000
20
124.000000
10
158.250000
20
125.250000
10
158.000000
20
125.500000
10
157.750000
20
129.250000
10
157.500000
20
129.500000
10
157.500000
20
130.750000
10
157.250000
20
131.000000
10
157.000000
20
134.750000
10
156.750000
20
135.000000
10
156.750000
20
136.500000
10
156.500000
20
136.750000
10
156.250000
20
139.750000
10
156.000000
20
140.000000
10
156.000000
20
141.750000
10
155.750000
20
142.000000
10
155.750000
20
143.500000
10
155.500000
20
143.750000
10
155.500000
20
145.250000
10
155.250000
20
145.500000
10
155.250000
20
147.000000
10
155.000000
20
147.250000
10
155.000000
20
149.000000
10
154.750000
20
149.250000
10
154.750000
20
150.750000
10
154.500000
20
151.000000
10
154.500000
20
152.500000
10
154.250000
20
152.750000
10
154.250000
20
154.250000
10
154.000000
20
154.500000
10
154.000000
20
156.250000
10
153.750000
20
156.500000
10
153.750000
20
157.750000
10
153.500000
20
158.000000
10
153.500000
20
159.750000
10
153.250000
20
160.000000
10
153.250000
20
161.500000
10
153.000000
20
161.750000
10
153.000000
20
163.250000
10
152.750000
20
163.500000
10
152.750000
20
165.000000
10
152.500000
20
165.250000
10
152.500000
20
167.000000
10
152.250000
20
167.250000
10
152.000000
20
170.500000
10
151.750000
20
170.750000
10
151.750000
20
172.000000
10
151.500000
20
172.250000
10
151.250000
20
176.000000
10
151.000000
20
176.250000
10
151.000000
20
177.500000
10
150.750000
20
177.750000
10
150.750000
20
179.500000
10
150.500000
20
179.750000
10
150.500000
20
181.250000
10
150.250000
20
181.500000
10
150.250000
20
183.000000
10
150.000000
20
183.250000
10
150.000000
20
184.750000
10
149.750000
20
185.000000
10
149.750000
20
186.750000
10
149.500000
20
187.000000
10
149.500000
20
188.500000
10
149.250000
20
188.750000
10
149.250000
20
190.250000
10
149.000000
20
190.500000
10
149.000000
20
192.000000
10
148.750000
20
192.250000
10
148.750000
20
194.000000
10
148.500000
20
194.250000
10
148.500000
20
195.750000
10
148.250000
20
196.000000
10
148.250000
20
197.500000
10
148.000000
20
197.750000
10
148.000000
20
199.250000
10
147.750000
20
199.500000
10
147.750000
20
201.250000
10
147.500000
20
201.500000
10
147.250000
20
204.000000
0
ENDSEC
0
EOF
