0
SECTION
2
HEADER
9
$ACADVER
1
AC1014
9
$INSUNITS
70
4
9
$HANDSEED
5
FFFF
0
ENDSEC
0
SECTION
2
TABLES
0
TABLE
2
LTYPE
70
1
0
LTYPE
2
CONTINUOUS
70
0
3
Solid line
72
65
73
0
40
0.000000
0
ENDTAB
0
TABLE
2
LAYER
70
3
0
LAYER
2
0
70
0
62
7
6
CONTINUOUS
0
LAYER
2
OUTER
70
0
62
3
6
CONTINUOUS
0
LAYER
2
HOLES
70
0
62
1
6
CONTINUOUS
0
ENDTAB
0
ENDSEC
0
SECTION
2
ENTITIES
0
LWPOLYLINE
100
AcDbEntity
8
OUTER
100
AcDbPolyline
90
75
70
1
10
94.000000
20
175.750000
10
93.750000
20
175.500000
10
92.500000
20
175.500000
10
92.250000
20
175.250000
10
91.750000
20
175.250000
10
90.250000
20
173.750000
10
89.936835
20
172.673759
10
89.000000
20
172.250000
10
88.750000
20
171.750000
10
88.750000
20
167.250000
10
88.500000
20
167.000000
10
88.500000
20
154.030330
10
89.250000
20
153.750000
10
90.000000
20
153.000000
10
90.250000
20
152.000000
10
91.250000
20
151.000000
10
92.500000
20
150.750000
10
93.750000
20
150.030520
10
93.750000
20
143.780330
10
94.500000
20
143.500000
10
95.250000
20
142.500000
10
95.250000
20
141.500000
10
95.000000
20
141.250000
10
95.000000
20
127.750000
10
94.750000
20
127.500000
10
94.750000
20
126.050468
10
95.250000
20
125.782876
10
95.250000
20
124.717124
10
94.750000
20
124.449532
10
94.750000
20
122.030330
10
95.500000
20
121.750000
10
96.000000
20
121.250000
10
96.000000
20
120.000000
10
96.500000
20
119.250000
10
97.000000
20
119.000000
10
98.000000
20
119.000000
10
100.000000
20
118.000000
10
101.500000
20
118.000000
10
101.750000
20
118.250000
10
102.750000
20
118.250000
10
103.250000
20
118.500000
10
104.250000
20
119.500000
10
104.250000
20
120.000000
10
104.500000
20
120.250000
10
104.500000
20
137.250000
10
104.750000
20
137.500000
10
104.750000
20
141.500000
10
105.250000
20
142.000000
10
105.956023
20
142.262114
10
106.250000
20
142.750000
10
106.250000
20
149.530520
10
107.500000
20
150.250000
10
109.250000
20
150.250000
10
109.500000
20
150.500000
10
110.000000
20
150.500000
10
111.250000
20
151.500000
10
111.750000
20
152.500000
10
111.750000
20
155.250000
10
112.000000
20
155.500000
10
112.000000
20
162.250000
10
112.250000
20
162.500000
10
112.250000
20
171.500000
10
111.250000
20
174.250000
10
110.250000
20
175.000000
10
109.500000
20
175.000000
10
108.250000
20
175.500000
10
103.750000
20
175.500000
10
103.500000
20
175.750000
10
103.250000
20
175.500000
10
102.250000
20
175.500000
10
102.000000
20
175.750000
10
101.000000
20
175.750000
10
100.750000
20
175.500000
10
100.250000
20
175.500000
10
100.000000
20
175.750000
0
LWPOLYLINE
100
AcDbEntity
8
HOLES
100
AcDbPolyline
90
83
70
1
10
100.554166
20
155.515239
10
101.750000
20
155.000000
10
102.287111
20
154.462889
10
103.250000
20
155.000000
10
103.750000
20
155.000000
10
104.000000
20
154.750000
10
104.500000
20
154.750000
10
104.749795
20
154.999795
10
106.250000
20
154.062901
10
106.250000
20
152.937099
10
104.749795
20
152.000205
10
104.511271
20
152.238729
10
103.738729
20
151.761271
10
103.500000
20
152.000000
10
103.279021
20
151.779021
10
102.250000
20
152.250000
10
101.718884
20
152.932494
10
99.750000
20
152.000000
10
104.250000
20
151.750000
10
105.750000
20
150.812901
10
105.750000
20
143.187099
10
104.250000
20
142.250333
10
104.250000
20
140.750000
10
104.000000
20
140.500000
10
104.250000
20
140.250000
10
104.250000
20
139.250000
10
104.000000
20
139.000000
10
104.000000
20
135.750000
10
103.750000
20
135.500000
10
103.750000
20
135.000000
10
104.000000
20
134.750000
10
104.000000
20
133.750000
10
103.717131
20
133.467131
10
104.000000
20
133.000000
10
104.000000
20
126.250000
10
103.750000
20
126.000000
10
103.750000
20
124.250000
10
103.250000
20
123.750000
10
103.500000
20
123.500000
10
103.758764
20
120.258764
10
102.750000
20
119.250000
10
101.007652
20
118.539967
10
100.000000
20
119.000000
10
99.250000
20
119.750000
10
99.250000
20
121.250000
10
100.000000
20
122.250000
10
100.250000
20
123.250000
10
101.000000
20
124.000000
10
100.750000
20
124.250000
10
100.750000
20
124.750000
10
100.250000
20
125.250000
10
100.250000
20
125.725886
10
99.000000
20
126.723671
10
99.000000
20
127.773317
10
99.703361
20
128.296639
10
99.500000
20
128.500000
10
99.500000
20
131.500000
10
99.750000
20
131.750000
10
99.500000
20
132.000000
10
99.500000
20
133.000000
10
99.750000
20
133.250000
10
99.750000
20
136.000000
10
100.250000
20
136.500000
10
100.250000
20
138.250000
10
100.500000
20
138.500000
10
100.500000
20
143.000000
10
100.000000
20
143.750000
10
100.000000
20
145.500000
10
100.500000
20
146.500000
10
100.500000
20
148.539728
10
99.250000
20
148.250000
10
98.347618
20
148.756117
10
97.299662
20
148.219319
10
95.750000
20
149.187099
10
95.750000
20
151.062901
10
97.250000
20
152.000000
10
98.000000
20
152.000000
10
97.500000
20
152.000000
10
96.500000
20
152.500000
10
96.000000
20
153.000000
10
96.000000
20
154.062901
10
97.500000
20
155.000000
10
99.750000
20
155.000000
0
LWPOLYLINE
100
AcDbEntity
8
HOLES
100
AcDbPolyline
90
15
70
1
10
93.788314
20
158.225739
10
95.250000
20
157.312901
10
95.250000
20
155.476683
10
94.546639
20
154.953361
10
95.500000
20
154.000000
10
95.500000
20
152.937099
10
94.000000
20
152.000000
10
93.000000
20
152.000000
10
92.000000
20
152.500000
10
91.250000
20
153.500000
10
91.250000
20
154.750000
10
91.500000
20
155.000000
10
91.250000
20
155.250000
10
91.250000
20
156.250000
10
92.750000
20
157.750000
0
LWPOLYLINE
100
AcDbEntity
8
HOLES
100
AcDbPolyline
90
11
70
1
10
103.750000
20
165.000000
10
105.250000
20
164.062901
10
105.250000
20
162.750000
10
104.750000
20
162.250000
10
103.217510
20
161.532490
10
103.000000
20
161.750000
10
102.750205
20
161.500205
10
101.250000
20
162.437099
10
101.250000
20
163.500000
10
102.250000
20
164.500000
10
103.250000
20
165.000000
0
LWPOLYLINE
100
AcDbEntity
8
HOLES
100
AcDbPolyline
90
20
70
1
10
95.163712
20
167.500313
10
96.250000
20
167.000000
10
96.750000
20
166.500000
10
96.750000
20
165.780330
10
97.500000
20
165.500000
10
98.750000
20
164.250000
10
98.750000
20
163.187099
10
97.264409
20
162.259332
10
96.445834
20
162.765239
10
95.250000
20
162.209593
10
95.250000
20
161.976683
10
94.500000
20
161.418660
10
94.500000
20
159.937099
10
93.000000
20
159.000333
10
91.500000
20
159.937099
10
91.500000
20
163.750000
10
92.000000
20
164.250000
10
92.750000
20
164.530330
10
92.750000
20
165.750000
10
94.000000
20
167.000000
0
LWPOLYLINE
100
AcDbEntity
8
HOLES
100
AcDbPolyline
90
11
70
1
10
100.250000
20
170.500000
10
101.250000
20
170.500000
10
102.750000
20
169.562909
10
102.750000
20
168.250000
10
102.500000
20
167.750000
10
101.000000
20
166.750000
10
100.000000
20
166.750000
10
99.000000
20
167.250000
10
98.250000
20
168.000000
10
98.250000
20
169.250000
10
98.750000
20
169.750000
0
LWPOLYLINE
100
AcDbEntity
8
HOLES
100
AcDbPolyline
90
20
70
1
10
106.517418
20
172.709880
10
107.750000
20
172.000000
10
108.250000
20
172.000000
10
109.525682
20
172.733636
10
110.997026
20
171.814766
10
111.280507
20
169.456151
10
109.706195
20
168.472976
10
109.250000
20
168.717124
10
109.250000
20
168.024114
10
110.500000
20
167.026329
10
110.500000
20
165.937099
10
108.950338
20
164.969319
10
107.989488
20
165.461498
10
107.595456
20
165.250619
10
106.000000
20
166.000000
10
105.500000
20
166.500000
10
105.500000
20
169.000000
10
104.500000
20
170.500000
10
104.500000
20
171.500000
10
105.000000
20
172.000000
0
LWPOLYLINE
100
AcDbEntity
8
HOLES
100
AcDbPolyline
90
9
70
1
10
94.500000
20
173.250000
10
96.000000
20
172.312909
10
96.000000
20
171.250000
10
95.500000
20
170.750000
10
93.715205
20
170.022055
10
92.250000
20
170.937091
10
92.250000
20
172.000000
10
93.000000
20
172.750000
10
94.000000
20
173.250000
0
ENDSEC
0
EOF
