0
SECTION
2
HEADER
9
$ACADVER
1
AC1014
9
$INSUNITS
70
4
9
$HANDSEED
5
FFFF
0
ENDSEC
0
SECTION
2
TABLES
0
TABLE
2
LTYPE
70
1
0
LTYPE
2
CONTINUOUS
70
0
3
Solid line
72
65
73
0
40
0.000000
0
ENDTAB
0
TABLE
2
LAYER
70
3
0
LAYER
2
0
70
0
62
7
6
CONTINUOUS
0
LAYER
2
OUTER
70
0
62
3
6
CONTINUOUS
0
LAYER
2
HOLES
70
0
62
1
6
CONTINUOUS
0
ENDTAB
0
ENDSEC
0
SECTION
2
ENTITIES
0
LWPOLYLINE
100
AcDbEntity
8
OUTER
100
AcDbPolyline
90
138
70
1
10
73.250000
20
237.500000
10
72.250000
20
236.750000
10
71.500000
20
236.500000
10
70.250000
20
235.250000
10
69.000000
20
233.000000
10
68.750000
20
231.500000
10
68.500000
20
231.250000
10
68.500000
20
230.250000
10
68.250000
20
230.000000
10
68.000000
20
217.250000
10
67.750000
20
217.000000
10
67.750000
20
208.000000
10
67.500000
20
207.750000
10
67.500000
20
199.750000
10
67.250000
20
199.500000
10
67.250000
20
191.250000
10
67.000000
20
191.000000
10
67.000000
20
181.250000
10
66.750000
20
181.000000
10
66.750000
20
171.500000
10
66.500000
20
171.250000
10
66.500000
20
162.500000
10
66.250000
20
162.250000
10
66.250000
20
153.250000
10
66.000000
20
153.000000
10
65.750000
20
136.500000
10
65.500000
20
136.250000
10
65.250000
20
121.000000
10
65.000000
20
120.750000
10
65.000000
20
114.500000
10
64.750000
20
114.250000
10
64.750000
20
108.000000
10
64.500000
20
107.750000
10
64.500000
20
101.000000
10
64.250000
20
100.750000
10
64.250000
20
94.500000
10
64.000000
20
94.250000
10
64.000000
20
86.500000
10
64.250000
20
86.250000
10
64.250000
20
85.500000
10
65.750000
20
82.500000
10
67.500000
20
80.750000
10
69.000000
20
80.000000
10
70.500000
20
79.750000
10
70.750000
20
79.500000
10
74.500000
20
79.500000
10
74.750000
20
79.250000
10
81.250000
20
79.250000
10
81.500000
20
79.000000
10
88.750000
20
79.000000
10
89.000000
20
78.750000
10
95.750000
20
78.750000
10
96.000000
20
78.500000
10
103.000000
20
78.500000
10
103.250000
20
78.250000
10
109.500000
20
78.250000
10
109.750000
20
78.000000
10
118.500000
20
78.000000
10
118.750000
20
77.750000
10
129.000000
20
77.750000
10
129.250000
20
78.000000
10
130.000000
20
78.000000
10
132.250000
20
79.250000
10
133.750000
20
81.000000
10
134.750000
20
83.250000
10
134.750000
20
84.000000
10
135.000000
20
84.250000
10
135.000000
20
86.000000
10
135.250000
20
86.250000
10
135.500000
20
102.250000
10
135.750000
20
102.500000
10
135.750000
20
110.250000
10
136.000000
20
110.500000
10
136.000000
20
113.000000
10
136.250000
20
113.250000
10
136.250000
20
123.250000
10
136.500000
20
123.500000
10
136.500000
20
129.250000
10
136.750000
20
129.500000
10
136.750000
20
130.500000
10
136.500000
20
130.750000
10
136.500000
20
134.750000
10
136.782874
20
135.217126
10
136.500000
20
135.500000
10
136.500000
20
137.000000
10
136.250000
20
137.250000
10
136.250000
20
140.750000
10
136.500000
20
141.000000
10
136.500000
20
148.000000
10
136.750000
20
148.250000
10
136.750000
20
152.250000
10
137.000000
20
152.500000
10
137.000000
20
153.500000
10
137.250000
20
153.750000
10
137.250000
20
155.750000
10
137.500000
20
156.000000
10
137.500000
20
162.500000
10
137.750000
20
162.750000
10
137.750000
20
168.750000
10
138.000000
20
169.000000
10
138.000000
20
175.000000
10
138.250000
20
175.250000
10
138.250000
20
181.500000
10
138.500000
20
181.750000
10
138.750000
20
197.250000
10
139.000000
20
197.500000
10
139.000000
20
204.500000
10
139.250000
20
204.750000
10
139.500000
20
218.250000
10
139.750000
20
218.500000
10
139.750000
20
225.250000
10
140.000000
20
225.500000
10
140.000000
20
228.000000
10
139.750000
20
228.250000
10
139.750000
20
229.750000
10
139.500000
20
230.000000
10
139.500000
20
230.500000
10
138.250000
20
233.000000
10
137.000000
20
234.250000
10
134.500000
20
235.500000
10
133.750000
20
235.500000
10
133.500000
20
235.750000
10
131.750000
20
235.750000
10
131.500000
20
236.000000
10
124.750000
20
236.000000
10
124.500000
20
236.250000
10
119.000000
20
236.250000
10
118.750000
20
236.500000
10
113.500000
20
236.500000
10
113.250000
20
236.750000
10
98.750000
20
237.000000
10
98.500000
20
237.250000
10
87.250000
20
237.500000
10
87.000000
20
237.750000
10
81.250000
20
237.750000
10
81.000000
20
238.000000
10
75.250000
20
238.000000
10
75.000000
20
237.750000
0
LWPOLYLINE
100
AcDbEntity
8
HOLES
100
AcDbPolyline
90
135
70
1
10
74.250000
20
237.250000
10
74.750000
20
237.250000
10
75.000000
20
237.500000
10
82.000000
20
237.500000
10
82.250000
20
237.250000
10
94.250000
20
237.000000
10
94.500000
20
236.750000
10
99.250000
20
236.750000
10
99.500000
20
236.500000
10
107.000000
20
236.500000
10
107.250000
20
236.250000
10
114.000000
20
236.250000
10
114.250000
20
236.000000
10
120.000000
20
236.000000
10
120.250000
20
235.750000
10
132.000000
20
235.500000
10
132.250000
20
235.250000
10
133.750000
20
235.250000
10
134.000000
20
235.000000
10
134.500000
20
235.000000
10
136.750000
20
233.750000
10
138.000000
20
232.250000
10
138.000000
20
231.750000
10
139.000000
20
230.250000
10
139.000000
20
229.750000
10
139.250000
20
229.500000
10
139.250000
20
228.000000
10
139.500000
20
227.750000
10
139.500000
20
225.500000
10
139.250000
20
225.250000
10
139.000000
20
211.250000
10
138.750000
20
211.000000
10
138.500000
20
197.250000
10
138.250000
20
197.000000
10
138.250000
20
190.000000
10
138.000000
20
189.750000
10
137.750000
20
174.500000
10
137.500000
20
174.250000
10
137.500000
20
168.250000
10
137.250000
20
168.000000
10
137.250000
20
162.250000
10
137.000000
20
162.000000
10
137.000000
20
155.000000
10
136.750000
20
154.750000
10
136.750000
20
153.500000
10
136.500000
20
153.250000
10
136.500000
20
152.250000
10
136.250000
20
152.000000
10
136.250000
20
147.500000
10
136.000000
20
147.250000
10
136.000000
20
140.000000
10
135.750000
20
139.750000
10
135.750000
20
137.500000
10
136.000000
20
137.250000
10
136.000000
20
135.750000
10
136.250000
20
135.500000
10
136.250000
20
133.750000
10
136.000000
20
133.500000
10
136.000000
20
131.000000
10
136.250000
20
130.750000
10
136.250000
20
129.500000
10
136.000000
20
129.250000
10
136.000000
20
123.500000
10
135.750000
20
123.250000
10
135.750000
20
113.250000
10
135.500000
20
113.000000
10
135.500000
20
109.250000
10
135.250000
20
109.000000
10
135.250000
20
100.500000
10
135.000000
20
100.250000
10
134.750000
20
85.500000
10
134.500000
20
85.250000
10
134.250000
20
83.000000
10
133.500000
20
81.500000
10
131.750000
20
79.500000
10
130.000000
20
78.500000
10
129.500000
20
78.500000
10
129.250000
20
78.250000
10
128.000000
20
78.250000
10
127.750000
20
78.000000
10
124.000000
20
78.000000
10
123.750000
20
78.250000
10
114.250000
20
78.250000
10
114.000000
20
78.500000
10
100.750000
20
78.750000
10
100.500000
20
79.000000
10
94.250000
20
79.000000
10
94.000000
20
79.250000
10
86.500000
20
79.250000
10
86.250000
20
79.500000
10
79.750000
20
79.500000
10
79.500000
20
79.750000
10
72.500000
20
79.750000
10
72.250000
20
80.000000
10
70.500000
20
80.000000
10
70.250000
20
80.250000
10
69.750000
20
80.250000
10
67.500000
20
81.500000
10
66.250000
20
82.750000
10
65.000000
20
85.000000
10
65.000000
20
85.500000
10
64.500000
20
86.500000
10
64.500000
20
95.500000
10
64.750000
20
95.750000
10
64.750000
20
101.500000
10
65.000000
20
101.750000
10
65.250000
20
115.500000
10
65.500000
20
115.750000
10
65.750000
20
129.250000
10
66.000000
20
129.500000
10
66.000000
20
137.000000
10
66.250000
20
137.250000
10
66.250000
20
144.500000
10
66.500000
20
144.750000
10
66.500000
20
153.500000
10
66.750000
20
153.750000
10
66.750000
20
161.750000
10
67.000000
20
162.000000
10
67.250000
20
180.750000
10
67.500000
20
181.000000
10
67.500000
20
191.000000
10
67.750000
20
191.250000
10
67.750000
20
199.000000
10
68.000000
20
199.250000
10
68.000000
20
207.500000
10
68.250000
20
207.750000
10
68.250000
20
216.250000
10
68.500000
20
216.500000
10
68.750000
20
230.000000
10
69.000000
20
230.250000
10
69.000000
20
231.250000
10
69.250000
20
231.500000
10
69.500000
20
232.750000
10
70.500000
20
234.500000
10
72.250000
20
236.250000
0
ENDSEC
0
EOF
