0
SECTION
2
HEADER
9
$ACADVER
1
AC1014
9
$INSUNITS
70
4
9
$HANDSEED
5
FFFF
0
ENDSEC
0
SECTION
2
TABLES
0
TABLE
2
LTYPE
70
1
0
LTYPE
2
CONTINUOUS
70
0
3
Solid line
72
65
73
0
40
0.000000
0
ENDTAB
0
TABLE
2
LAYER
70
3
0
LAYER
2
0
70
0
62
7
6
CONTINUOUS
0
LAYER
2
OUTER
70
0
62
3
6
CONTINUOUS
0
LAYER
2
HOLES
70
0
62
1
6
CONTINUOUS
0
ENDTAB
0
ENDSEC
0
SECTION
2
ENTITIES
0
LWPOLYLINE
100
AcDbEntity
8
OUTER
100
AcDbPolyline
90
254
70
1
10
98.734681
20
235.793092
10
96.250000
20
233.515956
10
96.250000
20
233.250000
10
94.000000
20
231.000000
10
93.000000
20
229.500000
10
93.000000
20
229.000000
10
93.500000
20
228.250000
10
95.000000
20
226.750000
10
95.000000
20
225.500000
10
94.500000
20
224.750000
10
92.250000
20
222.500000
10
91.250000
20
222.000000
10
90.750000
20
222.000000
10
90.000000
20
222.500000
10
86.500000
20
222.500000
10
86.000000
20
222.250000
10
78.972055
20
214.446353
10
79.250000
20
213.250000
10
81.000000
20
211.250000
10
81.000000
20
210.250000
10
78.250000
20
207.250000
10
78.250000
20
206.969480
10
77.000000
20
206.280520
10
75.750000
20
207.000000
10
72.250000
20
207.000000
10
71.500000
20
206.418652
10
71.500000
20
206.250000
10
65.000000
20
199.250000
10
65.000000
20
198.000000
10
67.000000
20
195.750000
10
67.000000
20
194.750000
10
65.500000
20
193.250000
10
65.500000
20
193.000000
10
63.750000
20
191.250000
10
62.649749
20
190.742534
10
61.250000
20
191.500000
10
58.250000
20
191.500000
10
57.750000
20
191.250000
10
55.000000
20
188.250000
10
55.000000
20
187.967132
10
54.500000
20
187.750000
10
54.250000
20
187.250000
10
52.000000
20
185.000000
10
50.740680
20
183.259320
10
51.000000
20
183.000000
10
51.250000
20
181.750000
10
52.750000
20
180.250000
10
52.750000
20
179.250000
10
51.250000
20
177.250000
10
50.750000
20
177.000000
10
49.000000
20
175.000000
10
48.000000
20
174.543886
10
47.000000
20
175.000000
10
46.418656
20
175.750000
10
45.750000
20
175.750000
10
45.500000
20
176.000000
10
44.250000
20
176.000000
10
43.750000
20
175.750000
10
39.250000
20
171.000000
10
38.500000
20
170.000000
10
38.500000
20
169.250000
10
39.000000
20
168.250000
10
40.250000
20
167.000000
10
40.250000
20
166.750000
10
43.500000
20
163.500000
10
43.500000
20
162.500000
10
41.750000
20
160.500000
10
41.750000
20
159.250000
10
42.250000
20
158.750000
10
42.530330
20
158.000000
10
42.773315
20
158.000000
10
43.250000
20
157.250000
10
47.000000
20
153.500000
10
49.500000
20
152.250000
10
50.000000
20
151.750000
10
50.268237
20
151.750000
10
50.750000
20
152.500000
10
52.795647
20
153.471162
10
54.250000
20
152.562904
10
54.250000
20
152.250000
10
57.500000
20
149.000000
10
57.500000
20
148.000000
10
55.750000
20
146.000000
10
55.750000
20
145.000000
10
56.250000
20
144.500000
10
56.250000
20
144.000000
10
58.000000
20
142.250000
10
58.000000
20
142.000000
10
58.269090
20
142.000000
10
60.500000
20
139.500000
10
62.750000
20
138.000000
10
63.250000
20
138.000000
10
64.000000
20
137.500000
10
64.500000
20
137.500000
10
64.000000
20
137.717124
10
64.000000
20
139.000000
10
64.500000
20
139.500000
10
65.495041
20
139.953574
10
67.000000
20
139.250000
10
71.500000
20
134.750000
10
71.500000
20
133.500000
10
70.000000
20
131.750000
10
70.000000
20
130.250000
10
71.500000
20
128.250000
10
75.000000
20
124.750000
10
76.000000
20
124.250000
10
76.750000
20
123.500000
10
77.250000
20
123.500000
10
78.500000
20
124.750000
10
79.522693
20
125.217738
10
80.250000
20
124.750000
10
80.750000
20
124.750000
10
81.750000
20
124.250000
10
85.500000
20
120.250000
10
85.500000
20
119.000000
10
84.000000
20
117.250000
10
84.000000
20
116.000000
10
84.500000
20
115.000000
10
85.000000
20
114.750000
10
85.500000
20
114.000000
10
89.250000
20
110.250000
10
90.000000
20
110.000000
10
91.021447
20
108.978553
10
91.750000
20
109.250000
10
92.750000
20
110.500000
10
93.745041
20
110.953574
10
95.250000
20
110.250000
10
99.500000
20
106.000000
10
99.500000
20
104.750000
10
98.250000
20
103.000000
10
98.000000
20
101.750000
10
98.500000
20
100.750000
10
101.250000
20
98.000000
10
101.250000
20
97.750000
10
101.480216
20
97.750000
10
103.000000
20
96.000000
10
103.750000
20
95.750000
10
105.250000
20
94.500000
10
105.500000
20
94.500000
10
107.000000
20
96.000000
10
108.163712
20
96.500313
10
109.250000
20
96.000000
10
112.750000
20
92.500000
10
113.500000
20
92.250000
10
114.745833
20
91.229212
10
121.000000
20
97.750000
10
121.000000
20
98.750000
10
120.000000
20
100.000000
10
120.000000
20
101.250000
10
119.500000
20
102.000000
10
119.500000
20
103.000000
10
121.500000
20
105.000000
10
121.500000
20
105.250000
10
122.500000
20
106.250000
10
123.490317
20
106.701154
10
126.000000
20
105.500000
10
126.771447
20
104.728553
10
127.500000
20
105.000000
10
130.000000
20
107.500000
10
130.000000
20
107.750000
10
135.000000
20
113.000000
10
135.250000
20
113.500000
10
135.000000
20
114.500000
10
133.750000
20
115.750000
10
133.750000
20
116.750000
10
134.032874
20
117.032874
10
133.750000
20
117.500000
10
133.750000
20
118.500000
10
134.250000
20
119.250000
10
136.500000
20
121.500000
10
137.500000
20
122.000000
10
138.500000
20
121.750000
10
140.000000
20
121.000000
10
140.500000
20
120.500000
10
141.549497
20
120.500000
10
149.283203
20
128.779705
10
149.000000
20
130.000000
10
147.000000
20
132.250000
10
147.000000
20
133.250000
10
149.250000
20
135.500000
10
149.250000
20
135.750000
10
150.500000
20
137.000000
10
151.500000
20
137.500000
10
152.000000
20
137.500000
10
154.750000
20
136.000000
10
155.746137
20
136.000000
10
162.000000
20
142.750000
10
162.000000
20
143.000000
10
163.000000
20
144.000000
10
163.199532
20
144.000000
10
163.500000
20
144.500000
10
163.250000
20
145.500000
10
161.500000
20
147.250000
10
161.250000
20
147.750000
10
161.250000
20
149.000000
10
164.250000
20
152.000000
10
165.330108
20
152.497148
10
165.952950
20
152.239159
10
166.717192
20
152.711486
10
169.372845
20
151.520554
10
170.000000
20
151.750000
10
172.500000
20
154.250000
10
172.500000
20
154.500000
10
174.250000
20
156.250000
10
174.250000
20
156.526329
10
175.500000
20
157.500000
10
175.750000
20
158.500000
10
175.500000
20
159.000000
10
169.250000
20
165.250000
10
169.250000
20
165.523971
10
167.750000
20
166.785617
10
167.750000
20
167.000000
10
149.000000
20
186.000000
10
149.000000
20
186.269264
10
147.500000
20
187.502931
10
147.500000
20
187.750000
10
138.750000
20
196.500000
10
138.750000
20
196.782868
10
138.250000
20
197.000000
10
138.000000
20
197.500000
10
128.500000
20
207.000000
10
128.500000
20
207.250000
10
128.250000
20
207.250000
10
127.250000
20
208.250000
10
127.250000
20
208.500000
10
119.250000
20
216.500000
10
119.250000
20
216.655209
10
118.250000
20
217.482712
10
118.250000
20
217.750000
10
117.000000
20
219.000000
10
117.000000
20
220.217132
10
116.574543
20
219.989434
10
115.250000
20
220.719480
10
115.250000
20
222.000000
10
113.500000
20
223.750000
10
113.500000
20
224.023325
10
112.750000
20
224.500000
10
111.905209
20
225.500000
10
111.726675
20
225.500000
10
111.250000
20
226.250000
10
110.250000
20
227.250000
10
109.967132
20
227.250000
10
109.750000
20
227.750000
10
107.250000
20
230.250000
10
106.500000
20
230.726675
10
106.500000
20
231.000000
10
103.000000
20
234.500000
10
103.000000
20
234.750000
10
102.750000
20
234.750000
10
101.750000
20
235.750000
10
101.000000
20
235.750000
10
100.750000
20
235.500000
10
100.467128
20
235.782872
10
100.000000
20
235.500000
0
LWPOLYLINE
100
AcDbEntity
8
HOLES
100
AcDbPolyline
90
375
70
1
10
100.038314
20
234.975743
10
101.500000
20
234.062905
10
101.500000
20
233.250000
10
101.720982
20
233.470982
10
102.750000
20
233.000000
10
105.000000
20
230.500000
10
105.000000
20
229.000000
10
104.500000
20
228.500000
10
105.218348
20
228.962200
10
107.750000
20
227.750000
10
109.500000
20
226.000000
10
109.500000
20
225.500000
10
110.250000
20
224.750000
10
110.250000
20
221.976675
10
109.500000
20
221.500000
10
110.512570
20
221.962552
10
111.750000
20
221.250000
10
112.250000
20
221.250000
10
112.977307
20
221.717738
10
114.000000
20
221.250000
10
125.500000
20
209.500000
10
125.500000
20
208.764166
10
127.500000
20
207.500000
10
128.750000
20
206.250000
10
128.750000
20
205.250000
10
128.500000
20
204.750000
10
128.750000
20
205.000000
10
129.250000
20
205.000000
10
130.250000
20
204.500000
10
132.500000
20
202.250000
10
132.500000
20
201.000000
10
132.250000
20
200.750000
10
132.977307
20
201.217738
10
134.000000
20
200.750000
10
135.500000
20
199.250000
10
135.500000
20
198.540407
10
136.750000
20
198.000000
10
137.500000
20
197.250000
10
137.500000
20
196.000000
10
137.217595
20
195.533750
10
140.250000
20
194.250000
10
145.250000
20
189.250000
10
145.250000
20
189.000000
10
145.514845
20
189.000000
10
147.250000
20
187.000000
10
147.250000
20
185.937086
10
145.700349
20
184.969313
10
144.750000
20
185.500000
10
145.750000
20
184.776902
10
145.750000
20
183.750000
10
145.500000
20
183.500000
10
146.769675
20
184.230325
10
147.000000
20
184.000000
10
147.500000
20
184.000000
10
148.819822
20
184.757964
10
150.000000
20
184.250000
10
154.750000
20
179.500000
10
154.750000
20
177.949540
10
155.239481
20
178.211502
10
156.250000
20
177.750000
10
157.500000
20
176.500000
10
157.500000
20
175.250000
10
157.250000
20
175.000000
10
157.977307
20
175.467738
10
159.000000
20
175.000000
10
165.500000
20
168.500000
10
165.500000
20
168.250000
10
168.000000
20
165.750000
10
168.000000
20
165.206114
10
169.000000
20
164.750000
10
174.500000
20
159.250000
10
174.750000
20
158.750000
10
174.750000
20
157.500000
10
170.750000
20
153.250000
10
169.750000
20
152.793886
10
168.750000
20
153.250000
10
166.750000
20
155.250000
10
166.000000
20
155.250000
10
166.000000
20
154.500000
10
164.000000
20
152.500000
10
163.000000
20
152.000000
10
162.500000
20
152.000000
10
162.250000
20
152.250000
10
162.500000
20
152.000000
10
162.500000
20
151.000000
10
160.500000
20
148.750000
10
160.500000
20
147.750000
10
160.750000
20
147.250000
10
162.500000
20
145.250000
10
162.500000
20
144.250000
10
162.000000
20
143.500000
10
157.000000
20
138.250000
10
157.000000
20
137.937094
10
155.538318
20
137.024258
10
154.500000
20
137.500000
10
152.750000
20
139.250000
10
152.750000
20
139.449532
10
152.172136
20
139.758796
10
151.750000
20
139.532876
10
151.750000
20
138.728485
10
150.000000
20
137.234886
10
150.000000
20
137.000000
10
147.500000
20
134.500000
10
147.500000
20
134.250000
10
145.750000
20
132.250000
10
145.750000
20
132.030330
10
146.500000
20
131.750000
10
148.500000
20
129.750000
10
148.500000
20
128.750000
10
143.500000
20
123.500000
10
143.500000
20
123.250000
10
142.000000
20
121.750000
10
141.000000
20
121.293886
10
140.000000
20
121.750000
10
139.500000
20
122.250000
10
139.500000
20
122.750000
10
138.021415
20
124.228585
10
137.500000
20
123.949532
10
137.500000
20
123.250000
10
133.750000
20
119.500000
10
133.750000
20
119.250000
10
131.750000
20
117.000000
10
131.750000
20
116.500000
10
132.500000
20
115.750000
10
133.250000
20
115.500000
10
134.250000
20
114.500000
10
134.250000
20
113.500000
10
133.250000
20
112.500000
10
133.250000
20
112.000000
10
131.000000
20
109.500000
10
129.500000
20
108.497147
10
129.500000
20
108.000000
10
127.750000
20
106.250000
10
126.754959
20
105.796426
10
125.250000
20
106.500000
10
124.750000
20
107.000000
10
124.750000
20
107.776902
10
123.750000
20
108.506854
10
123.750000
20
108.250000
10
120.500000
20
105.000000
10
120.500000
20
104.750000
10
117.500000
20
101.500000
10
117.264626
20
100.965914
10
119.519307
20
98.950661
10
119.250000
20
96.750000
10
115.750000
20
93.000000
10
114.631120
20
92.482992
10
112.750000
20
93.500000
10
112.250000
20
94.250000
10
108.750000
20
97.500000
10
108.000000
20
97.500000
10
107.000000
20
96.500000
10
105.275756
20
95.530693
10
104.250000
20
96.000000
10
102.500000
20
97.750000
10
102.500000
20
98.293886
10
101.500000
20
98.750000
10
100.000000
20
100.250000
10
100.000000
20
101.500000
10
102.250000
20
104.000000
10
102.250000
20
104.969670
10
101.500000
20
105.250000
10
98.750000
20
108.000000
10
98.482706
20
108.000000
10
97.750000
20
109.000000
10
94.750000
20
111.764678
10
94.750000
20
112.559017
10
93.750000
20
112.000000
10
92.500000
20
110.750000
10
91.500000
20
110.250000
10
90.750000
20
110.250000
10
89.750000
20
110.750000
10
88.500000
20
112.000000
10
88.500000
20
112.250000
10
88.250000
20
112.250000
10
87.250000
20
113.250000
10
86.750000
20
114.250000
10
86.000000
20
115.000000
10
86.000000
20
116.000000
10
86.750000
20
116.750000
10
87.750000
20
117.206114
10
87.750000
20
118.000000
10
88.250000
20
118.750000
10
88.250000
20
119.273317
10
89.000000
20
119.831340
10
89.000000
20
120.005666
10
87.500000
20
119.750000
10
86.500000
20
120.250000
10
85.750000
20
121.000000
10
85.506245
20
122.290687
10
84.500000
20
122.750000
10
83.750000
20
123.500000
10
83.750000
20
123.959593
10
82.500000
20
124.500000
10
81.250000
20
125.750000
10
81.000000
20
126.750000
10
80.250000
20
127.250000
10
79.750000
20
127.250000
10
79.750000
20
126.750000
10
78.750000
20
125.750000
10
78.750000
20
125.437099
10
77.288314
20
124.524261
10
76.250000
20
125.000000
10
75.500000
20
125.750000
10
74.750000
20
126.000000
10
73.500000
20
127.250000
10
73.500000
20
127.793886
10
72.500000
20
128.250000
10
71.500000
20
129.500000
10
71.500000
20
130.500000
10
74.000000
20
133.250000
10
74.000000
20
134.000000
10
73.218581
20
135.033653
10
72.760512
20
134.788502
10
71.750000
20
135.250000
10
71.000000
20
136.250000
10
71.000000
20
137.204453
10
69.250000
20
138.000000
10
68.750000
20
138.500000
10
68.750000
20
139.750000
10
69.250000
20
140.500000
10
68.522693
20
140.032262
10
67.500000
20
140.500000
10
66.250000
20
141.750000
10
65.500000
20
141.750000
10
65.500000
20
141.000000
10
64.250000
20
139.750000
10
63.086288
20
139.249687
10
62.000000
20
139.750000
10
61.000000
20
140.750000
10
59.750000
20
141.250000
10
57.250000
20
144.000000
10
57.250000
20
145.500000
10
57.750000
20
146.250000
10
59.000000
20
147.500000
10
60.414105
20
148.243180
10
58.250000
20
149.250000
10
57.250000
20
150.250000
10
57.250000
20
151.250000
10
57.750000
20
151.750000
10
57.750000
20
152.500000
10
57.250000
20
152.500000
10
56.347618
20
151.993883
10
55.250000
20
152.500000
10
52.500000
20
155.000000
10
52.226013
20
157.009393
10
53.250000
20
157.756854
10
53.250000
20
157.949532
10
52.750000
20
158.250000
10
51.750000
20
158.250000
10
50.750000
20
157.693880
10
50.750000
20
157.250000
10
49.500000
20
155.750000
10
49.500000
20
155.250000
10
49.000000
20
154.750000
10
47.913712
20
154.249687
10
46.750000
20
154.750000
10
44.750000
20
156.750000
10
44.750000
20
157.206405
10
43.000000
20
158.728471
10
43.000000
20
159.750000
10
44.750000
20
161.750000
10
45.478553
20
162.021447
10
45.790018
20
162.773388
10
44.750000
20
163.250000
10
40.000000
20
168.250000
10
40.000000
20
169.500000
10
40.250000
20
170.000000
10
41.250000
20
171.000000
10
42.250000
20
171.456114
10
42.250000
20
172.273322
10
43.000000
20
172.831345
10
43.000000
20
173.000000
10
44.250000
20
174.250000
10
45.250000
20
174.706114
10
46.250000
20
174.250000
10
48.000000
20
172.500000
10
48.000000
20
172.250000
10
49.000000
20
172.250000
10
49.000000
20
173.000000
10
50.000000
20
174.000000
10
51.500000
20
175.002856
10
51.500000
20
175.500000
10
52.750000
20
176.750000
10
53.250000
20
177.750000
10
54.250000
20
178.750000
10
55.000000
20
179.030330
10
55.000000
20
179.543886
10
54.000000
20
180.000000
10
52.500000
20
181.500000
10
52.250000
20
182.000000
10
52.250000
20
183.000000
10
58.500000
20
189.750000
10
59.663712
20
190.250313
10
60.750000
20
189.750000
10
62.771447
20
187.728553
10
63.500000
20
188.030330
10
63.500000
20
188.273322
10
64.250000
20
188.831345
10
64.250000
20
189.500000
10
67.000000
20
192.500000
10
67.750000
20
193.750000
10
68.750000
20
194.750000
10
69.500000
20
195.000000
10
68.250000
20
195.500000
10
66.750000
20
197.000000
10
66.500000
20
197.500000
10
66.500000
20
198.750000
10
68.750000
20
201.250000
10
70.250000
20
201.951064
10
70.250000
20
202.769364
10
72.250000
20
204.549381
10
72.250000
20
205.000000
10
73.000000
20
205.750000
10
74.049698
20
206.231571
10
76.000000
20
205.000000
10
76.500000
20
204.500000
10
76.500000
20
203.750000
10
76.750000
20
203.500000
10
77.493146
20
203.500000
10
78.250000
20
204.500000
10
79.279021
20
204.970979
10
79.500000
20
204.750000
10
79.500000
20
205.250000
10
80.000000
20
205.750000
10
81.029021
20
206.220979
10
81.250000
20
206.000000
10
81.844791
20
206.000000
10
81.000000
20
207.000000
10
81.000000
20
208.000000
10
81.500000
20
209.000000
10
82.750000
20
210.250000
10
83.478553
20
210.521447
10
83.250000
20
210.750000
10
83.250000
20
211.467132
10
82.840075
20
211.247747
10
81.750000
20
211.750000
10
80.750000
20
212.750000
10
80.750000
20
213.776902
10
81.750000
20
214.506854
10
81.750000
20
215.500000
10
84.750000
20
218.750000
10
85.760519
20
219.211502
10
86.250000
20
219.000000
10
86.000000
20
219.250000
10
86.000000
20
220.250000
10
87.000000
20
221.250000
10
88.025756
20
221.719307
10
89.750000
20
220.750000
10
90.750000
20
219.750000
10
90.750000
20
219.250000
10
91.539875
20
218.039875
10
91.750000
20
218.250000
10
91.750000
20
219.000000
10
92.250000
20
219.750000
10
92.250000
20
220.500000
10
95.000000
20
223.500000
10
95.000000
20
224.250000
10
96.250000
20
225.500000
10
97.279021
20
225.970979
10
97.500000
20
225.750000
10
97.500000
20
226.250000
10
97.750000
20
226.500000
10
97.750000
20
226.693880
10
96.720979
20
227.220979
10
96.529021
20
227.029021
10
95.500000
20
227.500000
10
94.500000
20
228.500000
10
94.500000
20
229.750000
10
95.500000
20
230.750000
10
95.500000
20
231.017288
10
96.500000
20
231.750000
10
98.000000
20
233.500000
10
98.500000
20
233.750000
10
99.000000
20
234.500000
0
ENDSEC
0
EOF
