0
SECTION
2
HEADER
9
$ACADVER
1
AC1014
9
$INSUNITS
70
4
9
$HANDSEED
5
FFFF
0
ENDSEC
0
SECTION
2
TABLES
0
TABLE
2
LTYPE
70
1
0
LTYPE
2
CONTINUOUS
70
0
3
Solid line
72
65
73
0
40
0.000000
0
ENDTAB
0
TABLE
2
LAYER
70
3
0
LAYER
2
0
70
0
62
7
6
CONTINUOUS
0
LAYER
2
OUTER
70
0
62
3
6
CONTINUOUS
0
LAYER
2
HOLES
70
0
62
1
6
CONTINUOUS
0
ENDTAB
0
ENDSEC
0
SECTION
2
ENTITIES
0
LWPOLYLINE
100
AcDbEntity
8
OUTER
100
AcDbPolyline
90
42
70
1
10
193.000000
20
282.750000
10
192.250000
20
282.000000
10
192.250000
20
281.000000
10
192.000000
20
280.750000
10
192.000000
20
280.250000
10
192.250000
20
280.000000
10
192.250000
20
278.750000
10
192.500001
20
278.499999
10
192.499999
20
235.499999
10
192.250000
20
235.250000
10
192.250000
20
234.000000
10
192.000000
20
233.750000
10
192.500000
20
233.250000
10
192.500000
20
226.250000
10
192.750000
20
226.000000
10
192.750000
20
212.750000
10
193.000000
20
212.500000
10
193.000000
20
209.000000
10
193.250000
20
208.750000
10
193.250000
20
200.250000
10
193.000000
20
200.000000
10
193.000000
20
199.250000
10
193.250000
20
199.000000
10
193.250000
20
197.750000
10
193.500000
20
197.500000
10
193.500000
20
194.250000
10
193.750000
20
194.000000
10
193.750000
20
192.250000
10
193.980325
20
192.480325
10
195.248042
20
191.781599
10
195.500000
20
163.750000
10
195.500000
20
176.500000
10
195.750000
20
176.750000
10
195.750000
20
182.500000
10
196.000000
20
182.750000
10
196.000000
20
185.750000
10
195.750000
20
186.000000
10
195.750000
20
187.500000
10
195.999998
20
187.749998
10
196.000000
20
281.250000
10
195.250000
20
282.500000
10
194.750000
20
282.750000
0
LWPOLYLINE
100
AcDbEntity
8
OUTER
100
AcDbPolyline
90
161
70
1
10
15.750000
20
232.000000
10
15.750000
20
232.500000
10
15.923938
20
232.826062
10
15.750000
20
233.000000
10
15.750000
20
238.000000
10
15.999999
20
238.249999
10
16.000001
20
280.280520
10
17.250000
20
281.000000
10
62.750000
20
281.000000
10
64.000000
20
280.280520
10
64.000000
20
278.500000
10
63.750000
20
278.250000
10
63.750000
20
273.500000
10
64.000000
20
273.250000
10
64.000000
20
270.750000
10
63.717128
20
270.467128
10
64.000000
20
270.000000
10
64.000000
20
233.750000
10
64.500000
20
235.000000
10
64.500001
20
263.500001
10
64.782869
20
263.782869
10
64.500000
20
264.250000
10
64.500000
20
267.750000
10
64.750000
20
268.000000
10
64.750000
20
269.750000
10
64.500000
20
270.000000
10
64.500000
20
271.250000
10
64.750000
20
271.500000
10
64.750000
20
272.250000
10
64.500000
20
272.500000
10
64.500000
20
273.750000
10
64.750000
20
274.000000
10
64.750000
20
274.500000
10
64.502123
20
274.747877
10
64.766781
20
277.983219
10
64.500000
20
278.250000
10
64.500000
20
279.750000
10
65.000000
20
280.250000
10
66.000000
20
280.750000
10
71.500000
20
280.750000
10
71.750000
20
281.000000
10
72.250000
20
281.000000
10
72.500000
20
280.750000
10
73.250000
20
280.750000
10
73.500000
20
281.000000
10
73.750000
20
280.750000
10
74.250000
20
280.750000
10
74.500000
20
281.000000
10
75.250000
20
281.000000
10
75.500000
20
280.750000
10
82.000000
20
280.750000
10
82.282870
20
281.032870
10
82.750000
20
280.750000
10
88.000000
20
280.750000
10
88.250000
20
281.000000
10
88.750000
20
281.000000
10
89.000000
20
280.750000
10
91.500000
20
280.750000
10
91.782870
20
281.032870
10
92.250000
20
280.750000
10
93.500000
20
280.750000
10
93.750000
20
281.000000
10
94.250000
20
281.000000
10
94.500000
20
280.750000
10
95.500000
20
280.750000
10
95.750000
20
281.000000
10
98.250000
20
281.000000
10
98.500000
20
280.750000
10
99.500000
20
280.750000
10
99.750000
20
281.000000
10
103.750000
20
281.000000
10
104.000000
20
280.750000
10
105.000000
20
280.750000
10
105.250000
20
281.000000
10
107.250000
20
281.000000
10
107.532870
20
280.717130
10
108.000000
20
281.000000
10
115.500000
20
281.000000
10
115.967130
20
280.717130
10
116.250000
20
281.000000
10
118.250000
20
281.000000
10
118.500000
20
281.250000
10
118.750000
20
281.000000
10
120.500000
20
281.000000
10
120.750000
20
281.250000
10
121.250000
20
281.250000
10
121.500000
20
281.000000
10
123.500000
20
281.000000
10
123.750000
20
281.250000
10
124.250000
20
281.250000
10
124.500000
20
281.000000
10
125.250000
20
281.000000
10
125.532871
20
281.282871
10
126.077855
20
280.991204
10
126.500000
20
281.250000
10
128.250000
20
281.250000
10
128.532871
20
280.967129
10
129.000000
20
281.250000
10
131.000000
20
281.250000
10
131.250000
20
281.000000
10
131.500000
20
281.250000
10
136.000000
20
281.250000
10
135.500000
20
281.500000
10
109.500000
20
281.500000
10
109.250000
20
281.750000
10
108.500000
20
281.750000
10
108.250000
20
281.500000
10
103.500000
20
281.500000
10
103.250000
20
281.750000
10
101.750000
20
281.750000
10
101.500000
20
281.500000
10
101.000000
20
281.500000
10
100.750000
20
281.750000
10
100.500000
20
281.500000
10
98.000000
20
281.500000
10
97.750000
20
281.750000
10
97.500000
20
281.500000
10
96.500000
20
281.500000
10
96.250000
20
281.750000
10
95.000000
20
281.750000
10
94.717129
20
281.467129
10
94.172145
20
281.758796
10
93.750000
20
281.500000
10
92.250000
20
281.500000
10
92.000000
20
281.750000
10
87.000000
20
281.750000
10
86.750000
20
281.500000
10
86.250000
20
281.500000
10
86.000000
20
281.750000
10
85.750000
20
281.500000
10
83.250000
20
281.500000
10
83.000000
20
281.750000
10
80.750000
20
281.750000
10
80.500000
20
281.500000
10
77.750000
20
281.500000
10
77.500000
20
281.750000
10
77.250000
20
281.500000
10
76.250000
20
281.500000
10
76.000000
20
281.750000
10
71.250000
20
281.750000
10
71.000000
20
281.500000
10
70.750000
20
281.750000
10
70.000000
20
281.750000
10
69.750000
20
281.500000
10
69.500000
20
281.750000
10
68.000000
20
281.750000
10
67.532871
20
281.467129
10
67.250000
20
281.750000
10
66.750000
20
281.750000
10
66.500000
20
281.500000
10
65.500000
20
281.500000
10
65.250000
20
281.750000
10
16.000000
20
281.750000
10
15.532871
20
282.032871
10
15.000000
20
281.500000
10
15.000000
20
281.000000
10
15.250001
20
280.749999
10
15.249999
20
235.500001
10
15.500000
20
235.250000
10
15.500000
20
232.750000
10
15.750000
20
232.500000
0
ENDSEC
0
EOF
