0
SECTION
2
HEADER
9
$ACADVER
1
AC1014
9
$INSUNITS
70
4
9
$HANDSEED
5
FFFF
0
ENDSEC
0
SECTION
2
TABLES
0
TABLE
2
LTYPE
70
1
0
LTYPE
2
CONTINUOUS
70
0
3
Solid line
72
65
73
0
40
0.000000
0
ENDTAB
0
TABLE
2
LAYER
70
3
0
LAYER
2
0
70
0
62
7
6
CONTINUOUS
0
LAYER
2
OUTER
70
0
62
3
6
CONTINUOUS
0
LAYER
2
HOLES
70
0
62
1
6
CONTINUOUS
0
ENDTAB
0
ENDSEC
0
SECTION
2
ENTITIES
0
LWPOLYLINE
100
AcDbEntity
8
OUTER
100
AcDbPolyline
90
50
70
1
10
92.500000
20
174.500000
10
92.250000
20
174.250000
10
91.500000
20
174.250000
10
90.500000
20
173.250000
10
90.239856
20
153.760144
10
90.500000
20
153.500000
10
90.500000
20
152.500000
10
91.750000
20
151.250000
10
94.250000
20
151.000000
10
95.500000
20
150.280520
10
95.500000
20
142.969480
10
96.750000
20
142.280520
10
96.750000
20
139.750000
10
97.000000
20
139.500000
10
97.000000
20
136.250000
10
96.750000
20
136.000000
10
96.750000
20
122.250000
10
96.500000
20
122.000000
10
96.500000
20
120.000000
10
97.000000
20
119.500000
10
97.500000
20
119.500000
10
98.239495
20
119.975270
10
99.500000
20
119.280520
10
99.500000
20
118.800468
10
100.000000
20
118.500000
10
102.750000
20
118.750000
10
103.750000
20
119.750000
10
103.750000
20
123.500000
10
104.000000
20
123.750000
10
104.000000
20
138.000000
10
104.250000
20
138.250000
10
104.250000
20
141.812901
10
105.750000
20
142.749667
10
105.750000
20
150.030520
10
107.000000
20
150.750000
10
109.250000
20
150.750000
10
109.500000
20
151.000000
10
110.023971
20
151.000000
10
111.250000
20
152.500000
10
111.250000
20
154.750000
10
111.500000
20
155.000000
10
111.500000
20
161.750000
10
111.750000
20
162.000000
10
111.750000
20
171.750000
10
111.250000
20
173.000000
10
110.500000
20
173.750000
10
110.000000
20
173.750000
10
109.250000
20
174.250000
10
98.000000
20
174.250000
10
97.750000
20
174.500000
0
LWPOLYLINE
100
AcDbEntity
8
HOLES
100
AcDbPolyline
90
12
70
1
10
102.792985
20
146.222822
10
104.250000
20
145.312901
10
104.250000
20
143.723098
10
103.250000
20
142.993146
10
103.250000
20
141.437099
10
101.750000
20
140.500333
10
100.250000
20
141.437099
10
100.250000
20
143.273317
10
100.953361
20
143.796639
10
100.750000
20
144.000000
10
100.750000
20
145.000000
10
101.250000
20
145.500000
0
LWPOLYLINE
100
AcDbEntity
8
HOLES
100
AcDbPolyline
90
10
70
1
10
92.250000
20
153.750000
10
92.750000
20
154.250000
10
93.750000
20
154.750000
10
94.250000
20
154.750000
10
95.750000
20
153.812901
10
95.750000
20
152.750000
10
95.250000
20
152.250000
10
94.250000
20
151.750000
10
93.750000
20
151.750000
10
92.250000
20
152.687099
0
LWPOLYLINE
100
AcDbEntity
8
HOLES
100
AcDbPolyline
90
20
70
1
10
97.000000
20
153.250000
10
97.500000
20
153.750000
10
97.500000
20
154.312901
10
99.000000
20
155.250000
10
99.500000
20
155.250000
10
100.500000
20
154.750000
10
101.000000
20
154.250000
10
101.000000
20
153.720744
10
104.534827
20
155.227917
10
106.000000
20
154.312901
10
106.000000
20
152.437099
10
104.500000
20
151.500000
10
103.250000
20
151.500000
10
103.000000
20
151.250000
10
102.000000
20
151.250000
10
100.750000
20
152.000000
10
100.250000
20
152.000000
10
99.500000
20
151.500000
10
98.504586
20
151.247469
10
97.000000
20
152.187099
0
LWPOLYLINE
100
AcDbEntity
8
HOLES
100
AcDbPolyline
90
8
70
1
10
109.287405
20
160.023027
10
110.500000
20
159.500000
10
111.000000
20
159.000000
10
111.000000
20
157.437099
10
109.462595
20
156.476973
10
108.250000
20
157.000000
10
107.750000
20
157.500000
10
107.750000
20
159.062901
0
LWPOLYLINE
100
AcDbEntity
8
HOLES
100
AcDbPolyline
90
9
70
1
10
102.534787
20
165.227942
10
104.000000
20
164.312901
10
104.000000
20
162.937099
10
102.499795
20
162.000205
10
102.217126
20
162.282874
10
101.721939
20
162.017858
10
100.250000
20
162.937099
10
100.250000
20
164.000000
10
100.750000
20
164.500000
0
LWPOLYLINE
100
AcDbEntity
8
HOLES
100
AcDbPolyline
90
30
70
1
10
91.250000
20
159.187099
10
91.250000
20
160.773317
10
92.000000
20
161.331340
10
92.000000
20
161.418660
10
91.250000
20
161.976683
10
91.250000
20
165.250000
10
91.750000
20
165.750000
10
92.913712
20
166.250313
10
94.000000
20
165.750000
10
94.750000
20
165.000000
10
94.750000
20
164.518237
10
95.511271
20
164.988729
10
95.750000
20
164.750000
10
95.750000
20
165.312901
10
97.204355
20
166.221161
10
99.250000
20
165.250000
10
99.750000
20
164.750000
10
99.750000
20
162.687099
10
98.198223
20
161.717998
10
96.750000
20
162.500000
10
96.250000
20
162.500000
10
95.522693
20
162.032262
10
94.500000
20
162.556120
10
94.500000
20
161.976683
10
93.750000
20
161.418660
10
93.750000
20
161.344791
10
94.750000
20
160.517288
10
94.750000
20
159.500000
10
94.250000
20
159.000000
10
92.707015
20
158.277178
0
LWPOLYLINE
100
AcDbEntity
8
HOLES
100
AcDbPolyline
90
11
70
1
10
109.750000
20
168.999667
10
111.250000
20
168.062901
10
111.250000
20
164.500000
10
110.500000
20
163.500000
10
109.470979
20
163.029021
10
109.250000
20
163.250000
10
109.000205
20
163.000205
10
107.500000
20
163.937099
10
107.500000
20
166.000000
10
108.250000
20
166.750000
10
108.250000
20
168.062901
0
LWPOLYLINE
100
AcDbEntity
8
HOLES
100
AcDbPolyline
90
6
70
1
10
95.750000
20
169.249667
10
97.250000
20
168.312901
10
97.250000
20
167.187099
10
95.750000
20
166.250333
10
94.250000
20
167.187099
10
94.250000
20
168.312901
0
LWPOLYLINE
100
AcDbEntity
8
HOLES
100
AcDbPolyline
90
12
70
1
10
97.500000
20
169.250000
10
98.750000
20
170.500000
10
99.750000
20
171.000000
10
102.500000
20
171.000000
10
103.500000
20
170.500000
10
104.250000
20
169.750000
10
104.250000
20
167.774634
10
102.250000
20
166.000000
10
101.250000
20
165.500000
10
100.500000
20
165.500000
10
98.250000
20
166.500000
10
97.500000
20
167.500000
0
LWPOLYLINE
100
AcDbEntity
8
HOLES
100
AcDbPolyline
90
19
70
1
10
110.500000
20
172.750000
10
111.000000
20
172.250000
10
111.000000
20
171.750000
10
111.250000
20
171.500000
10
111.250000
20
170.187091
10
109.700345
20
169.219315
10
108.750000
20
169.706114
10
108.750000
20
168.750000
10
107.750000
20
167.250000
10
106.750000
20
166.793886
10
105.750000
20
167.250000
10
105.250000
20
167.750000
10
105.250000
20
170.312909
10
106.750200
20
171.249800
10
107.000000
20
171.000000
10
107.228590
20
171.228590
10
107.750000
20
170.949540
10
107.750000
20
172.312909
10
109.287398
20
173.273030
0
LWPOLYLINE
100
AcDbEntity
8
HOLES
100
AcDbPolyline
90
9
70
1
10
91.750000
20
172.562909
10
93.250000
20
173.500000
10
95.250000
20
173.500000
10
96.750000
20
172.562909
10
96.750000
20
171.487985
10
95.500000
20
170.500000
10
94.345251
20
170.003851
10
92.250000
20
171.000000
10
91.750000
20
171.500000
0
ENDSEC
0
EOF
