0
SECTION
2
HEADER
9
$ACADVER
1
AC1014
9
$INSUNITS
70
4
9
$HANDSEED
5
FFFF
0
ENDSEC
0
SECTION
2
TABLES
0
TABLE
2
LTYPE
70
1
0
LTYPE
2
CONTINUOUS
70
0
3
Solid line
72
65
73
0
40
0.000000
0
ENDTAB
0
TABLE
2
LAYER
70
3
0
LAYER
2
0
70
0
62
7
6
CONTINUOUS
0
LAYER
2
OUTER
70
0
62
3
6
CONTINUOUS
0
LAYER
2
HOLES
70
0
62
1
6
CONTINUOUS
0
ENDTAB
0
ENDSEC
0
SECTION
2
ENTITIES
0
LWPOLYLINE
100
AcDbEntity
8
OUTER
100
AcDbPolyline
90
143
70
1
10
73.500000
20
237.000000
10
71.750000
20
236.000000
10
70.000000
20
234.000000
10
69.750000
20
233.000000
10
69.250000
20
232.250000
10
69.000000
20
230.000000
10
68.750000
20
229.750000
10
68.500000
20
216.000000
10
68.250000
20
215.750000
10
68.250000
20
206.750000
10
68.000000
20
206.500000
10
68.000000
20
198.000000
10
67.750000
20
197.750000
10
67.750000
20
189.500000
10
67.500000
20
189.250000
10
67.500000
20
180.000000
10
67.250000
20
179.750000
10
67.250000
20
170.750000
10
67.000000
20
170.500000
10
67.000000
20
161.500000
10
66.750000
20
161.250000
10
66.750000
20
152.750000
10
66.500000
20
152.500000
10
66.500000
20
143.250000
10
66.250000
20
143.000000
10
66.250000
20
136.000000
10
66.000000
20
135.750000
10
66.000000
20
128.250000
10
65.750000
20
128.000000
10
65.500000
20
113.500000
10
65.250000
20
113.250000
10
65.000000
20
100.500000
10
64.750000
20
100.250000
10
64.750000
20
94.000000
10
64.500000
20
93.750000
10
64.500000
20
86.750000
10
64.750000
20
86.500000
10
64.750000
20
85.750000
10
65.000000
20
85.500000
10
65.250000
20
84.250000
10
66.000000
20
83.000000
10
67.750000
20
81.250000
10
69.000000
20
80.500000
10
70.500000
20
80.250000
10
70.750000
20
80.000000
10
74.250000
20
80.000000
10
74.500000
20
79.750000
10
81.250000
20
79.750000
10
81.500000
20
79.500000
10
88.750000
20
79.500000
10
89.000000
20
79.250000
10
95.750000
20
79.250000
10
96.000000
20
79.000000
10
102.750000
20
79.000000
10
103.000000
20
78.750000
10
109.250000
20
78.750000
10
109.500000
20
78.500000
10
117.750000
20
78.500000
10
118.000000
20
78.250000
10
129.000000
20
78.250000
10
129.250000
20
78.500000
10
130.000000
20
78.500000
10
131.500000
20
79.250000
10
133.500000
20
81.500000
10
134.250000
20
83.250000
10
134.500000
20
85.750000
10
134.750000
20
86.000000
10
135.000000
20
102.000000
10
135.250000
20
102.250000
10
135.250000
20
110.250000
10
135.500000
20
110.500000
10
135.500000
20
113.000000
10
135.750000
20
113.250000
10
135.750000
20
123.250000
10
136.000000
20
123.500000
10
136.000000
20
129.500000
10
136.250000
20
129.750000
10
136.250000
20
130.500000
10
136.000000
20
130.750000
10
136.000000
20
134.500000
10
136.250000
20
134.750000
10
136.250000
20
135.250000
10
136.000000
20
135.500000
10
136.000000
20
136.750000
10
135.750000
20
137.000000
10
135.750000
20
140.750000
10
136.000000
20
141.000000
10
136.000000
20
148.000000
10
136.250000
20
148.250000
10
136.250000
20
152.250000
10
136.500000
20
152.500000
10
136.500000
20
153.500000
10
136.750000
20
153.750000
10
136.750000
20
155.750000
10
137.000000
20
156.000000
10
137.000000
20
162.500000
10
137.250000
20
162.750000
10
137.500000
20
175.250000
10
137.750000
20
175.500000
10
137.750000
20
182.000000
10
138.000000
20
182.250000
10
138.000000
20
190.250000
10
138.250000
20
190.500000
10
138.250000
20
197.750000
10
138.500000
20
198.000000
10
138.500000
20
204.500000
10
138.750000
20
204.750000
10
138.750000
20
211.250000
10
139.000000
20
211.500000
10
139.000000
20
218.750000
10
139.250000
20
219.000000
10
139.250000
20
225.750000
10
139.500000
20
226.000000
10
139.500000
20
227.750000
10
139.250000
20
228.000000
10
139.250000
20
229.500000
10
139.000000
20
229.750000
10
139.000000
20
230.250000
10
138.250000
20
231.250000
10
138.250000
20
231.750000
10
137.750000
20
232.750000
10
136.500000
20
234.000000
10
134.500000
20
235.000000
10
133.750000
20
235.000000
10
133.500000
20
235.250000
10
131.500000
20
235.250000
10
131.250000
20
235.500000
10
124.750000
20
235.500000
10
124.500000
20
235.750000
10
118.500000
20
235.750000
10
118.250000
20
236.000000
10
113.500000
20
236.000000
10
113.250000
20
236.250000
10
105.750000
20
236.250000
10
105.500000
20
236.500000
10
98.500000
20
236.500000
10
98.250000
20
236.750000
10
87.250000
20
237.000000
10
87.000000
20
237.250000
10
81.250000
20
237.250000
10
81.000000
20
237.500000
10
75.000000
20
237.500000
10
74.750000
20
237.250000
0
LWPOLYLINE
100
AcDbEntity
8
OUTER
100
AcDbPolyline
90
116
70
1
10
195.250000
20
217.500000
10
195.249997
20
63.969479
10
193.989495
20
63.274730
10
193.250000
20
63.750000
10
192.000000
20
63.750000
10
191.750000
20
63.500000
10
191.467126
20
63.782874
10
191.000000
20
63.500000
10
185.500000
20
63.500000
10
185.250000
20
63.750000
10
184.750000
20
63.750000
10
184.500000
20
63.500000
10
147.250000
20
63.500000
10
147.000000
20
63.750000
10
146.500000
20
63.750000
10
146.250000
20
63.500000
10
146.250000
20
63.000000
10
146.500001
20
62.749999
10
146.499999
20
18.499999
10
146.230736
20
18.230736
10
146.499770
20
15.469353
10
145.250000
20
14.750000
10
137.500000
20
14.750000
10
137.217136
20
15.032864
10
136.750000
20
14.750000
10
136.000000
20
14.750000
10
135.717136
20
15.032864
10
135.250000
20
14.750000
10
134.250000
20
14.750000
10
134.000000
20
15.000000
10
131.500000
20
15.000000
10
131.250000
20
14.750000
10
122.250000
20
14.750000
10
122.000000
20
15.000000
10
120.250000
20
15.000000
10
119.967136
20
14.717136
10
119.422164
20
15.008796
10
119.000000
20
14.750000
10
107.750000
20
14.750000
10
107.500000
20
15.000000
10
105.000000
20
15.000000
10
104.750000
20
14.750000
10
104.500000
20
15.000000
10
104.000000
20
15.000000
10
103.750000
20
14.750000
10
103.000000
20
14.750000
10
102.717136
20
15.032864
10
102.250000
20
14.750000
10
99.500000
20
14.750000
10
99.250000
20
15.000000
10
98.250000
20
15.000000
10
98.000000
20
14.750000
10
94.000000
20
14.750000
10
93.750000
20
15.000000
10
64.750000
20
15.000000
10
63.499999
20
15.719481
10
63.500001
20
63.750000
10
39.250000
20
63.750000
10
38.967126
20
63.467126
10
38.500000
20
63.750000
10
22.000000
20
63.750000
10
21.750000
20
63.500000
10
20.500000
20
63.500000
10
20.250000
20
63.750000
10
16.500000
20
63.750000
10
16.074550
20
63.489430
10
14.749999
20
64.219481
10
14.750001
20
90.250001
10
15.000000
20
90.500000
10
15.000000
20
91.500000
10
14.750000
20
91.750000
10
14.750000
20
93.250000
10
15.000000
20
93.500000
10
15.000000
20
95.250000
10
14.750000
20
95.500000
10
14.750000
20
96.750000
10
15.000000
20
97.000000
10
15.000000
20
98.750000
10
14.750000
20
99.000000
10
14.750000
20
110.750000
10
15.032871
20
111.032871
10
14.750000
20
111.500000
10
14.750000
20
174.250000
10
14.750000
20
170.000000
10
14.500000
20
169.750000
10
14.500000
20
149.250000
10
14.250002
20
149.000002
10
14.249998
20
77.249998
10
14.000000
20
77.000000
10
14.000000
20
74.000000
10
14.250000
20
73.750000
10
14.250000
20
72.750000
10
14.000000
20
72.500000
10
14.000000
20
66.000000
10
14.250001
20
65.749999
10
14.249999
20
18.749999
10
14.000000
20
18.500000
10
14.000000
20
17.000000
10
14.250000
20
16.750000
10
14.250000
20
15.750000
10
14.750000
20
14.750000
10
16.750000
20
14.000000
10
43.250000
20
14.000000
10
43.500000
20
14.250000
10
52.500000
20
14.250000
10
52.735485
20
14.014515
10
193.750000
20
14.250000
10
194.000000
20
14.500000
10
194.532876
20
14.500000
10
194.750000
20
15.000000
10
195.500000
20
15.500000
10
195.750000
20
16.000000
10
195.750003
20
168.999997
10
195.499999
20
169.250001
10
195.500001
20
214.499999
10
195.250000
20
214.750000
0
LWPOLYLINE
100
AcDbEntity
8
HOLES
100
AcDbPolyline
90
14
70
1
10
16.750001
20
61.750001
10
17.500000
20
62.500000
10
18.500000
20
63.000000
10
61.000000
20
63.000000
10
62.000000
20
62.500000
10
62.750001
20
61.749999
10
62.750000
20
18.750000
10
62.500000
20
18.250000
10
61.000000
20
17.250000
10
18.500000
20
17.250000
10
17.500000
20
17.750000
10
17.000000
20
18.250000
10
17.000000
20
19.000000
10
16.749999
20
19.250001
0
LWPOLYLINE
100
AcDbEntity
8
HOLES
100
AcDbPolyline
90
20
70
1
10
146.750000
20
62.250000
10
147.250000
20
62.750000
10
148.750000
20
63.500000
10
154.250000
20
63.500000
10
154.500000
20
63.250000
10
191.250000
20
63.250000
10
192.250000
20
62.750000
10
193.000000
20
61.750000
10
193.000000
20
18.500000
10
192.750000
20
18.000000
10
191.250000
20
17.000000
10
148.500000
20
17.000000
10
147.500000
20
17.500000
10
147.000000
20
18.000000
10
147.000000
20
18.500000
10
146.749999
20
18.750001
10
146.750001
20
52.499999
10
146.500000
20
52.750000
10
146.500000
20
61.250000
10
146.750000
20
61.500000
0
LWPOLYLINE
100
AcDbEntity
8
HOLES
100
AcDbPolyline
90
259
70
1
10
74.750000
20
236.000000
10
75.250000
20
236.000000
10
75.500000
20
236.250000
10
79.500000
20
236.250000
10
79.754761
20
235.995239
10
81.225275
20
236.274725
10
81.500000
20
236.000000
10
84.000000
20
236.000000
10
84.282872
20
235.717128
10
84.750000
20
236.000000
10
87.250000
20
236.000000
10
87.500000
20
235.750000
10
92.500000
20
235.750000
10
93.261271
20
235.261271
10
93.500000
20
235.500000
10
94.000000
20
235.500000
10
94.250000
20
235.250000
10
94.500000
20
235.500000
10
97.750000
20
235.500000
10
98.000000
20
235.250000
10
98.250000
20
235.500000
10
98.750000
20
235.500000
10
99.000000
20
235.250000
10
102.500000
20
235.250000
10
102.750000
20
235.000000
10
103.000000
20
235.250000
10
103.750000
20
235.250000
10
104.000000
20
235.000000
10
112.000000
20
235.000000
10
112.243146
20
234.756854
10
113.973098
20
235.026902
10
114.250000
20
234.750000
10
117.250000
20
234.750000
10
117.493146
20
234.506854
10
119.223098
20
234.776902
10
119.500000
20
234.500000
10
123.000000
20
234.500000
10
123.250000
20
234.250000
10
130.250000
20
234.250000
10
130.500000
20
234.000000
10
132.250000
20
234.000000
10
132.675454
20
234.260568
10
134.000000
20
233.500000
10
134.750000
20
233.500000
10
135.750000
20
233.000000
10
137.000000
20
231.750000
10
137.000000
20
230.750000
10
138.000000
20
228.750000
10
138.000000
20
224.500000
10
137.750000
20
224.250000
10
137.750000
20
219.250000
10
137.467126
20
218.967126
10
137.750000
20
218.500000
10
137.750000
20
215.750000
10
137.500000
20
215.500000
10
137.250000
20
205.750000
10
137.000000
20
205.500000
10
137.000000
20
205.000000
10
137.250000
20
204.750000
10
137.250000
20
202.000000
10
137.000000
20
201.750000
10
137.000000
20
195.000000
10
136.750000
20
194.750000
10
136.750000
20
192.500000
10
136.500000
20
192.250000
10
136.750000
20
192.000000
10
136.750000
20
190.250000
10
136.500000
20
190.000000
10
136.500000
20
184.000000
10
136.250000
20
183.750000
10
136.500000
20
183.500000
10
136.500000
20
181.000000
10
136.233440
20
180.733440
10
136.504251
20
178.254251
10
136.250000
20
178.000000
10
136.250000
20
175.000000
10
135.967126
20
174.717126
10
136.250000
20
174.250000
10
136.250000
20
173.250000
10
136.000000
20
173.000000
10
136.000000
20
168.000000
10
135.750000
20
167.750000
10
136.000000
20
167.500000
10
136.000000
20
166.000000
10
135.750000
20
165.750000
10
135.500000
20
156.000000
10
135.250000
20
155.750000
10
135.250000
20
153.750000
10
135.000000
20
153.500000
10
134.750000
20
143.750000
10
134.500000
20
143.500000
10
134.750000
20
143.250000
10
134.750000
20
142.250000
10
134.500000
20
142.000000
10
134.500000
20
136.000000
10
134.750000
20
135.750000
10
134.750000
20
134.250000
10
134.500000
20
134.000000
10
134.750000
20
133.750000
10
134.750000
20
132.500000
10
134.500000
20
132.250000
10
134.500000
20
124.000000
10
134.250000
20
123.750000
10
134.500000
20
123.500000
10
134.500000
20
122.500000
10
134.250000
20
122.250000
10
134.250000
20
112.500000
10
134.000000
20
112.250000
10
134.000000
20
109.250000
10
133.750000
20
109.000000
10
134.000000
20
108.750000
10
134.000000
20
107.250000
10
133.750000
20
107.000000
10
133.750000
20
95.750000
10
133.500000
20
95.500000
10
133.500000
20
89.250000
10
133.250000
20
89.000000
10
133.250000
20
85.250000
10
133.000000
20
85.000000
10
132.750000
20
83.250000
10
132.250000
20
82.250000
10
130.250000
20
80.250000
10
129.250000
20
79.750000
10
128.500000
20
79.750000
10
128.250000
20
79.500000
10
123.750000
20
79.500000
10
123.467427
20
79.782573
10
122.237552
20
79.512448
10
122.000000
20
79.750000
10
117.750000
20
79.750000
10
117.500000
20
80.000000
10
117.250000
20
79.750000
10
114.250000
20
79.750000
10
113.980736
20
80.019264
10
111.247069
20
79.752931
10
111.000000
20
80.000000
10
108.250000
20
80.000000
10
108.000000
20
80.250000
10
107.250000
20
80.250000
10
106.968558
20
79.968558
10
106.000000
20
80.250000
10
105.532874
20
79.967126
10
105.250000
20
80.250000
10
103.000000
20
80.250000
10
102.750000
20
80.500000
10
102.500000
20
80.250000
10
102.000000
20
80.250000
10
101.750000
20
80.500000
10
100.750000
20
80.500000
10
100.500000
20
80.250000
10
98.500000
20
80.250000
10
98.250000
20
80.500000
10
90.250000
20
80.500000
10
90.000000
20
80.750000
10
85.750000
20
80.750000
10
85.467126
20
81.032874
10
85.000000
20
80.750000
10
81.750000
20
80.750000
10
81.500000
20
81.000000
10
76.250000
20
81.000000
10
75.968558
20
81.281442
10
75.002998
20
80.997002
10
74.750000
20
81.250000
10
72.250000
20
81.250000
10
72.021415
20
81.478585
10
71.532874
20
81.217126
10
71.250000
20
81.500000
10
70.250000
20
81.500000
10
68.750000
20
82.250000
10
67.250000
20
83.750000
10
67.000000
20
84.500000
10
66.500000
20
85.000000
10
66.500000
20
85.750000
10
66.000000
20
86.750000
10
66.000000
20
92.500000
10
66.250000
20
92.750000
10
66.000000
20
93.000000
10
66.000000
20
94.000000
10
66.250000
20
94.250000
10
66.500000
20
104.000000
10
66.750000
20
104.250000
10
66.750000
20
111.000000
10
66.993146
20
111.243146
10
66.723098
20
112.973098
10
67.000000
20
113.250000
10
67.250000
20
125.750000
10
67.500000
20
126.000000
10
67.250000
20
126.250000
10
67.250000
20
127.500000
10
67.500000
20
127.750000
10
67.750000
20
139.250000
10
68.000000
20
139.500000
10
68.000000
20
148.500000
10
68.250000
20
148.750000
10
68.250000
20
154.500000
10
68.500000
20
154.750000
10
68.500000
20
157.250000
10
68.250000
20
157.500000
10
68.250000
20
158.500000
10
68.500000
20
158.750000
10
68.500000
20
162.750000
10
68.750000
20
163.000000
10
68.750000
20
170.500000
10
69.000000
20
170.750000
10
69.000000
20
175.250000
10
69.250000
20
175.500000
10
69.000000
20
175.750000
10
69.000000
20
179.000000
10
69.282869
20
179.282869
10
69.000000
20
179.750000
10
69.000000
20
183.000000
10
69.250000
20
183.250000
10
69.250000
20
184.250000
10
69.532869
20
184.532869
10
69.250000
20
185.000000
10
69.250000
20
186.500000
10
69.532869
20
186.967131
10
69.000000
20
187.500000
10
69.000000
20
188.500000
10
69.250000
20
188.750000
10
69.250000
20
191.250000
10
69.500000
20
191.500000
10
69.500000
20
192.000000
10
69.250000
20
192.250000
10
69.250000
20
193.500000
10
69.500000
20
193.750000
10
69.500000
20
199.750000
10
69.748392
20
199.998392
10
69.485156
20
203.735156
10
69.750000
20
204.000000
10
69.750000
20
207.500000
10
70.000000
20
207.750000
10
70.000000
20
209.000000
10
69.750000
20
209.250000
10
69.750000
20
211.000000
10
70.000000
20
211.250000
10
70.000000
20
217.250000
10
70.250000
20
217.500000
10
70.000000
20
217.750000
10
70.000000
20
219.250000
10
70.250000
20
219.500000
10
70.250000
20
220.000000
10
70.000000
20
220.250000
10
70.000000
20
222.000000
10
70.250000
20
222.250000
10
70.250000
20
223.500000
10
70.500000
20
223.750000
10
70.500000
20
225.500000
10
70.250000
20
225.750000
10
70.250000
20
227.000000
10
70.500000
20
227.250000
10
70.250000
20
227.500000
10
70.250000
20
229.250000
10
70.500000
20
229.500000
10
70.500000
20
230.500000
10
71.000000
20
231.000000
10
71.000000
20
232.000000
10
71.750000
20
233.750000
10
73.250000
20
235.250000
0
ENDSEC
0
EOF
