0
SECTION
2
HEADER
9
$ACADVER
1
AC1014
9
$INSUNITS
70
4
9
$HANDSEED
5
FFFF
0
ENDSEC
0
SECTION
2
TABLES
0
TABLE
2
LTYPE
70
1
0
LTYPE
2
CONTINUOUS
70
0
3
Solid line
72
65
73
0
40
0.000000
0
ENDTAB
0
TABLE
2
LAYER
70
3
0
LAYER
2
0
70
0
62
7
6
CONTINUOUS
0
LAYER
2
OUTER
70
0
62
3
6
CONTINUOUS
0
LAYER
2
HOLES
70
0
62
1
6
CONTINUOUS
0
ENDTAB
0
ENDSEC
0
SECTION
2
ENTITIES
0
LWPOLYLINE
100
AcDbEntity
8
OUTER
100
AcDbPolyline
90
245
70
1
10
99.000000
20
235.250000
10
98.000000
20
234.250000
10
97.500000
20
233.250000
10
97.000000
20
232.949536
10
97.000000
20
232.717132
10
96.500000
20
232.449540
10
96.500000
20
232.217132
10
96.000000
20
231.949540
10
96.000000
20
231.730910
10
93.500000
20
229.481501
10
93.500000
20
229.217132
10
94.000000
20
229.000000
10
96.500000
20
226.500000
10
96.500000
20
225.467132
10
96.000000
20
225.250000
10
93.250000
20
222.250000
10
93.250000
20
221.437091
10
91.750000
20
220.500000
10
90.500000
20
220.250000
10
89.500000
20
220.750000
10
88.526329
20
222.000000
10
86.750000
20
222.000000
10
86.250000
20
221.500000
10
86.250000
20
220.500000
10
82.500000
20
216.500000
10
82.500000
20
216.250000
10
81.500000
20
215.250000
10
79.500000
20
214.301832
10
79.500000
20
213.967132
10
80.000000
20
213.750000
10
80.250000
20
213.250000
10
82.500000
20
211.000000
10
82.500000
20
209.987985
10
81.250000
20
209.012015
10
81.250000
20
208.250000
10
79.500000
20
206.250000
10
79.500000
20
206.000000
10
79.000000
20
205.500000
10
78.000000
20
205.000000
10
77.250000
20
205.000000
10
76.522693
20
204.532262
10
75.500000
20
205.000000
10
74.750000
20
206.250000
10
74.250000
20
206.500000
10
72.550460
20
206.500000
10
72.250000
20
206.000000
10
72.250000
20
205.000000
10
69.000000
20
201.500000
10
69.000000
20
201.226675
10
68.250000
20
200.668652
10
68.250000
20
200.500000
10
67.250000
20
199.500000
10
66.220979
20
199.029021
10
66.000000
20
199.250000
10
65.456139
20
198.706139
10
66.250000
20
197.500000
10
68.500000
20
195.250000
10
68.500000
20
194.226675
10
67.750000
20
193.750000
10
67.500000
20
193.000000
10
65.750000
20
191.250000
10
65.750000
20
191.000000
10
64.500000
20
189.750000
10
62.662989
20
189.000023
10
61.500000
20
189.500000
10
60.750000
20
190.500000
10
59.930802
20
191.024529
10
58.798303
20
190.775791
10
58.500000
20
189.750000
10
53.250000
20
184.250000
10
53.250000
20
183.927013
10
51.284733
20
183.031872
10
51.693539
20
182.813085
10
52.000000
20
182.000000
10
54.250000
20
179.750000
10
54.250000
20
178.750000
10
53.750000
20
178.250000
10
53.500000
20
177.500000
10
52.500000
20
176.655206
10
52.500000
20
176.500000
10
50.750000
20
174.750000
10
50.750000
20
174.500000
10
49.750000
20
173.500000
10
48.750000
20
173.043886
10
47.750000
20
173.500000
10
46.250000
20
175.000000
10
46.250000
20
175.199540
10
45.750000
20
175.500000
10
44.791397
20
175.221490
10
44.250000
20
174.250000
10
42.500000
20
172.500000
10
42.500000
20
172.250000
10
40.500000
20
170.250000
10
39.250000
20
169.709593
10
39.250000
20
169.500000
10
39.500000
20
169.250000
10
39.500000
20
168.750000
10
40.250000
20
167.750000
10
44.750000
20
163.250000
10
44.750000
20
162.250000
10
44.250000
20
161.750000
10
44.250000
20
161.000000
10
43.750000
20
160.500000
10
42.527588
20
159.972412
10
42.750000
20
159.750000
10
43.000000
20
158.500000
10
48.250000
20
153.250000
10
49.500000
20
153.015182
10
49.500000
20
153.750000
10
50.250000
20
154.750000
10
51.513164
20
155.476736
10
53.250000
20
154.500000
10
58.514908
20
148.968315
10
58.236648
20
146.420932
10
56.266693
20
145.523655
10
57.750000
20
143.250000
10
62.732818
20
138.462553
10
63.500000
20
138.750000
10
64.250000
20
140.000000
10
65.573722
20
140.760114
10
67.250000
20
140.000000
10
68.500000
20
138.750000
10
68.500000
20
138.483644
10
72.750000
20
134.452103
10
72.750000
20
133.500000
10
72.250000
20
133.000000
10
72.250000
20
131.969480
10
70.980325
20
131.269675
10
70.728590
20
131.521410
10
70.467131
20
131.032869
10
71.000000
20
130.500000
10
71.250000
20
129.500000
10
75.250000
20
125.500000
10
75.250000
20
125.339678
10
77.221049
20
123.955479
10
78.750000
20
125.750000
10
79.840076
20
126.252254
10
81.500000
20
125.500000
10
82.250000
20
124.500000
10
87.250000
20
119.705426
10
87.250000
20
118.500000
10
87.000000
20
118.000000
10
85.250000
20
116.250000
10
85.250000
20
115.500000
10
86.250000
20
114.500000
10
86.250000
20
114.233562
10
91.242505
20
109.462589
10
92.500000
20
111.000000
10
94.095746
20
111.749529
10
95.750000
20
111.000000
10
96.250000
20
110.250000
10
101.250000
20
105.455426
10
101.250000
20
104.000000
10
99.250000
20
102.000000
10
99.250000
20
101.000000
10
100.500000
20
99.750000
10
100.500000
20
99.467124
10
101.000000
20
99.250000
10
101.250000
20
98.750000
10
105.000000
20
95.250000
10
105.525192
20
95.019393
10
107.000000
20
96.750000
10
108.000000
20
97.250000
10
108.500000
20
97.250000
10
109.500000
20
96.750000
10
113.250000
20
93.000000
10
113.500000
20
93.000000
10
114.500000
20
92.000000
10
114.949668
20
92.000000
10
120.523671
20
98.057824
10
120.250000
20
99.000000
10
118.000000
20
101.250000
10
118.000000
20
102.250000
10
122.500000
20
107.000000
10
123.586288
20
107.500313
10
124.750000
20
107.000000
10
127.186832
20
105.234509
10
129.000000
20
107.250000
10
129.000000
20
107.493146
10
130.000000
20
108.223098
10
130.000000
20
108.500000
10
134.500000
20
113.250000
10
134.764776
20
113.962449
10
132.250000
20
116.750000
10
132.250000
20
117.750000
10
134.000000
20
119.500000
10
134.000000
20
119.750000
10
136.750000
20
122.500000
10
137.791793
20
122.977522
10
141.242617
20
120.765372
10
148.750000
20
129.000000
10
148.750000
20
129.500000
10
146.500000
20
131.750000
10
146.250000
20
132.250000
10
146.250000
20
133.250000
10
150.750000
20
138.000000
10
151.784117
20
138.473589
10
155.000000
20
136.500000
10
155.723619
20
136.500000
10
157.250000
20
138.500000
10
163.000000
20
144.500000
10
163.000000
20
145.000000
10
160.500000
20
147.500000
10
160.500000
20
148.750000
10
162.250000
20
150.500000
10
162.250000
20
150.750000
10
164.000000
20
152.500000
10
164.000000
20
152.750000
10
164.750000
20
153.500000
10
165.913712
20
154.000313
10
167.000000
20
153.500000
10
167.750000
20
152.750000
10
169.250000
20
152.000000
10
169.700106
20
152.000000
10
172.750000
20
155.250000
10
172.750000
20
155.500000
10
175.250000
20
158.000000
10
175.250000
20
158.500000
10
150.250000
20
184.000000
10
150.250000
20
184.282868
10
149.750000
20
184.500000
10
148.500000
20
185.750000
10
148.500000
20
185.975365
10
146.500000
20
187.728312
10
146.500000
20
188.000000
10
132.000000
20
202.750000
10
132.000000
20
203.023319
10
131.250000
20
203.500000
10
129.500000
20
205.500000
10
129.000000
20
205.717132
10
129.000000
20
206.000000
10
114.000000
20
221.250000
10
114.000000
20
221.532868
10
113.500000
20
221.750000
10
112.000000
20
223.250000
10
112.000000
20
223.521515
10
110.250000
20
225.015114
10
110.250000
20
225.250000
10
105.000000
20
230.500000
10
105.000000
20
230.750000
10
101.250000
20
234.500000
10
101.250000
20
234.768237
10
100.440427
20
235.268581
10
100.000000
20
235.000000
10
99.250000
20
235.000000
0
LWPOLYLINE
100
AcDbEntity
8
OUTER
100
AcDbPolyline
90
207
70
1
10
15.250000
20
25.000000
10
15.250000
20
22.000000
10
15.500000
20
21.750000
10
15.500000
20
15.750000
10
15.750000
20
15.500000
10
26.000000
20
15.500000
10
26.250000
20
15.250000
10
27.750000
20
15.250000
10
28.000000
20
15.500000
10
28.500000
20
15.500000
10
28.750000
20
15.250000
10
29.250000
20
15.250000
10
29.500000
20
15.500000
10
31.250000
20
15.500000
10
31.500000
20
15.250000
10
33.500000
20
15.250000
10
33.750000
20
15.500000
10
34.250000
20
15.500000
10
34.500000
20
15.250000
10
35.750000
20
15.250000
10
36.000000
20
15.500000
10
36.250000
20
15.250000
10
38.500000
20
15.250000
10
38.750000
20
15.500000
10
39.000000
20
15.250000
10
39.750000
20
15.250000
10
40.032864
20
15.532864
10
40.500000
20
15.250000
10
41.250000
20
15.250000
10
41.500000
20
15.500000
10
41.750000
20
15.250000
10
42.250000
20
15.250000
10
42.500000
20
15.500000
10
43.250000
20
15.500000
10
43.500000
20
15.250000
10
44.000000
20
15.250000
10
44.250000
20
15.500000
10
44.500000
20
15.250000
10
63.000000
20
15.250000
10
63.250000
20
15.500000
10
83.250000
20
15.500000
10
83.500000
20
15.250000
10
84.750000
20
15.250000
10
85.000000
20
15.500000
10
87.500000
20
15.500000
10
87.750000
20
15.250000
10
91.000000
20
15.250000
10
91.250000
20
15.500000
10
91.750000
20
15.500000
10
92.000000
20
15.250000
10
93.500000
20
15.250000
10
93.750000
20
15.500000
10
94.000000
20
15.250000
10
95.000000
20
15.250000
10
95.250000
20
15.500000
10
95.750000
20
15.500000
10
96.217136
20
15.217136
10
96.500000
20
15.500000
10
162.500000
20
15.500000
10
162.750000
20
15.750000
10
182.250000
20
15.750000
10
182.500000
20
15.500000
10
193.500000
20
15.500000
10
194.750000
20
15.939235
10
194.750000
20
17.500000
10
194.500000
20
17.750000
10
194.500000
20
23.250000
10
194.250000
20
23.500000
10
194.000000
20
23.250000
10
194.000000
20
21.750000
10
193.750000
20
21.500000
10
193.750000
20
16.962440
10
192.000000
20
16.000000
10
186.250000
20
16.000000
10
185.967136
20
16.282864
10
185.500000
20
16.000000
10
185.000000
20
16.000000
10
184.750000
20
16.250000
10
161.000000
20
16.250000
10
160.750000
20
16.000000
10
159.250000
20
16.000000
10
159.000000
20
16.250000
10
156.000000
20
16.250000
10
155.750000
20
16.000000
10
155.250000
20
16.000000
10
155.000000
20
16.250000
10
147.250000
20
16.250000
10
147.019675
20
16.019675
10
145.750000
20
16.719481
10
145.750000
20
27.250000
10
145.750000
20
25.500000
10
145.500000
20
25.250000
10
145.500000
20
22.000000
10
145.763778
20
21.736222
10
145.501762
20
16.688179
10
144.000000
20
15.750000
10
140.000000
20
15.750000
10
139.750000
20
16.000000
10
139.000000
20
16.000000
10
138.750000
20
15.750000
10
136.250000
20
15.750000
10
136.000000
20
16.000000
10
135.500000
20
16.000000
10
135.250000
20
15.750000
10
134.250000
20
15.750000
10
134.000000
20
16.000000
10
132.750000
20
16.000000
10
132.500000
20
15.750000
10
131.250000
20
15.750000
10
131.000000
20
16.000000
10
130.000000
20
16.000000
10
129.717136
20
15.717136
10
129.250000
20
16.000000
10
127.500000
20
16.000000
10
127.217136
20
15.717136
10
126.750000
20
16.000000
10
125.250000
20
16.000000
10
125.000000
20
15.750000
10
124.750000
20
16.000000
10
122.250000
20
16.000000
10
122.000000
20
15.750000
10
121.750000
20
16.000000
10
117.250000
20
16.000000
10
117.000000
20
16.250000
10
116.500000
20
16.250000
10
116.250000
20
16.000000
10
113.000000
20
16.000000
10
112.750000
20
15.750000
10
112.500000
20
16.000000
10
109.750000
20
16.000000
10
109.500000
20
16.250000
10
109.000000
20
16.250000
10
108.750000
20
16.000000
10
108.000000
20
16.000000
10
107.750000
20
16.250000
10
107.500000
20
16.000000
10
107.250000
20
16.250000
10
105.750000
20
16.250000
10
105.500000
20
16.000000
10
104.500000
20
16.000000
10
104.250000
20
16.250000
10
97.000000
20
16.250000
10
96.750000
20
16.000000
10
95.500000
20
16.000000
10
95.217136
20
16.282864
10
94.750000
20
16.000000
10
92.000000
20
16.000000
10
91.750000
20
16.250000
10
90.500000
20
16.250000
10
90.250000
20
16.000000
10
89.500000
20
16.000000
10
89.250000
20
16.250000
10
86.750000
20
16.250000
10
86.500000
20
16.000000
10
86.000000
20
16.000000
10
85.750000
20
16.250000
10
84.500000
20
16.250000
10
84.250000
20
16.000000
10
83.250000
20
16.000000
10
83.000000
20
16.250000
10
82.000000
20
16.250000
10
81.750000
20
16.000000
10
79.750000
20
16.000000
10
79.500000
20
16.250000
10
79.250000
20
16.000000
10
75.500000
20
16.000000
10
75.250000
20
15.750000
10
75.000000
20
16.000000
10
71.750000
20
16.000000
10
71.467136
20
15.717136
10
71.000000
20
16.000000
10
69.500000
20
16.000000
10
69.218558
20
15.718558
10
68.252998
20
16.002998
10
68.000000
20
15.750000
10
67.000000
20
15.750000
10
66.750000
20
16.000000
10
65.750000
20
16.000000
10
64.500000
20
16.719480
10
64.500000
20
19.250000
10
64.223098
20
19.526902
10
64.493146
20
21.256854
10
64.250000
20
21.500000
10
64.000000
20
28.250000
10
64.000000
20
16.719480
10
62.730325
20
16.019675
10
62.500000
20
16.250000
10
43.250000
20
16.250000
10
42.967136
20
15.967136
10
42.500000
20
16.250000
10
38.750000
20
16.250000
10
38.500000
20
16.000000
10
38.250000
20
16.250000
10
23.750000
20
16.250000
10
23.500000
20
16.000000
10
23.250000
20
16.250000
10
17.750000
20
16.250000
10
17.500000
20
16.000000
10
17.000000
20
16.000000
10
15.750000
20
16.719480
10
15.750000
20
17.750000
10
16.000000
20
18.000000
10
16.000000
20
25.500000
10
15.750000
20
25.750000
10
15.750000
20
26.500000
10
15.500000
20
26.500000
10
15.500000
20
25.250000
0
LWPOLYLINE
100
AcDbEntity
8
HOLES
100
AcDbPolyline
90
571
70
1
10
100.485585
20
232.740672
10
101.261271
20
232.261271
10
101.499800
20
232.499800
10
103.000000
20
231.562909
10
103.000000
20
230.250000
10
102.250000
20
229.500000
10
102.250000
20
228.000000
10
102.480325
20
228.230325
10
103.834214
20
227.484103
10
104.750000
20
227.750000
10
105.750000
20
227.250000
10
106.250000
20
226.750000
10
106.250000
20
225.518237
10
106.977307
20
225.967738
10
108.000000
20
225.500000
10
108.500000
20
225.000000
10
108.500000
20
224.500000
10
109.250000
20
223.750000
10
109.250000
20
222.750000
10
108.750000
20
222.250000
10
107.750000
20
221.750000
10
106.500000
20
221.500000
10
107.401874
20
221.001628
10
109.000000
20
222.000000
10
110.695838
20
222.533499
10
112.250000
20
221.562909
10
112.250000
20
220.268237
10
113.025436
20
220.747483
10
115.000000
20
219.500000
10
115.500000
20
219.000000
10
115.500000
20
218.581348
10
116.250000
20
218.000000
10
116.500000
20
217.250000
10
118.000000
20
216.312909
10
118.000000
20
215.250000
10
117.717131
20
214.967131
10
118.000000
20
214.500000
10
118.000000
20
213.250000
10
117.750000
20
213.000000
10
119.204348
20
213.971164
10
121.250000
20
213.000000
10
122.500000
20
211.750000
10
122.500000
20
210.750000
10
122.000000
20
210.250000
10
120.750000
20
209.750000
10
120.500000
20
209.500000
10
120.500000
20
209.030520
10
121.750000
20
209.750000
10
122.250000
20
209.750000
10
122.500000
20
209.500000
10
122.750000
20
209.750000
10
123.250000
20
209.750000
10
124.250000
20
209.250000
10
125.000000
20
208.250000
10
125.750000
20
208.000000
10
126.500000
20
207.250000
10
126.782573
20
206.032573
10
126.970979
20
206.220979
10
128.000000
20
205.750000
10
128.500000
20
205.250000
10
128.500000
20
204.764207
10
131.500000
20
201.999126
10
131.500000
20
201.000000
10
131.000000
20
200.500000
10
130.323775
20
200.250229
10
131.750000
20
199.500000
10
132.730325
20
198.519675
10
133.987430
20
199.212552
10
135.000000
20
198.750000
10
135.750000
20
198.000000
10
135.750000
20
197.594797
10
136.750000
20
196.767294
10
136.750000
20
195.500000
10
136.967510
20
195.717510
10
138.500000
20
195.000000
10
139.000000
20
194.500000
10
139.000000
20
193.500000
10
138.720979
20
193.220979
10
139.750000
20
192.750000
10
141.000000
20
191.250000
10
141.000000
20
190.306120
10
142.080108
20
189.752852
10
142.720492
20
190.018107
10
144.250000
20
189.062914
10
144.250000
20
188.500000
10
144.750000
20
188.000000
10
144.750000
20
186.976681
10
144.112081
20
186.502050
10
145.000000
20
185.767294
10
145.000000
20
184.437086
10
143.499803
20
183.500197
10
143.250000
20
183.750000
10
143.250000
20
183.000000
10
142.750000
20
182.250000
10
143.500000
20
182.500000
10
144.000000
20
183.250000
10
145.000000
20
183.750000
10
145.500000
20
183.750000
10
146.737430
20
184.462552
10
147.750000
20
184.000000
10
148.250000
20
183.500000
10
148.250000
20
183.000000
10
148.531442
20
182.718558
10
149.500000
20
183.000000
10
150.500000
20
182.500000
10
151.750000
20
181.250000
10
151.750000
20
179.500000
10
152.000000
20
179.250000
10
152.500000
20
179.250000
10
152.758552
20
179.508552
10
154.750000
20
178.250000
10
156.750000
20
176.000000
10
156.750000
20
174.750000
10
155.500000
20
173.500000
10
154.750000
20
173.250000
10
155.500000
20
173.000000
10
155.500000
20
173.500000
10
156.000000
20
174.000000
10
157.592028
20
174.747646
10
158.750000
20
174.250000
10
159.500000
20
173.250000
10
159.500000
20
172.250000
10
159.720979
20
172.470979
10
160.750000
20
172.000000
10
162.250000
20
170.500000
10
162.250000
20
170.344797
10
163.250000
20
169.517294
10
163.250000
20
169.250000
10
164.500000
20
168.000000
10
164.500000
20
167.000000
10
165.000000
20
167.000000
10
166.750000
20
166.000000
10
167.500000
20
165.250000
10
167.500000
20
164.706114
10
168.500000
20
164.250000
10
169.750000
20
163.000000
10
169.750000
20
161.973671
10
168.500000
20
160.975886
10
168.500000
20
160.300468
10
169.012694
20
160.026082
10
169.739495
20
160.475270
10
171.019675
20
159.769675
10
171.220979
20
159.970979
10
172.250000
20
159.500000
10
173.500000
20
158.000000
10
173.500000
20
157.000000
10
173.000000
20
156.500000
10
171.750000
20
156.000000
10
170.500000
20
154.975886
10
170.500000
20
154.500000
10
169.750000
20
153.750000
10
168.750000
20
153.293886
10
167.750000
20
153.750000
10
166.500000
20
155.000000
10
166.250000
20
155.000000
10
165.250000
20
154.000000
10
164.220979
20
153.529021
10
164.046636
20
153.703364
10
163.500000
20
153.000000
10
162.500000
20
152.500000
10
162.000000
20
152.500000
10
162.000000
20
151.500000
10
161.000000
20
150.500000
10
159.970979
20
150.029021
10
160.250000
20
149.750000
10
160.250000
20
148.500000
10
160.000000
20
148.250000
10
159.754663
20
146.952110
10
161.000000
20
145.500000
10
161.000000
20
144.187094
10
159.500000
20
143.250328
10
159.500000
20
141.500000
10
159.000000
20
141.000000
10
157.977307
20
140.532262
10
157.185414
20
141.021679
10
156.332048
20
140.770289
10
157.000000
20
140.273312
10
157.000000
20
139.226688
10
156.250000
20
138.750000
10
155.750000
20
138.000000
10
154.750000
20
137.543886
10
153.750000
20
138.000000
10
152.000000
20
139.543595
10
152.000000
20
139.250000
10
151.000000
20
138.250000
10
149.970979
20
137.779021
10
149.796636
20
137.953364
10
149.250000
20
137.250000
10
147.215531
20
136.284469
10
147.021415
20
136.478585
10
146.574550
20
136.239430
10
145.261052
20
136.963389
10
144.988689
20
135.285015
10
145.750000
20
135.000000
10
146.250000
20
134.500000
10
146.250000
20
133.500000
10
145.526902
20
132.500000
10
146.250000
20
131.500000
10
146.250000
20
130.500000
10
146.000000
20
130.250000
10
146.250000
20
130.000000
10
146.250000
20
128.000000
10
145.750000
20
127.500000
10
144.750000
20
127.000000
10
144.250000
20
127.000000
10
144.250000
20
125.750000
10
143.750000
20
125.250000
10
141.715531
20
124.284469
10
141.500000
20
124.500000
10
141.750000
20
124.250000
10
141.792036
20
123.213346
10
140.288318
20
122.274258
10
139.250000
20
122.750000
10
138.500000
20
123.500000
10
138.500000
20
124.231763
10
137.695834
20
123.734761
10
136.582780
20
124.251943
10
136.000000
20
123.500000
10
136.000000
20
122.937094
10
134.450342
20
121.969316
10
133.500000
20
122.456114
10
133.500000
20
121.726688
10
132.796636
20
121.203364
10
133.000000
20
121.000000
10
133.000000
20
119.750000
10
132.500000
20
119.250000
10
131.277588
20
118.722412
10
131.750000
20
118.250000
10
131.750000
20
116.750000
10
131.249798
20
116.249798
10
132.750000
20
115.312906
10
132.750000
20
114.250000
10
132.250000
20
113.750000
10
132.500000
20
113.500000
10
132.500000
20
112.463232
10
130.250000
20
110.750000
10
130.000000
20
109.250000
10
129.250000
20
108.500000
10
126.379651
20
106.982028
10
124.500000
20
107.750000
10
123.500000
20
108.750000
10
123.500000
20
109.500000
10
123.500000
20
108.750000
10
122.085829
20
107.664171
10
121.771415
20
107.978585
10
121.309577
20
107.731417
10
120.488729
20
108.238729
10
120.269675
20
108.019675
10
119.000000
20
108.750000
10
119.750000
20
108.000000
10
119.750000
20
107.000000
10
119.250000
20
106.500000
10
119.250000
20
105.726683
10
118.495045
20
105.164973
10
118.750000
20
104.750000
10
118.750000
20
103.726683
10
118.000000
20
103.168660
10
118.000000
20
102.000000
10
117.462889
20
101.462889
10
118.000000
20
100.500000
10
118.000000
20
100.000000
10
118.750000
20
99.250000
10
119.026902
20
97.526902
10
117.250000
20
95.750000
10
116.270710
20
95.304495
10
114.953815
20
95.703219
10
114.235591
20
95.259332
10
112.711280
20
96.211280
10
112.500000
20
96.000000
10
112.000000
20
96.000000
10
110.000000
20
97.000000
10
109.250000
20
97.750000
10
109.250000
20
98.719480
10
107.936968
20
97.995778
10
107.271447
20
98.271447
10
106.500000
20
97.500000
10
105.500000
20
97.000000
10
104.750000
20
97.000000
10
103.250000
20
97.750000
10
102.250000
20
98.750000
10
102.250000
20
99.543886
10
101.250000
20
100.000000
10
100.500000
20
100.750000
10
100.500000
20
102.250000
10
100.750000
20
102.750000
10
101.500000
20
103.331340
10
101.500000
20
103.773317
10
102.203361
20
104.296639
10
102.000000
20
104.500000
10
102.000000
20
105.000000
10
101.250000
20
106.000000
10
101.000000
20
106.750000
10
100.250000
20
107.500000
10
100.250000
20
108.500000
10
99.500000
20
108.500000
10
98.500000
20
109.000000
10
98.000000
20
109.500000
10
98.000000
20
110.204453
10
96.250000
20
111.000000
10
95.750000
20
111.500000
10
95.750000
20
112.500000
10
96.500000
20
113.250000
10
95.025676
20
112.266368
10
93.750000
20
113.000000
10
93.250000
20
113.000000
10
91.980325
20
112.269675
10
91.769675
20
112.480325
10
90.512570
20
111.787448
10
89.500000
20
112.250000
10
88.750000
20
113.000000
10
88.750000
20
113.500000
10
87.500000
20
115.000000
10
87.500000
20
116.000000
10
88.250000
20
116.750000
10
88.978553
20
117.021447
10
88.750000
20
117.250000
10
88.750000
20
118.247069
10
90.288405
20
119.512322
10
89.809577
20
119.768583
10
88.988729
20
119.261271
10
88.717126
20
119.532874
10
88.260512
20
119.288502
10
87.250000
20
119.750000
10
86.750000
20
120.250000
10
86.750000
20
120.750000
10
85.500000
20
122.000000
10
84.414418
20
123.500000
10
84.243748
20
123.500000
10
82.250000
20
125.750000
10
81.500000
20
126.000000
10
80.500000
20
127.000000
10
80.500000
20
128.023317
10
81.203361
20
128.546639
10
81.032490
20
128.717510
10
79.500000
20
127.941789
10
79.500000
20
127.250000
10
78.500000
20
126.250000
10
76.907972
20
125.502354
10
75.750000
20
126.000000
10
75.250000
20
126.500000
10
75.250000
20
127.523317
10
76.000000
20
128.000000
10
76.750000
20
129.000000
10
77.750000
20
129.500000
10
77.000000
20
129.000000
10
76.500000
20
129.000000
10
75.785946
20
129.459547
10
74.239628
20
128.493856
10
72.000000
20
129.922198
10
72.000000
20
131.062901
10
73.475112
20
131.984124
10
73.759578
20
134.030727
10
71.500000
20
136.500000
10
71.500000
20
137.467124
10
71.043805
20
137.222976
10
69.500000
20
138.250000
10
69.250000
20
138.750000
10
69.250000
20
140.000000
10
69.750000
20
140.500000
10
68.750000
20
140.000000
10
68.250000
20
140.000000
10
67.250000
20
140.500000
10
66.250000
20
141.500000
10
66.250000
20
141.750000
10
66.000000
20
141.750000
10
64.730325
20
141.019675
10
64.500000
20
141.250000
10
64.500000
20
140.750000
10
64.000000
20
140.250000
10
63.000000
20
139.750000
10
62.500000
20
139.750000
10
61.500000
20
140.250000
10
60.750000
20
141.000000
10
60.750000
20
141.959593
10
59.500000
20
142.500000
10
58.750000
20
143.250000
10
58.750000
20
144.267291
10
59.698129
20
145.051871
10
59.000000
20
145.750000
10
59.000000
20
147.000000
10
59.250000
20
147.500000
10
60.000000
20
148.081338
10
60.000000
20
148.250000
10
59.750000
20
148.250000
10
58.750000
20
149.250000
10
58.500000
20
150.250000
10
57.750000
20
151.000000
10
57.750000
20
152.500000
10
57.500000
20
152.250000
10
56.750000
20
152.250000
10
55.750000
20
152.750000
10
54.250000
20
154.250000
10
54.250000
20
155.481763
10
53.485589
20
155.009331
10
52.000000
20
155.937096
10
52.000000
20
157.262015
10
53.220780
20
158.215171
10
52.723626
20
158.481239
10
51.250000
20
157.250000
10
49.750000
20
156.421990
10
49.750000
20
155.437096
10
48.288316
20
154.524259
10
47.250000
20
155.000000
10
46.500000
20
156.000000
10
44.750000
20
157.491236
10
44.750000
20
158.500000
10
45.500000
20
159.250000
10
46.250000
20
159.530330
10
46.250000
20
159.776329
10
47.545071
20
160.810091
10
46.750000
20
161.750000
10
46.750000
20
163.276329
10
48.000000
20
164.274114
10
48.000000
20
165.000000
10
48.500000
20
165.500000
10
49.156687
20
165.741678
10
48.250000
20
166.206114
10
48.250000
20
165.687096
10
46.792988
20
164.777177
10
45.250000
20
165.500000
10
44.709320
20
166.195353
10
44.345456
20
166.000619
10
42.750000
20
166.750000
10
42.250000
20
167.500000
10
41.500000
20
167.750000
10
41.000000
20
168.250000
10
41.000000
20
169.500000
10
41.500000
20
170.000000
10
42.750000
20
170.500000
10
43.500000
20
171.250000
10
44.228553
20
171.521447
10
43.750000
20
172.000000
10
43.750000
20
173.000000
10
44.250000
20
173.500000
10
45.279021
20
173.970979
10
45.478590
20
173.771410
10
45.909925
20
174.002253
10
47.000000
20
173.500000
10
48.000000
20
172.500000
10
48.728553
20
172.228553
10
49.750000
20
173.250000
10
50.840075
20
173.752253
10
51.250000
20
173.532868
10
51.250000
20
174.500000
10
52.250000
20
175.500000
10
53.500000
20
176.040407
10
53.500000
20
177.273322
10
54.250000
20
177.831345
10
54.250000
20
178.250000
10
55.000000
20
179.250000
10
55.000000
20
180.523322
10
55.750000
20
181.000000
10
54.750000
20
180.750000
10
53.750000
20
181.250000
10
53.250000
20
181.750000
10
53.250000
20
182.750000
10
53.750000
20
183.500000
10
53.750000
20
184.000000
10
54.250000
20
184.500000
10
55.250000
20
185.000000
10
55.750000
20
185.000000
10
55.750000
20
185.517291
10
56.750000
20
186.344794
10
56.750000
20
186.750000
10
57.500000
20
188.250000
10
58.000000
20
188.750000
10
58.995041
20
189.203574
10
60.500000
20
188.500000
10
61.287111
20
187.712889
10
62.279021
20
188.220979
10
62.500000
20
188.000000
10
63.250000
20
188.000000
10
64.250000
20
188.556120
10
64.250000
20
189.000000
10
64.750000
20
189.500000
10
67.231817
20
190.518183
10
67.000000
20
190.750000
10
67.000000
20
191.750000
10
67.250000
20
192.250000
10
68.000000
20
192.750000
10
68.500000
20
194.000000
10
69.000000
20
194.500000
10
70.022693
20
194.967738
10
70.750000
20
194.518237
10
70.750000
20
196.000000
10
71.250000
20
196.500000
10
69.525756
20
195.530693
10
68.500000
20
196.000000
10
67.750000
20
196.750000
10
67.750000
20
197.750000
10
68.500000
20
198.500000
10
69.228553
20
198.771447
10
68.750000
20
199.250000
10
68.750000
20
200.250000
10
70.000000
20
201.500000
10
70.250000
20
202.250000
10
70.750000
20
202.750000
10
73.084641
20
203.765367
10
74.467356
20
203.065460
10
75.000000
20
203.750000
10
76.038321
20
204.225743
10
77.500000
20
203.312909
10
77.500000
20
202.226675
10
76.750000
20
201.668652
10
76.750000
20
201.449540
10
77.250000
20
201.750000
10
77.750000
20
201.750000
10
78.559570
20
201.231421
10
79.000000
20
201.467132
10
79.000000
20
202.250000
10
79.250000
20
202.500000
10
78.750000
20
203.000000
10
78.750000
20
204.062909
10
80.250000
20
205.000000
10
81.000000
20
205.000000
10
81.750000
20
204.500000
10
81.500000
20
204.750000
10
81.471830
20
205.971830
10
81.750000
20
206.250000
10
81.500000
20
206.500000
10
81.500000
20
207.750000
10
82.250000
20
209.000000
10
83.250000
20
210.000000
10
83.250000
20
210.750000
10
82.500000
20
211.500000
10
82.500000
20
212.562909
10
84.000200
20
213.499800
10
84.250000
20
213.250000
10
84.750000
20
213.250000
10
85.000000
20
213.500000
10
85.000000
20
213.750000
10
84.000000
20
213.500000
10
83.000000
20
214.000000
10
82.500000
20
214.500000
10
82.500000
20
215.500000
10
85.500000
20
218.750000
10
86.250000
20
219.030330
10
86.250000
20
219.500000
10
87.250000
20
220.500000
10
88.242179
20
220.952108
10
90.250000
20
220.000000
10
90.750000
20
219.500000
10
90.750000
20
218.556120
10
91.750000
20
218.000000
10
91.500000
20
218.250000
10
91.466590
20
219.216590
10
92.000000
20
219.750000
10
93.000000
20
220.250000
10
93.500000
20
220.250000
10
94.750000
20
219.530520
10
94.750000
20
220.012015
10
95.954530
20
220.952483
10
95.250000
20
221.476675
10
95.250000
20
222.750000
10
95.500000
20
223.000000
10
95.500000
20
223.500000
10
97.250000
20
225.750000
10
98.272693
20
226.217738
10
99.000000
20
225.768237
10
99.000000
20
226.250000
10
99.461352
20
226.711352
10
97.967510
20
227.467510
10
97.750000
20
227.250000
10
97.250000
20
227.250000
10
96.250000
20
227.750000
10
95.500000
20
228.500000
10
95.500000
20
229.750000
10
96.750000
20
231.000000
10
97.750000
20
231.500000
10
99.000000
20
231.227458
10
99.000000
20
231.812909
0
ENDSEC
0
EOF
