0
SECTION
2
HEADER
9
$ACADVER
1
AC1014
9
$INSUNITS
70
4
9
$HANDSEED
5
FFFF
0
ENDSEC
0
SECTION
2
TABLES
0
TABLE
2
LTYPE
70
1
0
LTYPE
2
CONTINUOUS
70
0
3
Solid line
72
65
73
0
40
0.000000
0
ENDTAB
0
TABLE
2
LAYER
70
3
0
LAYER
2
0
70
0
62
7
6
CONTINUOUS
0
LAYER
2
OUTER
70
0
62
3
6
CONTINUOUS
0
LAYER
2
HOLES
70
0
62
1
6
CONTINUOUS
0
ENDTAB
0
ENDSEC
0
SECTION
2
ENTITIES
0
LWPOLYLINE
100
AcDbEntity
8
OUTER
100
AcDbPolyline
90
398
70
1
10
146.518237
20
204.250000
10
145.750000
20
204.250000
10
145.500000
20
204.000000
10
143.750000
20
204.000000
10
143.500000
20
203.750000
10
142.000000
20
203.750000
10
141.750000
20
203.500000
10
140.250000
20
203.500000
10
140.000000
20
203.250000
10
138.750000
20
203.250000
10
138.500000
20
203.000000
10
137.250000
20
203.000000
10
137.000000
20
202.750000
10
135.500000
20
202.750000
10
135.250000
20
202.500000
10
134.000000
20
202.500000
10
133.750000
20
202.250000
10
132.250000
20
202.250000
10
132.000000
20
202.000000
10
131.000000
20
202.000000
10
130.750000
20
201.750000
10
127.750000
20
201.500000
10
127.500000
20
201.250000
10
125.000000
20
201.000000
10
124.750000
20
200.750000
10
123.500000
20
200.750000
10
123.250000
20
200.500000
10
120.000000
20
200.250000
10
119.750000
20
200.000000
10
118.750000
20
200.000000
10
117.500000
20
199.500000
10
114.250000
20
199.250000
10
114.000000
20
199.000000
10
113.000000
20
199.000000
10
112.750000
20
198.750000
10
111.500000
20
198.750000
10
111.250000
20
198.500000
10
110.000000
20
198.500000
10
109.750000
20
198.250000
10
108.250000
20
198.250000
10
108.000000
20
198.000000
10
106.750000
20
198.000000
10
106.500000
20
197.750000
10
105.250000
20
197.750000
10
105.000000
20
197.500000
10
103.750000
20
197.500000
10
103.500000
20
197.250000
10
99.250000
20
196.750000
10
99.000000
20
196.500000
10
96.500000
20
196.250000
10
96.250000
20
196.000000
10
94.750000
20
196.000000
10
94.500000
20
195.750000
10
93.500000
20
195.750000
10
93.250000
20
195.500000
10
90.500000
20
195.250000
10
90.250000
20
195.000000
10
89.250000
20
195.000000
10
89.000000
20
194.750000
10
87.750000
20
194.750000
10
87.500000
20
194.500000
10
86.250000
20
194.500000
10
86.000000
20
194.250000
10
84.750000
20
194.250000
10
84.500000
20
194.000000
10
83.250000
20
194.000000
10
83.000000
20
193.750000
10
81.750000
20
193.750000
10
81.500000
20
193.500000
10
78.500000
20
193.250000
10
77.250000
20
192.750000
10
75.750000
20
192.750000
10
75.500000
20
192.500000
10
74.500000
20
192.500000
10
74.250000
20
192.250000
10
73.000000
20
192.250000
10
72.750000
20
192.000000
10
71.750000
20
192.000000
10
71.500000
20
191.750000
10
70.000000
20
191.750000
10
69.750000
20
191.500000
10
67.000000
20
191.250000
10
66.750000
20
191.000000
10
64.250000
20
190.750000
10
64.000000
20
190.500000
10
62.750000
20
190.500000
10
62.500000
20
190.250000
10
61.250000
20
190.250000
10
61.000000
20
190.000000
10
59.750000
20
190.000000
10
59.500000
20
189.750000
10
58.500000
20
189.750000
10
58.250000
20
189.500000
10
57.000000
20
189.500000
10
56.750000
20
189.250000
10
55.500000
20
189.250000
10
55.250000
20
189.000000
10
53.250000
20
189.000000
10
52.750000
20
188.500000
10
52.500000
20
187.250000
10
52.000000
20
186.750000
10
51.250000
20
186.469670
10
51.250000
20
185.500000
10
51.470979
20
185.720979
10
52.500000
20
185.250000
10
53.000000
20
184.500000
10
53.000000
20
183.000000
10
53.250000
20
182.750000
10
53.503831
20
179.753831
10
53.000000
20
179.250000
10
52.250000
20
178.969670
10
52.250000
20
178.532868
10
52.675457
20
178.760566
10
54.000000
20
178.030520
10
54.000000
20
176.226678
10
53.250000
20
175.668655
10
53.250000
20
175.530330
10
54.000000
20
175.250000
10
54.500000
20
174.500000
10
54.750000
20
171.250000
10
55.000000
20
171.000000
10
55.000000
20
169.750000
10
55.250000
20
169.500000
10
55.750000
20
164.500000
10
56.000000
20
164.250000
10
56.000000
20
163.000000
10
56.250000
20
162.750000
10
56.250000
20
161.000000
10
56.500000
20
160.750000
10
56.500000
20
159.500000
10
56.750000
20
159.250000
10
56.750000
20
157.750000
10
57.000000
20
157.500000
10
57.500000
20
152.500000
10
57.750000
20
152.250000
10
57.750000
20
151.000000
10
58.000000
20
150.750000
10
58.250000
20
147.500000
10
58.500000
20
147.250000
10
58.500000
20
146.000000
10
58.750000
20
145.750000
10
58.750000
20
144.000000
10
59.000000
20
143.750000
10
59.000000
20
142.500000
10
59.250000
20
142.250000
10
59.250000
20
141.000000
10
59.500000
20
140.750000
10
59.500000
20
139.250000
10
59.750000
20
139.000000
10
59.750000
20
137.500000
10
60.000000
20
137.250000
10
60.000000
20
136.000000
10
60.250000
20
135.750000
10
60.750000
20
130.500000
10
61.000000
20
130.250000
10
61.000000
20
129.000000
10
61.250000
20
128.750000
10
61.250000
20
127.500000
10
61.500000
20
127.250000
10
61.500000
20
126.000000
10
61.750000
20
125.750000
10
61.750000
20
124.000000
10
62.000000
20
123.750000
10
62.000000
20
122.500000
10
62.250000
20
122.250000
10
62.500000
20
118.750000
10
62.750000
20
118.500000
10
62.750000
20
117.250000
10
63.000000
20
117.000000
10
63.000000
20
115.250000
10
63.250000
20
115.000000
10
63.250000
20
113.750000
10
63.500000
20
113.500000
10
63.500000
20
112.000000
10
63.750000
20
111.750000
10
63.750000
20
110.500000
10
64.000000
20
110.250000
10
64.000000
20
108.250000
10
64.250000
20
108.000000
10
64.250000
20
106.750000
10
64.500000
20
106.500000
10
64.500000
20
105.000000
10
64.750000
20
104.750000
10
64.750000
20
103.250000
10
65.000000
20
103.000000
10
65.000000
20
101.250000
10
65.250000
20
101.000000
10
65.250000
20
100.000000
10
65.500000
20
99.750000
10
65.500000
20
97.750000
10
65.754251
20
97.495749
10
68.250000
20
97.750000
10
68.500000
20
98.000000
10
71.000000
20
98.250000
10
71.250000
20
98.500000
10
72.750000
20
98.500000
10
72.980325
20
98.730325
10
74.250000
20
98.030520
10
74.250000
20
97.500000
10
74.500000
20
97.250000
10
74.500000
20
94.750000
10
74.800460
20
94.250000
10
75.750000
20
94.250000
10
76.000000
20
94.500000
10
77.000000
20
94.500000
10
77.250000
20
94.750000
10
78.500000
20
94.750000
10
78.750000
20
95.000000
10
80.250000
20
95.000000
10
81.500000
20
95.500000
10
82.746118
20
95.500000
10
83.031442
20
96.468558
10
82.750000
20
96.750000
10
82.497255
20
99.561187
10
84.000000
20
100.500000
10
85.250000
20
100.500000
10
85.500000
20
100.750000
10
86.750000
20
100.750000
10
87.000000
20
101.000000
10
88.250000
20
101.000000
10
88.500000
20
101.250000
10
89.750000
20
101.250000
10
90.000000
20
101.500000
10
91.250000
20
101.500000
10
91.500000
20
101.750000
10
93.000000
20
101.750000
10
93.250000
20
102.000000
10
95.500000
20
102.250000
10
96.750000
20
101.530520
10
96.750000
20
101.000000
10
97.000000
20
100.750000
10
97.000000
20
98.500000
10
97.500000
20
98.000000
10
98.000000
20
98.000000
10
98.250000
20
98.250000
10
99.250000
20
98.250000
10
99.500000
20
98.500000
10
100.750000
20
98.500000
10
101.000000
20
98.750000
10
105.250000
20
99.250000
10
105.503140
20
99.503140
10
105.236831
20
103.523261
10
106.500000
20
104.250000
10
108.250000
20
104.250000
10
108.500000
20
104.500000
10
109.500000
20
104.500000
10
109.750000
20
104.750000
10
111.250000
20
104.750000
10
111.500000
20
105.000000
10
112.500000
20
105.000000
10
112.750000
20
105.250000
10
114.250000
20
105.250000
10
115.500000
20
105.750000
10
118.250000
20
106.000000
10
119.500000
20
105.280520
10
119.500000
20
103.250000
10
119.000000
20
102.750000
10
118.250000
20
102.469670
10
118.250000
20
101.768237
10
119.065787
20
102.272421
10
120.000000
20
101.750000
10
120.750000
20
101.750000
10
121.000000
20
102.000000
10
122.250000
20
102.000000
10
122.500000
20
102.250000
10
123.750000
20
102.250000
10
124.000000
20
102.500000
10
125.250000
20
102.500000
10
125.500000
20
102.750000
10
127.000000
20
102.750000
10
127.250000
20
103.000000
10
128.250000
20
103.000000
10
128.532874
20
103.282874
10
128.250000
20
103.750000
10
128.250000
20
105.250000
10
128.000000
20
105.500000
10
128.000000
20
107.062906
10
129.500000
20
108.000000
10
131.000000
20
108.000000
10
131.250000
20
108.250000
10
132.250000
20
108.250000
10
132.500000
20
108.500000
10
135.500000
20
108.750000
10
135.750000
20
109.000000
10
137.250000
20
109.000000
10
137.500000
20
109.250000
10
141.000000
20
109.750000
10
142.250000
20
109.030520
10
142.250000
20
108.250000
10
142.500000
20
108.000000
10
142.500000
20
106.969480
10
141.230325
20
106.269675
10
141.000000
20
106.500000
10
141.000000
20
105.500000
10
141.238729
20
105.261271
10
142.000000
20
105.750000
10
142.500000
20
105.750000
10
142.750000
20
105.500000
10
144.000000
20
105.500000
10
144.250000
20
105.750000
10
145.500000
20
105.750000
10
145.750000
20
106.000000
10
147.000000
20
106.000000
10
147.250000
20
106.250000
10
151.500000
20
106.782255
10
151.500000
20
107.750000
10
151.250000
20
108.000000
10
151.250000
20
109.000000
10
151.000000
20
109.250000
10
151.000000
20
110.787560
10
152.750000
20
111.750000
10
156.000000
20
112.000000
10
156.250000
20
112.250000
10
157.500000
20
112.250000
10
157.750000
20
112.500000
10
159.000000
20
112.500000
10
159.482363
20
112.791029
10
159.250000
20
115.250000
10
159.000000
20
115.500000
10
159.000000
20
117.000000
10
158.750000
20
117.250000
10
158.750000
20
118.500000
10
158.500000
20
118.750000
10
158.500000
20
120.500000
10
158.250000
20
120.750000
10
158.250000
20
122.000000
10
158.000000
20
122.250000
10
158.000000
20
124.000000
10
157.750000
20
124.250000
10
157.750000
20
125.500000
10
157.500000
20
125.750000
10
157.500000
20
127.500000
10
157.250000
20
127.750000
10
157.000000
20
131.000000
10
156.750000
20
131.250000
10
156.500000
20
135.000000
10
156.250000
20
135.250000
10
156.000000
20
138.250000
10
155.750000
20
138.500000
10
155.750000
20
140.000000
10
155.500000
20
140.250000
10
155.250000
20
143.750000
10
155.000000
20
144.000000
10
155.000000
20
145.250000
10
154.750000
20
145.500000
10
154.750000
20
147.250000
10
154.500000
20
147.500000
10
154.500000
20
149.250000
10
154.250000
20
149.500000
10
154.000000
20
152.750000
10
153.750000
20
153.000000
10
153.750000
20
154.500000
10
153.500000
20
154.750000
10
153.500000
20
156.250000
10
153.250000
20
156.500000
10
153.250000
20
158.000000
10
153.000000
20
158.250000
10
153.000000
20
160.000000
10
152.750000
20
160.250000
10
152.500000
20
163.500000
10
152.250000
20
163.750000
10
152.250000
20
165.000000
10
152.000000
20
165.250000
10
151.750000
20
169.000000
10
151.500000
20
169.250000
10
151.500000
20
170.750000
10
151.250000
20
171.000000
10
151.250000
20
172.000000
10
151.000000
20
172.250000
10
151.000000
20
174.250000
10
150.750000
20
174.500000
10
150.750000
20
176.000000
10
150.500000
20
176.250000
10
150.500000
20
177.750000
10
150.250000
20
178.000000
10
150.250000
20
179.500000
10
150.000000
20
179.750000
10
150.000000
20
181.500000
10
149.750000
20
181.750000
10
149.750000
20
183.000000
10
149.500000
20
183.250000
10
149.500000
20
185.000000
10
149.250000
20
185.250000
10
149.250000
20
186.750000
10
149.000000
20
187.000000
10
149.000000
20
188.500000
10
148.750000
20
188.750000
10
148.750000
20
190.250000
10
148.500000
20
190.500000
10
148.500000
20
192.000000
10
148.250000
20
192.250000
10
148.250000
20
194.250000
10
148.000000
20
194.500000
10
147.750000
20
197.500000
10
147.500000
20
197.750000
10
147.500000
20
199.250000
10
147.250000
20
199.500000
10
147.000000
20
203.500000
0
LWPOLYLINE
100
AcDbEntity
8
OUTER
100
AcDbPolyline
90
32
70
1
10
14.750000
20
116.750000
10
14.750000
20
113.750000
10
14.500001
20
113.500001
10
14.499999
20
76.999999
10
14.250000
20
76.750000
10
14.250000
20
63.750000
10
14.488457
20
63.511543
10
14.240677
20
16.259323
10
14.500000
20
16.000000
10
14.500000
20
15.537087
10
16.000000
20
14.250000
10
77.500000
20
14.250000
10
77.750000
20
14.500000
10
98.750000
20
14.500000
10
99.000000
20
14.750000
10
103.000000
20
14.750000
10
64.500000
20
14.750000
10
63.250000
20
15.469480
10
63.250000
20
16.500000
10
63.500000
20
16.750000
10
63.500000
20
18.250000
10
63.249999
20
18.500001
10
63.250000
20
63.000000
10
63.532872
20
63.467128
10
63.250000
20
63.750000
10
62.750000
20
63.750000
10
62.500000
20
63.500000
10
17.500000
20
63.500000
10
17.250000
20
63.750000
10
16.500000
20
63.750000
10
16.074550
20
63.489430
10
14.749999
20
64.219481
0
LWPOLYLINE
100
AcDbEntity
8
HOLES
100
AcDbPolyline
90
19
70
1
10
16.750000
20
62.312903
10
18.250000
20
63.250000
10
32.250000
20
63.250000
10
32.500000
20
63.500000
10
61.500000
20
63.500000
10
62.500000
20
63.000000
10
63.250001
20
62.249999
10
63.249999
20
37.999999
10
63.000000
20
37.750000
10
63.000000
20
18.500000
10
62.750000
20
18.000000
10
61.250000
20
17.000000
10
18.500000
20
17.000000
10
17.500000
20
17.500000
10
16.750000
20
18.250000
10
16.750001
20
43.499999
10
16.500000
20
43.750000
10
16.500000
20
61.500000
10
16.750000
20
61.750000
0
LWPOLYLINE
100
AcDbEntity
8
HOLES
100
AcDbPolyline
90
402
70
1
10
145.750000
20
202.750000
10
146.250000
20
202.250000
10
146.250000
20
200.000000
10
145.801872
20
199.551872
10
146.750000
20
198.767294
10
146.750000
20
198.250000
10
147.000000
20
198.000000
10
147.000000
20
196.000000
10
147.250000
20
195.750000
10
147.250000
20
194.500000
10
147.500000
20
194.250000
10
147.500000
20
192.476681
10
146.809835
20
191.963177
10
147.750000
20
191.276902
10
147.750000
20
189.750000
10
147.467126
20
189.282874
10
148.000000
20
188.750000
10
148.000000
20
188.000000
10
148.500000
20
187.250000
10
148.500000
20
184.250000
10
148.750000
20
184.000000
10
148.750000
20
182.750000
10
149.000000
20
182.500000
10
149.000000
20
181.500000
10
148.750000
20
181.250000
10
149.250000
20
180.750000
10
149.250000
20
179.500000
10
149.500000
20
179.250000
10
149.500000
20
176.750000
10
149.750000
20
176.500000
10
149.750000
20
175.500000
10
150.000000
20
175.250000
10
150.000000
20
172.976681
10
149.318378
20
172.469533
10
150.500000
20
171.526329
10
150.500000
20
170.500000
10
150.750000
20
170.250000
10
151.014228
20
166.737274
10
150.250000
20
166.168665
10
150.250000
20
166.030330
10
151.000000
20
165.750000
10
151.500000
20
165.250000
10
151.500000
20
163.250000
10
152.000000
20
162.250000
10
152.000000
20
160.750000
10
151.750000
20
160.500000
10
152.250000
20
160.000000
10
152.250000
20
157.500000
10
152.750000
20
156.250000
10
152.750000
20
153.750000
10
153.000000
20
153.500000
10
153.000000
20
152.500000
10
152.546636
20
152.046636
10
153.250000
20
151.523312
10
153.250000
20
149.250000
10
153.750000
20
148.750000
10
153.750000
20
146.000000
10
154.500000
20
144.500000
10
154.500000
20
142.250000
10
154.261271
20
142.011271
10
154.750000
20
141.250000
10
154.750000
20
139.500000
10
155.250000
20
138.750000
10
155.250000
20
134.937094
10
153.749798
20
134.000202
10
153.500000
20
134.250000
10
153.000000
20
133.750000
10
153.000000
20
133.280520
10
154.237430
20
133.962552
10
155.250000
20
133.500000
10
156.000000
20
132.750000
10
156.000000
20
130.750000
10
156.250000
20
130.500000
10
156.250000
20
127.250000
10
156.000000
20
127.000000
10
156.000000
20
126.500000
10
156.250000
20
126.250000
10
156.250000
20
125.750000
10
157.250000
20
124.750000
10
157.250000
20
123.500000
10
157.500000
20
123.250000
10
157.500000
20
122.250000
10
157.011271
20
121.761271
10
157.500000
20
121.000000
10
157.500000
20
120.250000
10
157.750000
20
120.000000
10
157.750000
20
118.750000
10
157.467126
20
118.282874
10
158.000000
20
117.750000
10
158.000000
20
117.000000
10
158.250000
20
116.750000
10
158.250000
20
114.750000
10
158.000000
20
114.500000
10
158.000000
20
113.937094
10
156.500000
20
113.000000
10
155.250000
20
113.000000
10
155.000000
20
112.750000
10
153.750000
20
112.750000
10
153.500000
20
112.500000
10
152.250000
20
112.500000
10
152.000000
20
112.250000
10
151.500000
20
112.250000
10
151.284469
20
112.465531
10
149.250000
20
111.440717
10
149.250000
20
111.250000
10
150.500000
20
110.000000
10
150.500000
20
109.000000
10
149.750000
20
108.000000
10
148.250000
20
107.250000
10
146.000000
20
107.000000
10
145.250000
20
106.500000
10
144.500000
20
106.500000
10
143.500000
20
107.000000
10
143.000000
20
107.500000
10
142.750000
20
111.000000
10
142.500000
20
111.250000
10
142.500000
20
111.700419
10
140.000000
20
110.250000
10
139.250000
20
110.250000
10
138.250000
20
110.750000
10
137.500000
20
111.500000
10
137.250000
20
111.250000
10
137.250000
20
110.687094
10
135.750000
20
109.750000
10
135.000000
20
109.750000
10
134.750000
20
109.500000
10
133.000000
20
109.500000
10
132.722412
20
109.222412
10
131.500000
20
109.750000
10
131.000000
20
110.250000
10
131.000000
20
110.750000
10
131.000000
20
109.750000
10
130.250000
20
109.000000
10
129.250000
20
108.500000
10
128.000000
20
108.500000
10
126.250000
20
107.724804
10
126.250000
20
107.000000
10
127.000000
20
106.250000
10
127.000000
20
105.250000
10
126.000000
20
104.000000
10
125.000000
20
103.500000
10
124.500000
20
103.500000
10
124.247002
20
103.247002
10
123.314586
20
103.521679
10
122.500000
20
103.000000
10
121.750000
20
103.000000
10
121.529021
20
102.779021
10
120.500000
20
103.250000
10
120.000000
20
103.750000
10
119.750000
20
107.250000
10
119.449540
20
107.750000
10
119.081342
20
107.750000
10
118.500000
20
107.000000
10
117.470979
20
106.529021
10
117.250000
20
106.750000
10
117.000000
20
106.500000
10
116.745239
20
106.754761
10
115.250000
20
106.500000
10
114.354704
20
107.002487
10
112.788314
20
106.024261
10
111.854704
20
106.502487
10
110.250000
20
105.500000
10
109.500000
20
105.500000
10
109.250000
20
105.250000
10
107.000000
20
105.250000
10
106.000000
20
104.750000
10
105.250000
20
104.750000
10
104.512694
20
104.276082
10
103.995446
20
104.552905
10
103.750000
20
104.000000
10
102.854630
20
103.241791
10
104.000000
20
102.750000
10
104.500000
20
102.250000
10
104.500000
20
101.000000
10
104.000000
20
100.500000
10
102.396843
20
99.746720
10
101.516728
20
100.197545
10
99.995414
20
99.247469
10
99.000000
20
99.500000
10
97.500000
20
100.500000
10
97.250000
20
101.000000
10
97.250000
20
103.000000
10
96.441789
20
104.500000
10
96.250000
20
104.500000
10
96.250000
20
103.687099
10
94.750000
20
102.750000
10
93.000000
20
103.000000
10
91.911612
20
102.506282
10
91.338388
20
102.743718
10
90.250000
20
102.250000
10
88.750000
20
102.250000
10
88.500000
20
102.000000
10
87.250000
20
102.000000
10
87.000000
20
101.750000
10
85.750000
20
101.750000
10
85.478553
20
101.478553
10
84.813032
20
101.754222
10
83.500000
20
101.000000
10
81.750000
20
101.000000
10
81.250000
20
100.500000
10
80.521447
20
100.228553
10
80.750000
20
100.000000
10
80.750000
20
99.524114
10
82.000000
20
98.526329
10
82.000000
20
97.250000
10
81.250000
20
96.500000
10
80.250000
20
96.000000
10
79.250000
20
96.000000
10
77.953357
20
95.546643
10
77.761271
20
95.738729
10
76.945834
20
95.234761
10
75.750000
20
95.750000
10
75.000000
20
96.750000
10
75.000000
20
97.500000
10
74.500000
20
98.250000
10
74.500000
20
99.250000
10
74.250000
20
99.500000
10
74.250000
20
100.500000
10
74.585687
20
101.065823
10
73.750000
20
100.750000
10
73.000000
20
99.750000
10
72.000000
20
99.250000
10
71.500000
20
99.250000
10
70.185316
20
100.005132
10
68.250000
20
98.750000
10
67.500000
20
98.750000
10
66.500000
20
99.250000
10
66.000000
20
99.750000
10
66.000000
20
101.500000
10
65.500000
20
102.750000
10
65.250000
20
107.000000
10
65.000000
20
107.250000
10
65.000000
20
108.250000
10
65.250000
20
108.500000
10
64.750000
20
109.000000
10
64.750000
20
111.750000
10
64.500000
20
112.000000
10
64.500000
20
112.500000
10
64.000000
20
113.000000
10
64.000000
20
116.000000
10
63.500000
20
116.750000
10
63.500000
20
118.023315
10
64.190168
20
118.536821
10
63.276645
20
119.203649
10
63.007669
20
122.279020
10
63.681625
20
122.780464
10
62.500000
20
123.723671
10
62.500000
20
125.250000
10
62.250000
20
125.500000
10
62.000000
20
128.500000
10
61.750000
20
128.750000
10
61.750000
20
129.750000
10
61.500000
20
130.000000
10
61.500000
20
132.000000
10
61.250000
20
132.250000
10
61.250000
20
134.750000
10
61.000000
20
135.000000
10
61.000000
20
136.500000
10
61.250000
20
136.750000
10
61.250000
20
137.250000
10
60.500000
20
138.000000
10
60.500000
20
139.750000
10
60.000000
20
140.250000
10
60.000000
20
142.250000
10
59.750000
20
142.500000
10
59.750000
20
143.523315
10
60.387924
20
143.997949
10
59.500000
20
144.732709
10
59.500000
20
145.500000
10
59.250000
20
145.750000
10
59.250000
20
147.750000
10
59.000000
20
148.000000
10
59.000000
20
149.250000
10
58.750000
20
149.500000
10
58.750000
20
150.500000
10
58.250000
20
151.750000
10
58.250000
20
153.750000
10
58.000000
20
154.000000
10
57.750000
20
157.000000
10
57.500000
20
157.250000
10
57.500000
20
158.250000
10
57.750000
20
158.500000
10
57.750000
20
159.500000
10
58.000000
20
159.750000
10
57.250000
20
160.500000
10
57.250000
20
161.000000
10
57.000000
20
161.250000
10
57.000000
20
163.250000
10
56.500000
20
164.000000
10
56.500000
20
165.000000
10
56.782872
20
165.467128
10
56.250000
20
166.000000
10
56.250000
20
167.750000
10
56.703362
20
168.203362
10
56.000000
20
168.726685
10
56.000000
20
169.750000
10
55.500000
20
170.500000
10
55.500000
20
172.750000
10
55.250000
20
173.000000
10
55.000000
20
174.750000
10
54.750000
20
175.000000
10
54.750000
20
177.000000
10
55.250000
20
177.500000
10
55.250000
20
178.250000
10
54.250000
20
179.500000
10
54.250000
20
180.500000
10
54.500000
20
180.750000
10
54.250000
20
181.000000
10
54.250000
20
182.000000
10
53.750000
20
182.750000
10
53.480058
20
185.800458
10
55.000199
20
186.749801
10
55.250000
20
186.500000
10
55.250000
20
187.500000
10
55.750000
20
188.000000
10
57.750000
20
188.750000
10
59.250000
20
188.750000
10
59.964046
20
188.290458
10
61.500000
20
189.250000
10
63.500000
20
189.250000
10
64.722451
20
188.545704
10
66.299655
20
189.530685
10
67.250000
20
189.043886
10
67.250000
20
189.500000
10
67.750000
20
190.000000
10
68.779021
20
190.470979
10
68.959593
20
190.290407
10
70.750000
20
191.000000
10
71.250000
20
191.000000
10
71.500000
20
190.750000
10
72.750000
20
190.750000
10
73.750000
20
191.250000
10
74.709325
20
191.008101
10
76.074543
20
191.760566
10
76.577850
20
191.491204
10
77.000000
20
191.750000
10
78.250000
20
191.750000
10
79.500000
20
192.500000
10
80.500000
20
192.500000
10
80.777588
20
192.777588
10
81.886340
20
192.262405
10
84.000000
20
193.250000
10
85.000000
20
193.250000
10
85.250000
20
193.500000
10
87.250000
20
193.500000
10
88.011271
20
193.988729
10
88.252998
20
193.747002
10
89.250000
20
194.000000
10
90.212889
20
193.462889
10
91.000000
20
194.250000
10
92.000000
20
194.750000
10
94.000000
20
195.000000
10
94.750000
20
194.500000
10
95.250000
20
194.500000
10
97.250000
20
195.500000
10
98.500000
20
195.500000
10
98.750000
20
195.750000
10
100.250000
20
195.750000
10
100.667250
20
195.493827
10
102.500000
20
196.500000
10
103.250000
20
196.500000
10
104.011271
20
196.011271
10
104.500000
20
196.500000
10
106.095448
20
197.249378
10
106.500000
20
197.000000
10
107.500000
20
197.000000
10
108.250000
20
197.500000
10
110.250000
20
197.500000
10
110.504761
20
197.754761
10
112.000000
20
197.500000
10
113.520550
20
198.229450
10
113.728590
20
198.021410
10
114.190430
20
198.268579
10
115.000000
20
197.750000
10
115.500000
20
197.750000
10
117.250000
20
198.750000
10
118.750000
20
198.750000
10
121.559026
20
199.690974
10
121.764137
20
199.485863
10
124.750000
20
199.750000
10
125.848833
20
200.248045
10
127.500000
20
199.500000
10
128.000000
20
198.750000
10
128.000000
20
200.000000
10
128.500000
20
200.500000
10
129.510519
20
200.961502
10
129.940430
20
200.731421
10
130.750000
20
201.231763
10
131.500000
20
200.768237
10
132.227307
20
201.217738
10
133.250000
20
200.750000
10
133.829428
20
200.002570
10
134.452950
20
200.260841
10
135.250000
20
199.768237
10
135.250000
20
200.750000
10
136.000000
20
201.500000
10
137.097618
20
202.006117
10
138.000000
20
201.500000
10
138.500000
20
201.500000
10
140.500000
20
202.500000
10
144.000000
20
202.750000
10
144.727307
20
203.217738
0
ENDSEC
0
EOF
