0
SECTION
2
HEADER
9
$ACADVER
1
AC1014
9
$INSUNITS
70
4
9
$HANDSEED
5
FFFF
0
ENDSEC
0
SECTION
2
TABLES
0
TABLE
2
LTYPE
70
1
0
LTYPE
2
CONTINUOUS
70
0
3
Solid line
72
65
73
0
40
0.000000
0
ENDTAB
0
TABLE
2
LAYER
70
3
0
LAYER
2
0
70
0
62
7
6
CONTINUOUS
0
LAYER
2
OUTER
70
0
62
3
6
CONTINUOUS
0
LAYER
2
HOLES
70
0
62
1
6
CONTINUOUS
0
ENDTAB
0
ENDSEC
0
SECTION
2
ENTITIES
0
LWPOLYLINE
100
AcDbEntity
8
OUTER
100
AcDbPolyline
90
212
70
1
10
51.532869
20
200.032869
10
51.250000
20
199.750000
10
51.000000
20
183.250000
10
50.750000
20
183.000000
10
50.750000
20
175.250000
10
50.500000
20
175.000000
10
50.500000
20
165.750000
10
50.250000
20
165.500000
10
50.000000
20
146.000000
10
49.750000
20
145.750000
10
49.750000
20
141.000000
10
49.500000
20
140.750000
10
49.250000
20
125.000000
10
49.000000
20
124.750000
10
49.000000
20
117.000000
10
48.750000
20
116.750000
10
48.750000
20
103.750000
10
48.500000
20
103.500000
10
48.500000
20
94.000000
10
48.250000
20
93.750000
10
48.250000
20
89.250000
10
48.550464
20
88.750000
10
49.750000
20
88.750000
10
50.000000
20
88.500000
10
56.250000
20
88.500000
10
56.500000
20
88.250000
10
57.250000
20
88.250000
10
57.500000
20
88.500000
10
57.500000
20
92.280520
10
58.750000
20
93.000000
10
64.250000
20
93.000000
10
65.500000
20
92.280520
10
65.500000
20
88.481763
10
66.250000
20
88.000000
10
73.750000
20
88.000000
10
74.000000
20
87.750000
10
76.750000
20
87.750000
10
77.217126
20
87.467126
10
77.500000
20
87.750000
10
77.500000
20
91.780520
10
78.750000
20
92.500000
10
79.250000
20
92.500000
10
79.500000
20
92.250000
10
84.500000
20
92.250000
10
85.750000
20
91.530520
10
85.750000
20
90.500000
10
85.500000
20
90.250000
10
85.500000
20
88.250000
10
85.981763
20
87.500000
10
88.500000
20
87.500000
10
88.750000
20
87.250000
10
96.250000
20
87.250000
10
96.500000
20
87.000000
10
97.750000
20
87.000000
10
97.750000
20
91.030520
10
99.000000
20
91.750000
10
101.500000
20
91.750000
10
101.750000
20
91.500000
10
104.500000
20
91.500000
10
105.750000
20
90.780520
10
105.750000
20
87.231763
10
106.500000
20
86.750000
10
112.750000
20
86.750000
10
113.000000
20
86.500000
10
117.000000
20
86.500000
10
117.250000
20
86.250000
10
117.750000
20
86.250000
10
118.000000
20
86.500000
10
118.000000
20
90.280520
10
119.250000
20
91.000000
10
124.750000
20
91.000000
10
126.000000
20
90.280520
10
126.000000
20
86.500000
10
126.250000
20
86.250000
10
128.750000
20
86.250000
10
129.000000
20
86.000000
10
134.250000
20
86.000000
10
134.500000
20
85.750000
10
135.250000
20
85.750000
10
135.782874
20
86.282874
10
135.500000
20
86.750000
10
135.500000
20
87.750000
10
135.750000
20
88.000000
10
135.750000
20
94.280520
10
137.000000
20
95.000000
10
139.500000
20
95.000000
10
139.990266
20
94.704742
10
140.518583
20
95.559577
10
140.250000
20
96.000000
10
140.250000
20
98.500000
10
140.500000
20
98.750000
10
140.500000
20
102.500000
10
140.750000
20
102.750000
10
140.750000
20
103.250000
10
140.449532
20
103.750000
10
140.000000
20
103.750000
10
138.427333
20
104.732475
10
137.584214
20
104.484103
10
136.250000
20
105.219480
10
136.250000
20
106.500000
10
136.500000
20
106.750000
10
136.500000
20
113.000000
10
136.750000
20
113.250000
10
136.750000
20
115.030520
10
138.000000
20
115.750000
10
140.949716
20
115.500344
10
141.250000
20
116.000000
10
141.250000
20
122.250000
10
141.500000
20
122.500000
10
141.500000
20
124.286738
10
139.750000
20
125.000000
10
139.228553
20
125.521447
10
138.563032
20
125.245778
10
137.244332
20
125.972604
10
137.502413
20
135.531850
10
138.750000
20
136.250000
10
141.750000
20
136.250000
10
142.000000
20
136.500000
10
142.000000
20
140.500000
10
142.250000
20
140.750000
10
142.250000
20
145.016051
10
140.250000
20
146.000000
10
139.500000
20
146.000000
10
138.250000
20
146.719481
10
138.250000
20
158.030520
10
139.500000
20
158.750000
10
142.250000
20
158.750000
10
142.750000
20
159.250000
10
142.750000
20
167.750000
10
141.750000
20
167.750000
10
140.500000
20
168.500000
10
139.750000
20
168.500000
10
138.500000
20
169.219481
10
138.500000
20
178.530520
10
139.750000
20
179.250000
10
142.250000
20
179.250000
10
143.000000
20
179.731763
10
143.000000
20
188.250000
10
142.750000
20
188.500000
10
142.000000
20
188.500000
10
141.250000
20
189.000000
10
140.000000
20
189.000000
10
138.750000
20
189.719480
10
138.750000
20
196.000000
10
139.000000
20
196.250000
10
139.000000
20
197.500000
10
138.750000
20
197.750000
10
137.750000
20
197.750000
10
137.000000
20
198.250000
10
131.000000
20
198.250000
10
130.750000
20
198.000000
10
130.250000
20
198.000000
10
129.287111
20
198.537111
10
129.000000
20
198.250000
10
129.000000
20
194.219480
10
127.730325
20
193.519675
10
127.500000
20
193.750000
10
122.500000
20
193.750000
10
121.250000
20
194.469480
10
121.250000
20
198.000000
10
120.967131
20
198.282869
10
120.497838
20
198.031711
10
119.250000
20
198.750000
10
118.750000
20
198.750000
10
118.500000
20
198.500000
10
114.750000
20
198.500000
10
114.500000
20
198.750000
10
113.250000
20
198.750000
10
113.000000
20
198.500000
10
109.750000
20
198.500000
10
109.282869
20
198.782869
10
109.000000
20
198.500000
10
109.000000
20
194.719480
10
107.750000
20
194.000000
10
105.750000
20
194.000000
10
105.500000
20
194.250000
10
105.250000
20
194.000000
10
104.000000
20
194.000000
10
103.750000
20
194.250000
10
102.500000
20
194.250000
10
102.269675
20
194.019675
10
101.000000
20
194.719480
10
101.000000
20
198.250000
10
100.750000
20
198.500000
10
100.000000
20
198.500000
10
99.190430
20
199.018579
10
98.750000
20
198.750000
10
95.750000
20
198.750000
10
95.500000
20
199.000000
10
89.050460
20
199.000000
10
88.750000
20
198.500000
10
88.750000
20
194.969480
10
87.480325
20
194.269675
10
87.250000
20
194.500000
10
82.000000
20
194.500000
10
80.750000
20
195.219480
10
80.750000
20
198.721878
10
79.500000
20
199.250000
10
71.000000
20
199.250000
10
70.771410
20
199.478590
10
70.282869
20
199.217131
10
70.000000
20
199.500000
10
68.750000
20
199.500000
10
68.750000
20
195.687091
10
67.250000
20
194.750000
10
66.500000
20
194.750000
10
66.250000
20
195.000000
10
61.750000
20
195.000000
10
60.500000
20
195.719480
10
60.500000
20
199.030520
10
59.250000
20
199.750000
10
52.000000
20
199.750000
0
LWPOLYLINE
100
AcDbEntity
8
OUTER
100
AcDbPolyline
90
66
70
1
10
196.000000
20
20.750000
10
195.750000
20
21.000000
10
195.750000
20
22.750000
10
195.500000
20
23.000000
10
195.500000
20
23.806105
10
194.500000
20
23.250000
10
194.000000
20
23.250000
10
193.209835
20
23.756586
10
192.750000
20
22.750000
10
192.481713
20
18.209401
10
191.250000
20
17.500000
10
148.500000
20
17.500000
10
147.250000
20
18.219480
10
147.250000
20
20.750000
10
147.000000
20
21.000000
10
147.000000
20
22.250000
10
146.750000
20
22.500000
10
146.750000
20
25.000000
10
146.500000
20
25.250000
10
146.500000
20
34.250000
10
146.500000
20
22.750000
10
146.217126
20
22.467126
10
146.500000
20
22.000000
10
146.500000
20
20.250000
10
146.250000
20
20.000000
10
146.250000
20
16.750000
10
146.500000
20
16.500000
10
146.500000
20
15.469480
10
145.175464
20
14.739438
10
144.750000
20
15.000000
10
65.000000
20
15.000000
10
64.574536
20
14.739438
10
63.250000
20
15.469480
10
63.250000
20
16.500000
10
63.510906
20
16.760906
10
63.246860
20
20.746860
10
63.717136
20
21.217136
10
63.250000
20
21.467140
10
63.250000
20
31.000000
10
63.250000
20
27.500000
10
63.000000
20
27.250000
10
63.000000
20
21.250000
10
62.750000
20
21.000000
10
62.485008
20
18.211217
10
61.250000
20
17.500000
10
18.500000
20
17.500000
10
17.250000
20
18.250000
10
16.737796
20
19.724220
10
16.000000
20
19.250000
10
15.250000
20
19.250000
10
14.530586
20
19.712860
10
14.250000
20
19.250000
10
14.250000
20
15.750000
10
14.500000
20
15.250000
10
15.250000
20
14.773330
10
15.250000
20
14.550452
10
15.750000
20
14.250000
10
17.000000
20
14.250000
10
17.250000
20
14.000000
10
193.000000
20
14.000000
10
193.250000
20
14.250000
10
194.250000
20
14.250000
10
194.750000
20
14.500000
10
195.750000
20
15.750000
10
195.750000
20
16.750000
10
196.000000
20
17.000000
0
LWPOLYLINE
100
AcDbEntity
8
HOLES
100
AcDbPolyline
90
540
70
1
10
52.750000
20
198.750000
10
53.750000
20
199.250000
10
56.250000
20
199.250000
10
56.500000
20
199.000000
10
57.500000
20
199.000000
10
58.500000
20
198.500000
10
59.250000
20
197.750000
10
59.250000
20
196.500000
10
60.000000
20
195.750000
10
60.250000
20
194.750000
10
61.041067
20
193.814922
10
61.950347
20
194.280686
10
63.500000
20
193.312911
10
63.500000
20
191.500000
10
63.000000
20
191.000000
10
63.750000
20
191.500000
10
64.250000
20
191.500000
10
64.500000
20
191.250000
10
64.250000
20
191.500000
10
64.216590
20
192.466590
10
64.750000
20
193.000000
10
66.750000
20
194.000000
10
68.012448
20
193.762448
10
68.750000
20
194.500000
10
69.500000
20
194.780330
10
69.500000
20
196.812909
10
70.961679
20
197.725743
10
72.000000
20
197.250000
10
72.750000
20
196.250000
10
73.500000
20
195.969670
10
73.500000
20
197.312909
10
74.974318
20
198.233636
10
76.333918
20
197.484267
10
77.750000
20
198.250000
10
78.250000
20
198.250000
10
79.750000
20
197.312909
10
79.750000
20
195.750000
10
80.250000
20
195.250000
10
80.250000
20
194.750000
10
80.500000
20
194.500000
10
80.500000
20
193.268237
10
81.239495
20
193.725270
10
82.519675
20
193.019675
10
83.000000
20
193.500000
10
84.212602
20
194.023030
10
85.750000
20
193.062909
10
85.750000
20
191.756854
10
86.750000
20
191.026902
10
86.750000
20
189.976675
10
86.000000
20
189.418652
10
86.000000
20
189.282868
10
86.500000
20
189.500000
10
87.250000
20
190.500000
10
88.250000
20
191.000000
10
88.750000
20
191.000000
10
89.250000
20
191.500000
10
88.445834
20
190.984761
10
87.250000
20
191.500000
10
86.750000
20
192.000000
10
86.750000
20
193.312909
10
88.250000
20
194.250000
10
89.000000
20
194.250000
10
89.228590
20
194.021410
10
89.750000
20
194.300460
10
89.750000
20
197.250000
10
90.250000
20
197.750000
10
91.272693
20
198.217738
10
92.000000
20
197.768237
10
92.764415
20
198.240672
10
94.250000
20
197.312909
10
94.250000
20
196.496118
10
95.250000
20
196.750000
10
96.510505
20
197.475270
10
97.222693
20
197.035114
10
98.698230
20
197.782006
10
100.250000
20
196.812909
10
100.250000
20
195.437091
10
98.749800
20
194.500200
10
98.500000
20
194.750000
10
98.250000
20
194.500000
10
98.250000
20
193.750000
10
97.750000
20
193.250000
10
96.527588
20
192.722412
10
96.750000
20
192.500000
10
96.750000
20
191.226675
10
96.112081
20
190.752044
10
97.000000
20
190.017288
10
97.000000
20
189.000000
10
96.750000
20
188.500000
10
97.500000
20
188.981763
10
97.500000
20
189.668652
10
96.750000
20
190.226675
10
96.750000
20
191.750000
10
97.500000
20
192.500000
10
98.250000
20
192.750000
10
99.250000
20
193.750000
10
100.262570
20
194.212552
10
101.584214
20
193.484103
10
102.500000
20
193.750000
10
103.500000
20
193.250000
10
104.750000
20
192.000000
10
104.750000
20
191.750000
10
105.500000
20
192.500000
10
108.500000
20
194.000000
10
110.013494
20
194.000000
10
109.730278
20
196.300592
10
111.235585
20
197.240672
10
111.977307
20
196.782262
10
112.918526
20
197.264386
10
114.319822
20
196.492036
10
115.500000
20
197.000000
10
117.043792
20
198.027023
10
117.566567
20
197.747243
10
118.250000
20
198.000000
10
120.000000
20
197.250000
10
120.500000
20
196.750000
10
120.500000
20
194.750000
10
120.250000
20
194.500000
10
120.750000
20
194.000000
10
120.750000
20
192.750000
10
120.500000
20
192.500000
10
121.000000
20
192.500000
10
121.750000
20
192.981763
10
122.500000
20
192.500000
10
123.000000
20
192.500000
10
124.333918
20
193.265733
10
125.767418
20
192.540120
10
127.000000
20
193.250000
10
128.000000
20
193.250000
10
128.726114
20
193.717001
10
129.760559
20
193.288519
10
130.250000
20
193.550460
10
130.250000
20
196.812914
10
131.750000
20
197.750000
10
133.500000
20
197.750000
10
135.250000
20
197.000000
10
135.750000
20
196.500000
10
135.750000
20
195.499679
10
137.250000
20
194.562914
10
137.250000
20
192.750000
10
137.003962
20
192.503962
10
138.000000
20
191.776902
10
138.000000
20
189.982706
10
137.000000
20
189.155203
10
137.000000
20
189.000000
10
137.500000
20
189.000000
10
139.000000
20
188.062914
10
139.000000
20
187.250000
10
139.500000
20
186.750000
10
139.500000
20
185.693880
10
140.500000
20
186.250000
10
141.000000
20
186.250000
10
142.500000
20
185.312914
10
142.500000
20
184.250000
10
142.020574
20
182.867257
10
142.250000
20
182.500000
10
142.250000
20
180.937086
10
140.788325
20
180.024255
10
139.750000
20
180.500000
10
139.000000
20
181.250000
10
139.000000
20
182.250000
10
139.250000
20
182.500000
10
137.515437
20
181.524607
10
137.000000
20
181.800460
10
137.000000
20
181.249679
10
138.500000
20
180.312914
10
138.500000
20
179.226681
10
137.750000
20
178.668658
10
137.750000
20
176.500000
10
137.000000
20
175.750000
10
136.250000
20
175.469670
10
136.250000
20
175.290407
10
137.500000
20
174.750000
10
138.000000
20
174.250000
10
138.000000
20
173.250000
10
137.500000
20
172.750000
10
137.500000
20
172.250000
10
137.250000
20
172.000000
10
137.500000
20
171.750000
10
137.500000
20
169.976681
10
136.750000
20
169.500000
10
136.500000
20
169.000000
10
136.720979
20
169.220979
10
137.750000
20
168.750000
10
138.750000
20
167.500000
10
138.750000
20
166.500000
10
138.970979
20
166.720979
10
140.000000
20
166.250000
10
140.500000
20
165.750000
10
140.500000
20
165.256854
10
141.500000
20
164.526902
10
141.500000
20
163.250000
10
141.217126
20
162.782874
10
141.750000
20
162.250000
10
141.750000
20
161.187094
10
140.249798
20
160.250202
10
140.000000
20
160.500000
10
139.500000
20
160.500000
10
138.250000
20
159.750000
10
137.500000
20
159.750000
10
136.500000
20
160.306120
10
136.500000
20
160.024114
10
137.750000
20
159.026328
10
137.750000
20
156.732706
10
136.812896
20
155.957249
10
137.750000
20
154.500000
10
137.750000
20
153.473098
10
136.809830
20
152.786819
10
137.500000
20
152.273312
10
137.500000
20
150.500000
10
137.000000
20
150.000000
10
136.250000
20
149.719670
10
136.250000
20
148.232706
10
135.288001
20
147.436649
10
136.250000
20
147.000000
10
137.000000
20
146.250000
10
137.000000
20
145.250000
10
136.500000
20
144.750000
10
135.750000
20
144.469670
10
135.750000
20
144.280330
10
136.500000
20
144.000000
10
137.500000
20
143.000000
10
137.500000
20
144.000000
10
138.250000
20
144.750000
10
139.336288
20
145.250313
10
140.500000
20
144.750000
10
141.000000
20
144.250000
10
141.000000
20
143.000000
10
140.500000
20
142.500000
10
138.982582
20
141.790120
10
137.750000
20
142.469480
10
137.750000
20
142.206114
10
138.750000
20
141.750000
10
139.250000
20
141.250000
10
139.250000
20
140.750000
10
139.500000
20
140.500000
10
140.750000
20
140.000000
10
141.250000
20
139.500000
10
141.250000
20
137.937094
10
139.764413
20
137.009329
10
138.940423
20
137.518583
10
138.422136
20
137.241204
10
138.000000
20
137.467124
10
138.000000
20
136.937094
10
136.499798
20
136.000202
10
137.000000
20
135.500000
10
137.000000
20
133.937094
10
135.456199
20
132.972974
10
135.000000
20
133.217124
10
135.000000
20
132.250000
10
134.703364
20
131.953364
10
135.250000
20
131.250000
10
135.250000
20
129.226688
10
134.603606
20
128.745751
10
136.250000
20
128.000000
10
136.750000
20
127.500000
10
136.750000
20
126.500000
10
136.500000
20
126.250000
10
137.250000
20
125.500000
10
137.250000
20
124.750000
10
137.500000
20
124.500000
10
138.750000
20
124.500000
10
140.234614
20
123.572515
10
140.528915
20
121.455152
10
139.038318
20
120.524258
10
138.000000
20
121.000000
10
138.750000
20
120.750000
10
139.250000
20
120.334576
10
139.250000
20
119.250000
10
139.000000
20
119.000000
10
139.250000
20
118.750000
10
139.250000
20
117.750000
10
138.500000
20
116.750000
10
137.470979
20
116.279021
10
137.271415
20
116.478585
10
136.845456
20
116.250619
10
135.250000
20
117.000000
10
134.750000
20
117.500000
10
134.750000
20
118.250000
10
134.500000
20
118.000000
10
134.750000
20
117.750000
10
134.750000
20
117.024114
10
136.000000
20
116.026329
10
136.000000
20
114.476688
10
135.296636
20
113.953364
10
135.750000
20
113.500000
10
135.750000
20
111.750000
10
135.250000
20
111.250000
10
135.250000
20
110.750000
10
135.750000
20
110.250000
10
135.750000
20
107.437094
10
134.249474
20
106.500000
10
135.750000
20
105.562906
10
135.750000
20
104.500000
10
135.000000
20
103.750000
10
134.186905
20
103.443535
10
133.949532
20
103.000000
10
135.250000
20
103.000000
10
135.987306
20
102.526082
10
136.409918
20
102.752257
10
137.500000
20
102.250000
10
138.000000
20
101.750000
10
138.000000
20
101.250000
10
138.220979
20
101.470979
10
139.250000
20
101.000000
10
139.750000
20
100.500000
10
139.750000
20
97.687094
10
138.264413
20
96.759329
10
137.488729
20
97.238729
10
137.250000
20
97.000000
10
136.750000
20
97.000000
10
135.750000
20
97.556120
10
135.750000
20
96.500000
10
134.750000
20
95.500000
10
133.750000
20
95.000000
10
133.250000
20
95.000000
10
133.021415
20
95.228585
10
132.590082
20
94.997743
10
131.500000
20
95.500000
10
130.918665
20
96.250000
10
130.750000
20
96.250000
10
130.750000
20
96.000000
10
131.500000
20
95.500000
10
131.500000
20
94.500000
10
130.698128
20
93.551872
10
131.000000
20
93.250000
10
131.500000
20
93.250000
10
132.402382
20
93.756117
10
133.500000
20
93.250000
10
134.000000
20
92.750000
10
134.000000
20
91.831335
10
134.750000
20
91.273312
10
134.750000
20
87.750000
10
134.250000
20
87.250000
10
133.227307
20
86.782262
10
132.500000
20
87.250000
10
131.750000
20
87.250000
10
131.000000
20
86.750000
10
129.750000
20
86.750000
10
129.500000
20
86.500000
10
129.000000
20
86.500000
10
127.500000
20
87.250000
10
127.000000
20
87.750000
10
127.000000
20
90.000000
10
127.300412
20
90.499911
10
125.000000
20
91.500000
10
124.000000
20
92.500000
10
123.035254
20
92.938056
10
122.500000
20
92.250000
10
121.409918
20
91.747743
10
120.978585
20
91.978585
10
120.750000
20
91.750000
10
120.250000
20
91.750000
10
119.445834
20
92.265239
10
118.250000
20
91.750000
10
117.500000
20
90.750000
10
116.750000
20
90.469670
10
116.750000
20
90.000000
10
117.250000
20
89.250000
10
117.250000
20
87.937099
10
115.750000
20
87.000000
10
115.250000
20
87.000000
10
113.645296
20
88.002487
10
112.659918
20
87.497743
10
112.237306
20
87.723918
10
111.500000
20
87.250000
10
109.000000
20
87.250000
10
108.750000
20
87.500000
10
108.250000
20
87.500000
10
106.750000
20
88.437099
10
106.750000
20
90.273317
10
107.390676
20
90.750000
10
106.750000
20
91.250000
10
106.000000
20
91.250000
10
102.262045
20
93.194621
10
100.750000
20
92.250000
10
99.000000
20
92.250000
10
97.461280
20
93.211280
10
97.000000
20
92.750000
10
95.750000
20
92.250000
10
95.499795
20
91.999795
10
97.000000
20
91.062901
10
97.000000
20
89.437099
10
95.499795
20
88.500205
10
95.269675
20
88.730325
10
94.000000
20
88.000000
10
93.000000
20
88.000000
10
92.737985
20
87.737985
10
90.500000
20
88.000000
10
89.676882
20
88.526952
10
88.000000
20
88.000000
10
87.000000
20
88.500000
10
86.500000
20
89.000000
10
86.500000
20
90.250000
10
86.782869
20
90.532869
10
86.500000
20
91.000000
10
86.500000
20
91.993146
10
85.500000
20
92.723098
10
85.500000
20
93.540407
10
84.336288
20
92.999687
10
83.250000
20
93.500000
10
82.715465
20
94.187090
10
80.000000
20
92.750000
10
78.500000
20
92.750000
10
78.261271
20
92.988729
10
77.500000
20
92.518237
10
77.500000
20
92.000000
10
76.750000
20
91.250000
10
75.663712
20
90.749687
10
74.500000
20
91.290407
10
74.500000
20
90.000000
10
73.750000
20
89.250000
10
72.250000
20
88.500000
10
71.250000
20
88.500000
10
71.000000
20
88.750000
10
69.750000
20
88.750000
10
69.512448
20
88.512448
10
68.250000
20
88.750000
10
67.840082
20
88.497743
10
66.750000
20
89.000000
10
66.250000
20
89.500000
10
66.250000
20
92.000000
10
66.500000
20
92.250000
10
66.500000
20
92.981763
10
65.772693
20
92.532262
10
64.750000
20
93.000000
10
64.000000
20
93.750000
10
64.000000
20
95.469480
10
62.675450
20
94.739430
10
62.290680
20
94.945353
10
61.750000
20
94.250000
10
60.250000
20
93.500000
10
59.750000
20
93.500000
10
59.500000
20
93.750000
10
58.750000
20
93.750000
10
58.500000
20
93.500000
10
56.500000
20
93.500000
10
55.750000
20
94.000000
10
56.500000
20
93.000000
10
56.760020
20
90.778221
10
55.750000
20
89.500000
10
54.711684
20
89.024259
10
53.233270
20
89.947544
10
52.331474
20
89.485614
10
51.000000
20
90.250000
10
50.500000
20
90.250000
10
49.500000
20
90.750000
10
49.000000
20
91.250000
10
49.000000
20
94.250000
10
49.250000
20
94.500000
10
49.250000
20
95.500000
10
49.750000
20
96.000000
10
50.500000
20
96.250000
10
49.750000
20
96.500000
10
49.250000
20
97.000000
10
49.250000
20
101.750000
10
49.500000
20
102.000000
10
49.500000
20
104.062904
10
51.049660
20
105.030682
10
52.010512
20
104.538502
10
52.500000
20
104.750000
10
52.000000
20
104.750000
10
50.000000
20
105.750000
10
49.500000
20
106.250000
10
49.500000
20
107.750000
10
49.750000
20
108.000000
10
49.500000
20
108.250000
10
49.500000
20
109.250000
10
49.750000
20
109.500000
10
50.000000
20
122.250000
10
50.250000
20
122.500000
10
50.250000
20
129.250000
10
50.500000
20
129.500000
10
50.500000
20
136.500000
10
51.000000
20
137.000000
10
50.750000
20
137.250000
10
50.750000
20
143.250000
10
51.000000
20
143.500000
10
51.000000
20
149.000000
10
51.250000
20
149.250000
10
51.250000
20
151.250000
10
51.750000
20
151.750000
10
52.913712
20
152.250313
10
54.000000
20
151.750000
10
54.750000
20
151.000000
10
54.750000
20
150.250000
10
55.500000
20
150.250000
10
55.738729
20
150.011271
10
56.477307
20
150.467738
10
57.500000
20
150.000000
10
58.250000
20
149.250000
10
58.250000
20
148.226685
10
57.500000
20
147.668662
10
57.500000
20
147.454453
10
59.250000
20
148.295547
10
59.250000
20
148.750000
10
59.750000
20
149.250000
10
61.500000
20
150.000000
10
60.750000
20
150.250000
10
60.250000
20
151.000000
10
59.226878
20
151.739976
10
58.250000
20
151.000000
10
57.108150
20
150.509845
10
54.250000
20
151.750000
10
53.500000
20
152.500000
10
53.500000
20
152.981763
10
52.735589
20
152.509331
10
51.250000
20
153.437096
10
51.250000
20
159.000000
10
51.750000
20
159.500000
10
52.750000
20
159.956114
10
53.750000
20
159.500000
10
54.603299
20
158.489726
10
55.459325
20
158.741899
10
56.826579
20
157.988312
10
57.655062
20
158.500342
10
57.172136
20
158.758796
10
56.760512
20
158.538502
10
55.750000
20
159.000000
10
54.968558
20
159.781442
10
54.024237
20
159.503258
10
53.250000
20
160.000000
10
52.750000
20
160.000000
10
51.750000
20
160.500000
10
51.250831
20
160.999169
10
51.513185
20
166.283125
10
52.140680
20
166.750000
10
51.500000
20
167.226686
10
51.500000
20
173.776902
10
52.440163
20
174.463176
10
51.768015
20
174.963274
10
51.487985
20
177.237985
10
51.750000
20
177.500000
10
51.750000
20
184.773322
10
52.500000
20
185.331345
10
52.500000
20
185.418655
10
51.750000
20
185.976678
10
51.750000
20
188.750000
10
52.000000
20
189.000000
10
52.000000
20
198.000000
0
ENDSEC
0
EOF
