0
SECTION
2
HEADER
9
$ACADVER
1
AC1014
9
$INSUNITS
70
4
9
$HANDSEED
5
FFFF
0
ENDSEC
0
SECTION
2
TABLES
0
TABLE
2
LTYPE
70
1
0
LTYPE
2
CONTINUOUS
70
0
3
Solid line
72
65
73
0
40
0.000000
0
ENDTAB
0
TABLE
2
LAYER
70
3
0
LAYER
2
0
70
0
62
7
6
CONTINUOUS
0
LAYER
2
OUTER
70
0
62
3
6
CONTINUOUS
0
LAYER
2
HOLES
70
0
62
1
6
CONTINUOUS
0
ENDTAB
0
ENDSEC
0
SECTION
2
ENTITIES
0
LWPOLYLINE
100
AcDbEntity
8
OUTER
100
AcDbPolyline
90
93
70
1
10
44.250000
20
281.750000
10
44.250000
20
281.000000
10
45.250000
20
281.000000
10
45.500000
20
281.250000
10
46.250000
20
281.250000
10
46.488729
20
281.011271
10
47.250000
20
281.500000
10
49.250000
20
281.750000
10
50.500000
20
281.000000
10
62.500000
20
281.000000
10
63.750001
20
280.280519
10
63.749999
20
233.969480
10
62.500000
20
233.250000
10
17.250000
20
233.250000
10
16.000000
20
233.969481
10
16.000000
20
250.226681
10
15.250005
20
249.668662
10
15.249995
20
15.250000
10
194.749997
20
15.250000
10
194.750003
20
160.499997
10
194.500000
20
160.750000
10
194.500000
20
176.250000
10
194.250000
20
176.500000
10
194.250000
20
192.500000
10
194.000000
20
192.750000
10
194.000000
20
208.500000
10
193.750000
20
208.750000
10
193.750000
20
224.750000
10
193.500000
20
225.000000
10
193.500000
20
233.250000
10
191.750000
20
233.250000
10
191.500000
20
233.000000
10
191.250000
20
233.250000
10
190.750000
20
233.250000
10
190.500000
20
233.000000
10
190.250000
20
233.250000
10
160.250000
20
233.250000
10
160.000000
20
233.000000
10
159.000000
20
233.000000
10
158.750000
20
233.250000
10
147.250000
20
233.250000
10
145.999999
20
233.969481
10
146.000001
20
265.191791
10
144.516560
20
265.942683
10
144.220576
20
267.500000
10
142.750000
20
267.500000
10
142.519675
20
267.269675
10
141.250000
20
267.969480
10
141.250000
20
269.515182
10
140.000000
20
269.750000
10
138.323941
20
269.006007
10
137.250000
20
269.500000
10
136.949532
20
270.000000
10
135.750000
20
270.000000
10
135.750000
20
267.487985
10
134.500000
20
266.512015
10
134.500000
20
265.719480
10
133.250000
20
265.000000
10
132.750000
20
265.000000
10
131.750000
20
265.500000
10
131.250000
20
266.000000
10
131.250000
20
267.782870
10
131.750000
20
268.050462
10
131.750000
20
268.500000
10
131.500199
20
268.250199
10
130.000000
20
269.187088
10
130.000000
20
270.500000
10
130.500000
20
271.000000
10
130.500000
20
271.750000
10
130.934560
20
272.984560
10
130.500000
20
273.217130
10
130.500000
20
274.449538
10
130.024451
20
274.704044
10
129.750000
20
276.500000
10
129.250000
20
277.000000
10
129.250000
20
278.051830
10
131.136416
20
279.002066
10
130.250000
20
279.456118
10
130.250000
20
280.543882
10
131.250000
20
281.000000
10
130.750000
20
281.000000
10
129.229453
20
281.729453
10
129.000000
20
281.500000
10
128.500000
20
281.500000
10
128.217129
20
281.782871
10
127.728588
20
281.521412
10
127.500000
20
281.750000
10
50.500000
20
281.750000
10
50.217129
20
281.467129
10
49.750000
20
281.750000
10
46.750000
20
281.750000
10
46.000000
20
281.268237
10
45.250000
20
281.750000
0
LWPOLYLINE
100
AcDbEntity
8
HOLES
100
AcDbPolyline
90
10
70
1
10
145.750001
20
63.312907
10
147.250000
20
64.250000
10
192.500000
20
64.250000
10
193.500000
20
63.750000
10
194.000001
20
63.249999
10
193.999999
20
16.937078
10
192.500000
20
16.000000
10
147.250000
20
16.000000
10
146.250000
20
16.500000
10
145.749999
20
17.000001
0
LWPOLYLINE
100
AcDbEntity
8
HOLES
100
AcDbPolyline
90
10
70
1
10
15.750001
20
63.312903
10
17.250000
20
64.250000
10
62.500000
20
64.250000
10
63.500000
20
63.750000
10
64.000001
20
63.249999
10
63.999999
20
16.937080
10
62.500000
20
16.000000
10
17.250000
20
16.000000
10
16.250000
20
16.500000
10
15.749999
20
17.000001
0
LWPOLYLINE
100
AcDbEntity
8
HOLES
100
AcDbPolyline
90
56
70
1
10
120.000000
20
170.312909
10
120.000000
20
166.937099
10
118.500000
20
166.000000
10
116.500000
20
166.000000
10
115.750000
20
165.500000
10
114.000000
20
165.250000
10
113.000000
20
165.750000
10
112.500000
20
166.250000
10
112.500000
20
166.750000
10
111.750000
20
166.750000
10
110.719670
20
166.280330
10
110.511271
20
166.488729
10
109.750000
20
166.018237
10
109.750000
20
165.187099
10
108.250000
20
164.250000
10
107.250000
20
164.250000
10
106.500000
20
163.750000
10
104.250000
20
163.750000
10
103.500000
20
163.250000
10
101.750000
20
163.250000
10
101.000000
20
162.750000
10
99.500000
20
162.750000
10
99.279021
20
162.529021
10
98.250000
20
163.000000
10
97.668658
20
163.750000
10
97.250000
20
163.750000
10
97.250000
20
162.937099
10
95.712595
20
161.976973
10
94.500000
20
162.500000
10
93.750000
20
163.250000
10
93.750000
20
164.418660
10
92.974262
20
164.995832
10
93.250000
20
167.250000
10
93.750000
20
167.750000
10
95.750000
20
168.500000
10
98.000000
20
168.500000
10
98.750000
20
169.000000
10
99.750000
20
169.000000
10
100.750000
20
169.500000
10
103.000000
20
169.500000
10
103.750000
20
170.000000
10
104.750000
20
170.000000
10
104.980325
20
170.230325
10
106.208414
20
169.553441
10
106.750000
20
170.250000
10
107.750000
20
170.750000
10
109.750000
20
170.750000
10
111.234853
20
171.463873
10
112.250000
20
171.000000
10
112.831348
20
170.250000
10
114.500000
20
170.250000
10
115.250000
20
170.750000
10
117.000000
20
170.750000
10
117.250000
20
171.000000
10
118.250000
20
171.000000
10
118.499800
20
171.249800
0
LWPOLYLINE
100
AcDbEntity
8
HOLES
100
AcDbPolyline
90
8
70
1
10
184.037394
20
187.523032
10
185.250000
20
187.000000
10
185.750000
20
186.500000
10
185.750000
20
185.437086
10
184.212606
20
184.476968
10
183.000000
20
185.000000
10
182.500000
20
185.500000
10
182.500000
20
186.562914
0
LWPOLYLINE
100
AcDbEntity
8
HOLES
100
AcDbPolyline
90
39
70
1
10
185.495041
20
202.703574
10
187.000000
20
202.000000
10
187.500000
20
201.500000
10
187.500000
20
200.250000
10
187.271447
20
200.021447
10
188.000000
20
199.750000
10
189.500000
20
198.500000
10
189.769723
20
196.199403
10
188.250000
20
195.250000
10
187.250000
20
195.250000
10
187.000000
20
195.000000
10
187.000000
20
193.982706
10
186.004043
20
193.158549
10
186.266406
20
190.238887
10
185.500000
20
189.750000
10
184.750000
20
188.750000
10
183.750000
20
188.293886
10
182.750000
20
188.750000
10
182.250000
20
189.250000
10
182.250000
20
189.793886
10
181.250000
20
190.250000
10
180.500000
20
191.000000
10
180.250000
20
191.500000
10
180.250000
20
193.062914
10
181.721934
20
193.982152
10
182.250000
20
193.699540
10
182.250000
20
194.526329
10
183.500000
20
195.500000
10
184.000000
20
196.250000
10
184.000000
20
196.750000
10
184.500000
20
197.250000
10
185.228553
20
197.521447
10
185.000000
20
197.750000
10
185.000000
20
199.000000
10
185.472412
20
199.472412
10
184.250000
20
200.000000
10
183.750000
20
200.500000
10
183.750000
20
201.500000
10
184.500000
20
202.250000
0
LWPOLYLINE
100
AcDbEntity
8
HOLES
100
AcDbPolyline
90
21
70
1
10
186.974314
20
213.733638
10
188.250000
20
213.030520
10
189.525686
20
213.733638
10
191.000000
20
212.812914
10
191.000000
20
210.973098
10
189.996047
20
210.240260
10
190.250000
20
208.250000
10
190.500000
20
208.000000
10
190.500000
20
206.937086
10
189.014419
20
206.009326
10
188.238729
20
206.488729
10
188.000000
20
206.250000
10
187.500000
20
206.250000
10
185.500000
20
207.250000
10
185.000000
20
207.750000
10
185.000000
20
208.771529
10
186.750000
20
210.293595
10
186.750000
20
210.969670
10
186.000000
20
211.250000
10
185.500000
20
211.750000
10
185.500000
20
212.812914
0
LWPOLYLINE
100
AcDbEntity
8
HOLES
100
AcDbPolyline
90
12
70
1
10
190.250000
20
218.250000
10
191.750000
20
217.312914
10
191.750000
20
215.750000
10
191.000000
20
215.000000
10
189.457004
20
214.277172
10
188.000000
20
215.187086
10
188.000000
20
215.750000
10
187.500000
20
216.250000
10
187.500000
20
217.312914
10
189.043788
20
218.277025
10
189.521410
20
218.021410
10
189.750000
20
218.250000
0
ENDSEC
0
EOF
