0
SECTION
2
HEADER
9
$ACADVER
1
AC1014
9
$INSUNITS
70
4
9
$HANDSEED
5
FFFF
0
ENDSEC
0
SECTION
2
TABLES
0
TABLE
2
LTYPE
70
1
0
LTYPE
2
CONTINUOUS
70
0
3
Solid line
72
65
73
0
40
0.000000
0
ENDTAB
0
TABLE
2
LAYER
70
3
0
LAYER
2
0
70
0
62
7
6
CONTINUOUS
0
LAYER
2
OUTER
70
0
62
3
6
CONTINUOUS
0
LAYER
2
HOLES
70
0
62
1
6
CONTINUOUS
0
ENDTAB
0
ENDSEC
0
SECTION
2
ENTITIES
0
LWPOLYLINE
100
AcDbEntity
8
OUTER
100
AcDbPolyline
90
74
70
1
10
92.500000
20
174.250000
10
92.250000
20
174.000000
10
90.934461
20
173.750787
10
90.250000
20
172.250000
10
90.250000
20
156.750000
10
89.981519
20
156.481519
10
90.250000
20
153.000000
10
91.500000
20
151.500000
10
92.750000
20
151.250000
10
93.000000
20
151.000000
10
94.000000
20
151.000000
10
95.500000
20
150.062901
10
95.500000
20
148.000000
10
95.236222
20
147.736222
10
95.493311
20
142.783101
10
96.250000
20
142.500000
10
96.750000
20
142.000000
10
96.750000
20
138.250000
10
96.500000
20
138.000000
10
96.500000
20
120.081341
10
97.253730
20
119.520542
10
98.000000
20
120.000000
10
98.500000
20
120.000000
10
99.750000
20
119.280520
10
99.750000
20
118.699532
10
100.271415
20
118.978585
10
100.500000
20
118.750000
10
101.250000
20
118.750000
10
101.478585
20
118.978585
10
101.922136
20
118.741204
10
102.500000
20
119.000000
10
102.976681
20
119.750000
10
103.250000
20
119.750000
10
102.500000
20
120.226683
10
102.500000
20
121.481763
10
101.760505
20
121.024730
10
100.500000
20
121.719480
10
100.500000
20
122.780520
10
101.760505
20
123.475270
10
102.500000
20
123.018237
10
102.500000
20
124.217124
10
102.074550
20
123.989430
10
100.750000
20
124.719480
10
100.750000
20
126.280520
10
102.010505
20
126.975270
10
102.719416
20
126.537139
10
103.000000
20
127.000000
10
104.000000
20
127.456114
10
104.000000
20
136.750000
10
104.250000
20
137.000000
10
104.250000
20
142.043886
10
105.250000
20
142.500000
10
105.750000
20
143.250000
10
105.750000
20
149.750000
10
106.500000
20
150.500000
10
107.529021
20
150.970979
10
107.750000
20
150.750000
10
108.750000
20
150.750000
10
109.000000
20
151.000000
10
110.311927
20
151.248420
10
111.250000
20
152.750000
10
111.250000
20
155.500000
10
111.500000
20
155.750000
10
111.500000
20
162.500000
10
111.750000
20
162.750000
10
111.750000
20
171.000000
10
111.500000
20
171.250000
10
111.500000
20
172.250000
10
111.250000
20
172.750000
10
110.000000
20
173.750000
10
108.750000
20
173.750000
10
108.500000
20
174.000000
10
101.750000
20
174.000000
10
101.500000
20
174.250000
0
LWPOLYLINE
100
AcDbEntity
8
HOLES
100
AcDbPolyline
90
14
70
1
10
100.250000
20
171.000000
10
101.750000
20
171.000000
10
102.750000
20
170.500000
10
103.500000
20
169.750000
10
103.500000
20
168.750000
10
103.250000
20
168.500000
10
103.000000
20
167.000000
10
102.250000
20
166.250000
10
101.250000
20
165.750000
10
99.750000
20
165.750000
10
98.750000
20
166.250000
10
97.500000
20
168.000000
10
97.500000
20
169.000000
10
98.750000
20
170.250000
0
ENDSEC
0
EOF
