0
SECTION
2
HEADER
9
$ACADVER
1
AC1014
9
$INSUNITS
70
4
9
$HANDSEED
5
FFFF
0
ENDSEC
0
SECTION
2
TABLES
0
TABLE
2
LTYPE
70
1
0
LTYPE
2
CONTINUOUS
70
0
3
Solid line
72
65
73
0
40
0.000000
0
ENDTAB
0
TABLE
2
LAYER
70
3
0
LAYER
2
0
70
0
62
7
6
CONTINUOUS
0
LAYER
2
OUTER
70
0
62
3
6
CONTINUOUS
0
LAYER
2
HOLES
70
0
62
1
6
CONTINUOUS
0
ENDTAB
0
ENDSEC
0
SECTION
2
ENTITIES
0
LWPOLYLINE
100
AcDbEntity
8
OUTER
100
AcDbPolyline
90
552
70
1
10
72.250000
20
237.306116
10
72.250000
20
236.187095
10
70.749797
20
235.250203
10
70.500000
20
235.500000
10
70.500000
20
234.967128
10
70.000000
20
234.750000
10
69.523322
20
234.000000
10
69.306120
20
234.000000
10
68.750000
20
233.000000
10
67.659925
20
232.497747
10
67.247838
20
232.718289
10
66.000000
20
232.000000
10
64.500000
20
232.279424
10
64.500000
20
231.706114
10
63.500000
20
231.250000
10
63.250000
20
230.750000
10
63.250000
20
230.250000
10
62.750000
20
229.250000
10
62.750000
20
226.500000
10
62.500000
20
226.250000
10
62.500000
20
225.250000
10
62.250000
20
225.000000
10
62.250000
20
220.250000
10
62.000000
20
220.000000
10
62.000000
20
216.500000
10
61.750000
20
216.250000
10
61.750000
20
214.000000
10
62.000000
20
213.750000
10
62.000000
20
212.750000
10
61.500000
20
211.500000
10
61.500000
20
208.500000
10
61.000000
20
208.000000
10
60.250000
20
207.719670
10
60.250000
20
207.300460
10
60.750000
20
207.032868
10
60.750000
20
205.967132
10
60.220237
20
205.683611
10
59.949398
20
204.450489
10
59.250000
20
204.018237
10
59.250000
20
202.719480
10
58.000000
20
202.000000
10
57.000000
20
202.000000
10
56.250000
20
201.500000
10
55.500000
20
201.500000
10
54.500000
20
202.000000
10
53.918656
20
202.750000
10
53.750000
20
202.750000
10
53.750000
20
200.937089
10
52.250000
20
200.000000
10
51.250000
20
200.000000
10
50.500000
20
199.518237
10
49.750000
20
200.000000
10
47.750000
20
200.000000
10
47.750000
20
199.219480
10
46.500000
20
198.500000
10
38.500000
20
198.250000
10
38.250000
20
198.000000
10
37.750000
20
198.000000
10
37.750000
20
197.469480
10
36.500000
20
196.750000
10
34.473098
20
196.750000
10
33.750000
20
195.750000
10
32.750000
20
195.250000
10
31.250000
20
195.250000
10
31.000000
20
195.000000
10
30.738729
20
195.261271
10
30.250000
20
194.500000
10
29.000000
20
194.000000
10
28.500000
20
193.500000
10
28.500000
20
192.976676
10
27.750000
20
192.500000
10
27.250000
20
191.750000
10
26.250000
20
191.250000
10
25.481763
20
191.250000
10
25.000000
20
190.500000
10
24.000000
20
190.000000
10
23.231763
20
190.000000
10
22.750000
20
189.250000
10
21.750000
20
188.750000
10
21.000000
20
188.750000
10
20.750000
20
188.500000
10
20.750000
20
187.976676
10
20.000000
20
187.500000
10
19.500000
20
186.500000
10
18.500000
20
186.000000
10
18.000000
20
186.000000
10
17.761271
20
186.238729
10
17.000000
20
185.750000
10
16.500000
20
185.750000
10
16.500000
20
183.956114
10
15.500000
20
183.443880
10
15.500000
20
182.500000
10
15.250001
20
182.250001
10
15.249999
20
127.250001
10
15.500000
20
127.000000
10
15.500000
20
126.000000
10
15.250001
20
125.750001
10
15.249999
20
95.500001
10
15.500000
20
95.250000
10
15.500000
20
94.000000
10
15.250000
20
93.750000
10
15.250000
20
88.000000
10
15.500000
20
87.750000
10
15.500000
20
86.500000
10
16.000000
20
86.500000
10
16.250000
20
86.250000
10
16.250000
20
94.750000
10
16.750000
20
95.250000
10
17.500000
20
95.530330
10
17.500000
20
97.543886
10
18.500000
20
98.056120
10
18.500000
20
101.280520
10
19.750000
20
101.969480
10
21.000000
20
101.280520
10
21.000000
20
100.750000
10
22.000000
20
100.750000
10
22.230325
20
100.980325
10
23.500000
20
100.280520
10
23.500000
20
99.500000
10
24.500000
20
99.500000
10
25.750000
20
98.780520
10
25.750000
20
98.300468
10
26.250000
20
98.032876
10
26.250000
20
96.956114
10
25.250000
20
96.500000
10
26.250000
20
97.000000
10
26.666790
20
97.083210
10
27.000000
20
96.750000
10
28.000000
20
96.750000
10
29.250000
20
96.030520
10
29.250000
20
95.500000
10
30.000000
20
95.500000
10
30.750000
20
95.981763
10
31.500000
20
95.500000
10
32.500000
20
95.500000
10
33.750000
20
94.780520
10
33.750000
20
94.280330
10
34.500000
20
94.000000
10
35.000000
20
93.500000
10
35.000000
20
93.000000
10
37.250000
20
93.000000
10
38.500000
20
92.280520
10
38.500000
20
91.500000
10
39.500000
20
91.500000
10
40.750000
20
90.780520
10
40.750000
20
90.250000
10
41.750000
20
90.250000
10
41.980325
20
90.480325
10
43.250000
20
89.780520
10
43.250000
20
89.000000
10
43.532874
20
89.282874
10
44.021415
20
89.021415
10
44.250000
20
89.250000
10
44.502998
20
88.997002
10
45.468558
20
89.281442
10
45.730325
20
89.019675
10
47.019675
20
89.730325
10
47.271447
20
89.478553
10
47.936968
20
89.754222
10
49.269675
20
89.019675
10
49.500000
20
89.250000
10
50.250000
20
89.250000
10
50.531442
20
88.968558
10
51.459325
20
89.241899
10
52.750000
20
88.530520
10
52.750000
20
87.719480
10
53.960758
20
87.052148
10
54.243146
20
85.243146
10
54.480325
20
85.480325
10
55.750000
20
84.750000
10
56.500000
20
84.750000
10
58.250000
20
83.787560
10
58.250000
20
82.500000
10
58.000000
20
82.250000
10
58.000000
20
81.250000
10
57.750000
20
81.000000
10
57.750000
20
79.750000
10
58.032874
20
80.032874
10
58.521415
20
79.771415
10
58.730325
20
79.980325
10
60.000000
20
79.280520
10
60.000000
20
78.532876
10
60.417242
20
78.756177
10
62.250000
20
77.787560
10
62.250000
20
77.032876
10
62.675450
20
77.260570
10
64.000000
20
76.530520
10
64.000000
20
75.777413
10
66.000000
20
74.750000
10
66.500000
20
74.000000
10
67.500000
20
73.543886
10
67.500000
20
72.750000
10
68.750000
20
72.750000
10
69.750000
20
72.250000
10
70.250000
20
71.000000
10
71.250000
20
70.543886
10
71.250000
20
69.790407
10
72.500000
20
69.250000
10
72.750000
20
69.000000
10
72.750000
20
68.556120
10
73.750000
20
68.043886
10
73.750000
20
67.280330
10
74.500000
20
67.000000
10
75.000000
20
66.500000
10
75.254846
20
64.503317
10
76.250000
20
63.776902
10
76.250000
20
63.300468
10
76.750000
20
63.000000
10
79.000000
20
63.000000
10
80.250000
20
62.280520
10
80.250000
20
61.530330
10
81.000000
20
61.250000
10
81.500000
20
60.750000
10
81.500000
20
60.219480
10
82.690671
20
59.563220
10
83.016195
20
58.458200
10
83.500000
20
58.750000
10
87.750000
20
58.500000
10
89.000000
20
57.780520
10
89.000000
20
57.250000
10
90.250000
20
57.250000
10
91.250000
20
56.750000
10
91.750000
20
56.250000
10
91.750000
20
55.750000
10
92.250000
20
55.750000
10
92.500000
20
55.500000
10
95.250000
20
55.500000
10
95.500000
20
55.750000
10
96.250000
20
55.750000
10
96.500000
20
55.500000
10
97.500000
20
55.500000
10
97.750000
20
55.250000
10
98.000000
20
55.500000
10
98.000000
20
56.298936
10
99.416082
20
57.015733
10
100.750000
20
56.280520
10
100.750000
20
55.481763
10
101.500000
20
55.000000
10
101.750000
20
55.000000
10
101.750000
20
56.030520
10
103.000000
20
56.750000
10
104.750000
20
56.750000
10
106.000000
20
56.030520
10
106.000000
20
55.250000
10
106.750000
20
55.250000
10
107.500000
20
55.750000
10
108.000000
20
55.750000
10
108.750000
20
55.250000
10
109.500000
20
55.250000
10
109.500000
20
55.780520
10
110.750000
20
56.500000
10
116.250000
20
56.500000
10
116.500000
20
56.750000
10
117.250000
20
56.750000
10
117.500000
20
56.500000
10
119.750000
20
56.500000
10
120.500000
20
56.981763
10
121.250000
20
56.500000
10
122.000000
20
56.500000
10
122.250000
20
56.250000
10
122.500000
20
56.500000
10
122.500000
20
57.250000
10
123.000000
20
57.750000
10
124.517418
20
58.459880
10
125.750000
20
57.750000
10
126.750000
20
57.750000
10
126.750000
20
58.280520
10
128.000000
20
59.000000
10
129.000000
20
59.000000
10
129.750000
20
59.481763
10
130.500000
20
59.000000
10
131.750000
20
59.000000
10
131.750000
20
59.780520
10
133.019675
20
60.480325
10
133.250000
20
60.250000
10
133.478585
20
60.478585
10
133.958062
20
60.221977
10
134.250000
20
61.000000
10
135.500000
20
61.750000
10
141.500000
20
61.750000
10
142.250000
20
61.268237
10
142.250000
20
62.280520
10
143.500000
20
63.000000
10
144.526902
20
63.000000
10
145.250000
20
64.000000
10
146.250000
20
64.456114
10
146.250000
20
65.287560
10
148.090014
20
66.260012
10
149.000000
20
65.750000
10
150.250000
20
65.750000
10
150.250000
20
66.250000
10
150.750000
20
66.750000
10
151.500000
20
67.030330
10
151.500000
20
67.798936
10
153.000000
20
68.558211
10
153.000000
20
70.543886
10
154.000000
20
71.056120
10
154.000000
20
71.750000
10
154.500000
20
72.250000
10
155.250000
20
72.530330
10
155.250000
20
74.293886
10
156.250000
20
74.750000
10
156.500000
20
75.250000
10
156.500000
20
76.543886
10
157.462889
20
77.037111
10
157.250000
20
77.250000
10
157.250000
20
78.282876
10
157.750000
20
78.550468
10
157.750000
20
79.293886
10
158.750000
20
79.750000
10
159.000000
20
80.250000
10
159.000000
20
83.780520
10
160.269675
20
84.480325
10
160.000000
20
84.750000
10
160.000000
20
86.293886
10
161.000000
20
86.750000
10
161.250000
20
87.250000
10
161.250000
20
88.750000
10
161.750000
20
89.250000
10
162.500000
20
89.530330
10
162.500000
20
92.062906
10
164.000202
20
92.999798
10
163.750000
20
93.250000
10
163.750000
20
95.026902
10
164.750000
20
95.750000
10
165.174574
20
96.688428
10
166.000000
20
97.000000
10
166.750000
20
98.000000
10
167.500000
20
98.280330
10
167.500000
20
99.523312
10
168.140585
20
99.999926
10
167.250000
20
100.456114
10
167.250000
20
101.530520
10
168.519675
20
102.230325
10
168.750000
20
102.000000
10
168.750000
20
103.276902
10
169.750000
20
104.006854
10
169.750000
20
106.250000
10
170.250000
20
106.750000
10
171.000000
20
107.030330
10
171.000000
20
109.030520
10
172.250000
20
109.719480
10
172.250000
20
111.762015
10
173.500000
20
112.737985
10
173.500000
20
113.250000
10
173.750000
20
113.500000
10
174.505755
20
113.782714
10
174.813165
20
114.826241
10
175.767942
20
115.315310
10
176.024744
20
119.056561
10
177.000000
20
119.500000
10
177.750000
20
120.500000
10
178.500000
20
120.780330
10
178.500000
20
121.250000
10
178.250000
20
121.500000
10
178.250000
20
121.949532
10
177.750000
20
122.217124
10
177.750000
20
123.250000
10
178.000000
20
123.500000
10
178.000000
20
127.750000
10
177.750000
20
128.000000
10
177.750000
20
131.500000
10
177.500000
20
131.750000
10
177.500000
20
132.969670
10
176.750000
20
133.250000
10
176.000000
20
134.250000
10
176.000000
20
135.984818
10
174.750000
20
135.750000
10
173.750000
20
136.250000
10
173.250000
20
136.750000
10
173.250000
20
138.500000
10
172.956014
20
138.987890
10
172.250000
20
139.250000
10
171.500000
20
140.000000
10
169.500000
20
140.000000
10
169.282874
20
140.217126
10
169.000000
20
139.750000
10
167.977307
20
139.282262
10
167.250000
20
139.750000
10
164.750000
20
139.750000
10
163.500000
20
140.469480
10
163.500000
20
142.250000
10
163.217427
20
142.532573
10
162.000000
20
142.250000
10
160.750000
20
142.969480
10
160.750000
20
143.793886
10
159.750000
20
144.250000
10
159.000000
20
145.000000
10
158.250000
20
145.250000
10
157.750000
20
145.750000
10
157.750000
20
146.469670
10
157.000000
20
146.750000
10
156.500000
20
147.250000
10
156.224660
20
148.963094
10
155.750000
20
149.217124
10
155.750000
20
150.532876
10
156.250000
20
150.800468
10
156.250000
20
151.250000
10
155.250000
20
151.250000
10
155.250000
20
150.719480
10
154.006521
20
150.034114
10
152.250000
20
150.962440
10
152.250000
20
151.441789
10
150.750000
20
152.201064
10
150.750000
20
154.000000
10
150.250000
20
154.500000
10
150.250000
20
156.030520
10
151.574550
20
156.760570
10
152.000000
20
156.500000
10
153.268373
20
156.738854
10
151.711277
20
157.711277
10
151.519675
20
157.519675
10
150.250000
20
158.219480
10
150.250000
20
159.293886
10
151.209804
20
159.785530
10
150.750000
20
160.500000
10
150.750000
20
161.543886
10
151.734551
20
162.048206
10
151.464858
20
163.775885
10
152.390585
20
164.250074
10
151.750000
20
164.726688
10
151.750000
20
166.282876
10
152.240360
20
166.545308
10
152.527166
20
168.312687
10
154.000000
20
169.058211
10
154.000000
20
169.719670
10
153.250000
20
170.000000
10
152.750000
20
170.500000
10
152.750000
20
171.750000
10
153.250000
20
172.500000
10
153.963625
20
172.765263
10
154.243755
20
174.040687
10
155.250000
20
174.556120
10
155.250000
20
175.782868
10
155.750000
20
176.050460
10
155.750000
20
177.250000
10
156.021447
20
177.521447
10
155.737886
20
178.206023
10
155.250000
20
178.467132
10
155.250000
20
179.530520
10
156.500000
20
180.250000
10
157.000000
20
180.250000
10
157.000000
20
180.969670
10
156.250000
20
181.250000
10
155.750000
20
181.750000
10
155.750000
20
182.250000
10
155.500000
20
182.500000
10
155.500000
20
183.750000
10
155.250000
20
183.500000
10
154.000000
20
183.500000
10
153.761271
20
183.738729
10
153.010505
20
183.274730
10
151.750000
20
183.969480
10
151.750000
20
184.750000
10
150.750000
20
184.750000
10
149.506521
20
184.034114
10
147.750000
20
184.962440
10
147.750000
20
185.500321
10
146.250000
20
186.437086
10
146.250000
20
187.005924
10
141.000000
20
186.750000
10
139.750000
20
187.469480
10
139.750000
20
187.969670
10
139.000000
20
188.250000
10
138.750000
20
188.500000
10
138.750000
20
189.199540
10
138.250000
20
189.467132
10
138.250000
20
192.532868
10
138.750000
20
192.800460
10
138.750000
20
193.199540
10
138.250000
20
193.467132
10
138.250000
20
195.543886
10
139.266037
20
196.064335
10
139.000000
20
196.500000
10
139.000000
20
197.500000
10
139.283653
20
197.968581
10
138.250000
20
198.723098
10
138.250000
20
199.773319
10
139.003188
20
200.333714
10
138.733544
20
202.524061
10
139.146966
20
202.745318
10
138.500000
20
203.226681
10
138.500000
20
205.000000
10
138.750000
20
205.250000
10
138.750000
20
205.750000
10
139.250000
20
206.250000
10
140.000000
20
206.530330
10
140.000000
20
207.500000
10
139.726683
20
207.500000
10
139.250000
20
208.250000
10
138.500000
20
208.726681
10
138.500000
20
210.043886
10
139.500000
20
210.556120
10
139.500000
20
213.449540
10
139.000000
20
213.717132
10
139.000000
20
214.750000
10
138.750000
20
215.000000
10
138.750000
20
216.000000
10
139.000000
20
216.250000
10
139.000000
20
220.250000
10
139.250000
20
220.500000
10
139.250000
20
222.026902
10
140.250000
20
222.756854
10
140.250000
20
226.000000
10
139.973098
20
226.000000
10
139.250000
20
227.000000
10
139.250000
20
228.023319
10
140.012234
20
228.590445
10
139.750106
20
229.969626
10
139.000000
20
230.250000
10
138.500000
20
230.750000
10
138.500000
20
232.500000
10
138.250000
20
232.750000
10
138.250000
20
233.530330
10
137.529512
20
233.231894
10
136.000000
20
234.250000
10
134.750000
20
234.750000
10
134.250000
20
235.250000
10
134.250000
20
235.750000
10
134.019675
20
235.980325
10
132.750000
20
235.250000
10
131.250000
20
235.250000
10
128.500000
20
236.704791
10
128.500000
20
237.250000
10
128.500000
20
236.437095
10
127.000000
20
235.500000
10
120.000000
20
235.750000
10
118.000000
20
236.750000
10
117.500000
20
237.250000
10
117.500000
20
236.719480
10
116.250000
20
236.000000
10
113.250000
20
236.000000
10
111.750000
20
236.750000
10
111.449540
20
237.250000
10
109.750000
20
237.250000
10
109.500000
20
237.000000
10
109.261271
20
237.238729
10
108.512690
20
236.776080
10
108.074546
20
237.010568
10
106.750000
20
236.250000
10
99.750000
20
236.500000
10
98.750000
20
237.000000
10
98.469416
20
237.462861
10
97.690427
20
236.981419
10
97.237310
20
237.223920
10
96.500000
20
236.750000
10
86.750000
20
237.000000
10
86.500000
20
237.250000
10
80.750000
20
237.250000
10
80.500000
20
237.500000
10
75.250000
20
237.500000
10
73.207658
20
236.815571
0
LWPOLYLINE
100
AcDbEntity
8
OUTER
100
AcDbPolyline
90
69
70
1
10
194.750001
20
180.500001
10
194.500000
20
180.250000
10
194.050468
20
180.250000
10
193.750000
20
179.750000
10
194.008579
20
177.726461
10
194.750000
20
177.268237
10
194.750000
20
176.250000
10
194.000000
20
175.250000
10
192.750000
20
174.709593
10
192.750000
20
173.831342
10
193.502205
20
173.271679
10
193.777423
20
170.981808
10
193.250000
20
170.699540
10
193.250000
20
169.937086
10
191.750000
20
169.000321
10
191.750000
20
167.750000
10
192.000000
20
167.500000
10
192.000000
20
166.800468
10
192.500000
20
166.532876
10
192.500000
20
165.467124
10
192.000000
20
165.199532
10
192.000000
20
164.500000
10
191.500000
20
164.000000
10
190.750000
20
163.719670
10
190.750000
20
162.800468
10
191.250000
20
162.532876
10
191.250000
20
160.000000
10
191.000000
20
159.750000
10
191.250000
20
159.500000
10
191.250000
20
158.250000
10
191.046643
20
158.046643
10
191.500000
20
156.750000
10
191.500000
20
155.000000
10
191.000000
20
154.500000
10
190.250000
20
154.219670
10
190.250000
20
151.719480
10
188.980325
20
151.019675
10
188.750000
20
151.250000
10
187.750000
20
151.250000
10
187.750000
20
150.250000
10
188.750000
20
150.250000
10
189.175450
20
150.510570
10
190.496746
20
149.782313
10
190.750000
20
142.750000
10
191.000000
20
142.500000
10
191.000000
20
139.000000
10
191.250000
20
138.750000
10
191.250000
20
137.750000
10
191.500000
20
137.500000
10
191.500000
20
134.000000
10
191.750000
20
133.750000
10
191.750000
20
130.250000
10
192.000000
20
130.000000
10
192.000000
20
129.550468
10
192.500000
20
129.282876
10
192.500000
20
128.731763
10
193.250000
20
128.268237
10
193.250000
20
127.750000
10
193.500000
20
127.500000
10
193.500000
20
126.500000
10
193.750000
20
126.250000
10
193.750000
20
124.050468
10
194.250000
20
123.782876
10
194.250000
20
122.750000
10
193.717126
20
122.217126
10
194.000000
20
121.750000
10
194.000000
20
119.831335
10
194.750000
20
119.273312
10
194.750000
20
117.750000
0
LWPOLYLINE
100
AcDbEntity
8
HOLES
100
AcDbPolyline
90
29
70
1
10
120.000000
20
82.812901
10
121.547457
20
83.779304
10
122.762448
20
83.512448
10
123.000000
20
83.750000
10
124.000000
20
83.750000
10
124.250000
20
84.000000
10
124.500000
20
83.750000
10
124.720979
20
83.970979
10
125.750000
20
83.500000
10
126.250000
20
83.000000
10
126.250000
20
82.449532
10
126.771415
20
82.728585
10
127.000000
20
82.500000
10
127.271447
20
82.771447
10
127.978553
20
82.478553
10
128.220979
20
82.720979
10
129.250000
20
82.250000
10
129.750000
20
81.750000
10
129.750000
20
80.445707
10
126.800509
20
78.518014
10
125.750000
20
79.000000
10
125.250000
20
79.500000
10
124.985599
20
80.211543
10
123.762570
20
79.537448
10
122.750000
20
80.000000
10
122.168658
20
80.750000
10
121.500000
20
80.750000
10
120.500000
20
81.250000
10
120.000000
20
81.750000
0
LWPOLYLINE
100
AcDbEntity
8
HOLES
100
AcDbPolyline
90
29
70
1
10
112.239094
20
106.989094
10
113.000000
20
107.750000
10
115.020203
20
108.708345
10
116.250000
20
108.000000
10
117.250000
20
108.000000
10
118.500000
20
107.250000
10
120.250000
20
107.250000
10
120.500000
20
107.000000
10
121.000000
20
107.000000
10
123.750000
20
108.250000
10
124.500000
20
108.250000
10
125.500000
20
107.750000
10
126.250000
20
107.000000
10
126.250000
20
105.473671
10
125.000000
20
104.475886
10
125.000000
20
102.937099
10
123.462595
20
101.976973
10
122.250000
20
102.500000
10
121.750000
20
103.000000
10
120.500000
20
103.250000
10
119.500000
20
102.750000
10
119.000000
20
102.750000
10
118.750000
20
103.000000
10
116.500000
20
103.000000
10
115.750000
20
102.250000
10
114.750000
20
101.750000
10
114.250000
20
101.750000
10
113.250000
20
102.250000
10
112.500000
20
103.000000
0
LWPOLYLINE
100
AcDbEntity
8
HOLES
100
AcDbPolyline
90
230
70
1
10
71.250000
20
134.500000
10
72.288314
20
134.975739
10
73.750000
20
134.062901
10
73.750000
20
129.000000
10
74.000000
20
128.750000
10
74.000000
20
126.250000
10
73.500000
20
125.750000
10
72.750000
20
125.469670
10
72.750000
20
122.226683
10
72.000000
20
121.750000
10
71.500000
20
121.000000
10
71.500000
20
120.780330
10
72.250000
20
120.500000
10
73.000000
20
119.750000
10
73.000000
20
118.473671
10
71.750000
20
117.475886
10
71.750000
20
117.024114
10
73.000000
20
116.026328
10
73.000000
20
111.750000
10
72.500000
20
111.250000
10
71.250000
20
110.709593
10
71.250000
20
110.540407
10
72.500000
20
110.000000
10
73.000000
20
109.500000
10
73.000000
20
108.500000
10
73.250000
20
108.250000
10
73.250000
20
105.223671
10
72.000000
20
104.225886
10
72.000000
20
103.500000
10
72.250000
20
103.750000
10
73.000000
20
103.750000
10
74.000000
20
103.250000
10
74.500000
20
102.750000
10
74.755666
20
101.250000
10
75.500000
20
101.250000
10
76.500000
20
100.750000
10
77.081342
20
100.000000
10
77.750000
20
100.000000
10
79.250000
20
99.250000
10
79.750000
20
98.750000
10
79.750000
20
98.250000
10
80.250000
20
98.250000
10
80.972693
20
98.714886
10
82.500000
20
98.000000
10
83.344797
20
97.000000
10
84.000000
20
97.000000
10
84.750000
20
97.481763
10
85.500000
20
97.000000
10
88.000000
20
97.000000
10
88.720109
20
96.536711
10
89.000000
20
97.500000
10
90.500000
20
98.500000
10
94.250000
20
98.500000
10
97.250000
20
97.000000
10
97.750000
20
96.500000
10
97.750000
20
91.000000
10
97.500000
20
90.750000
10
97.750000
20
90.500000
10
97.750000
20
89.500000
10
98.000000
20
89.250000
10
98.250000
20
87.500000
10
98.250000
20
89.761239
10
100.241653
20
91.185309
10
100.506696
20
97.028300
10
101.263403
20
97.591313
10
100.750000
20
98.250000
10
100.750000
20
100.750000
10
101.250000
20
101.250000
10
102.445834
20
101.765239
10
103.261271
20
101.261271
10
103.499795
20
101.499795
10
105.000000
20
100.500000
10
105.750000
20
100.500000
10
106.000000
20
100.250000
10
106.250000
20
100.500000
10
106.500000
20
100.250000
10
107.500000
20
100.250000
10
107.750000
20
100.000000
10
108.000000
20
100.250000
10
108.750000
20
100.250000
10
111.036530
20
101.476854
10
112.500000
20
100.562901
10
112.500000
20
98.976028
10
111.019346
20
97.730654
10
111.250000
20
97.500000
10
111.250000
20
95.500000
10
111.000000
20
95.250000
10
111.250000
20
95.000000
10
111.250000
20
94.000000
10
111.046643
20
93.796643
10
111.500000
20
92.500000
10
111.500000
20
91.500000
10
111.250000
20
91.250000
10
111.500000
20
91.250000
10
112.750000
20
90.000000
10
112.750000
20
89.280330
10
113.500000
20
89.000000
10
115.500000
20
87.500000
10
115.750000
20
87.500000
10
115.750000
20
88.812901
10
117.250000
20
89.750000
10
119.500000
20
89.750000
10
119.750000
20
89.500000
10
119.999795
20
89.749795
10
121.500000
20
88.812901
10
121.500000
20
87.750000
10
121.000000
20
87.250000
10
119.970979
20
86.779021
10
119.750000
20
87.000000
10
119.500000
20
86.750000
10
119.000000
20
86.750000
10
119.500000
20
86.250000
10
119.500000
20
84.500000
10
119.250000
20
84.250000
10
119.250000
20
83.581340
10
120.000000
20
83.023317
10
120.000000
20
82.000000
10
119.500000
20
81.500000
10
118.470979
20
81.029021
10
118.250000
20
81.250000
10
117.250000
20
81.250000
10
116.546425
20
81.703070
10
116.000000
20
81.000000
10
114.467510
20
80.282490
10
114.269675
20
80.480325
10
113.000000
20
79.780520
10
113.000000
20
79.000000
10
112.250000
20
78.250000
10
111.149749
20
77.742534
10
109.722693
20
78.464886
10
109.000000
20
78.000000
10
106.500000
20
78.000000
10
105.738729
20
78.488729
10
105.500000
20
78.250000
10
104.750000
20
78.250000
10
104.467126
20
78.532874
10
103.922136
20
78.241204
10
103.500000
20
78.500000
10
102.250000
20
78.500000
10
102.046643
20
78.296643
10
100.703357
20
78.703357
10
100.467126
20
78.467126
10
99.978585
20
78.728585
10
99.750000
20
78.500000
10
99.250000
20
78.500000
10
98.250000
20
79.000000
10
97.668658
20
79.750000
10
97.250000
20
79.750000
10
96.500000
20
79.000000
10
95.487430
20
78.537448
10
94.166082
20
79.265733
10
92.654544
20
78.500619
10
92.172136
20
78.758796
10
91.728585
20
78.521415
10
91.500000
20
78.750000
10
90.500000
20
78.750000
10
90.250000
20
79.000000
10
89.000000
20
79.000000
10
87.000000
20
80.000000
10
83.750000
20
80.000000
10
83.000000
20
79.500000
10
81.750000
20
79.500000
10
81.500000
20
79.250000
10
80.750000
20
79.250000
10
79.500000
20
80.000000
10
78.250000
20
80.000000
10
78.000000
20
79.750000
10
75.500000
20
79.750000
10
75.250000
20
79.500000
10
74.750000
20
79.500000
10
74.511271
20
79.738729
10
73.750000
20
79.250000
10
72.000000
20
79.250000
10
70.750000
20
80.000000
10
70.000000
20
80.000000
10
69.750205
20
79.750205
10
68.250000
20
80.687099
10
68.250000
20
81.469670
10
67.500000
20
81.750000
10
66.750000
20
82.500000
10
66.750000
20
82.993146
10
65.750000
20
83.723098
10
65.750000
20
85.500333
10
64.250000
20
86.437099
10
64.250000
20
90.500000
10
64.500000
20
90.750000
10
64.250000
20
91.000000
10
64.250000
20
93.000000
10
64.750000
20
93.750000
10
64.750000
20
95.523317
10
65.390676
20
96.000000
10
64.750000
20
96.476683
10
64.750000
20
99.262015
10
66.005554
20
100.242321
10
65.733440
20
102.733440
10
66.250000
20
103.250000
10
66.250000
20
104.250000
10
66.500000
20
104.500000
10
66.500000
20
105.500000
10
66.750000
20
105.750000
10
66.750000
20
107.000000
10
67.219670
20
108.030330
10
67.000000
20
108.250000
10
67.000000
20
109.250000
10
67.250000
20
109.500000
10
67.250000
20
111.250000
10
67.500000
20
111.500000
10
67.750000
20
113.750000
10
68.000000
20
114.000000
10
68.000000
20
118.000000
10
68.704132
20
119.545868
10
68.500000
20
119.750000
10
68.500000
20
120.750000
10
68.750000
20
121.000000
10
68.750000
20
123.000000
10
69.250000
20
123.500000
10
69.250000
20
124.250000
10
69.500000
20
124.500000
10
69.250000
20
124.750000
10
69.250000
20
125.750000
10
69.500000
20
126.000000
10
69.500000
20
128.000000
10
69.743146
20
128.243146
10
69.473098
20
129.973098
10
70.000000
20
130.500000
10
70.000000
20
131.250000
10
70.500000
20
132.250000
10
70.500000
20
133.250000
10
70.750000
20
133.500000
10
70.750000
20
134.000000
0
LWPOLYLINE
100
AcDbEntity
8
HOLES
100
AcDbPolyline
90
59
70
1
10
133.500000
20
139.250000
10
134.500000
20
138.750000
10
135.250000
20
138.000000
10
135.250000
20
136.500000
10
135.500000
20
136.250000
10
135.500000
20
135.500000
10
135.990614
20
135.009386
10
135.750000
20
132.000000
10
135.500000
20
131.750000
10
135.500000
20
130.250000
10
134.750000
20
129.500000
10
133.750000
20
129.000000
10
132.000000
20
129.000000
10
131.750000
20
129.250000
10
131.750000
20
128.973671
10
130.500000
20
127.975886
10
130.500000
20
127.500000
10
130.000000
20
127.000000
10
129.271447
20
126.728553
10
128.997246
20
126.066575
10
129.250000
20
125.500000
10
130.000000
20
125.000000
10
130.500000
20
125.000000
10
130.500000
20
126.250000
10
131.000000
20
126.750000
10
131.000000
20
127.812906
10
132.500000
20
128.750000
10
133.500000
20
128.750000
10
133.750000
20
128.500000
10
134.007790
20
128.757790
10
136.250000
20
127.327802
10
136.250000
20
125.750000
10
136.000000
20
125.500000
10
136.250000
20
125.250000
10
136.250000
20
123.250000
10
134.000000
20
120.250000
10
132.836288
20
119.749687
10
131.750000
20
120.250000
10
131.252054
20
120.887924
10
130.500000
20
120.000000
10
129.000000
20
119.250000
10
128.250000
20
119.250000
10
126.750000
20
120.000000
10
126.246169
20
120.503831
10
126.512017
20
123.462269
10
125.549662
20
122.969319
10
124.000000
20
123.937099
10
124.000000
20
127.523317
10
124.750000
20
128.000000
10
125.482706
20
129.000000
10
125.750000
20
129.000000
10
125.750000
20
131.773317
10
126.500000
20
132.250000
10
127.250000
20
133.250000
10
128.666251
20
133.908671
10
129.250000
20
135.750000
10
130.500000
20
137.000000
10
130.500000
20
138.312906
10
132.000000
20
139.250000
0
LWPOLYLINE
100
AcDbEntity
8
HOLES
100
AcDbPolyline
90
119
70
1
10
120.000000
20
202.750000
10
120.500000
20
202.750000
10
122.000000
20
201.812909
10
122.000000
20
200.274114
10
123.250000
20
199.276328
10
123.250000
20
196.530330
10
124.000000
20
196.250000
10
124.500000
20
195.750000
10
124.747786
20
192.989714
10
126.006305
20
192.007092
10
126.267007
20
188.010539
10
127.500000
20
187.026329
10
127.500000
20
186.530330
10
128.250000
20
186.250000
10
129.000000
20
185.500000
10
129.000000
20
183.000000
10
129.293986
20
182.512110
10
130.000000
20
182.250000
10
130.500000
20
181.750000
10
130.500000
20
178.530330
10
131.250000
20
178.250000
10
131.750000
20
177.750000
10
131.750000
20
174.250000
10
132.000000
20
174.000000
10
132.000000
20
172.524114
10
133.250000
20
171.526329
10
133.250000
20
170.000000
10
133.500000
20
169.750000
10
133.750000
20
170.000000
10
135.250000
20
170.000000
10
136.750000
20
169.250000
10
137.250000
20
168.750000
10
137.250000
20
168.250000
10
137.500000
20
168.000000
10
137.500000
20
167.000000
10
137.257607
20
166.757607
10
137.518481
20
163.268481
10
137.250000
20
163.000000
10
137.250000
20
162.500000
10
136.500000
20
161.750000
10
136.769913
20
161.480087
10
136.495341
20
159.504659
10
137.000000
20
159.000000
10
137.000000
20
158.000000
10
136.717126
20
157.717126
10
137.000000
20
157.250000
10
137.000000
20
156.250000
10
136.750000
20
156.000000
10
136.750000
20
152.973671
10
135.513410
20
151.986590
10
135.750000
20
151.750000
10
135.750000
20
149.500000
10
135.467126
20
149.032874
10
136.000000
20
148.500000
10
136.000000
20
147.187094
10
134.462599
20
146.226971
10
133.250000
20
146.750000
10
132.500000
20
147.500000
10
132.500000
20
150.750328
10
131.000000
20
151.687094
10
131.000000
20
154.247069
10
129.500000
20
155.480736
10
129.500000
20
156.750000
10
129.736590
20
156.986590
10
128.500000
20
157.973671
10
128.500000
20
158.500000
10
128.250000
20
158.750000
10
127.500000
20
159.000000
10
127.000000
20
159.500000
10
127.000000
20
160.500000
10
126.750000
20
161.000000
10
125.500000
20
161.973671
10
125.500000
20
163.532876
10
125.000000
20
163.750000
10
122.750000
20
166.250000
10
122.000000
20
166.500000
10
121.250000
20
167.250000
10
121.250000
20
170.000000
10
121.000000
20
169.750000
10
120.250000
20
169.750000
10
118.750000
20
170.687091
10
118.750000
20
172.276329
10
120.000000
20
173.274114
10
120.000000
20
173.750000
10
119.500000
20
174.250000
10
119.500000
20
174.996118
10
118.564586
20
175.271679
10
117.735585
20
174.759328
10
116.250000
20
175.687091
10
116.250000
20
177.250000
10
116.750000
20
177.750000
10
117.847618
20
178.256117
10
118.750000
20
177.750000
10
117.000000
20
178.961799
10
117.000000
20
180.062909
10
118.500000
20
181.000000
10
119.250000
20
181.000000
10
119.250000
20
181.273325
10
120.000000
20
181.831348
10
120.000000
20
183.743146
10
119.000000
20
184.473098
10
119.000000
20
185.500000
10
120.000000
20
186.500000
10
120.250000
20
186.500000
10
120.250000
20
186.719670
10
119.500000
20
187.000000
10
119.000000
20
187.500000
10
119.000000
20
188.500000
10
118.500000
20
189.000000
10
118.500000
20
190.276902
10
119.500000
20
191.006854
10
119.500000
20
192.523325
10
120.253187
20
193.083720
10
119.987985
20
195.237985
10
120.501608
20
195.751608
10
119.250000
20
197.250000
10
119.250000
20
198.000000
10
118.750000
20
198.500000
10
118.477833
20
201.799065
0
LWPOLYLINE
100
AcDbEntity
8
HOLES
100
AcDbPolyline
90
116
70
1
10
84.737430
20
204.712552
10
85.750000
20
204.250000
10
86.250000
20
203.750000
10
86.250000
20
203.256854
10
87.250000
20
202.526902
10
87.250000
20
201.500000
10
86.967131
20
201.217131
10
87.250000
20
200.750000
10
87.250000
20
199.437091
10
85.749800
20
198.500200
10
85.500000
20
198.750000
10
85.269675
20
198.519675
10
84.000000
20
199.219480
10
84.000000
20
199.094791
10
85.000000
20
198.267288
10
85.000000
20
197.250000
10
84.750000
20
197.000000
10
85.000000
20
196.750000
10
85.000000
20
195.726675
10
84.318382
20
195.219530
10
85.500000
20
194.276329
10
85.500000
20
193.250000
10
85.750000
20
193.000000
10
86.250000
20
193.000000
10
87.011271
20
192.511271
10
87.249800
20
192.749800
10
88.750000
20
191.812909
10
88.750000
20
189.500000
10
88.301869
20
189.051869
10
89.250000
20
188.267288
10
89.250000
20
186.250000
10
88.250000
20
185.250000
10
87.220979
20
184.779021
10
87.021410
20
184.978590
10
86.500000
20
184.750000
10
86.000000
20
184.000000
10
84.750000
20
183.500000
10
83.750000
20
182.500000
10
82.659925
20
181.997747
10
82.250000
20
182.217132
10
82.250000
20
181.732712
10
81.250000
20
180.905209
10
81.250000
20
180.482712
10
80.250000
20
179.750000
10
79.250000
20
178.500000
10
78.220979
20
178.029021
10
78.000000
20
178.250000
10
77.750000
20
178.000000
10
77.500000
20
178.250000
10
77.500000
20
176.232712
10
76.500000
20
175.405209
10
76.500000
20
174.973671
10
75.250000
20
173.975886
10
75.250000
20
172.723671
10
74.000000
20
171.725886
10
74.000000
20
168.750000
10
73.000000
20
167.500000
10
73.000000
20
164.750000
10
72.500000
20
164.250000
10
71.771447
20
163.978553
10
72.000000
20
163.750000
10
72.000000
20
160.973671
10
70.750000
20
159.975886
10
70.750000
20
156.973098
10
69.750000
20
156.243146
10
69.750000
20
150.500000
10
69.000000
20
149.750000
10
67.961686
20
149.274261
10
66.500000
20
150.187099
10
66.500000
20
152.750000
10
66.782869
20
153.032869
10
66.500000
20
153.500000
10
66.500000
20
157.000000
10
66.750000
20
157.250000
10
66.750000
20
158.250000
10
67.000000
20
158.500000
10
66.750000
20
158.750000
10
66.750000
20
160.250000
10
67.250000
20
160.750000
10
67.250000
20
162.000000
10
67.500000
20
162.250000
10
67.000000
20
162.750000
10
67.000000
20
169.250000
10
67.250000
20
169.500000
10
67.250000
20
170.000000
10
67.000000
20
170.250000
10
67.000000
20
172.000000
10
67.250000
20
172.250000
10
67.250000
20
181.062909
10
68.750000
20
182.000000
10
69.750000
20
182.000000
10
69.750000
20
185.273325
10
70.500000
20
185.831348
10
70.500000
20
186.250000
10
71.000000
20
186.750000
10
72.000000
20
187.250000
10
73.000000
20
187.250000
10
73.000000
20
189.000000
10
73.500000
20
189.500000
10
74.500000
20
190.000000
10
75.250000
20
190.000000
10
75.250000
20
191.526329
10
76.500000
20
192.524114
10
76.500000
20
193.026902
10
77.500000
20
193.756854
10
77.500000
20
195.276329
10
78.750000
20
196.274114
10
78.750000
20
198.026329
10
80.000000
20
199.024114
10
80.000000
20
200.517288
10
80.999813
20
201.344636
10
80.750000
20
201.750000
10
80.750000
20
202.750000
10
81.750000
20
203.750000
10
82.830108
20
204.247148
10
83.436968
20
203.995778
0
LWPOLYLINE
100
AcDbEntity
8
HOLES
100
AcDbPolyline
90
9
70
1
10
85.750000
20
209.000000
10
86.250000
20
209.000000
10
87.750000
20
208.062909
10
87.750000
20
207.000000
10
87.000000
20
206.250000
10
85.913712
20
205.749687
10
84.750000
20
206.250000
10
84.250000
20
206.750000
10
84.250000
20
208.062909
0
ENDSEC
0
EOF
