0
SECTION
2
HEADER
9
$ACADVER
1
AC1014
9
$INSUNITS
70
4
9
$HANDSEED
5
FFFF
0
ENDSEC
0
SECTION
2
TABLES
0
TABLE
2
LTYPE
70
1
0
LTYPE
2
CONTINUOUS
70
0
3
Solid line
72
65
73
0
40
0.000000
0
ENDTAB
0
TABLE
2
LAYER
70
3
0
LAYER
2
0
70
0
62
7
6
CONTINUOUS
0
LAYER
2
OUTER
70
0
62
3
6
CONTINUOUS
0
LAYER
2
HOLES
70
0
62
1
6
CONTINUOUS
0
ENDTAB
0
ENDSEC
0
SECTION
2
ENTITIES
0
LWPOLYLINE
100
AcDbEntity
8
OUTER
100
AcDbPolyline
90
374
70
1
10
146.518001
20
203.810094
10
146.000000
20
203.500000
10
145.000000
20
203.500000
10
144.750000
20
203.250000
10
141.500000
20
203.000000
10
141.250000
20
202.750000
10
140.250000
20
202.750000
10
140.000000
20
202.500000
10
138.000000
20
202.500000
10
136.750000
20
202.000000
10
135.250000
20
202.000000
10
135.000000
20
201.750000
10
133.750000
20
201.750000
10
133.500000
20
201.500000
10
132.500000
20
201.500000
10
132.271410
20
201.271410
10
131.848329
20
201.497836
10
130.750000
20
201.000000
10
127.250000
20
200.750000
10
126.250000
20
200.250000
10
124.250000
20
200.250000
10
123.000000
20
199.750000
10
120.000000
20
199.500000
10
119.750000
20
199.250000
10
117.250000
20
199.000000
10
117.000000
20
198.750000
10
116.000000
20
198.750000
10
115.750000
20
198.500000
10
114.000000
20
198.500000
10
113.750000
20
198.250000
10
111.250000
20
198.000000
10
111.000000
20
197.750000
10
107.500000
20
197.500000
10
107.250000
20
197.250000
10
104.750000
20
197.000000
10
103.500000
20
196.500000
10
102.000000
20
196.500000
10
101.750000
20
196.250000
10
100.750000
20
196.250000
10
100.500000
20
196.000000
10
99.000000
20
196.000000
10
98.750000
20
195.750000
10
98.000000
20
195.750000
10
96.703357
20
195.296643
10
96.530330
20
195.469670
10
95.469670
20
195.030330
10
95.250000
20
195.250000
10
95.000000
20
195.000000
10
93.500000
20
195.000000
10
93.250000
20
194.750000
10
91.750000
20
194.750000
10
91.500000
20
194.500000
10
91.261271
20
194.738729
10
90.500000
20
194.250000
10
89.000000
20
194.250000
10
88.750000
20
194.000000
10
87.500000
20
194.000000
10
87.250000
20
193.750000
10
85.750000
20
193.750000
10
85.500000
20
193.500000
10
84.500000
20
193.500000
10
84.250000
20
193.250000
10
80.000000
20
192.750000
10
78.750000
20
192.250000
10
77.500000
20
192.250000
10
77.250000
20
192.000000
10
76.000000
20
192.000000
10
75.750000
20
191.750000
10
73.750000
20
191.750000
10
72.750000
20
191.250000
10
71.000000
20
191.250000
10
69.750000
20
190.750000
10
66.750000
20
190.500000
10
66.500000
20
190.250000
10
65.500000
20
190.250000
10
65.250000
20
190.000000
10
63.500000
20
190.000000
10
62.500000
20
189.500000
10
61.000000
20
189.500000
10
60.750000
20
189.250000
10
59.500000
20
189.250000
10
59.250000
20
189.000000
10
58.250000
20
189.000000
10
58.000000
20
188.750000
10
56.250000
20
188.750000
10
56.000000
20
188.500000
10
52.500000
20
188.015575
10
52.500000
20
186.750000
10
52.750000
20
186.500000
10
52.750000
20
185.250000
10
53.000000
20
185.000000
10
53.000000
20
183.250000
10
53.250000
20
183.000000
10
53.250000
20
181.500000
10
53.500000
20
181.250000
10
53.500000
20
179.750000
10
53.750000
20
179.500000
10
54.000000
20
176.500000
10
54.250000
20
176.250000
10
54.250000
20
174.750000
10
54.500000
20
174.500000
10
54.750000
20
171.500000
10
55.000000
20
171.250000
10
55.000000
20
169.750000
10
55.250000
20
169.500000
10
55.250000
20
168.250000
10
55.500000
20
168.000000
10
55.500000
20
166.250000
10
55.750000
20
166.000000
10
55.750000
20
164.750000
10
56.000000
20
164.500000
10
56.000000
20
163.000000
10
56.250000
20
162.750000
10
56.250000
20
161.250000
10
56.500000
20
161.000000
10
56.500000
20
159.750000
10
56.750000
20
159.500000
10
56.750000
20
158.000000
10
57.000000
20
157.750000
10
57.500000
20
152.750000
10
57.750000
20
152.500000
10
58.000000
20
149.500000
10
58.250000
20
149.250000
10
58.250000
20
147.750000
10
58.500000
20
147.500000
10
58.750000
20
144.500000
10
59.000000
20
144.250000
10
59.000000
20
142.750000
10
59.250000
20
142.500000
10
59.250000
20
141.250000
10
59.500000
20
141.000000
10
59.500000
20
139.250000
10
59.750000
20
139.000000
10
59.750000
20
138.000000
10
60.000000
20
137.750000
10
60.000000
20
136.000000
10
60.250000
20
135.750000
10
60.250000
20
134.250000
10
60.500000
20
134.000000
10
60.500000
20
132.750000
10
60.750000
20
132.500000
10
61.000000
20
129.250000
10
61.250000
20
129.000000
10
61.250000
20
128.000000
10
61.500000
20
127.750000
10
61.750000
20
124.250000
10
62.000000
20
124.000000
10
62.000000
20
122.750000
10
62.250000
20
122.500000
10
62.500000
20
119.000000
10
62.750000
20
118.750000
10
62.750000
20
117.750000
10
63.000000
20
117.500000
10
63.000000
20
115.750000
10
63.250000
20
115.500000
10
63.250000
20
114.000000
10
63.500000
20
113.750000
10
63.500000
20
112.250000
10
63.750000
20
112.000000
10
63.750000
20
110.750000
10
64.000000
20
110.500000
10
64.000000
20
108.750000
10
64.250000
20
108.500000
10
64.250000
20
107.250000
10
64.500000
20
107.000000
10
64.500000
20
105.250000
10
64.750000
20
105.000000
10
64.750000
20
103.500000
10
65.000000
20
103.250000
10
65.250000
20
100.000000
10
65.500000
20
99.750000
10
65.745190
20
97.500000
10
66.250000
20
97.500000
10
66.500000
20
97.750000
10
67.750000
20
97.750000
10
68.000000
20
98.000000
10
69.250000
20
98.000000
10
69.500000
20
98.250000
10
72.500000
20
98.500000
10
72.925450
20
98.760570
10
74.250000
20
98.030520
10
74.250000
20
97.500000
10
74.500000
20
97.250000
10
74.500000
20
96.000000
10
74.750000
20
95.750000
10
74.750000
20
94.467124
10
75.217126
20
94.217126
10
75.500000
20
94.500000
10
76.750000
20
94.500000
10
77.000000
20
94.750000
10
78.250000
20
94.750000
10
78.500000
20
95.000000
10
79.750000
20
95.000000
10
80.000000
20
95.250000
10
82.500000
20
95.500000
10
82.753140
20
95.753140
10
82.486831
20
99.773261
10
83.750000
20
100.500000
10
85.000000
20
100.500000
10
85.250000
20
100.750000
10
86.500000
20
100.750000
10
86.750000
20
101.000000
10
88.000000
20
101.000000
10
88.250000
20
101.250000
10
89.500000
20
101.250000
10
89.750000
20
101.500000
10
91.000000
20
101.500000
10
91.250000
20
101.750000
10
92.500000
20
101.750000
10
92.750000
20
102.000000
10
95.750000
20
102.250000
10
96.980904
20
101.541045
10
97.250000
20
98.500000
10
97.500000
20
98.250000
10
99.000000
20
98.250000
10
99.250000
20
98.500000
10
100.500000
20
98.500000
10
100.750000
20
98.750000
10
102.000000
20
98.750000
10
102.250000
20
99.000000
10
103.500000
20
99.000000
10
103.750000
20
99.250000
10
105.000000
20
99.250000
10
105.500000
20
99.550468
10
105.500000
20
100.000000
10
105.250000
20
100.250000
10
105.250000
20
103.530520
10
106.500000
20
104.250000
10
107.750000
20
104.250000
10
108.000000
20
104.500000
10
109.250000
20
104.500000
10
109.500000
20
104.750000
10
110.750000
20
104.750000
10
111.000000
20
105.000000
10
112.500000
20
105.000000
10
112.750000
20
105.250000
10
114.000000
20
105.250000
10
114.250000
20
105.500000
10
117.000000
20
105.750000
10
117.250000
20
106.000000
10
118.250000
20
106.000000
10
119.505614
20
105.277425
10
119.992756
20
101.983599
10
123.750000
20
102.250000
10
124.000000
20
102.500000
10
125.250000
20
102.500000
10
125.500000
20
102.750000
10
128.000000
20
103.000000
10
128.257705
20
103.257705
10
127.987818
20
107.055298
10
129.500000
20
108.000000
10
130.750000
20
108.000000
10
131.000000
20
108.250000
10
132.250000
20
108.250000
10
132.500000
20
108.500000
10
133.750000
20
108.500000
10
134.000000
20
108.750000
10
135.500000
20
108.750000
10
135.750000
20
109.000000
10
137.000000
20
109.000000
10
137.250000
20
109.250000
10
138.500000
20
109.250000
10
138.750000
20
109.500000
10
141.250000
20
109.750000
10
142.480904
20
109.041045
10
142.756156
20
105.977958
10
143.511271
20
105.511271
10
143.750000
20
105.750000
10
145.250000
20
105.750000
10
145.500000
20
106.000000
10
146.750000
20
106.000000
10
147.000000
20
106.250000
10
151.250000
20
106.750000
10
151.500000
20
107.000000
10
151.250000
20
107.250000
10
151.250000
20
108.750000
10
151.000000
20
109.000000
10
151.000000
20
110.750000
10
151.500000
20
111.250000
10
152.500000
20
111.750000
10
155.500000
20
112.000000
10
155.750000
20
112.250000
10
157.000000
20
112.250000
10
157.250000
20
112.500000
10
159.250000
20
112.755307
10
159.250000
20
114.750000
10
159.000000
20
115.000000
10
159.000000
20
116.500000
10
158.750000
20
116.750000
10
158.750000
20
118.250000
10
158.500000
20
118.500000
10
158.500000
20
120.250000
10
158.250000
20
120.500000
10
158.250000
20
121.750000
10
158.000000
20
122.000000
10
157.750000
20
125.500000
10
157.500000
20
125.750000
10
157.250000
20
129.000000
10
157.000000
20
129.250000
10
157.000000
20
130.750000
10
156.750000
20
131.000000
10
156.750000
20
132.500000
10
156.500000
20
132.750000
10
156.500000
20
134.500000
10
156.250000
20
134.750000
10
156.000000
20
137.750000
10
155.750000
20
138.000000
10
155.750000
20
139.500000
10
155.500000
20
139.750000
10
155.500000
20
141.500000
10
155.250000
20
141.750000
10
155.250000
20
143.250000
10
155.000000
20
143.500000
10
155.000000
20
145.000000
10
154.750000
20
145.250000
10
154.750000
20
146.750000
10
154.500000
20
147.000000
10
154.500000
20
148.500000
10
154.250000
20
148.750000
10
154.250000
20
150.250000
10
154.000000
20
150.500000
10
154.000000
20
152.250000
10
153.750000
20
152.500000
10
153.750000
20
154.000000
10
153.500000
20
154.250000
10
153.500000
20
155.750000
10
153.250000
20
156.000000
10
153.250000
20
157.750000
10
153.000000
20
158.000000
10
153.000000
20
159.500000
10
152.750000
20
159.750000
10
152.750000
20
161.250000
10
152.500000
20
161.500000
10
152.500000
20
163.000000
10
152.250000
20
163.250000
10
152.250000
20
164.750000
10
152.000000
20
165.000000
10
152.000000
20
166.750000
10
151.750000
20
167.000000
10
151.500000
20
170.000000
10
151.250000
20
170.250000
10
151.250000
20
172.000000
10
151.000000
20
172.250000
10
150.750000
20
175.750000
10
150.500000
20
176.000000
10
150.500000
20
177.250000
10
150.250000
20
177.500000
10
150.250000
20
179.250000
10
150.000000
20
179.500000
10
150.000000
20
180.750000
10
149.750000
20
181.000000
10
149.750000
20
182.750000
10
149.500000
20
183.000000
10
149.500000
20
184.500000
10
149.250000
20
184.750000
10
149.250000
20
186.250000
10
149.000000
20
186.500000
10
149.000000
20
188.250000
10
148.750000
20
188.500000
10
148.750000
20
190.000000
10
148.500000
20
190.250000
10
148.500000
20
191.750000
10
148.250000
20
192.000000
10
148.250000
20
193.750000
10
148.000000
20
194.000000
10
148.000000
20
195.500000
10
147.750000
20
195.750000
10
147.750000
20
197.250000
10
147.500000
20
197.500000
10
147.500000
20
199.000000
10
147.250000
20
199.250000
10
147.250000
20
201.000000
10
147.000000
20
201.250000
10
147.000000
20
202.750000
0
ENDSEC
0
EOF
