0
SECTION
2
HEADER
9
$ACADVER
1
AC1014
9
$INSUNITS
70
4
9
$HANDSEED
5
FFFF
0
ENDSEC
0
SECTION
2
TABLES
0
TABLE
2
LTYPE
70
1
0
LTYPE
2
CONTINUOUS
70
0
3
Solid line
72
65
73
0
40
0.000000
0
ENDTAB
0
TABLE
2
LAYER
70
3
0
LAYER
2
0
70
0
62
7
6
CONTINUOUS
0
LAYER
2
OUTER
70
0
62
3
6
CONTINUOUS
0
LAYER
2
HOLES
70
0
62
1
6
CONTINUOUS
0
ENDTAB
0
ENDSEC
0
SECTION
2
ENTITIES
0
LWPOLYLINE
100
AcDbEntity
8
OUTER
100
AcDbPolyline
90
226
70
1
10
51.500000
20
199.018237
10
51.500000
20
197.000000
10
51.250000
20
196.750000
10
51.250000
20
184.750000
10
51.000000
20
184.500000
10
51.000000
20
175.500000
10
50.750000
20
175.250000
10
50.750000
20
166.000000
10
50.500000
20
165.750000
10
50.500000
20
159.750000
10
50.250000
20
159.500000
10
50.250000
20
148.500000
10
50.000000
20
148.250000
10
50.000000
20
142.750000
10
49.750000
20
142.500000
10
49.750000
20
137.000000
10
49.500000
20
136.750000
10
49.500000
20
126.750000
10
49.217128
20
126.467128
10
49.500000
20
126.000000
10
49.500000
20
124.250000
10
49.250000
20
124.000000
10
49.250000
20
119.750000
10
49.000000
20
119.500000
10
48.750000
20
97.000000
10
48.500000
20
96.750000
10
48.500000
20
89.500000
10
48.750000
20
89.000000
10
49.250000
20
88.750000
10
50.250000
20
88.750000
10
50.500000
20
88.500000
10
50.782874
20
88.782874
10
51.250000
20
88.500000
10
57.250000
20
88.500000
10
57.250000
20
90.750000
10
57.500000
20
91.000000
10
57.500000
20
92.280520
10
58.750000
20
93.000000
10
64.500000
20
93.000000
10
65.750000
20
92.280520
10
65.750000
20
88.750000
10
66.250000
20
88.250000
10
66.750000
20
88.250000
10
67.000000
20
88.000000
10
76.250000
20
88.000000
10
76.500000
20
87.750000
10
77.250000
20
87.750000
10
77.500000
20
88.000000
10
77.500000
20
91.780520
10
78.750000
20
92.500000
10
81.250000
20
92.500000
10
81.500000
20
92.250000
10
84.500000
20
92.250000
10
85.750000
20
91.530520
10
85.750000
20
88.250000
10
86.000000
20
87.750000
10
86.500000
20
87.500000
10
89.000000
20
87.500000
10
89.250000
20
87.250000
10
97.500000
20
87.250000
10
97.750000
20
87.500000
10
97.750000
20
91.030520
10
99.000000
20
91.750000
10
103.750000
20
91.750000
10
104.000000
20
91.500000
10
104.750000
20
91.500000
10
106.000000
20
90.780520
10
106.000000
20
87.500000
10
106.300460
20
87.000000
10
107.250000
20
87.000000
10
107.500000
20
86.750000
10
113.750000
20
86.750000
10
114.004761
20
86.495239
10
115.475275
20
86.774725
10
115.750000
20
86.500000
10
117.750000
20
86.500000
10
117.750000
20
87.000000
10
118.000000
20
87.250000
10
118.000000
20
90.280520
10
119.250000
20
91.000000
10
125.000000
20
91.000000
10
126.250000
20
90.280520
10
126.250000
20
86.731763
10
127.000000
20
86.250000
10
129.750000
20
86.250000
10
130.000000
20
86.000000
10
135.250000
20
86.000000
10
135.500000
20
86.250000
10
135.752856
20
94.282094
10
137.000000
20
95.000000
10
140.000000
20
95.000000
10
140.250000
20
95.250000
10
140.250000
20
101.250000
10
140.500000
20
101.500000
10
140.500000
20
103.515182
10
139.250000
20
103.750000
10
138.500000
20
104.250000
10
137.750000
20
104.250000
10
136.750000
20
104.750000
10
136.250000
20
105.500000
10
136.250000
20
107.750000
10
136.500000
20
108.000000
10
136.500000
20
114.250000
10
136.750000
20
114.500000
10
136.750000
20
115.030520
10
138.019675
20
115.730325
10
138.250000
20
115.500000
10
138.750000
20
115.500000
10
139.000000
20
115.750000
10
139.276902
20
115.473098
10
141.000000
20
115.742076
10
141.000000
20
117.250000
10
141.250000
20
117.500000
10
141.250000
20
124.250000
10
140.500000
20
124.250000
10
139.250000
20
125.000000
10
138.500000
20
125.000000
10
137.250000
20
125.719480
10
137.250000
20
132.000000
10
137.500000
20
132.250000
10
137.500000
20
135.530520
10
138.750000
20
136.250000
10
141.250000
20
136.250000
10
142.000000
20
136.731763
10
142.000000
20
141.250000
10
142.250000
20
141.500000
10
142.250000
20
144.500000
10
141.950139
20
144.998867
10
139.500000
20
145.500000
10
138.250000
20
146.219481
10
138.250000
20
158.030520
10
139.500000
20
158.750000
10
141.750000
20
158.750000
10
142.000000
20
159.000000
10
142.449532
20
159.000000
10
142.750000
20
159.500000
10
142.750000
20
167.500000
10
142.500000
20
167.750000
10
140.750000
20
167.750000
10
140.500000
20
168.000000
10
139.750000
20
168.000000
10
138.500000
20
168.719481
10
138.500000
20
178.530520
10
139.750000
20
179.250000
10
141.750000
20
179.250000
10
142.000000
20
179.500000
10
142.500000
20
179.500000
10
143.000000
20
180.000000
10
143.000000
20
188.000000
10
142.500000
20
188.500000
10
140.000000
20
188.750000
10
138.750000
20
189.469480
10
138.750000
20
195.000000
10
139.000000
20
195.250000
10
139.000000
20
196.750000
10
138.750000
20
197.000000
10
138.750000
20
197.500000
10
138.500000
20
197.750000
10
137.500000
20
197.750000
10
137.250000
20
198.000000
10
131.000000
20
198.000000
10
130.750000
20
197.750000
10
129.250000
20
197.750000
10
129.250000
20
196.750000
10
129.000000
20
196.500000
10
129.000000
20
194.219480
10
127.750000
20
193.500000
10
122.500000
20
193.500000
10
121.250000
20
194.219480
10
121.250000
20
197.750000
10
121.000000
20
198.000000
10
120.000000
20
198.000000
10
119.750000
20
198.250000
10
115.750000
20
198.250000
10
115.500000
20
198.500000
10
114.750000
20
198.500000
10
114.500000
20
198.250000
10
114.217131
20
198.532869
10
113.750000
20
198.250000
10
110.000000
20
198.250000
10
109.750000
20
198.000000
10
109.247703
20
198.000000
10
108.978375
20
194.707561
10
107.750000
20
194.000000
10
104.750000
20
194.000000
10
104.500000
20
193.750000
10
104.000000
20
193.750000
10
103.750000
20
194.000000
10
102.250000
20
194.000000
10
101.000000
20
194.719480
10
101.000000
20
197.750000
10
100.518237
20
198.500000
10
99.500000
20
198.500000
10
99.250000
20
198.750000
10
90.250000
20
198.750000
10
90.000000
20
198.500000
10
89.250000
20
198.500000
10
89.000000
20
198.250000
10
89.000000
20
194.969480
10
87.750000
20
194.250000
10
82.000000
20
194.250000
10
80.750000
20
194.969480
10
80.750000
20
198.250000
10
80.449540
20
198.750000
10
79.750000
20
198.750000
10
79.500000
20
199.000000
10
77.250000
20
199.000000
10
77.000000
20
199.250000
10
75.750000
20
199.250000
10
75.500000
20
199.000000
10
75.000000
20
199.000000
10
74.750000
20
199.250000
10
74.000000
20
199.250000
10
73.750000
20
199.000000
10
73.510747
20
199.239253
10
69.250000
20
199.000000
10
68.750000
20
198.500000
10
68.750000
20
195.469480
10
67.500000
20
194.750000
10
61.750000
20
194.750000
10
60.500000
20
195.469480
10
60.500000
20
198.750000
10
60.000000
20
199.250000
10
59.250000
20
199.250000
10
59.000000
20
199.500000
10
52.250000
20
199.500000
0
ENDSEC
0
EOF
