0
SECTION
2
HEADER
9
$ACADVER
1
AC1014
9
$INSUNITS
70
4
9
$HANDSEED
5
FFFF
0
ENDSEC
0
SECTION
2
TABLES
0
TABLE
2
LTYPE
70
1
0
LTYPE
2
CONTINUOUS
70
0
3
Solid line
72
65
73
0
40
0.000000
0
ENDTAB
0
TABLE
2
LAYER
70
3
0
LAYER
2
0
70
0
62
7
6
CONTINUOUS
0
LAYER
2
OUTER
70
0
62
3
6
CONTINUOUS
0
LAYER
2
HOLES
70
0
62
1
6
CONTINUOUS
0
ENDTAB
0
ENDSEC
0
SECTION
2
ENTITIES
0
LWPOLYLINE
100
AcDbEntity
8
OUTER
100
AcDbPolyline
90
227
70
1
10
100.000000
20
235.000000
10
99.000000
20
234.276902
10
99.000000
20
234.000000
10
97.000000
20
232.000000
10
97.000000
20
231.750000
10
94.750000
20
229.250000
10
94.750000
20
228.750000
10
97.000000
20
226.250000
10
97.000000
20
225.250000
10
96.500000
20
224.500000
10
92.250000
20
220.000000
10
91.250000
20
219.543886
10
90.250000
20
220.000000
10
88.500000
20
221.750000
10
87.784657
20
221.750000
10
80.713426
20
213.985642
10
81.000000
20
212.750000
10
82.750000
20
211.000000
10
82.750000
20
209.750000
10
81.500000
20
208.000000
10
81.000000
20
207.699540
10
81.000000
20
207.500000
10
78.500000
20
205.000000
10
78.250000
20
204.500000
10
77.163712
20
203.999687
10
76.000000
20
204.500000
10
75.750000
20
205.000000
10
74.250000
20
206.250000
10
73.729008
20
206.250000
10
66.500000
20
198.500000
10
66.500000
20
197.750000
10
67.000000
20
197.000000
10
68.750000
20
195.250000
10
68.750000
20
194.250000
10
67.750000
20
193.250000
10
67.750000
20
193.000000
10
64.000000
20
189.000000
10
63.000000
20
188.543886
10
62.000000
20
189.000000
10
60.000000
20
190.750000
10
59.510591
20
190.750000
10
52.222346
20
182.705698
10
52.500000
20
181.750000
10
54.500000
20
179.500000
10
54.500000
20
178.500000
10
52.750000
20
176.750000
10
52.750000
20
176.500000
10
50.500000
20
174.250000
10
50.500000
20
173.967132
10
50.000000
20
173.750000
10
49.750000
20
173.250000
10
48.750000
20
172.793886
10
47.750000
20
173.250000
10
45.750000
20
175.250000
10
45.486298
20
175.250000
10
40.250000
20
169.750000
10
39.957078
20
168.485456
10
45.250000
20
163.000000
10
45.250000
20
162.000000
10
45.000000
20
161.500000
10
42.943124
20
159.246536
10
43.500000
20
158.250000
10
48.250000
20
153.500000
10
48.978553
20
153.228553
10
50.750000
20
155.000000
10
51.750000
20
155.456114
10
52.750000
20
155.000000
10
54.000000
20
153.750000
10
54.273315
20
153.750000
10
54.750000
20
153.000000
10
59.250000
20
148.500000
10
59.250000
20
147.500000
10
57.250000
20
145.000000
10
57.250000
20
144.250000
10
58.000000
20
143.250000
10
61.750000
20
139.500000
10
63.000000
20
138.750000
10
63.250000
20
138.750000
10
65.000000
20
140.500000
10
66.000000
20
140.956114
10
67.000000
20
140.500000
10
69.750000
20
137.750000
10
69.750000
20
137.467124
10
70.250000
20
137.250000
10
71.750000
20
135.750000
10
71.750000
20
135.500000
10
72.000000
20
135.500000
10
73.250000
20
134.250000
10
73.250000
20
132.750000
10
71.250000
20
130.500000
10
71.250000
20
130.000000
10
71.750000
20
129.250000
10
76.250000
20
124.750000
10
77.000000
20
124.250000
10
77.250000
20
124.250000
10
79.000000
20
126.000000
10
79.995041
20
126.453574
10
81.500000
20
125.750000
10
82.500000
20
124.750000
10
82.500000
20
124.476683
10
83.250000
20
124.000000
10
83.550460
20
123.500000
10
83.767294
20
123.500000
10
84.500000
20
122.500000
10
85.000000
20
122.250000
10
85.750000
20
121.250000
10
87.250000
20
120.000000
10
87.500000
20
119.500000
10
87.500000
20
118.500000
10
85.500000
20
116.250000
10
85.500000
20
115.500000
10
87.750000
20
113.000000
10
87.750000
20
112.732712
10
88.750000
20
112.000000
10
89.750000
20
110.750000
10
91.221497
20
109.767622
10
91.750000
20
110.000000
10
92.500000
20
111.000000
10
94.224244
20
111.969307
10
95.250000
20
111.500000
10
101.500000
20
105.250000
10
101.500000
20
104.000000
10
99.750000
20
102.000000
10
99.750000
20
100.750000
10
101.000000
20
99.500000
10
101.000000
20
99.232740
10
105.250000
20
95.250000
10
105.500000
20
95.250000
10
107.250000
20
97.000000
10
108.413712
20
97.500313
10
109.500000
20
97.000000
10
113.500000
20
93.000000
10
114.500000
20
92.250000
10
115.038055
20
92.250000
10
120.289278
20
98.004844
10
120.000000
20
99.000000
10
118.000000
20
101.000000
10
118.000000
20
102.000000
10
118.250000
20
102.500000
10
120.500000
20
104.750000
10
120.500000
20
105.000000
10
122.750000
20
107.250000
10
123.750000
20
107.706114
10
124.750000
20
107.250000
10
126.500000
20
105.750000
10
127.261739
20
105.464808
10
134.536936
20
113.512793
10
134.246118
20
114.500000
10
134.049381
20
114.500000
10
132.250000
20
116.500000
10
132.250000
20
117.750000
10
136.000000
20
121.750000
10
136.000000
20
122.031803
10
137.967132
20
123.222950
10
139.000000
20
122.750000
10
140.000000
20
121.750000
10
141.290223
20
120.990884
10
148.500000
20
128.750000
10
148.500000
20
129.750000
10
146.250000
20
132.000000
10
146.250000
20
133.000000
10
146.750000
20
133.750000
10
151.000000
20
138.250000
10
152.000000
20
138.706114
10
153.000000
20
138.250000
10
154.000000
20
137.250000
10
154.750000
20
137.000000
10
155.228585
20
136.521415
10
155.750000
20
136.750000
10
162.750000
20
144.500000
10
162.750000
20
145.250000
10
160.500000
20
147.500000
10
160.500000
20
148.750000
10
162.000000
20
150.250000
10
162.000000
20
150.500000
10
165.000000
20
153.750000
10
166.086288
20
154.250313
10
167.250000
20
153.750000
10
168.250000
20
152.750000
10
169.250000
20
152.250000
10
169.752971
20
152.250000
10
174.750000
20
157.500000
10
175.000000
20
158.500000
10
174.750000
20
159.000000
10
168.500000
20
165.250000
10
168.500000
20
165.500000
10
168.250000
20
165.500000
10
167.250000
20
166.500000
10
167.250000
20
166.767294
10
166.250000
20
167.500000
10
164.750000
20
169.250000
10
164.250000
20
169.467132
10
164.250000
20
169.750000
10
159.500000
20
174.500000
10
159.500000
20
174.750000
10
159.250000
20
174.750000
10
158.000000
20
176.000000
10
158.000000
20
176.212971
10
156.500000
20
177.479029
10
156.500000
20
177.750000
10
138.000000
20
196.500000
10
138.000000
20
196.730216
10
136.250000
20
198.290149
10
136.250000
20
198.500000
10
130.000000
20
204.750000
10
130.000000
20
205.032868
10
129.500000
20
205.250000
10
128.500000
20
206.250000
10
128.500000
20
206.497069
10
127.000000
20
207.730736
10
127.000000
20
208.000000
10
120.500000
20
214.500000
10
120.500000
20
214.750000
10
120.250000
20
214.750000
10
119.000000
20
216.000000
10
119.000000
20
216.250000
10
112.500000
20
222.750000
10
112.500000
20
223.000000
10
112.250000
20
223.000000
10
111.250000
20
224.000000
10
111.250000
20
224.276902
10
110.250000
20
225.006854
10
110.250000
20
225.250000
10
102.000000
20
233.500000
10
102.000000
20
233.773321
10
101.250000
20
234.250000
10
100.668655
20
235.000000
0
ENDSEC
0
EOF
