0
SECTION
2
HEADER
9
$ACADVER
1
AC1014
9
$INSUNITS
70
4
9
$HANDSEED
5
FFFF
0
ENDSEC
0
SECTION
2
TABLES
0
TABLE
2
LTYPE
70
1
0
LTYPE
2
CONTINUOUS
70
0
3
Solid line
72
65
73
0
40
0.000000
0
ENDTAB
0
TABLE
2
LAYER
70
3
0
LAYER
2
0
70
0
62
7
6
CONTINUOUS
0
LAYER
2
OUTER
70
0
62
3
6
CONTINUOUS
0
LAYER
2
HOLES
70
0
62
1
6
CONTINUOUS
0
ENDTAB
0
ENDSEC
0
SECTION
2
ENTITIES
0
LWPOLYLINE
100
AcDbEntity
8
OUTER
100
AcDbPolyline
90
372
70
1
10
15.250000
20
282.000000
10
15.000000
20
281.750000
10
15.000000
20
279.750000
10
15.250001
20
279.499999
10
15.249999
20
249.500001
10
15.500000
20
249.250000
10
15.500000
20
232.750000
10
15.750000
20
232.500000
10
15.750000
20
230.250000
10
15.750000
20
232.250000
10
16.032871
20
232.532871
10
15.750000
20
233.000000
10
15.750000
20
250.750000
10
15.999999
20
250.999999
10
16.000001
20
280.280520
10
17.250000
20
281.000000
10
62.500000
20
281.000000
10
63.750001
20
280.280519
10
63.749999
20
233.969480
10
62.500000
20
233.250000
10
29.500000
20
233.250000
10
29.250000
20
233.000000
10
23.750000
20
233.000000
10
23.500000
20
232.750000
10
22.750000
20
232.750000
10
22.000000
20
232.000000
10
22.500000
20
231.500000
10
22.750000
20
228.500000
10
23.250000
20
228.000000
10
23.250000
20
226.250000
10
22.750000
20
225.500000
10
22.750000
20
224.250000
10
22.217130
20
223.717130
10
22.500000
20
223.250000
10
22.500000
20
222.250000
10
22.250000
20
222.000000
10
22.250000
20
219.737985
10
21.000000
20
218.762015
10
21.000000
20
217.981763
10
20.200282
20
217.487510
10
20.750000
20
216.500000
10
20.750000
20
215.500000
10
20.000000
20
214.750000
10
19.271447
20
214.478553
10
19.750000
20
214.000000
10
19.750000
20
212.750000
10
20.012015
20
212.487985
10
19.750000
20
210.250000
10
19.000000
20
209.250000
10
18.250000
20
208.969670
10
18.250000
20
207.500000
10
17.750000
20
206.750000
10
16.489495
20
206.024730
10
15.750000
20
206.481763
10
15.750000
20
205.750000
10
15.500001
20
205.500001
10
15.499999
20
179.999999
10
15.250000
20
179.750000
10
15.250000
20
178.750000
10
15.500001
20
178.499999
10
15.499999
20
151.500001
10
15.750000
20
151.250000
10
15.750000
20
144.750000
10
16.000000
20
144.500000
10
16.000000
20
143.500000
10
16.750000
20
143.500000
10
16.750000
20
144.750000
10
17.250000
20
145.250000
10
17.250000
20
148.250000
10
17.500000
20
148.750000
10
18.750000
20
149.750000
10
20.250000
20
150.500000
10
21.212871
20
150.257056
10
21.750000
20
151.500000
10
22.250000
20
152.000000
10
22.500000
20
154.250000
10
23.500000
20
155.500000
10
23.750000
20
156.750000
10
24.250000
20
157.250000
10
24.250000
20
158.500000
10
24.532870
20
158.782870
10
24.250000
20
159.250000
10
24.509039
20
162.694695
10
24.000000
20
162.967124
10
24.000000
20
164.250000
10
23.250000
20
165.000000
10
23.250000
20
166.037560
10
24.969886
20
166.946524
10
25.250000
20
169.000000
10
26.000000
20
169.750000
10
27.595448
20
170.499378
10
28.012687
20
170.276078
10
28.720052
20
170.713254
10
30.750000
20
169.750000
10
31.500000
20
169.000000
10
31.500000
20
168.528122
10
32.750000
20
168.000000
10
33.250000
20
168.000000
10
33.250000
20
169.280520
10
34.569822
20
170.007964
10
35.750000
20
169.500000
10
36.500000
20
168.750000
10
37.257809
20
168.466435
10
37.553611
20
169.813210
10
38.250000
20
170.250000
10
38.500000
20
170.750000
10
39.529021
20
171.220979
10
39.750000
20
171.000000
10
40.250000
20
171.000000
10
40.750000
20
171.500000
10
41.930178
20
172.007964
10
43.250000
20
171.280520
10
43.250000
20
170.750000
10
43.750000
20
170.750000
10
43.750000
20
171.500000
10
44.250000
20
172.000000
10
45.000000
20
172.280330
10
45.000000
20
173.062911
10
46.474316
20
173.983637
10
47.739659
20
173.286219
10
48.000000
20
171.250000
10
50.250000
20
169.000000
10
50.250000
20
167.750000
10
50.000000
20
167.500000
10
50.282874
20
167.217126
10
50.752169
20
167.468285
10
52.000000
20
166.780520
10
52.000000
20
165.750000
10
51.750000
20
165.500000
10
51.521792
20
164.280096
10
53.250000
20
162.750000
10
54.500000
20
162.500000
10
56.750000
20
161.292075
10
56.750000
20
160.250000
10
56.750000
20
161.250000
10
58.533639
20
162.338732
10
60.000000
20
161.530520
10
60.000000
20
160.500000
10
60.238729
20
160.261271
10
61.054166
20
160.765239
10
62.250000
20
160.250000
10
63.000000
20
159.250000
10
63.000000
20
158.750000
10
63.500000
20
158.750000
10
65.946523
20
160.033064
10
67.500000
20
159.000000
10
68.000000
20
159.000000
10
68.282874
20
158.717126
10
68.739488
20
158.961498
10
69.750000
20
158.500000
10
70.750000
20
157.250000
10
71.688428
20
156.825426
10
72.030330
20
156.000000
10
72.750000
20
156.000000
10
73.750000
20
155.500000
10
74.043977
20
155.012114
10
74.750000
20
154.750000
10
75.500000
20
153.750000
10
75.500000
20
143.500000
10
75.750000
20
143.250000
10
75.750000
20
141.500000
10
76.000000
20
141.250000
10
76.250000
20
136.500000
10
76.500000
20
136.250000
10
76.500000
20
135.000000
10
77.000000
20
134.000000
10
77.250000
20
131.500000
10
77.500000
20
131.250000
10
78.000000
20
128.750000
10
78.750000
20
127.000000
10
78.750000
20
126.000000
10
79.500000
20
125.000000
10
79.750000
20
124.000000
10
80.500000
20
123.000000
10
81.000000
20
121.750000
10
84.750000
20
119.750000
10
86.750000
20
119.500000
10
87.032874
20
119.217126
10
87.500000
20
119.500000
10
89.250000
20
119.500000
10
89.495706
20
119.745706
10
91.750000
20
119.500000
10
93.000000
20
120.250000
10
93.500000
20
120.250000
10
95.500000
20
121.250000
10
95.750000
20
121.750000
10
96.555793
20
122.266245
10
94.250000
20
123.750000
10
93.000000
20
125.000000
10
92.500000
20
125.750000
10
92.500000
20
127.030520
10
93.831474
20
127.764386
10
94.750000
20
127.250000
10
95.500000
20
127.250000
10
95.500000
20
127.750000
10
95.750000
20
128.000000
10
95.750000
20
130.780520
10
97.019675
20
131.480325
10
97.212889
20
131.287111
10
97.750000
20
132.250000
10
97.750000
20
132.750000
10
98.500000
20
133.500000
10
99.522693
20
133.967738
10
100.309577
20
133.481417
10
100.762694
20
133.723918
10
101.500000
20
133.250000
10
102.500000
20
133.250000
10
103.297050
20
132.739159
10
103.952950
20
133.010841
10
104.750000
20
132.500000
10
105.250000
20
132.500000
10
107.750000
20
134.000000
10
108.500000
20
134.000000
10
109.319198
20
134.524529
10
110.496352
20
134.265983
10
111.250000
20
134.750000
10
111.750000
20
134.750000
10
112.000000
20
134.500000
10
113.500000
20
134.500000
10
113.750000
20
134.750000
10
114.750000
20
134.750000
10
115.217126
20
134.467126
10
115.500000
20
134.750000
10
116.000000
20
134.750000
10
116.750000
20
134.250000
10
117.750000
20
134.250000
10
118.500000
20
134.750000
10
119.000000
20
134.750000
10
119.250000
20
134.500000
10
120.250000
20
134.500000
10
121.250000
20
135.000000
10
122.000000
20
135.000000
10
122.238729
20
134.761271
10
123.000000
20
135.250000
10
125.000000
20
135.250000
10
126.250000
20
135.750000
10
127.500000
20
135.750000
10
127.763778
20
135.486222
10
132.750000
20
135.750000
10
133.250000
20
136.250000
10
134.500000
20
136.750000
10
135.500000
20
137.594797
10
135.500000
20
137.993146
10
136.500000
20
138.723098
10
136.500000
20
139.250000
10
136.750000
20
139.500000
10
136.750000
20
140.780520
10
137.989194
20
141.463525
10
140.250000
20
140.292075
10
140.250000
20
139.750000
10
140.750000
20
139.250000
10
141.501167
20
137.347380
10
142.000000
20
138.250000
10
143.500000
20
139.187094
10
143.500000
20
140.250000
10
143.750000
20
140.500000
10
143.750000
20
143.500000
10
143.500000
20
143.750000
10
143.250000
20
147.250000
10
143.000000
20
147.500000
10
142.750000
20
150.750000
10
142.500000
20
151.000000
10
142.257959
20
155.784906
10
143.557253
20
156.501037
10
145.254035
20
155.785035
10
145.750000
20
156.050468
10
145.750000
20
156.530520
10
147.000000
20
157.219480
10
147.000000
20
159.500000
10
147.500000
20
160.000000
10
147.750000
20
161.000000
10
148.750000
20
161.844797
10
148.750000
20
162.500000
10
149.217126
20
162.967126
10
148.724636
20
163.230699
10
149.000000
20
165.250000
10
149.500000
20
165.750000
10
149.500000
20
165.949532
10
149.000000
20
166.217124
10
149.000000
20
167.250000
10
149.500000
20
167.750000
10
149.500000
20
168.782876
10
150.000000
20
169.050468
10
150.000000
20
170.000000
10
150.500000
20
170.500000
10
150.500000
20
171.000000
10
150.000000
20
171.500000
10
150.000000
20
172.767001
10
152.000000
20
174.549754
10
152.000000
20
174.743146
10
151.000000
20
175.473098
10
151.000000
20
176.500000
10
151.250000
20
176.750000
10
151.250000
20
177.750000
10
152.250000
20
179.000000
10
152.250000
20
181.523319
10
152.896966
20
182.004682
10
152.500000
20
182.217132
10
152.500000
20
184.250000
10
152.767739
20
184.688845
10
152.000000
20
185.750000
10
152.000000
20
189.250000
10
151.750000
20
189.500000
10
151.750000
20
190.750000
10
152.282874
20
191.282874
10
152.000000
20
191.750000
10
152.000000
20
193.250000
10
153.000000
20
194.250000
10
153.000000
20
196.250000
10
152.750000
20
196.500000
10
152.750000
20
198.500000
10
152.500000
20
198.750000
10
152.233845
20
201.021616
10
153.500000
20
201.750000
10
154.040705
20
201.750000
10
153.755755
20
202.717286
10
153.000000
20
203.000000
10
152.500000
20
203.500000
10
152.500000
20
206.250000
10
152.782874
20
206.532874
10
152.500000
20
207.000000
10
152.500000
20
208.000000
10
153.010465
20
208.910871
10
152.246088
20
209.479591
10
152.000000
20
214.500000
10
151.750000
20
214.750000
10
151.750000
20
215.750000
10
152.250000
20
216.250000
10
152.250000
20
217.250000
10
152.000000
20
217.500000
10
152.000000
20
218.500000
10
151.750000
20
218.750000
10
151.242656
20
223.242656
10
152.000000
20
224.000000
10
151.750000
20
224.250000
10
151.750000
20
225.750000
10
151.000000
20
226.750000
10
151.000000
20
227.750000
10
151.500000
20
228.500000
10
151.500000
20
229.699540
10
151.000000
20
229.967132
10
151.000000
20
231.000000
10
150.500000
20
231.750000
10
150.263039
20
232.692562
10
149.750000
20
233.000000
10
147.000000
20
233.000000
10
145.750000
20
233.719481
10
145.750000
20
250.500000
10
145.500000
20
250.750000
10
145.500000
20
251.750000
10
145.750000
20
252.000000
10
145.750000
20
254.500000
10
145.489094
20
254.760906
10
145.753140
20
258.746860
10
145.500000
20
259.000000
10
145.500000
20
260.750000
10
145.250000
20
261.000000
10
145.250000
20
262.750000
10
145.000000
20
263.000000
10
145.000000
20
265.250000
10
145.500000
20
265.750000
10
145.500000
20
274.500000
10
145.250000
20
274.750000
10
145.250000
20
276.000000
10
145.500000
20
276.250000
10
145.500000
20
280.500000
10
145.988729
20
281.261271
10
145.750000
20
281.500000
10
135.500000
20
281.500000
10
135.250000
20
281.750000
10
16.750000
20
281.750000
10
16.500000
20
282.000000
0
LWPOLYLINE
100
AcDbEntity
8
HOLES
100
AcDbPolyline
90
6
70
1
10
137.250000
20
148.249672
10
138.750000
20
147.312906
10
138.750000
20
146.187094
10
137.250000
20
145.250328
10
135.750000
20
146.187094
10
135.750000
20
147.312906
0
ENDSEC
0
EOF
