0
SECTION
2
HEADER
9
$ACADVER
1
AC1014
9
$INSUNITS
70
4
9
$HANDSEED
5
FFFF
0
ENDSEC
0
SECTION
2
TABLES
0
TABLE
2
LTYPE
70
1
0
LTYPE
2
CONTINUOUS
70
0
3
Solid line
72
65
73
0
40
0.000000
0
ENDTAB
0
TABLE
2
LAYER
70
3
0
LAYER
2
0
70
0
62
7
6
CONTINUOUS
0
LAYER
2
OUTER
70
0
62
3
6
CONTINUOUS
0
LAYER
2
HOLES
70
0
62
1
6
CONTINUOUS
0
ENDTAB
0
ENDSEC
0
SECTION
2
ENTITIES
0
LWPOLYLINE
100
AcDbEntity
8
OUTER
100
AcDbPolyline
90
277
70
1
10
42.250000
20
281.500000
10
42.250000
20
281.254509
10
62.500000
20
281.000000
10
63.750001
20
280.280519
10
63.749999
20
242.500001
10
64.000000
20
242.250000
10
64.000000
20
240.250000
10
63.750000
20
240.000000
10
63.750000
20
239.500000
10
64.000000
20
239.250000
10
64.000000
20
233.719480
10
62.750000
20
233.000000
10
54.250000
20
233.000000
10
54.000000
20
232.750000
10
53.000000
20
232.750000
10
52.717131
20
232.467131
10
52.250000
20
232.750000
10
51.750000
20
232.750000
10
51.475275
20
232.475275
10
50.000000
20
232.750000
10
50.250000
20
232.500000
10
50.250000
20
232.030330
10
51.000000
20
231.750000
10
51.500000
20
231.250000
10
51.500000
20
230.530330
10
52.250000
20
230.250000
10
53.006854
20
229.250000
10
54.500000
20
229.250000
10
54.730325
20
229.480325
10
56.000000
20
228.780520
10
56.000000
20
227.795547
10
57.750000
20
227.000000
10
58.500000
20
226.250000
10
58.500000
20
225.300460
10
59.000000
20
225.032868
10
59.000000
20
223.500000
10
59.250000
20
223.250000
10
59.250000
20
222.750000
10
59.750000
20
222.250000
10
60.000000
20
221.250000
10
61.530228
20
219.994403
10
61.257944
20
218.250126
10
63.000000
20
217.045839
10
63.000000
20
215.476678
10
62.359330
20
215.000000
10
63.000000
20
214.523322
10
63.000000
20
213.437089
10
61.500000
20
212.500323
10
61.500000
20
211.750000
10
62.000000
20
211.750000
10
62.230325
20
211.980325
10
63.500000
20
211.280520
10
63.500000
20
210.000000
10
62.953359
20
209.296641
10
63.500000
20
208.750000
10
63.500000
20
207.331345
10
64.250000
20
206.773322
10
64.250000
20
205.719480
10
65.500000
20
205.030520
10
65.500000
20
203.795547
10
67.250000
20
203.000000
10
67.750000
20
202.250000
10
68.750000
20
201.526902
10
68.750000
20
201.056120
10
69.750000
20
200.543886
10
69.750000
20
199.984818
10
71.000000
20
199.750000
10
72.500000
20
199.000000
10
73.750000
20
198.000000
10
74.500000
20
197.750000
10
75.500000
20
196.750000
10
75.500000
20
195.246118
10
76.415786
20
195.515897
10
77.750000
20
194.780520
10
77.750000
20
193.481763
10
77.020477
20
193.030893
10
78.250000
20
192.500000
10
78.500000
20
192.250000
10
78.500000
20
191.780330
10
79.250000
20
191.500000
10
79.750000
20
191.000000
10
79.750000
20
190.231763
10
80.500000
20
189.768237
10
80.500000
20
189.000000
10
81.500000
20
187.500000
10
81.500000
20
186.750000
10
82.500000
20
185.500000
10
82.500000
20
185.000000
10
82.768237
20
185.000000
10
83.250000
20
184.250000
10
82.985596
20
181.786297
10
83.750000
20
181.500000
10
84.250000
20
181.000000
10
84.250000
20
179.774114
10
85.500000
20
178.776329
10
85.500000
20
177.559283
10
87.500000
20
176.551831
10
87.500000
20
175.467132
10
87.000000
20
175.199540
10
87.000000
20
174.540407
10
88.334951
20
173.920120
10
88.750000
20
172.750000
10
88.750000
20
170.250000
10
88.500000
20
170.000000
10
88.500000
20
153.750000
10
88.750000
20
153.500000
10
88.750000
20
152.500000
10
89.250000
20
151.500000
10
89.750000
20
151.250000
10
90.750000
20
151.500000
10
93.750000
20
150.081797
10
93.750000
20
142.750000
10
94.000000
20
142.250000
10
95.000000
20
141.793886
10
95.000000
20
120.212440
10
96.750000
20
119.250000
10
98.000000
20
119.500000
10
99.000000
20
119.000000
10
99.750000
20
118.250000
10
101.750000
20
118.250000
10
102.000000
20
118.500000
10
102.750000
20
118.500000
10
103.500000
20
119.000000
10
104.250000
20
120.000000
10
104.496619
20
141.560790
10
106.000000
20
142.499667
10
106.000000
20
146.000000
10
106.247069
20
146.247069
10
105.980736
20
148.980736
10
106.250000
20
149.250000
10
106.250000
20
149.780520
10
107.500000
20
150.500000
10
109.500000
20
150.500000
10
110.304166
20
151.015239
10
111.584951
20
150.420120
10
112.000000
20
149.250000
10
112.000000
20
148.280330
10
112.750000
20
148.000000
10
113.238729
20
147.238729
10
113.500000
20
147.500000
10
114.000000
20
147.500000
10
116.500000
20
146.250000
10
116.810221
20
145.731762
10
117.239488
20
145.961498
10
118.250000
20
145.500000
10
120.000000
20
144.288201
10
120.000000
20
143.217124
10
119.500000
20
142.949532
10
119.500000
20
142.500000
10
119.000000
20
142.000000
10
119.271447
20
141.728553
10
119.952950
20
142.010841
10
120.761271
20
141.511271
10
121.024725
20
141.774725
10
122.500000
20
141.500000
10
123.250000
20
142.000000
10
124.000000
20
142.000000
10
125.250000
20
141.280520
10
125.250000
20
140.250000
10
124.750000
20
139.750000
10
124.000000
20
139.469670
10
124.000000
20
138.949532
10
124.577864
20
139.258796
10
125.000000
20
139.000000
10
126.461356
20
139.272079
10
126.750000
20
139.750000
10
127.750000
20
140.250000
10
129.000000
20
140.000000
10
128.500000
20
140.250000
10
128.405354
20
141.232223
10
129.000000
20
141.500000
10
129.500000
20
142.250000
10
130.580108
20
142.747148
10
131.250000
20
142.469670
10
131.250000
20
143.793886
10
132.250000
20
144.306120
10
132.250000
20
145.282876
10
132.737890
20
145.543986
10
133.000000
20
146.250000
10
133.750000
20
146.831335
10
133.750000
20
148.250000
10
134.500000
20
149.000000
10
135.228553
20
149.271447
10
135.000000
20
149.500000
10
135.000000
20
150.743146
10
136.000000
20
151.500000
10
136.750000
20
151.780330
10
136.750000
20
152.273312
10
137.500000
20
152.750000
10
137.750000
20
153.250000
10
139.250000
20
154.252853
10
139.250000
20
154.750000
10
138.750000
20
155.500000
10
139.000000
20
157.500000
10
140.250000
20
158.487985
10
140.250000
20
159.268237
10
141.000000
20
159.731763
10
141.000000
20
160.754246
10
142.250000
20
161.774909
10
142.250000
20
162.273312
10
143.000000
20
162.750000
10
143.250000
20
163.250000
10
143.250000
20
164.750000
10
143.750000
20
165.500000
10
143.750000
20
167.019264
10
145.250000
20
168.252931
10
145.250000
20
168.699532
10
144.750000
20
168.967124
10
144.750000
20
170.782868
10
145.236075
20
171.043007
10
145.750000
20
173.250000
10
147.000000
20
174.500000
10
147.000000
20
176.750000
10
147.250000
20
177.000000
10
147.250000
20
177.523319
10
148.000000
20
178.000000
10
148.217124
20
178.500000
10
148.500000
20
178.500000
10
148.500000
20
178.693880
10
147.500000
20
179.206114
10
147.500000
20
181.506434
10
149.268907
20
183.058972
10
149.000000
20
183.500000
10
149.000000
20
185.032868
10
149.467131
20
185.282869
10
149.000000
20
185.750000
10
148.750000
20
189.250000
10
149.000000
20
189.750000
10
149.750000
20
190.331342
10
149.750000
20
191.750000
10
149.500000
20
192.000000
10
149.500000
20
197.500000
10
149.750000
20
197.750000
10
149.750000
20
198.250000
10
149.500000
20
198.500000
10
149.500000
20
200.000000
10
149.250000
20
200.250000
10
149.250000
20
204.250000
10
150.036757
20
205.179868
10
149.472029
20
205.482102
10
149.750000
20
208.000000
10
149.000000
20
209.000000
10
149.000000
20
211.500000
10
149.250000
20
211.750000
10
149.000000
20
212.000000
10
149.000000
20
214.023319
10
149.750000
20
214.581342
10
149.750000
20
214.949540
10
149.250000
20
215.217132
10
149.250000
20
216.250000
10
149.500000
20
216.750000
10
150.250000
20
217.331342
10
150.250000
20
217.719670
10
149.500000
20
218.000000
10
149.000000
20
218.500000
10
149.000000
20
219.493146
10
150.000000
20
220.223098
10
150.000000
20
221.500000
10
150.250000
20
221.750000
10
150.250000
20
227.500000
10
151.000000
20
228.750000
10
151.000000
20
229.199540
10
150.500000
20
229.467132
10
150.500000
20
230.500000
10
150.750000
20
230.750000
10
150.500000
20
231.000000
10
150.500000
20
232.758176
10
147.000000
20
233.000000
10
145.749999
20
233.719481
10
145.750001
20
280.530520
10
147.000000
20
281.250000
10
148.000000
20
281.250000
10
148.000000
20
281.500000
10
141.750000
20
281.500000
10
141.500000
20
281.750000
10
53.000000
20
281.750000
10
52.750000
20
281.500000
0
LWPOLYLINE
100
AcDbEntity
8
OUTER
100
AcDbPolyline
90
67
70
1
10
15.750000
20
269.750000
10
15.500000
20
269.500000
10
15.500000
20
258.000000
10
15.250001
20
257.750001
10
15.249999
20
214.250001
10
15.500000
20
214.000000
10
15.500000
20
200.250000
10
15.750000
20
200.000000
10
15.750000
20
195.000000
10
16.250000
20
195.500000
10
16.500000
20
197.000000
10
17.250000
20
197.750000
10
17.250000
20
200.750000
10
17.750000
20
201.250000
10
17.750000
20
203.018237
10
18.500000
20
203.481763
10
18.500000
20
204.000000
10
19.750000
20
206.000000
10
20.039346
20
207.552206
10
21.269675
20
208.230325
10
21.500000
20
208.000000
10
21.750000
20
208.250000
10
21.750000
20
208.780520
10
23.069822
20
209.507964
10
24.250000
20
209.000000
10
24.550462
20
208.500000
10
24.750000
20
208.500000
10
24.750000
20
210.043886
10
25.721531
20
210.541537
10
26.015368
20
211.538990
10
27.250000
20
212.219480
10
27.250000
20
213.812910
10
28.750000
20
214.749676
10
28.750000
20
218.273324
10
29.500000
20
218.750000
10
29.976677
20
219.500000
10
30.250000
20
219.500000
10
29.250000
20
219.956114
10
29.250000
20
221.327802
10
31.460644
20
222.737659
10
33.045867
20
222.045867
10
33.250000
20
222.250000
10
33.000000
20
222.500000
10
33.000000
20
223.500000
10
33.250000
20
223.750000
10
33.250000
20
225.782868
10
33.750000
20
226.050460
10
33.750000
20
226.500000
10
34.250000
20
227.000000
10
35.330108
20
227.497148
10
36.010104
20
227.215484
10
35.723132
20
229.280123
10
36.750000
20
229.750000
10
36.936910
20
230.193537
10
37.750000
20
230.500000
10
38.000000
20
230.750000
10
38.000000
20
231.250000
10
38.500000
20
231.750000
10
38.500000
20
232.750000
10
37.750000
20
232.750000
10
37.500000
20
233.000000
10
21.500000
20
233.000000
10
21.250000
20
233.250000
10
17.250000
20
233.250000
10
15.999999
20
233.969481
10
16.000001
20
256.999999
10
15.750000
20
257.250000
0
ENDSEC
0
EOF
