0
SECTION
2
HEADER
9
$ACADVER
1
AC1014
9
$INSUNITS
70
4
9
$HANDSEED
5
FFFF
0
ENDSEC
0
SECTION
2
TABLES
0
TABLE
2
LTYPE
70
1
0
LTYPE
2
CONTINUOUS
70
0
3
Solid line
72
65
73
0
40
0.000000
0
ENDTAB
0
TABLE
2
LAYER
70
3
0
LAYER
2
0
70
0
62
7
6
CONTINUOUS
0
LAYER
2
OUTER
70
0
62
3
6
CONTINUOUS
0
LAYER
2
HOLES
70
0
62
1
6
CONTINUOUS
0
ENDTAB
0
ENDSEC
0
SECTION
2
ENTITIES
0
LWPOLYLINE
100
AcDbEntity
8
OUTER
100
AcDbPolyline
90
137
70
1
10
73.500000
20
237.250000
10
71.500000
20
236.000000
10
69.750000
20
233.750000
10
69.000000
20
231.750000
10
69.000000
20
231.000000
10
68.750000
20
230.750000
10
68.750000
20
229.000000
10
68.500000
20
228.750000
10
68.250000
20
213.750000
10
68.000000
20
213.500000
10
68.000000
20
204.000000
10
67.750000
20
203.750000
10
67.750000
20
195.250000
10
67.500000
20
195.000000
10
67.500000
20
184.750000
10
67.250000
20
184.500000
10
67.250000
20
173.500000
10
67.000000
20
173.250000
10
67.000000
20
164.250000
10
66.750000
20
164.000000
10
66.750000
20
154.500000
10
66.500000
20
154.250000
10
66.500000
20
145.750000
10
66.250000
20
145.500000
10
66.250000
20
137.250000
10
66.000000
20
137.000000
10
65.750000
20
120.750000
10
65.500000
20
120.500000
10
65.500000
20
113.500000
10
65.250000
20
113.250000
10
65.000000
20
99.250000
10
64.750000
20
99.000000
10
64.750000
20
92.000000
10
64.500000
20
91.750000
10
64.500000
20
87.500000
10
64.750000
20
87.250000
10
65.000000
20
85.250000
10
66.000000
20
83.250000
10
66.750000
20
82.250000
10
68.000000
20
81.250000
10
69.500000
20
80.500000
10
70.250000
20
80.500000
10
70.500000
20
80.250000
10
72.500000
20
80.250000
10
72.750000
20
80.000000
10
78.750000
20
80.000000
10
79.000000
20
79.750000
10
85.000000
20
79.750000
10
85.250000
20
79.500000
10
93.750000
20
79.500000
10
94.000000
20
79.250000
10
106.750000
20
79.000000
10
107.000000
20
78.750000
10
113.750000
20
78.750000
10
114.000000
20
78.500000
10
123.500000
20
78.500000
10
123.750000
20
78.250000
10
127.750000
20
78.250000
10
128.000000
20
78.500000
10
129.500000
20
78.500000
10
129.750000
20
78.750000
10
130.250000
20
78.750000
10
132.000000
20
79.750000
10
133.250000
20
81.250000
10
134.250000
20
83.500000
10
134.250000
20
84.500000
10
134.500000
20
84.750000
10
134.500000
20
87.000000
10
134.750000
20
87.250000
10
135.000000
20
102.500000
10
135.250000
20
102.750000
10
135.250000
20
110.500000
10
135.500000
20
110.750000
10
135.500000
20
113.250000
10
135.750000
20
113.500000
10
135.750000
20
123.250000
10
136.000000
20
123.500000
10
136.000000
20
129.250000
10
136.250000
20
129.500000
10
136.250000
20
130.750000
10
136.000000
20
131.000000
10
136.000000
20
133.750000
10
136.250000
20
134.000000
10
136.250000
20
135.500000
10
136.000000
20
135.750000
10
136.000000
20
137.250000
10
135.750000
20
137.500000
10
135.750000
20
139.750000
10
136.000000
20
140.000000
10
136.250000
20
152.000000
10
136.500000
20
152.250000
10
136.500000
20
153.250000
10
136.750000
20
153.500000
10
136.750000
20
154.500000
10
137.000000
20
154.750000
10
137.000000
20
161.500000
10
137.250000
20
161.750000
10
137.250000
20
167.500000
10
137.500000
20
167.750000
10
137.500000
20
173.250000
10
137.750000
20
173.500000
10
137.750000
20
179.750000
10
138.000000
20
180.000000
10
138.000000
20
189.000000
10
138.250000
20
189.250000
10
138.250000
20
195.500000
10
138.500000
20
195.750000
10
138.500000
20
203.500000
10
138.750000
20
203.750000
10
139.000000
20
216.750000
10
139.250000
20
217.000000
10
139.250000
20
224.000000
10
139.500000
20
224.250000
10
139.500000
20
228.500000
10
139.250000
20
228.750000
10
139.000000
20
230.500000
10
137.750000
20
233.000000
10
136.500000
20
234.250000
10
134.500000
20
235.250000
10
133.750000
20
235.250000
10
133.500000
20
235.500000
10
131.750000
20
235.500000
10
131.500000
20
235.750000
10
119.750000
20
236.000000
10
119.500000
20
236.250000
10
113.750000
20
236.250000
10
113.500000
20
236.500000
10
106.000000
20
236.500000
10
105.750000
20
236.750000
10
98.750000
20
236.750000
10
98.500000
20
237.000000
10
87.500000
20
237.250000
10
87.250000
20
237.500000
10
81.250000
20
237.500000
10
81.000000
20
237.750000
10
75.250000
20
237.750000
10
75.000000
20
237.500000
0
LWPOLYLINE
100
AcDbEntity
8
HOLES
100
AcDbPolyline
90
31
70
1
10
123.500000
20
102.250000
10
125.250000
20
100.500000
10
125.750000
20
99.500000
10
125.750000
20
97.750000
10
125.250000
20
96.500000
10
125.250000
20
95.500000
10
124.250000
20
94.500000
10
123.159918
20
93.997743
10
122.750000
20
94.250000
10
120.000000
20
94.250000
10
119.750000
20
94.000000
10
118.500000
20
94.000000
10
118.250000
20
94.250000
10
117.250000
20
94.250000
10
116.750000
20
94.550468
10
116.750000
20
90.937099
10
115.250000
20
90.000000
10
114.250000
20
90.000000
10
112.750000
20
90.750000
10
111.750000
20
91.750000
10
111.750000
20
92.250000
10
111.250000
20
93.250000
10
111.250000
20
96.750000
10
111.500000
20
97.000000
10
111.500000
20
97.750000
10
112.500000
20
99.750000
10
114.250000
20
101.750000
10
117.000000
20
103.250000
10
117.750000
20
103.250000
10
118.000000
20
103.500000
10
120.750000
20
103.500000
0
LWPOLYLINE
100
AcDbEntity
8
HOLES
100
AcDbPolyline
90
14
70
1
10
107.000000
20
111.250000
10
108.250000
20
111.250000
10
110.000000
20
110.500000
10
111.250000
20
109.250000
10
112.500000
20
106.750000
10
112.500000
20
105.000000
10
112.250000
20
104.500000
10
107.735979
20
101.461192
10
106.000000
20
102.250000
10
104.500000
20
103.750000
10
103.250000
20
106.250000
10
103.250000
20
108.000000
10
103.750000
20
109.000000
10
105.250000
20
110.500000
0
LWPOLYLINE
100
AcDbEntity
8
HOLES
100
AcDbPolyline
90
12
70
1
10
103.750000
20
118.750000
10
104.500000
20
119.500000
10
105.500000
20
120.000000
10
109.250000
20
119.750000
10
110.750000
20
118.750000
10
111.000000
20
118.250000
10
111.000000
20
117.250000
10
110.250000
20
116.500000
10
109.250000
20
116.000000
10
105.750000
20
116.000000
10
104.750000
20
116.500000
10
103.750000
20
117.500000
0
LWPOLYLINE
100
AcDbEntity
8
HOLES
100
AcDbPolyline
90
25
70
1
10
119.000000
20
124.250000
10
121.000000
20
124.250000
10
123.500000
20
123.250000
10
125.500000
20
121.500000
10
126.250000
20
120.250000
10
126.250000
20
119.000000
10
126.000000
20
118.500000
10
122.500000
20
115.224751
10
122.500000
20
114.790407
10
123.750000
20
114.250000
10
124.757705
20
113.242295
10
124.500000
20
109.500000
10
123.250000
20
108.250000
10
121.500000
20
107.500000
10
118.000000
20
107.500000
10
115.750000
20
108.500000
10
115.000000
20
109.000000
10
113.250000
20
111.000000
10
112.000000
20
113.750000
10
112.000000
20
117.750000
10
113.250000
20
120.500000
10
113.750000
20
121.250000
10
116.000000
20
123.250000
10
117.000000
20
123.750000
10
118.750000
20
124.000000
0
ENDSEC
0
EOF
