0
SECTION
2
HEADER
9
$ACADVER
1
AC1014
9
$INSUNITS
70
4
9
$HANDSEED
5
FFFF
0
ENDSEC
0
SECTION
2
TABLES
0
TABLE
2
LTYPE
70
1
0
LTYPE
2
CONTINUOUS
70
0
3
Solid line
72
65
73
0
40
0.000000
0
ENDTAB
0
TABLE
2
LAYER
70
3
0
LAYER
2
0
70
0
62
7
6
CONTINUOUS
0
LAYER
2
OUTER
70
0
62
3
6
CONTINUOUS
0
LAYER
2
HOLES
70
0
62
1
6
CONTINUOUS
0
ENDTAB
0
ENDSEC
0
SECTION
2
ENTITIES
0
LWPOLYLINE
100
AcDbEntity
8
OUTER
100
AcDbPolyline
90
190
70
1
10
51.457107
20
200.000000
10
51.000000
20
199.000000
10
51.000000
20
190.000000
10
50.750000
20
189.750000
10
50.750000
20
181.000000
10
50.500000
20
180.750000
10
50.250000
20
163.750000
10
50.000000
20
163.500000
10
50.000000
20
153.500000
10
49.733219
20
153.233219
10
49.997877
20
149.997877
10
49.750000
20
149.750000
10
49.500000
20
138.750000
10
49.250000
20
138.500000
10
49.250000
20
129.750000
10
49.000000
20
129.500000
10
48.750000
20
112.250000
10
48.500000
20
112.000000
10
48.263166
20
89.236834
10
48.750000
20
88.750000
10
49.500000
20
88.750000
10
49.750000
20
88.500000
10
57.250000
20
88.500000
10
57.250000
20
90.500000
10
57.500000
20
90.750000
10
57.500000
20
92.280520
10
58.750000
20
93.000000
10
64.000000
20
93.000000
10
65.500000
20
92.062901
10
65.500000
20
88.481763
10
66.250000
20
88.000000
10
74.250000
20
88.000000
10
74.500000
20
87.750000
10
77.250000
20
87.750000
10
77.500000
20
88.000000
10
77.500000
20
91.798937
10
78.961352
20
92.538648
10
79.250000
20
92.250000
10
84.250000
20
92.250000
10
85.500000
20
91.530520
10
85.500000
20
88.250000
10
85.981763
20
87.500000
10
88.750000
20
87.500000
10
89.000000
20
87.250000
10
96.500000
20
87.250000
10
96.750000
20
87.000000
10
97.500000
20
87.000000
10
97.750000
20
87.250000
10
97.750000
20
91.030520
10
99.000000
20
91.750000
10
101.750000
20
91.750000
10
102.000000
20
91.500000
10
104.500000
20
91.500000
10
105.750000
20
90.780520
10
105.750000
20
87.231763
10
106.500000
20
86.750000
10
117.756644
20
86.506644
10
118.000000
20
86.750000
10
118.000000
20
90.280520
10
119.250000
20
91.000000
10
124.750000
20
91.000000
10
126.013440
20
90.273112
10
125.750000
20
87.500000
10
126.189235
20
86.250000
10
128.750000
20
86.250000
10
129.000000
20
86.000000
10
134.750000
20
86.000000
10
134.978585
20
85.771415
10
135.500000
20
86.050468
10
135.500000
20
88.000000
10
135.750000
20
88.250000
10
135.750000
20
94.280520
10
137.000000
20
95.000000
10
140.248066
20
95.000000
10
140.500000
20
102.500000
10
140.787111
20
102.787111
10
140.250000
20
103.750000
10
139.000000
20
104.250000
10
138.692553
20
104.763042
10
137.750000
20
105.000000
10
136.500000
20
105.719480
10
136.500000
20
112.500000
10
136.750000
20
112.750000
10
136.750000
20
115.030520
10
138.000000
20
115.750000
10
139.250000
20
115.750000
10
139.500000
20
115.500000
10
140.750000
20
115.500000
10
141.000000
20
115.750000
10
141.000000
20
117.000000
10
141.250000
20
117.250000
10
141.250000
20
122.250000
10
141.500000
20
122.500000
10
141.500000
20
124.000000
10
141.000000
20
124.500000
10
139.750000
20
125.000000
10
139.250000
20
125.500000
10
138.500000
20
125.500000
10
137.253377
20
126.217619
10
137.510529
20
135.536323
10
138.750000
20
136.250000
10
141.500000
20
136.250000
10
142.000000
20
136.750000
10
142.000000
20
140.250000
10
142.250000
20
140.500000
10
142.250000
20
145.036738
10
140.500000
20
145.750000
10
140.199532
20
146.250000
10
139.500000
20
146.250000
10
138.250000
20
146.969480
10
138.250000
20
152.000000
10
138.500000
20
152.250000
10
138.500000
20
157.780520
10
139.750000
20
158.500000
10
142.250000
20
158.750000
10
142.750000
20
159.250000
10
142.750000
20
167.750000
10
141.750000
20
167.750000
10
140.750000
20
168.250000
10
140.500000
20
168.750000
10
138.500000
20
169.698169
10
138.500000
20
174.500000
10
138.750000
20
174.750000
10
138.750000
20
178.280520
10
140.000000
20
179.000000
10
142.250000
20
179.250000
10
143.000000
20
179.731763
10
143.000000
20
186.500000
10
143.250000
20
186.750000
10
143.250000
20
187.750000
10
142.750000
20
188.500000
10
141.250000
20
189.250000
10
140.250000
20
189.250000
10
138.750000
20
190.187086
10
138.750000
20
192.250000
10
139.000000
20
192.500000
10
139.000000
20
197.516051
10
137.000000
20
198.500000
10
130.250000
20
198.500000
10
130.000000
20
198.750000
10
129.189235
20
198.750000
10
128.750000
20
197.500000
10
128.750000
20
194.719480
10
127.500000
20
194.000000
10
125.750000
20
194.000000
10
125.500000
20
194.250000
10
122.500000
20
194.250000
10
121.250000
20
194.969480
10
121.250000
20
198.000000
10
121.000000
20
198.250000
10
120.250000
20
198.250000
10
119.500000
20
198.750000
10
116.250000
20
198.750000
10
116.000000
20
199.000000
10
110.250000
20
199.000000
10
110.021410
20
198.771410
10
109.577850
20
199.008796
10
109.000000
20
198.750000
10
108.750000
20
198.250000
10
108.750000
20
194.969480
10
107.500000
20
194.250000
10
105.500000
20
194.250000
10
105.250000
20
194.500000
10
102.250000
20
194.500000
10
101.000000
20
195.219480
10
101.000000
20
198.279517
10
99.500000
20
199.000000
10
96.750000
20
199.000000
10
96.500000
20
199.250000
10
89.250000
20
199.250000
10
88.750000
20
198.750000
10
88.750000
20
196.000000
10
88.250000
20
195.250000
10
87.250000
20
194.750000
10
82.000000
20
194.750000
10
80.750000
20
195.469480
10
80.750000
20
198.779517
10
79.250000
20
199.500000
10
72.000000
20
199.500000
10
71.750000
20
199.750000
10
68.981763
20
199.750000
10
68.500000
20
199.000000
10
68.500000
20
196.000000
10
68.000000
20
195.500000
10
66.777588
20
194.972412
10
66.500000
20
195.250000
10
61.750000
20
195.250000
10
60.500000
20
195.969480
10
60.500000
20
199.191789
10
59.000000
20
200.000000
0
ENDSEC
0
EOF
