0
SECTION
2
HEADER
9
$ACADVER
1
AC1014
9
$INSUNITS
70
4
9
$HANDSEED
5
FFFF
0
ENDSEC
0
SECTION
2
TABLES
0
TABLE
2
LTYPE
70
1
0
LTYPE
2
CONTINUOUS
70
0
3
Solid line
72
65
73
0
40
0.000000
0
ENDTAB
0
TABLE
2
LAYER
70
3
0
LAYER
2
0
70
0
62
7
6
CONTINUOUS
0
LAYER
2
OUTER
70
0
62
3
6
CONTINUOUS
0
LAYER
2
HOLES
70
0
62
1
6
CONTINUOUS
0
ENDTAB
0
ENDSEC
0
SECTION
2
ENTITIES
0
LWPOLYLINE
100
AcDbEntity
8
OUTER
100
AcDbPolyline
90
193
70
1
10
98.750000
20
235.250000
10
96.500000
20
233.000000
10
96.500000
20
232.750000
10
94.000000
20
230.250000
10
93.750000
20
229.750000
10
94.000000
20
228.500000
10
95.750000
20
226.750000
10
95.750000
20
225.750000
10
94.750000
20
224.250000
10
92.750000
20
222.250000
10
92.750000
20
222.000000
10
92.000000
20
221.250000
10
90.913712
20
220.749687
10
89.750000
20
221.250000
10
89.449540
20
221.750000
10
89.000000
20
221.750000
10
88.750000
20
222.000000
10
86.750000
20
222.000000
10
84.500000
20
219.750000
10
84.500000
20
219.500000
10
79.713586
20
214.241406
10
80.250000
20
213.000000
10
81.750000
20
211.250000
10
81.750000
20
210.000000
10
80.250000
20
208.000000
10
78.000000
20
205.750000
10
76.441765
20
205.019459
10
74.250000
20
206.500000
10
73.000000
20
206.500000
10
72.500000
20
206.250000
10
65.969683
20
198.707152
10
66.250000
20
197.500000
10
67.750000
20
195.750000
10
67.750000
20
194.750000
10
67.000000
20
193.750000
10
66.750000
20
193.000000
10
65.750000
20
192.000000
10
65.000000
20
190.750000
10
64.500000
20
190.250000
10
62.492179
20
189.297892
10
61.500000
20
189.750000
10
59.995520
20
191.039385
10
59.000000
20
190.750000
10
51.696208
20
182.708298
10
52.500000
20
181.250000
10
53.500000
20
180.250000
10
53.500000
20
179.000000
10
52.500000
20
177.000000
10
49.750000
20
174.250000
10
48.245041
20
173.546426
10
47.250000
20
174.000000
10
46.000000
20
175.250000
10
44.743846
20
175.250000
10
40.000000
20
170.250000
10
39.500000
20
169.500000
10
39.500000
20
168.750000
10
40.500000
20
167.250000
10
44.250000
20
163.500000
10
44.250000
20
162.500000
10
42.750000
20
160.000000
10
42.750000
20
159.000000
10
43.500000
20
157.750000
10
45.500000
20
155.750000
10
45.500000
20
155.500000
10
47.000000
20
154.000000
10
48.500000
20
153.000000
10
49.250000
20
153.000000
10
50.750000
20
154.000000
10
52.000000
20
154.000000
10
52.277588
20
154.277588
10
53.500000
20
153.750000
10
58.000000
20
149.000000
10
58.000000
20
147.750000
10
56.500000
20
145.750000
10
56.500000
20
145.250000
10
57.250000
20
143.500000
10
58.250000
20
142.500000
10
58.250000
20
142.250000
10
61.000000
20
139.500000
10
62.500000
20
138.500000
10
63.500000
20
138.500000
10
64.750000
20
139.250000
10
65.750000
20
139.250000
10
66.000000
20
139.500000
10
66.750000
20
139.500000
10
67.750000
20
139.000000
10
72.000000
20
134.750000
10
72.000000
20
133.250000
10
70.500000
20
131.250000
10
70.500000
20
130.750000
10
72.000000
20
128.250000
10
75.250000
20
125.000000
10
76.000000
20
124.750000
10
76.750000
20
124.000000
10
77.500000
20
124.000000
10
78.250000
20
124.750000
10
79.250000
20
125.250000
10
80.750000
20
125.250000
10
81.750000
20
124.750000
10
86.250000
20
120.250000
10
86.250000
20
119.000000
10
86.000000
20
118.750000
10
85.750000
20
117.500000
10
85.000000
20
116.750000
10
85.000000
20
115.750000
10
85.750000
20
114.500000
10
89.750000
20
110.500000
10
91.000000
20
109.750000
10
91.743146
20
109.750000
10
92.500000
20
110.750000
10
94.000000
20
111.451064
10
95.500000
20
110.750000
10
100.516560
20
105.733440
10
100.250000
20
103.250000
10
99.250000
20
102.250000
10
99.250000
20
101.000000
10
103.750000
20
96.250000
10
104.750000
20
95.500000
10
105.718558
20
95.218558
10
107.250000
20
96.750000
10
108.275756
20
97.219307
10
110.000000
20
96.250000
10
112.750000
20
93.250000
10
113.750000
20
92.750000
10
114.500000
20
92.000000
10
115.003282
20
92.000000
10
119.500000
20
96.750000
10
120.520281
20
98.274260
10
120.250000
20
99.000000
10
118.500000
20
101.000000
10
118.500000
20
102.500000
10
119.750000
20
103.750000
10
119.750000
20
104.000000
10
122.500000
20
106.750000
10
123.592603
20
107.253548
10
125.750000
20
106.250000
10
126.750000
20
105.500000
10
127.500000
20
105.500000
10
127.500000
20
105.750000
10
134.000000
20
112.500000
10
134.718260
20
113.726287
10
134.250000
20
114.750000
10
132.750000
20
116.500000
10
132.750000
20
118.000000
10
134.000000
20
119.250000
10
134.000000
20
119.500000
10
136.500000
20
122.000000
10
137.529021
20
122.470979
10
137.750000
20
122.250000
10
138.500000
20
122.250000
10
141.279888
20
120.779888
10
144.750000
20
124.250000
10
144.750000
20
124.500000
10
148.500000
20
128.500000
10
148.788568
20
129.492744
10
146.750000
20
131.750000
10
146.750000
20
133.250000
10
149.750000
20
136.500000
10
149.750000
20
136.780520
10
151.000000
20
137.500000
10
152.500000
20
137.750000
10
155.459805
20
136.209805
10
157.750000
20
138.500000
10
157.750000
20
138.750000
10
163.000000
20
144.500000
10
163.000000
20
145.000000
10
161.000000
20
147.250000
10
161.000000
20
149.000000
10
162.250000
20
150.250000
10
162.250000
20
150.500000
10
164.250000
20
152.500000
10
166.325533
20
153.242253
10
169.000000
20
152.000000
10
170.032876
20
152.000000
10
170.250000
20
152.500000
10
174.750000
20
157.250000
10
175.250000
20
158.000000
10
175.250000
20
158.500000
10
121.750000
20
213.500000
10
121.750000
20
213.750000
10
116.000000
20
219.500000
10
116.000000
20
219.750000
10
112.000000
20
223.750000
10
112.000000
20
223.964383
10
110.500000
20
225.226029
10
110.500000
20
225.500000
10
107.500000
20
228.500000
10
107.500000
20
228.655209
10
106.500000
20
229.482712
10
106.500000
20
229.750000
10
104.000000
20
232.250000
10
104.000000
20
232.500000
10
101.250000
20
235.250000
0
LWPOLYLINE
100
AcDbEntity
8
OUTER
100
AcDbPolyline
90
81
70
1
10
75.111370
20
15.990849
10
75.500000
20
15.750000
10
77.750000
20
15.750000
10
78.000000
20
15.500000
10
101.750000
20
15.500000
10
102.000000
20
15.750000
10
106.500000
20
15.750000
10
106.750000
20
15.500000
10
108.000000
20
15.500000
10
108.250000
20
15.750000
10
108.500000
20
15.500000
10
110.500000
20
15.500000
10
110.750000
20
15.750000
10
117.750000
20
15.750000
10
118.000000
20
16.000000
10
118.500000
20
16.000000
10
118.750000
20
15.750000
10
120.500000
20
15.750000
10
120.750000
20
16.000000
10
121.000000
20
15.750000
10
124.750000
20
15.750000
10
124.750000
20
18.539728
10
123.500000
20
18.250000
10
122.370971
20
18.732114
10
120.264373
20
17.772598
10
118.937053
20
18.504175
10
117.715318
20
18.039672
10
116.935414
20
18.521679
10
116.040675
20
18.258101
10
114.668540
20
19.014378
10
113.750000
20
18.500000
10
111.500000
20
18.750000
10
110.250000
20
19.469480
10
110.250000
20
20.000000
10
110.000000
20
20.000000
10
109.238729
20
19.511271
10
109.030330
20
19.719670
10
108.000000
20
19.250000
10
107.250000
20
19.250000
10
106.500000
20
18.750000
10
105.000000
20
19.000000
10
104.761271
20
19.238729
10
104.000000
20
18.750000
10
101.000000
20
18.750000
10
100.267774
20
18.279222
10
98.500000
20
19.000000
10
98.000000
20
19.500000
10
98.000000
20
19.981763
10
97.250000
20
19.518237
10
96.500000
20
20.000000
10
96.000000
20
20.000000
10
95.717136
20
19.717136
10
95.172164
20
20.008796
10
94.728595
20
19.771405
10
94.500000
20
20.000000
10
94.000000
20
20.000000
10
93.250000
20
19.500000
10
92.500000
20
19.500000
10
90.750000
20
20.250000
10
90.032869
20
20.967131
10
89.750000
20
20.500000
10
88.652412
20
19.993883
10
87.727321
20
20.467746
10
87.010505
20
20.024730
10
85.750000
20
20.719480
10
85.750000
20
21.250000
10
85.000000
20
20.500000
10
83.000000
20
19.500000
10
82.500000
20
19.500000
10
82.269675
20
19.730325
10
81.000000
20
19.000000
10
80.500000
20
19.000000
10
79.500000
20
19.500000
10
78.986495
20
20.301360
10
77.472706
20
19.535106
10
76.762680
20
19.973926
10
76.351733
20
19.753994
10
77.250000
20
19.293871
10
77.250000
20
18.231763
10
76.500000
20
17.768237
10
76.500000
20
16.956064
0
ENDSEC
0
EOF
