  0
SECTION
  2
HEADER
  9
$ACADVER
  1
AC1024
  9
$ACADMAINTVER
 70
6
  9
$DWGCODEPAGE
  3
ANSI_1252
  9
$LASTSAVEDBY
  1
ezdxf
  9
$INSBASE
 10
0.0
 20
0.0
 30
0.0
  9
$EXTMIN
 10
1e+20
 20
1e+20
 30
1e+20
  9
$EXTMAX
 10
-1e+20
 20
-1e+20
 30
-1e+20
  9
$LIMMIN
 10
0.0
 20
0.0
  9
$LIMMAX
 10
420.0
 20
297.0
  9
$ORTHOMODE
 70
0
  9
$REGENMODE
 70
1
  9
$FILLMODE
 70
1
  9
$QTEXTMODE
 70
0
  9
$MIRRTEXT
 70
1
  9
$LTSCALE
 40
1.0
  9
$ATTMODE
 70
1
  9
$TEXTSIZE
 40
2.5
  9
$TRACEWID
 40
1.0
  9
$TEXTSTYLE
  7
Standard
  9
$CLAYER
  8
0
  9
$CELTYPE
  6
ByLayer
  9
$CECOLOR
 62
256
  9
$CELTSCALE
 40
1.0
  9
$DISPSILH
 70
0
  9
$DIMSCALE
 40
1.0
  9
$DIMASZ
 40
2.5
  9
$DIMEXO
 40
0.625
  9
$DIMDLI
 40
3.75
  9
$DIMRND
 40
0.0
  9
$DIMDLE
 40
0.0
  9
$DIMEXE
 40
1.25
  9
$DIMTP
 40
0.0
  9
$DIMTM
 40
0.0
  9
$DIMTXT
 40
2.5
  9
$DIMCEN
 40
2.5
  9
$DIMTSZ
 40
0.0
  9
$DIMTOL
 70
0
  9
$DIMLIM
 70
0
  9
$DIMTIH
 70
0
  9
$DIMTOH
 70
0
  9
$DIMSE1
 70
0
  9
$DIMSE2
 70
0
  9
$DIMTAD
 70
1
  9
$DIMZIN
 70
8
  9
$DIMBLK
  1

  9
$DIMASO
 70
1
  9
$DIMSHO
 70
1
  9
$DIMPOST
  1

  9
$DIMAPOST
  1

  9
$DIMALT
 70
0
  9
$DIMALTD
 70
3
  9
$DIMALTF
 40
0.03937007874
  9
$DIMLFAC
 40
1.0
  9
$DIMTOFL
 70
1
  9
$DIMTVP
 40
0.0
  9
$DIMTIX
 70
0
  9
$DIMSOXD
 70
0
  9
$DIMSAH
 70
0
  9
$DIMBLK1
  1

  9
$DIMBLK2
  1

  9
$DIMSTYLE
  2
ISO-25
  9
$DIMCLRD
 70
0
  9
$DIMCLRE
 70
0
  9
$DIMCLRT
 70
0
  9
$DIMTFAC
 40
1.0
  9
$DIMGAP
 40
0.625
  9
$DIMJUST
 70
0
  9
$DIMSD1
 70
0
  9
$DIMSD2
 70
0
  9
$DIMTOLJ
 70
0
  9
$DIMTZIN
 70
8
  9
$DIMALTZ
 70
0
  9
$DIMALTTZ
 70
0
  9
$DIMUPT
 70
0
  9
$DIMDEC
 70
2
  9
$DIMTDEC
 70
2
  9
$DIMALTU
 70
2
  9
$DIMALTTD
 70
3
  9
$DIMTXSTY
  7
Standard
  9
$DIMAUNIT
 70
0
  9
$DIMADEC
 70
0
  9
$DIMALTRND
 40
0.0
  9
$DIMAZIN
 70
0
  9
$DIMDSEP
 70
44
  9
$DIMATFIT
 70
3
  9
$DIMFRAC
 70
0
  9
$DIMLDRBLK
  1

  9
$DIMLUNIT
 70
2
  9
$DIMLWD
 70
-2
  9
$DIMLWE
 70
-2
  9
$DIMTMOVE
 70
0
  9
$DIMFXL
 40
1.0
  9
$DIMFXLON
 70
0
  9
$DIMJOGANG
 40
0.785398163397
  9
$DIMTFILL
 70
0
  9
$DIMTFILLCLR
 70
0
  9
$DIMARCSYM
 70
0
  9
$DIMLTYPE
  6

  9
$DIMLTEX1
  6

  9
$DIMLTEX2
  6

  9
$DIMTXTDIRECTION
 70
0
  9
$LUNITS
 70
2
  9
$LUPREC
 70
4
  9
$SKETCHINC
 40
1.0
  9
$FILLETRAD
 40
10.0
  9
$AUNITS
 70
0
  9
$AUPREC
 70
2
  9
$MENU
  1
.
  9
$ELEVATION
 40
0.0
  9
$PELEVATION
 40
0.0
  9
$THICKNESS
 40
0.0
  9
$LIMCHECK
 70
0
  9
$CHAMFERA
 40
0.0
  9
$CHAMFERB
 40
0.0
  9
$CHAMFERC
 40
0.0
  9
$CHAMFERD
 40
0.0
  9
$SKPOLY
 70
0
  9
$TDCREATE
 40
2461238.4658333333
  9
$TDUCREATE
 40
2458532.153996898
  9
$TDUPDATE
 40
2461238.4658333333
  9
$TDUUPDATE
 40
2458532.1544311
  9
$TDINDWG
 40
0.0
  9
$TDUSRTIMER
 40
0.0
  9
$USRTIMER
 70
1
  9
$ANGBASE
 50
0.0
  9
$ANGDIR
 70
0
  9
$PDMODE
 70
0
  9
$PDSIZE
 40
0.0
  9
$PLINEWID
 40
0.0
  9
$SPLFRAME
 70
0
  9
$SPLINETYPE
 70
6
  9
$SPLINESEGS
 70
8
  9
$HANDSEED
  5
33
  9
$SURFTAB1
 70
6
  9
$SURFTAB2
 70
6
  9
$SURFTYPE
 70
6
  9
$SURFU
 70
6
  9
$SURFV
 70
6
  9
$UCSBASE
  2

  9
$UCSNAME
  2

  9
$UCSORG
 10
0.0
 20
0.0
 30
0.0
  9
$UCSXDIR
 10
1.0
 20
0.0
 30
0.0
  9
$UCSYDIR
 10
0.0
 20
1.0
 30
0.0
  9
$UCSORTHOREF
  2

  9
$UCSORTHOVIEW
 70
0
  9
$UCSORGTOP
 10
0.0
 20
0.0
 30
0.0
  9
$UCSORGBOTTOM
 10
0.0
 20
0.0
 30
0.0
  9
$UCSORGLEFT
 10
0.0
 20
0.0
 30
0.0
  9
$UCSORGRIGHT
 10
0.0
 20
0.0
 30
0.0
  9
$UCSORGFRONT
 10
0.0
 20
0.0
 30
0.0
  9
$UCSORGBACK
 10
0.0
 20
0.0
 30
0.0
  9
$PUCSBASE
  2

  9
$PUCSNAME
  2

  9
$PUCSORG
 10
0.0
 20
0.0
 30
0.0
  9
$PUCSXDIR
 10
1.0
 20
0.0
 30
0.0
  9
$PUCSYDIR
 10
0.0
 20
1.0
 30
0.0
  9
$PUCSORTHOREF
  2

  9
$PUCSORTHOVIEW
 70
0
  9
$PUCSORGTOP
 10
0.0
 20
0.0
 30
0.0
  9
$PUCSORGBOTTOM
 10
0.0
 20
0.0
 30
0.0
  9
$PUCSORGLEFT
 10
0.0
 20
0.0
 30
0.0
  9
$PUCSORGRIGHT
 10
0.0
 20
0.0
 30
0.0
  9
$PUCSORGFRONT
 10
0.0
 20
0.0
 30
0.0
  9
$PUCSORGBACK
 10
0.0
 20
0.0
 30
0.0
  9
$USERI1
 70
0
  9
$USERI2
 70
0
  9
$USERI3
 70
0
  9
$USERI4
 70
0
  9
$USERI5
 70
0
  9
$USERR1
 40
0.0
  9
$USERR2
 40
0.0
  9
$USERR3
 40
0.0
  9
$USERR4
 40
0.0
  9
$USERR5
 40
0.0
  9
$WORLDVIEW
 70
1
  9
$SHADEDGE
 70
3
  9
$SHADEDIF
 70
70
  9
$TILEMODE
 70
1
  9
$MAXACTVP
 70
64
  9
$PINSBASE
 10
0.0
 20
0.0
 30
0.0
  9
$PLIMCHECK
 70
0
  9
$PEXTMIN
 10
1e+20
 20
1e+20
 30
1e+20
  9
$PEXTMAX
 10
-1e+20
 20
-1e+20
 30
-1e+20
  9
$PLIMMIN
 10
0.0
 20
0.0
  9
$PLIMMAX
 10
420.0
 20
297.0
  9
$UNITMODE
 70
0
  9
$VISRETAIN
 70
1
  9
$PLINEGEN
 70
0
  9
$PSLTSCALE
 70
1
  9
$TREEDEPTH
 70
3020
  9
$CMLSTYLE
  2
Standard
  9
$CMLJUST
 70
0
  9
$CMLSCALE
 40
20.0
  9
$PROXYGRAPHICS
 70
1
  9
$MEASUREMENT
 70
1
  9
$CELWEIGHT
370
-1
  9
$ENDCAPS
280
0
  9
$JOINSTYLE
280
0
  9
$LWDISPLAY
290
0
  9
$INSUNITS
 70
6
  9
$HYPERLINKBASE
  1

  9
$STYLESHEET
  1

  9
$XEDIT
290
1
  9
$CEPSNTYPE
380
0
  9
$PSTYLEMODE
290
1
  9
$FINGERPRINTGUID
  2
{4BCFA9D5-6DEE-401C-BAF4-3348678762A5}
  9
$VERSIONGUID
  2
{94EE017F-A0BE-4A6A-A42E-E9FF30337F44}
  9
$EXTNAMES
290
1
  9
$PSVPSCALE
 40
0.0
  9
$OLESTARTUP
290
0
  9
$SORTENTS
280
127
  9
$INDEXCTL
280
0
  9
$HIDETEXT
280
1
  9
$XCLIPFRAME
280
1
  9
$HALOGAP
280
0
  9
$OBSCOLOR
 70
257
  9
$OBSLTYPE
280
0
  9
$INTERSECTIONDISPLAY
280
0
  9
$INTERSECTIONCOLOR
 70
257
  9
$DIMASSOC
280
2
  9
$PROJECTNAME
  1

  9
$CAMERADISPLAY
290
0
  9
$LENSLENGTH
 40
50.0
  9
$CAMERAHEIGHT
 40
0.0
  9
$STEPSPERSEC
 40
24.0
  9
$STEPSIZE
 40
100.0
  9
$3DDWFPREC
 40
2.0
  9
$PSOLWIDTH
 40
0.005
  9
$PSOLHEIGHT
 40
0.08
  9
$LOFTANG1
 40
1.570796326795
  9
$LOFTANG2
 40
1.570796326795
  9
$LOFTMAG1
 40
0.0
  9
$LOFTMAG2
 40
0.0
  9
$LOFTPARAM
 70
7
  9
$LOFTNORMALS
280
1
  9
$LATITUDE
 40
37.795
  9
$LONGITUDE
 40
-122.394
  9
$NORTHDIRECTION
 40
0.0
  9
$TIMEZONE
 70
-8000
  9
$LIGHTGLYPHDISPLAY
280
1
  9
$TILEMODELIGHTSYNCH
280
1
  9
$CMATERIAL
347
20
  9
$SOLIDHIST
280
0
  9
$SHOWHIST
280
1
  9
$DWFFRAME
280
2
  9
$DGNFRAME
280
2
  9
$REALWORLDSCALE
290
1
  9
$INTERFERECOLOR
 62
256
  9
$CSHADOW
280
0
  9
$SHADOWPLANELOCATION
 40
0.0
  0
ENDSEC
  0
SECTION
  2
CLASSES
  0
CLASS
  1
ACDBDICTIONARYWDFLT
  2
AcDbDictionaryWithDefault
  3
ObjectDBX Classes
 90
0
 91
0
280
0
281
0
  0
CLASS
  1
SUN
  2
AcDbSun
  3
SCENEOE
 90
1153
 91
0
280
0
281
0
  0
CLASS
  1
VISUALSTYLE
  2
AcDbVisualStyle
  3
ObjectDBX Classes
 90
4095
 91
0
280
0
281
0
  0
CLASS
  1
MATERIAL
  2
AcDbMaterial
  3
ObjectDBX Classes
 90
1153
 91
0
280
0
281
0
  0
CLASS
  1
SCALE
  2
AcDbScale
  3
ObjectDBX Classes
 90
1153
 91
0
280
0
281
0
  0
CLASS
  1
TABLESTYLE
  2
AcDbTableStyle
  3
ObjectDBX Classes
 90
4095
 91
0
280
0
281
0
  0
CLASS
  1
MLEADERSTYLE
  2
AcDbMLeaderStyle
  3
ACDB_MLEADERSTYLE_CLASS
 90
4095
 91
0
280
0
281
0
  0
CLASS
  1
DICTIONARYVAR
  2
AcDbDictionaryVar
  3
ObjectDBX Classes
 90
0
 91
0
280
0
281
0
  0
CLASS
  1
CELLSTYLEMAP
  2
AcDbCellStyleMap
  3
ObjectDBX Classes
 90
1152
 91
0
280
0
281
0
  0
CLASS
  1
MENTALRAYRENDERSETTINGS
  2
AcDbMentalRayRenderSettings
  3
SCENEOE
 90
1024
 91
0
280
0
281
0
  0
CLASS
  1
ACDBDETAILVIEWSTYLE
  2
AcDbDetailViewStyle
  3
ObjectDBX Classes
 90
1025
 91
0
280
0
281
0
  0
CLASS
  1
ACDBSECTIONVIEWSTYLE
  2
AcDbSectionViewStyle
  3
ObjectDBX Classes
 90
1025
 91
0
280
0
281
0
  0
CLASS
  1
RASTERVARIABLES
  2
AcDbRasterVariables
  3
ISM
 90
0
 91
0
280
0
281
0
  0
CLASS
  1
LAYOUT
  2
AcDbLayout
  3
ObjectDBX Classes
 90
0
 91
0
280
0
281
0
  0
CLASS
  1
ACDBPLACEHOLDER
  2
AcDbPlaceHolder
  3
ObjectDBX Classes
 90
0
 91
0
280
0
281
0
  0
ENDSEC
  0
SECTION
  2
TABLES
  0
TABLE
  2
VPORT
  5
8
330
0
100
AcDbSymbolTable
 70
1
  0
VPORT
  5
23
330
8
100
AcDbSymbolTableRecord
100
AcDbViewportTableRecord
  2
*Active
 70
0
 10
0.0
 20
0.0
 11
1.0
 21
1.0
 12
0.0
 22
0.0
 13
0.0
 23
0.0
 14
0.5
 24
0.5
 15
0.5
 25
0.5
 16
0.0
 26
0.0
 36
1.0
 17
0.0
 27
0.0
 37
0.0
 40
1000.0
 41
1.34
 42
50.0
 43
0.0
 44
0.0
 50
0.0
 51
0.0
 71
0
 72
1000
 73
1
 74
3
 75
0
 76
0
 77
0
 78
0
281
0
 65
0
146
0.0
  0
ENDTAB
  0
TABLE
  2
LTYPE
  5
2
330
0
100
AcDbSymbolTable
 70
3
  0
LTYPE
  5
24
330
2
100
AcDbSymbolTableRecord
100
AcDbLinetypeTableRecord
  2
ByBlock
 70
0
  3

 72
65
 73
0
 40
0.0
  0
LTYPE
  5
25
330
2
100
AcDbSymbolTableRecord
100
AcDbLinetypeTableRecord
  2
ByLayer
 70
0
  3

 72
65
 73
0
 40
0.0
  0
LTYPE
  5
26
330
2
100
AcDbSymbolTableRecord
100
AcDbLinetypeTableRecord
  2
Continuous
 70
0
  3

 72
65
 73
0
 40
0.0
  0
ENDTAB
  0
TABLE
  2
LAYER
  5
1
330
0
100
AcDbSymbolTable
 70
2
  0
LAYER
  5
27
330
1
100
AcDbSymbolTableRecord
100
AcDbLayerTableRecord
  2
0
 70
0
 62
7
  6
Continuous
370
-3
390
13
347
21
  0
LAYER
  5
28
330
1
100
AcDbSymbolTableRecord
100
AcDbLayerTableRecord
  2
Defpoints
 70
0
 62
7
  6
Continuous
290
0
370
-3
390
13
347
21
  0
ENDTAB
  0
TABLE
  2
STYLE
  5
5
330
0
100
AcDbSymbolTable
 70
1
  0
STYLE
  5
29
330
5
100
AcDbSymbolTableRecord
100
AcDbTextStyleTableRecord
  2
Standard
 70
0
 40
0.0
 41
1.0
 50
0.0
 71
0
 42
2.5
  3
txt
  4

  0
ENDTAB
  0
TABLE
  2
VIEW
  5
7
330
0
100
AcDbSymbolTable
 70
0
  0
ENDTAB
  0
TABLE
  2
UCS
  5
6
330
0
100
AcDbSymbolTable
 70
0
  0
ENDTAB
  0
TABLE
  2
APPID
  5
3
330
0
100
AcDbSymbolTable
 70
3
  0
APPID
  5
2A
330
3
100
AcDbSymbolTableRecord
100
AcDbRegAppTableRecord
  2
ACAD
 70
0
  0
APPID
  5
30
330
3
100
AcDbSymbolTableRecord
100
AcDbRegAppTableRecord
  2
HATCHBACKGROUNDCOLOR
 70
0
  0
APPID
  5
31
330
3
100
AcDbSymbolTableRecord
100
AcDbRegAppTableRecord
  2
EZDXF
 70
0
  0
ENDTAB
  0
TABLE
  2
DIMSTYLE
  5
4
330
0
100
AcDbSymbolTable
 70
1
100
AcDbDimStyleTable
  0
DIMSTYLE
105
2B
330
4
100
AcDbSymbolTableRecord
100
AcDbDimStyleTableRecord
  2
Standard
 70
0
 40
1.0
 41
2.5
 42
0.625
 43
3.75
 44
1.25
 45
0.0
 46
0.0
 47
0.0
 48
0.0
 49
2.5
140
2.5
141
2.5
142
0.0
143
0.03937007874
144
1.0
145
0.0
146
1.0
147
0.625
148
0.0
 69
0
 70
0
 71
0
 72
0
 73
0
 74
0
 75
0
 76
0
 77
1
 78
8
 79
3
170
0
171
3
172
1
173
0
174
0
175
0
176
0
177
0
178
0
179
2
271
2
272
2
273
2
274
3
275
0
276
0
277
2
278
44
279
0
280
0
281
0
282
0
283
0
284
8
285
0
286
0
288
0
289
3
290
0
371
-2
372
-2
  0
ENDTAB
  0
TABLE
  2
BLOCK_RECORD
  5
9
330
0
100
AcDbSymbolTable
 70
2
  0
BLOCK_RECORD
  5
17
330
9
100
AcDbSymbolTableRecord
100
AcDbBlockTableRecord
  2
*Model_Space
340
1A
 70
0
280
1
281
0
  0
BLOCK_RECORD
  5
1B
330
9
100
AcDbSymbolTableRecord
100
AcDbBlockTableRecord
  2
*Paper_Space
340
1E
 70
0
280
1
281
0
  0
ENDTAB
  0
ENDSEC
  0
SECTION
  2
BLOCKS
  0
BLOCK
  5
18
330
17
100
AcDbEntity
  8
0
100
AcDbBlockBegin
  2
*Model_Space
 70
0
 10
0.0
 20
0.0
 30
0.0
  3
*Model_Space
  1

  0
ENDBLK
  5
19
330
17
100
AcDbEntity
  8
0
100
AcDbBlockEnd
  0
BLOCK
  5
1C
330
1B
100
AcDbEntity
  8
0
100
AcDbBlockBegin
  2
*Paper_Space
 70
0
 10
0.0
 20
0.0
 30
0.0
  3
*Paper_Space
  1

  0
ENDBLK
  5
1D
330
1B
100
AcDbEntity
  8
0
100
AcDbBlockEnd
  0
ENDSEC
  0
SECTION
  2
ENTITIES
  0
LWPOLYLINE
  5
2F
330
17
100
AcDbEntity
  8
0
100
AcDbPolyline
 90
416
 70
1
 10
173.7800048828125
 20
38.25185546875
 10
173.93585205078125
 20
38.0664306640625
 10
174.00706787109374
 20
37.9810302734375
 10
174.0917724609375
 20
37.878955078125
 10
174.19071044921876
 20
37.7598876953125
 10
174.28232421875
 20
37.649462890625
 10
174.3789306640625
 20
37.5341796875
 10
174.4789794921875
 20
37.416455078125
 10
174.58013916015625
 20
37.2988037109375
 10
174.68397216796876
 20
37.180078125
 10
174.7904296875
 20
37.060986328125
 10
174.89876708984374
 20
36.941943359375
 10
175.0086181640625
 20
36.8228515625
 10
175.11961669921874
 20
36.7038330078125
 10
175.23133544921876
 20
36.584765625
 10
175.3438232421875
 20
36.4656982421875
 10
175.4570556640625
 20
36.3466552734375
 10
175.57105712890626
 20
36.2279541015625
 10
175.6861572265625
 20
36.109912109375
 10
175.8027587890625
 20
35.992919921875
 10
175.9212158203125
 20
35.8772705078125
 10
176.04190673828126
 20
35.7633056640625
 10
176.1652099609375
 20
35.6513916015625
 10
176.29071044921875
 20
35.5422119140625
 10
176.41806640625
 20
35.435400390625
 10
176.54688720703126
 20
35.3309814453125
 10
176.6768310546875
 20
35.2288818359375
 10
176.80745849609374
 20
35.1291748046875
 10
176.93843994140624
 20
35.0322021484375
 10
177.06937255859376
 20
34.9382568359375
 10
177.2002685546875
 20
34.847021484375
 10
177.33111572265625
 20
34.7591796875
 10
177.4619140625
 20
34.674365234375
 10
177.5926513671875
 20
34.5926025390625
 10
177.72333984375
 20
34.5142333984375
 10
177.85400390625
 20
34.4385986328125
 10
177.9846435546875
 20
34.3649658203125
 10
178.11524658203126
 20
34.293017578125
 10
178.2458251953125
 20
34.2224365234375
 10
178.37637939453126
 20
34.153857421875
 10
178.50692138671874
 20
34.0873291015625
 10
178.6374267578125
 20
34.0221435546875
 10
178.7678955078125
 20
33.9587158203125
 10
178.89833984375
 20
33.897607421875
 10
179.02874755859375
 20
33.8391845703125
 10
179.15911865234375
 20
33.783154296875
 10
179.28946533203126
 20
33.7291748046875
 10
179.41978759765624
 20
33.6772216796875
 10
179.55006103515626
 20
33.627294921875
 10
179.68031005859376
 20
33.5793701171875
 10
179.810546875
 20
33.5328369140625
 10
179.9407470703125
 20
33.4880126953125
 10
180.0709228515625
 20
33.4455078125
 10
180.20106201171876
 20
33.4050537109375
 10
180.33116455078124
 20
33.3662841796875
 10
180.4612548828125
 20
33.3295654296875
 10
180.59130859375
 20
33.29453125
 10
180.72135009765626
 20
33.261181640625
 10
180.8513671875
 20
33.2285400390625
 10
180.98138427734375
 20
33.1955322265625
 10
181.11142578125
 20
33.1621826171875
 10
181.2414794921875
 20
33.128515625
 10
181.37152099609375
 20
33.0945068359375
 10
181.5015625
 20
33.060498046875
 10
181.6316162109375
 20
33.0267822265625
 10
181.7616455078125
 20
32.994140625
 10
181.89166259765625
 20
32.9631591796875
 10
182.02164306640626
 20
32.9345703125
 10
182.1515625
 20
32.9090087890625
 10
182.28143310546875
 20
32.8864990234375
 10
182.41126708984376
 20
32.867041015625
 10
182.54107666015625
 20
32.8503173828125
 10
182.6708251953125
 20
32.8359375
 10
182.80054931640626
 20
32.823583984375
 10
182.9302490234375
 20
32.812255859375
 10
183.05994873046876
 20
32.800927734375
 10
183.18966064453124
 20
32.788916015625
 10
183.3194091796875
 20
32.7755615234375
 10
183.44913330078126
 20
32.7611572265625
 10
183.57852783203126
 20
32.7461181640625
 10
183.70677490234374
 20
32.7307861328125
 10
183.83505859375
 20
32.715771484375
 10
183.96065673828124
 20
32.701806640625
 10
184.08094482421876
 20
32.6896484375
 10
184.21063232421875
 20
32.6796875
 10
184.32178955078126
 20
32.6721435546875
 10
184.41478271484374
 20
32.666748046875
 10
184.6165586544941
 20
32.65887829258204
 10
217.4584981669283
 20
37.860530501431185
 10
217.65849609375
 20
37.9652587890625
 10
217.7506591796875
 20
38.0118408203125
 10
217.8608154296875
 20
38.0663818359375
 10
217.98935546875
 20
38.128955078125
 10
218.1085693359375
 20
38.1847900390625
 10
218.2330322265625
 20
38.242822265625
 10
218.3601318359375
 20
38.301318359375
 10
218.4872314453125
 20
38.3594482421875
 10
218.6154541015625
 20
38.4186279296875
 10
218.7440185546875
 20
38.479150390625
 10
218.87255859375
 20
38.54140625
 10
219.00107421875
 20
38.6050048828125
 10
219.12958984375
 20
38.6692626953125
 10
219.2580810546875
 20
38.7348388671875
 10
219.3865478515625
 20
38.8014892578125
 10
219.514990234375
 20
38.8688232421875
 10
219.64345703125
 20
38.9364990234375
 10
219.7718994140625
 20
39.0041259765625
 10
219.900341796875
 20
39.0718017578125
 10
220.028759765625
 20
39.1401123046875
 10
220.1572021484375
 20
39.2087890625
 10
220.2856201171875
 20
39.277783203125
 10
220.4140380859375
 20
39.3474853515625
 10
220.542431640625
 20
39.4181640625
 10
220.6708251953125
 20
39.490576171875
 10
220.799169921875
 20
39.5653076171875
 10
220.9274169921875
 20
39.6431396484375
 10
221.0556396484375
 20
39.725
 10
221.183740234375
 20
39.811962890625
 10
221.311767578125
 20
39.9043701171875
 10
221.4396728515625
 20
40.0025146484375
 10
221.567529296875
 20
40.1060546875
 10
221.6948974609375
 20
40.214697265625
 10
221.8214599609375
 20
40.327392578125
 10
221.946826171875
 20
40.443115234375
 10
222.070263671875
 20
40.560888671875
 10
222.191064453125
 20
40.6799560546875
 10
222.3084228515625
 20
40.7996826171875
 10
222.4212890625
 20
40.919775390625
 10
222.529638671875
 20
41.03984375
 10
222.6330810546875
 20
41.159912109375
 10
222.7312744140625
 20
41.2799072265625
 10
222.824560546875
 20
41.3998779296875
 10
222.9133056640625
 20
41.519873046875
 10
222.9979248046875
 20
41.6398193359375
 10
223.079541015625
 20
41.759765625
 10
223.157763671875
 20
41.8796875
 10
223.233349609375
 20
41.9996337890625
 10
223.3066650390625
 20
42.1195556640625
 10
223.3777099609375
 20
42.2394775390625
 10
223.446533203125
 20
42.3593505859375
 10
223.5127197265625
 20
42.4792236328125
 10
223.5754638671875
 20
42.5990966796875
 10
223.6356201171875
 20
42.7189697265625
 10
223.6923828125
 20
42.838818359375
 10
223.7461181640625
 20
42.9586181640625
 10
223.7972412109375
 20
43.0784423828125
 10
223.845703125
 20
43.1982421875
 10
223.8927001953125
 20
43.318017578125
 10
223.9392822265625
 20
43.437841796875
 10
223.985107421875
 20
43.5576171875
 10
224.0313232421875
 20
43.677392578125
 10
224.0775390625
 20
43.797216796875
 10
224.123388671875
 20
43.9170166015625
 10
224.1696044921875
 20
44.0367919921875
 10
224.2154296875
 20
44.1566162109375
 10
224.260498046875
 20
44.2763671875
 10
224.3055908203125
 20
44.396142578125
 10
224.34990234375
 20
44.5159423828125
 10
224.3942138671875
 20
44.635693359375
 10
224.439306640625
 20
44.75546875
 10
224.484375
 20
44.8752685546875
 10
224.530224609375
 20
44.9950439453125
 10
224.576416015625
 20
45.1148193359375
 10
224.622265625
 20
45.2345947265625
 10
224.6684814453125
 20
45.3543701171875
 10
224.714306640625
 20
45.4741455078125
 10
224.7590087890625
 20
45.593896484375
 10
224.8033203125
 20
45.7136474609375
 10
224.8465087890625
 20
45.8334228515625
 10
224.8889404296875
 20
45.953173828125
 10
224.931396484375
 20
46.0729248046875
 10
224.9730712890625
 20
46.1927001953125
 10
225.014404296875
 20
46.312451171875
 10
225.0556884765625
 20
46.4322021484375
 10
225.0962646484375
 20
46.551953125
 10
225.1364501953125
 20
46.6716796875
 10
225.176220703125
 20
46.79140625
 10
225.2145263671875
 20
46.9111328125
 10
225.251318359375
 20
47.030859375
 10
225.2865966796875
 20
47.1505859375
 10
225.3203857421875
 20
47.2699462890625
 10
225.352685546875
 20
47.3882568359375
 10
225.384228515625
 20
47.506591796875
 10
225.4142822265625
 20
47.6224609375
 10
225.4432861328125
 20
47.733447265625
 10
225.4770751953125
 20
47.8531494140625
 10
225.5065673828125
 20
47.9557373046875
 10
225.531787109375
 20
48.0416015625
 10
225.59137597228704
 20
48.228000803603024
 10
223.0495337908977
 20
64.27656072641511
 10
222.955322265625
 20
64.4620849609375
 10
222.9140625
 20
64.5475830078125
 10
222.8658935546875
 20
64.6497314453125
 10
222.8104736328125
 20
64.7689208984375
 10
222.7618896484375
 20
64.879443359375
 10
222.7122802734375
 20
64.9948486328125
 10
222.66220703125
 20
65.1126708984375
 10
222.613232421875
 20
65.2304931640625
 10
222.564208984375
 20
65.349365234375
 10
222.514794921875
 20
65.468603515625
 10
222.465771484375
 20
65.5878173828125
 10
222.4167236328125
 20
65.70703125
 10
222.367333984375
 20
65.8262451171875
 10
222.3182861328125
 20
65.945458984375
 10
222.2688720703125
 20
66.0646728515625
 10
222.2187255859375
 20
66.18388671875
 10
222.1685546875
 20
66.3031005859375
 10
222.117626953125
 20
66.4222900390625
 10
222.0656005859375
 20
66.5414794921875
 10
222.012841796875
 20
66.6606689453125
 10
221.958154296875
 20
66.779833984375
 10
221.9019775390625
 20
66.8989990234375
 10
221.844287109375
 20
67.0181640625
 10
221.78359375
 20
67.1373291015625
 10
221.7195068359375
 20
67.2564697265625
 10
221.651318359375
 20
67.3755615234375
 10
221.5781982421875
 20
67.4946533203125
 10
221.5006103515625
 20
67.613720703125
 10
221.4173583984375
 20
67.7327880859375
 10
221.3281005859375
 20
67.851806640625
 10
221.2335693359375
 20
67.9708251953125
 10
221.134130859375
 20
68.0897705078125
 10
221.0313720703125
 20
68.208740234375
 10
220.9255615234375
 20
68.3276611328125
 10
220.8167236328125
 20
68.4466064453125
 10
220.7060302734375
 20
68.5655029296875
 10
220.5942138671875
 20
68.684423828125
 10
220.481640625
 20
68.8033203125
 10
220.3686767578125
 20
68.922216796875
 10
220.254248046875
 20
69.0411376953125
 10
220.1383056640625
 20
69.160009765625
 10
220.020849609375
 20
69.2788818359375
 10
219.901513671875
 20
69.39775390625
 10
219.779931640625
 20
69.5166015625
 10
219.655712890625
 20
69.63544921875
 10
219.5284912109375
 20
69.7542724609375
 10
219.3989990234375
 20
69.8730712890625
 10
219.2676513671875
 20
69.991552734375
 10
219.134814453125
 20
70.1093505859375
 10
219.0008544921875
 20
70.226123046875
 10
218.8661865234375
 20
70.3411865234375
 10
218.731201171875
 20
70.4538818359375
 10
218.596240234375
 20
70.5635498046875
 10
218.4613525390625
 20
70.6691650390625
 10
218.3265380859375
 20
70.770703125
 10
218.191796875
 20
70.86787109375
 10
218.0571533203125
 20
70.960302734375
 10
217.9225830078125
 20
71.0483642578125
 10
217.7880615234375
 20
71.1323486328125
 10
217.6535888671875
 20
71.2122802734375
 10
217.5192138671875
 20
71.2891357421875
 10
217.3848876953125
 20
71.3626708984375
 10
217.2506103515625
 20
71.4334716796875
 10
217.116357421875
 20
71.5019287109375
 10
216.9821533203125
 20
71.5679931640625
 10
216.847998046875
 20
71.6317138671875
 10
216.7138671875
 20
71.6937255859375
 10
216.57978515625
 20
71.7537353515625
 10
216.4457275390625
 20
71.812353515625
 10
216.311669921875
 20
71.8689697265625
 10
216.177685546875
 20
71.923876953125
 10
216.043701171875
 20
71.9774658203125
 10
215.909716796875
 20
72.030029296875
 10
215.77578125
 20
72.081591796875
 10
215.6418212890625
 20
72.1324462890625
 10
215.50791015625
 20
72.1826416015625
 10
215.373974609375
 20
72.2331787109375
 10
215.2400634765625
 20
72.2840576171875
 10
215.106103515625
 20
72.3352783203125
 10
214.9721923828125
 20
72.386474609375
 10
214.8382568359375
 20
72.4376953125
 10
214.7043212890625
 20
72.4885498046875
 10
214.5704345703125
 20
72.539111328125
 10
214.4364990234375
 20
72.5889892578125
 10
214.3026123046875
 20
72.6378173828125
 10
214.1687744140625
 20
72.6853271484375
 10
214.034912109375
 20
72.73212890625
 10
213.90107421875
 20
72.7779296875
 10
213.767236328125
 20
72.8230712890625
 10
213.633447265625
 20
72.866845703125
 10
213.499658203125
 20
72.90859375
 10
213.3659423828125
 20
72.948291015625
 10
213.2322509765625
 20
72.9860107421875
 10
213.0986083984375
 20
73.0203369140625
 10
212.9650146484375
 20
73.050927734375
 10
212.8315185546875
 20
73.0771240234375
 10
212.6980712890625
 20
73.0992919921875
 10
212.564697265625
 20
73.1177490234375
 10
212.431396484375
 20
73.1328125
 10
212.2981689453125
 20
73.1448486328125
 10
212.164892578125
 20
73.1552001953125
 10
212.031689453125
 20
73.16484375
 10
211.898486328125
 20
73.174853515625
 10
211.7652099609375
 20
73.1858642578125
 10
211.6319580078125
 20
73.198583984375
 10
211.4986572265625
 20
73.2129638671875
 10
211.3657470703125
 20
73.2290283203125
 10
211.233935546875
 20
73.246435546875
 10
211.102099609375
 20
73.2658447265625
 10
210.97294921875
 20
73.286572265625
 10
210.849267578125
 20
73.3078369140625
 10
210.715771484375
 20
73.3343994140625
 10
210.601318359375
 20
73.3581787109375
 10
210.5055419921875
 20
73.379150390625
 10
210.2975263686873
 20
73.43098097727943
 10
176.84464027411573
 20
68.13256433595025
 10
176.64329833984374
 20
67.992236328125
 10
176.5505126953125
 20
67.9300048828125
 10
176.43961181640626
 20
67.8568115234375
 10
176.31016845703124
 20
67.7725830078125
 10
176.19013671875
 20
67.6977783203125
 10
176.06480712890624
 20
67.6212646484375
 10
175.9367919921875
 20
67.5445556640625
 10
175.8087646484375
 20
67.468896484375
 10
175.67960205078126
 20
67.3927978515625
 10
175.5500732421875
 20
67.316357421875
 10
175.42054443359376
 20
67.239208984375
 10
175.29102783203126
 20
67.1607421875
 10
175.1615478515625
 20
67.0805419921875
 10
175.0321044921875
 20
66.998388671875
 10
174.9026611328125
 20
66.9148193359375
 10
174.77325439453125
 20
66.82958984375
 10
174.6438720703125
 20
66.7429931640625
 10
174.51451416015624
 20
66.6553955078125
 10
174.38514404296876
 20
66.5671142578125
 10
174.2557861328125
 20
66.4781494140625
 10
174.12645263671874
 20
66.388525390625
 10
173.99713134765625
 20
66.296875
 10
173.8678466796875
 20
66.2028564453125
 10
173.7385986328125
 20
66.106103515625
 10
173.60941162109376
 20
66.00634765625
 10
173.4802734375
 20
65.9031982421875
 10
173.351171875
 20
65.797021484375
 10
173.22210693359375
 20
65.688134765625
 10
173.0930908203125
 20
65.5779052734375
 10
172.96405029296875
 20
65.467333984375
 10
172.83541259765624
 20
65.3564208984375
 10
172.70750732421874
 20
65.2451904296875
 10
172.58074951171875
 20
65.1336181640625
 10
172.4554931640625
 20
65.0213623046875
 10
172.33214111328124
 20
64.9080810546875
 10
172.21142578125
 20
64.7931884765625
 10
172.094140625
 20
64.6759033203125
 10
171.97989501953126
 20
64.556591796875
 10
171.86865234375
 20
64.4356201171875
 10
171.76046142578124
 20
64.313330078125
 10
171.65528564453126
 20
64.1900146484375
 10
171.5534912109375
 20
64.0660400390625
 10
171.45433349609374
 20
63.9417236328125
 10
171.35743408203126
 20
63.817431640625
 10
171.26353759765624
 20
63.6931396484375
 10
171.172265625
 20
63.568896484375
 10
171.0836181640625
 20
63.4446044921875
 10
170.99759521484376
 20
63.320361328125
 10
170.9134765625
 20
63.1961181640625
 10
170.83160400390625
 20
63.0718994140625
 10
170.7515869140625
 20
62.9476806640625
 10
170.6730712890625
 20
62.8234619140625
 10
170.59683837890626
 20
62.69921875
 10
170.52283935546876
 20
62.5750244140625
 10
170.4510986328125
 20
62.4508056640625
 10
170.38199462890626
 20
62.3266357421875
 10
170.3155029296875
 20
62.202490234375
 10
170.2520263671875
 20
62.0783203125
 10
170.19117431640626
 20
61.9541748046875
 10
170.1322021484375
 20
61.8300537109375
 10
170.0747314453125
 20
61.7058837890625
 10
170.01876220703124
 20
61.581787109375
 10
169.96390380859376
 20
61.4576416015625
 10
169.91019287109376
 20
61.3335205078125
 10
169.85760498046875
 20
61.2093994140625
 10
169.80615234375
 20
61.0852783203125
 10
169.75618896484374
 20
60.9611572265625
 10
169.70811767578124
 20
60.8370849609375
 10
169.66114501953126
 20
60.7129638671875
 10
169.61568603515624
 20
60.5888671875
 10
169.57137451171874
 20
60.464794921875
 10
169.5278076171875
 20
60.340673828125
 10
169.48572998046876
 20
60.2166259765625
 10
169.44515380859374
 20
60.092529296875
 10
169.40609130859374
 20
59.9684326171875
 10
169.3696533203125
 20
59.844384765625
 10
169.33583984375
 20
59.720703125
 10
169.30504150390624
 20
59.598095703125
 10
169.2764892578125
 20
59.475537109375
 10
169.24981689453125
 20
59.3554931640625
 10
169.2250244140625
 20
59.240478515625
 10
169.19647216796875
 20
59.116455078125
 10
169.1716796875
 20
59.0101318359375
 10
169.15025634765624
 20
58.9211669921875
 10
169.09766010528662
 20
58.728039148561585
 10
171.8926587119048
 20
41.08111246251137
 10
172.0064453125
 20
40.9049072265625
 10
172.05673828125
 20
40.8237548828125
 10
172.11605224609374
 20
40.7267333984375
 10
172.18480224609374
 20
40.6135498046875
 10
172.24615478515625
 20
40.5086181640625
 10
172.3097900390625
 20
40.3990478515625
 10
172.3753173828125
 20
40.287158203125
 10
172.44122314453125
 20
40.1752685546875
 10
172.5095458984375
 20
40.0624267578125
 10
172.57979736328124
 20
39.9492431640625
 10
172.65194091796874
 20
39.8360595703125
 10
172.72708740234376
 20
39.7228759765625
 10
172.8052490234375
 20
39.609716796875
 10
172.88526611328126
 20
39.496533203125
 10
172.96756591796876
 20
39.3833984375
 10
173.0510009765625
 20
39.270263671875
 10
173.13548583984374
 20
39.157421875
 10
173.21983642578124
 20
39.0456298828125
 10
173.30341796875
 20
38.9337890625
 10
173.38397216796875
 20
38.8242919921875
 10
173.46038818359375
 20
38.7193603515625
 10
173.54005126953126
 20
38.60625
 10
173.60762939453124
 20
38.509228515625
 10
173.66318359375
 20
38.428076171875
  0
ENDSEC
  0
SECTION
  2
OBJECTS
  0
DICTIONARY
  5
A
330
0
100
AcDbDictionary
281
1
  3
ACAD_COLOR
350
B
  3
ACAD_GROUP
350
C
  3
ACAD_LAYOUT
350
D
  3
ACAD_MATERIAL
350
E
  3
ACAD_MLEADERSTYLE
350
F
  3
ACAD_MLINESTYLE
350
10
  3
ACAD_PLOTSETTINGS
350
11
  3
ACAD_PLOTSTYLENAME
350
12
  3
ACAD_SCALELIST
350
14
  3
ACAD_TABLESTYLE
350
15
  3
ACAD_VISUALSTYLE
350
16
  3
EZDXF_META
350
2D
  0
DICTIONARY
  5
B
330
A
100
AcDbDictionary
281
1
  0
DICTIONARY
  5
C
330
A
100
AcDbDictionary
281
1
  0
DICTIONARY
  5
D
330
A
100
AcDbDictionary
281
1
  3
Model
350
1A
  3
Layout1
350
1E
  0
DICTIONARY
  5
E
330
A
100
AcDbDictionary
281
1
  3
ByBlock
350
1F
  3
ByLayer
350
20
  3
Global
350
21
  0
DICTIONARY
  5
F
330
A
100
AcDbDictionary
281
1
  3
Standard
350
2C
  0
DICTIONARY
  5
10
330
A
100
AcDbDictionary
281
1
  3
Standard
350
22
  0
DICTIONARY
  5
11
330
A
100
AcDbDictionary
281
1
  0
ACDBDICTIONARYWDFLT
  5
12
330
A
100
AcDbDictionary
281
1
  3
Normal
350
13
100
AcDbDictionaryWithDefault
340
13
  0
ACDBPLACEHOLDER
  5
13
330
12
  0
DICTIONARY
  5
14
330
A
100
AcDbDictionary
281
1
  0
DICTIONARY
  5
15
330
A
100
AcDbDictionary
281
1
  0
DICTIONARY
  5
16
330
A
100
AcDbDictionary
281
1
  0
LAYOUT
  5
1A
330
D
100
AcDbPlotSettings
  1

  4
A3
  6

 40
7.5
 41
20.0
 42
7.5
 43
20.0
 44
420.0
 45
297.0
 46
0.0
 47
0.0
 48
0.0
 49
0.0
140
0.0
141
0.0
142
1.0
143
1.0
 70
1024
 72
1
 73
0
 74
5
  7

 75
16
 76
0
 77
2
 78
300
147
1.0
148
0.0
149
0.0
100
AcDbLayout
  1
Model
 70
1
 71
0
 10
0.0
 20
0.0
 11
420.0
 21
297.0
 12
0.0
 22
0.0
 32
0.0
 14
1e+20
 24
1e+20
 34
1e+20
 15
-1e+20
 25
-1e+20
 35
-1e+20
146
0.0
 13
0.0
 23
0.0
 33
0.0
 16
1.0
 26
0.0
 36
0.0
 17
0.0
 27
1.0
 37
0.0
 76
1
330
17
  0
LAYOUT
  5
1E
330
D
100
AcDbPlotSettings
  1

  4
A3
  6

 40
7.5
 41
20.0
 42
7.5
 43
20.0
 44
420.0
 45
297.0
 46
0.0
 47
0.0
 48
0.0
 49
0.0
140
0.0
141
0.0
142
1.0
143
1.0
 70
0
 72
1
 73
0
 74
5
  7

 75
16
 76
0
 77
2
 78
300
147
1.0
148
0.0
149
0.0
100
AcDbLayout
  1
Layout1
 70
1
 71
1
 10
0.0
 20
0.0
 11
420.0
 21
297.0
 12
0.0
 22
0.0
 32
0.0
 14
1e+20
 24
1e+20
 34
1e+20
 15
-1e+20
 25
-1e+20
 35
-1e+20
146
0.0
 13
0.0
 23
0.0
 33
0.0
 16
1.0
 26
0.0
 36
0.0
 17
0.0
 27
1.0
 37
0.0
 76
1
330
1B
  0
MATERIAL
  5
1F
102
{ACAD_REACTORS
330
E
102
}
330
E
100
AcDbMaterial
  1
ByBlock
  2

 70
0
 40
1.0
 71
1
 41
1.0
 91
-1023410177
 42
1.0
 72
1
  3

 73
1
 74
1
 75
1
 44
0.5
 73
0
 45
1.0
 46
1.0
 77
1
  4

 78
1
 79
1
170
1
 48
1.0
171
1
  6

172
1
173
1
174
1
140
1.0
141
1.0
175
1
  7

176
1
177
1
178
1
143
1.0
179
1
  8

270
1
271
1
272
1
145
1.0
146
1.0
273
1
  9

274
1
275
1
276
1
 42
1.0
 72
1
  3

 73
1
 74
1
 75
1
 94
63
  0
MATERIAL
  5
20
102
{ACAD_REACTORS
330
E
102
}
330
E
100
AcDbMaterial
  1
ByLayer
  2

 70
0
 40
1.0
 71
1
 41
1.0
 91
-1023410177
 42
1.0
 72
1
  3

 73
1
 74
1
 75
1
 44
0.5
 73
0
 45
1.0
 46
1.0
 77
1
  4

 78
1
 79
1
170
1
 48
1.0
171
1
  6

172
1
173
1
174
1
140
1.0
141
1.0
175
1
  7

176
1
177
1
178
1
143
1.0
179
1
  8

270
1
271
1
272
1
145
1.0
146
1.0
273
1
  9

274
1
275
1
276
1
 42
1.0
 72
1
  3

 73
1
 74
1
 75
1
 94
63
  0
MATERIAL
  5
21
102
{ACAD_REACTORS
330
E
102
}
330
E
100
AcDbMaterial
  1
Global
  2

 70
0
 40
1.0
 71
1
 41
1.0
 91
-1023410177
 42
1.0
 72
1
  3

 73
1
 74
1
 75
1
 44
0.5
 73
0
 45
1.0
 46
1.0
 77
1
  4

 78
1
 79
1
170
1
 48
1.0
171
1
  6

172
1
173
1
174
1
140
1.0
141
1.0
175
1
  7

176
1
177
1
178
1
143
1.0
179
1
  8

270
1
271
1
272
1
145
1.0
146
1.0
273
1
  9

274
1
275
1
276
1
 42
1.0
 72
1
  3

 73
1
 74
1
 75
1
 94
63
  0
MLINESTYLE
  5
22
102
{ACAD_REACTORS
330
10
102
}
330
10
100
AcDbMlineStyle
  2
Standard
 70
0
  3

 62
256
 51
90.0
 52
90.0
 71
2
 49
0.5
 62
256
  6
BYLAYER
 49
-0.5
 62
256
  6
BYLAYER
  0
MLEADERSTYLE
  5
2C
102
{ACAD_REACTORS
330
F
102
}
330
F
100
AcDbMLeaderStyle
179
2
170
2
171
1
172
0
 90
2
 40
0.0
 41
0.0
173
1
 91
-1056964608
 92
-2
290
1
 42
2.0
291
1
 43
8.0
  3
Standard
 44
4.0
300

342
29
174
1
175
1
176
0
178
1
 93
-1056964608
 45
4.0
292
0
297
0
 46
4.0
 94
-1056964608
 47
1.0
 49
1.0
140
1.0
294
1
141
0.0
177
0
142
1.0
295
0
296
0
143
3.75
271
0
272
9
273
9
  0
DICTIONARY
  5
2D
330
A
100
AcDbDictionary
280
1
281
1
  3
CREATED_BY_EZDXF
350
2E
  3
WRITTEN_BY_EZDXF
350
32
  0
DICTIONARYVAR
  5
2E
330
2D
100
DictionaryVariables
280
0
  1
1.4.4 @ 2026-07-16T10:10:48.650278+00:00
  0
DICTIONARYVAR
  5
32
330
2D
100
DictionaryVariables
280
0
  1
1.4.4 @ 2026-07-16T10:10:48.669647+00:00
  0
ENDSEC
  0
EOF
