  0
SECTION
  2
HEADER
  9
$ACADVER
  1
AC1024
  9
$ACADMAINTVER
 70
6
  9
$DWGCODEPAGE
  3
ANSI_1252
  9
$LASTSAVEDBY
  1
ezdxf
  9
$INSBASE
 10
0.0
 20
0.0
 30
0.0
  9
$EXTMIN
 10
1e+20
 20
1e+20
 30
1e+20
  9
$EXTMAX
 10
-1e+20
 20
-1e+20
 30
-1e+20
  9
$LIMMIN
 10
0.0
 20
0.0
  9
$LIMMAX
 10
420.0
 20
297.0
  9
$ORTHOMODE
 70
0
  9
$REGENMODE
 70
1
  9
$FILLMODE
 70
1
  9
$QTEXTMODE
 70
0
  9
$MIRRTEXT
 70
1
  9
$LTSCALE
 40
1.0
  9
$ATTMODE
 70
1
  9
$TEXTSIZE
 40
2.5
  9
$TRACEWID
 40
1.0
  9
$TEXTSTYLE
  7
Standard
  9
$CLAYER
  8
0
  9
$CELTYPE
  6
ByLayer
  9
$CECOLOR
 62
256
  9
$CELTSCALE
 40
1.0
  9
$DISPSILH
 70
0
  9
$DIMSCALE
 40
1.0
  9
$DIMASZ
 40
2.5
  9
$DIMEXO
 40
0.625
  9
$DIMDLI
 40
3.75
  9
$DIMRND
 40
0.0
  9
$DIMDLE
 40
0.0
  9
$DIMEXE
 40
1.25
  9
$DIMTP
 40
0.0
  9
$DIMTM
 40
0.0
  9
$DIMTXT
 40
2.5
  9
$DIMCEN
 40
2.5
  9
$DIMTSZ
 40
0.0
  9
$DIMTOL
 70
0
  9
$DIMLIM
 70
0
  9
$DIMTIH
 70
0
  9
$DIMTOH
 70
0
  9
$DIMSE1
 70
0
  9
$DIMSE2
 70
0
  9
$DIMTAD
 70
1
  9
$DIMZIN
 70
8
  9
$DIMBLK
  1

  9
$DIMASO
 70
1
  9
$DIMSHO
 70
1
  9
$DIMPOST
  1

  9
$DIMAPOST
  1

  9
$DIMALT
 70
0
  9
$DIMALTD
 70
3
  9
$DIMALTF
 40
0.03937007874
  9
$DIMLFAC
 40
1.0
  9
$DIMTOFL
 70
1
  9
$DIMTVP
 40
0.0
  9
$DIMTIX
 70
0
  9
$DIMSOXD
 70
0
  9
$DIMSAH
 70
0
  9
$DIMBLK1
  1

  9
$DIMBLK2
  1

  9
$DIMSTYLE
  2
ISO-25
  9
$DIMCLRD
 70
0
  9
$DIMCLRE
 70
0
  9
$DIMCLRT
 70
0
  9
$DIMTFAC
 40
1.0
  9
$DIMGAP
 40
0.625
  9
$DIMJUST
 70
0
  9
$DIMSD1
 70
0
  9
$DIMSD2
 70
0
  9
$DIMTOLJ
 70
0
  9
$DIMTZIN
 70
8
  9
$DIMALTZ
 70
0
  9
$DIMALTTZ
 70
0
  9
$DIMUPT
 70
0
  9
$DIMDEC
 70
2
  9
$DIMTDEC
 70
2
  9
$DIMALTU
 70
2
  9
$DIMALTTD
 70
3
  9
$DIMTXSTY
  7
Standard
  9
$DIMAUNIT
 70
0
  9
$DIMADEC
 70
0
  9
$DIMALTRND
 40
0.0
  9
$DIMAZIN
 70
0
  9
$DIMDSEP
 70
44
  9
$DIMATFIT
 70
3
  9
$DIMFRAC
 70
0
  9
$DIMLDRBLK
  1

  9
$DIMLUNIT
 70
2
  9
$DIMLWD
 70
-2
  9
$DIMLWE
 70
-2
  9
$DIMTMOVE
 70
0
  9
$DIMFXL
 40
1.0
  9
$DIMFXLON
 70
0
  9
$DIMJOGANG
 40
0.785398163397
  9
$DIMTFILL
 70
0
  9
$DIMTFILLCLR
 70
0
  9
$DIMARCSYM
 70
0
  9
$DIMLTYPE
  6

  9
$DIMLTEX1
  6

  9
$DIMLTEX2
  6

  9
$DIMTXTDIRECTION
 70
0
  9
$LUNITS
 70
2
  9
$LUPREC
 70
4
  9
$SKETCHINC
 40
1.0
  9
$FILLETRAD
 40
10.0
  9
$AUNITS
 70
0
  9
$AUPREC
 70
2
  9
$MENU
  1
.
  9
$ELEVATION
 40
0.0
  9
$PELEVATION
 40
0.0
  9
$THICKNESS
 40
0.0
  9
$LIMCHECK
 70
0
  9
$CHAMFERA
 40
0.0
  9
$CHAMFERB
 40
0.0
  9
$CHAMFERC
 40
0.0
  9
$CHAMFERD
 40
0.0
  9
$SKPOLY
 70
0
  9
$TDCREATE
 40
2461231.615636574
  9
$TDUCREATE
 40
2458532.153996898
  9
$TDUPDATE
 40
2461231.615636574
  9
$TDUUPDATE
 40
2458532.1544311
  9
$TDINDWG
 40
0.0
  9
$TDUSRTIMER
 40
0.0
  9
$USRTIMER
 70
1
  9
$ANGBASE
 50
0.0
  9
$ANGDIR
 70
0
  9
$PDMODE
 70
0
  9
$PDSIZE
 40
0.0
  9
$PLINEWID
 40
0.0
  9
$SPLFRAME
 70
0
  9
$SPLINETYPE
 70
6
  9
$SPLINESEGS
 70
8
  9
$HANDSEED
  5
34
  9
$SURFTAB1
 70
6
  9
$SURFTAB2
 70
6
  9
$SURFTYPE
 70
6
  9
$SURFU
 70
6
  9
$SURFV
 70
6
  9
$UCSBASE
  2

  9
$UCSNAME
  2

  9
$UCSORG
 10
0.0
 20
0.0
 30
0.0
  9
$UCSXDIR
 10
1.0
 20
0.0
 30
0.0
  9
$UCSYDIR
 10
0.0
 20
1.0
 30
0.0
  9
$UCSORTHOREF
  2

  9
$UCSORTHOVIEW
 70
0
  9
$UCSORGTOP
 10
0.0
 20
0.0
 30
0.0
  9
$UCSORGBOTTOM
 10
0.0
 20
0.0
 30
0.0
  9
$UCSORGLEFT
 10
0.0
 20
0.0
 30
0.0
  9
$UCSORGRIGHT
 10
0.0
 20
0.0
 30
0.0
  9
$UCSORGFRONT
 10
0.0
 20
0.0
 30
0.0
  9
$UCSORGBACK
 10
0.0
 20
0.0
 30
0.0
  9
$PUCSBASE
  2

  9
$PUCSNAME
  2

  9
$PUCSORG
 10
0.0
 20
0.0
 30
0.0
  9
$PUCSXDIR
 10
1.0
 20
0.0
 30
0.0
  9
$PUCSYDIR
 10
0.0
 20
1.0
 30
0.0
  9
$PUCSORTHOREF
  2

  9
$PUCSORTHOVIEW
 70
0
  9
$PUCSORGTOP
 10
0.0
 20
0.0
 30
0.0
  9
$PUCSORGBOTTOM
 10
0.0
 20
0.0
 30
0.0
  9
$PUCSORGLEFT
 10
0.0
 20
0.0
 30
0.0
  9
$PUCSORGRIGHT
 10
0.0
 20
0.0
 30
0.0
  9
$PUCSORGFRONT
 10
0.0
 20
0.0
 30
0.0
  9
$PUCSORGBACK
 10
0.0
 20
0.0
 30
0.0
  9
$USERI1
 70
0
  9
$USERI2
 70
0
  9
$USERI3
 70
0
  9
$USERI4
 70
0
  9
$USERI5
 70
0
  9
$USERR1
 40
0.0
  9
$USERR2
 40
0.0
  9
$USERR3
 40
0.0
  9
$USERR4
 40
0.0
  9
$USERR5
 40
0.0
  9
$WORLDVIEW
 70
1
  9
$SHADEDGE
 70
3
  9
$SHADEDIF
 70
70
  9
$TILEMODE
 70
1
  9
$MAXACTVP
 70
64
  9
$PINSBASE
 10
0.0
 20
0.0
 30
0.0
  9
$PLIMCHECK
 70
0
  9
$PEXTMIN
 10
1e+20
 20
1e+20
 30
1e+20
  9
$PEXTMAX
 10
-1e+20
 20
-1e+20
 30
-1e+20
  9
$PLIMMIN
 10
0.0
 20
0.0
  9
$PLIMMAX
 10
420.0
 20
297.0
  9
$UNITMODE
 70
0
  9
$VISRETAIN
 70
1
  9
$PLINEGEN
 70
0
  9
$PSLTSCALE
 70
1
  9
$TREEDEPTH
 70
3020
  9
$CMLSTYLE
  2
Standard
  9
$CMLJUST
 70
0
  9
$CMLSCALE
 40
20.0
  9
$PROXYGRAPHICS
 70
1
  9
$MEASUREMENT
 70
1
  9
$CELWEIGHT
370
-1
  9
$ENDCAPS
280
0
  9
$JOINSTYLE
280
0
  9
$LWDISPLAY
290
0
  9
$INSUNITS
 70
6
  9
$HYPERLINKBASE
  1

  9
$STYLESHEET
  1

  9
$XEDIT
290
1
  9
$CEPSNTYPE
380
0
  9
$PSTYLEMODE
290
1
  9
$FINGERPRINTGUID
  2
{8612181F-375C-48BE-B611-34A7A8A2D3F0}
  9
$VERSIONGUID
  2
{6A2D79F0-A610-4C1F-ACD3-57F6E9295C81}
  9
$EXTNAMES
290
1
  9
$PSVPSCALE
 40
0.0
  9
$OLESTARTUP
290
0
  9
$SORTENTS
280
127
  9
$INDEXCTL
280
0
  9
$HIDETEXT
280
1
  9
$XCLIPFRAME
280
1
  9
$HALOGAP
280
0
  9
$OBSCOLOR
 70
257
  9
$OBSLTYPE
280
0
  9
$INTERSECTIONDISPLAY
280
0
  9
$INTERSECTIONCOLOR
 70
257
  9
$DIMASSOC
280
2
  9
$PROJECTNAME
  1

  9
$CAMERADISPLAY
290
0
  9
$LENSLENGTH
 40
50.0
  9
$CAMERAHEIGHT
 40
0.0
  9
$STEPSPERSEC
 40
24.0
  9
$STEPSIZE
 40
100.0
  9
$3DDWFPREC
 40
2.0
  9
$PSOLWIDTH
 40
0.005
  9
$PSOLHEIGHT
 40
0.08
  9
$LOFTANG1
 40
1.570796326795
  9
$LOFTANG2
 40
1.570796326795
  9
$LOFTMAG1
 40
0.0
  9
$LOFTMAG2
 40
0.0
  9
$LOFTPARAM
 70
7
  9
$LOFTNORMALS
280
1
  9
$LATITUDE
 40
37.795
  9
$LONGITUDE
 40
-122.394
  9
$NORTHDIRECTION
 40
0.0
  9
$TIMEZONE
 70
-8000
  9
$LIGHTGLYPHDISPLAY
280
1
  9
$TILEMODELIGHTSYNCH
280
1
  9
$CMATERIAL
347
20
  9
$SOLIDHIST
280
0
  9
$SHOWHIST
280
1
  9
$DWFFRAME
280
2
  9
$DGNFRAME
280
2
  9
$REALWORLDSCALE
290
1
  9
$INTERFERECOLOR
 62
256
  9
$CSHADOW
280
0
  9
$SHADOWPLANELOCATION
 40
0.0
  0
ENDSEC
  0
SECTION
  2
CLASSES
  0
CLASS
  1
ACDBDICTIONARYWDFLT
  2
AcDbDictionaryWithDefault
  3
ObjectDBX Classes
 90
0
 91
0
280
0
281
0
  0
CLASS
  1
SUN
  2
AcDbSun
  3
SCENEOE
 90
1153
 91
0
280
0
281
0
  0
CLASS
  1
VISUALSTYLE
  2
AcDbVisualStyle
  3
ObjectDBX Classes
 90
4095
 91
0
280
0
281
0
  0
CLASS
  1
MATERIAL
  2
AcDbMaterial
  3
ObjectDBX Classes
 90
1153
 91
0
280
0
281
0
  0
CLASS
  1
SCALE
  2
AcDbScale
  3
ObjectDBX Classes
 90
1153
 91
0
280
0
281
0
  0
CLASS
  1
TABLESTYLE
  2
AcDbTableStyle
  3
ObjectDBX Classes
 90
4095
 91
0
280
0
281
0
  0
CLASS
  1
MLEADERSTYLE
  2
AcDbMLeaderStyle
  3
ACDB_MLEADERSTYLE_CLASS
 90
4095
 91
0
280
0
281
0
  0
CLASS
  1
DICTIONARYVAR
  2
AcDbDictionaryVar
  3
ObjectDBX Classes
 90
0
 91
0
280
0
281
0
  0
CLASS
  1
CELLSTYLEMAP
  2
AcDbCellStyleMap
  3
ObjectDBX Classes
 90
1152
 91
0
280
0
281
0
  0
CLASS
  1
MENTALRAYRENDERSETTINGS
  2
AcDbMentalRayRenderSettings
  3
SCENEOE
 90
1024
 91
0
280
0
281
0
  0
CLASS
  1
ACDBDETAILVIEWSTYLE
  2
AcDbDetailViewStyle
  3
ObjectDBX Classes
 90
1025
 91
0
280
0
281
0
  0
CLASS
  1
ACDBSECTIONVIEWSTYLE
  2
AcDbSectionViewStyle
  3
ObjectDBX Classes
 90
1025
 91
0
280
0
281
0
  0
CLASS
  1
RASTERVARIABLES
  2
AcDbRasterVariables
  3
ISM
 90
0
 91
0
280
0
281
0
  0
CLASS
  1
LAYOUT
  2
AcDbLayout
  3
ObjectDBX Classes
 90
0
 91
0
280
0
281
0
  0
CLASS
  1
ACDBPLACEHOLDER
  2
AcDbPlaceHolder
  3
ObjectDBX Classes
 90
0
 91
0
280
0
281
0
  0
ENDSEC
  0
SECTION
  2
TABLES
  0
TABLE
  2
VPORT
  5
8
330
0
100
AcDbSymbolTable
 70
1
  0
VPORT
  5
23
330
8
100
AcDbSymbolTableRecord
100
AcDbViewportTableRecord
  2
*Active
 70
0
 10
0.0
 20
0.0
 11
1.0
 21
1.0
 12
0.0
 22
0.0
 13
0.0
 23
0.0
 14
0.5
 24
0.5
 15
0.5
 25
0.5
 16
0.0
 26
0.0
 36
1.0
 17
0.0
 27
0.0
 37
0.0
 40
1000.0
 41
1.34
 42
50.0
 43
0.0
 44
0.0
 50
0.0
 51
0.0
 71
0
 72
1000
 73
1
 74
3
 75
0
 76
0
 77
0
 78
0
281
0
 65
0
146
0.0
  0
ENDTAB
  0
TABLE
  2
LTYPE
  5
2
330
0
100
AcDbSymbolTable
 70
3
  0
LTYPE
  5
24
330
2
100
AcDbSymbolTableRecord
100
AcDbLinetypeTableRecord
  2
ByBlock
 70
0
  3

 72
65
 73
0
 40
0.0
  0
LTYPE
  5
25
330
2
100
AcDbSymbolTableRecord
100
AcDbLinetypeTableRecord
  2
ByLayer
 70
0
  3

 72
65
 73
0
 40
0.0
  0
LTYPE
  5
26
330
2
100
AcDbSymbolTableRecord
100
AcDbLinetypeTableRecord
  2
Continuous
 70
0
  3

 72
65
 73
0
 40
0.0
  0
ENDTAB
  0
TABLE
  2
LAYER
  5
1
330
0
100
AcDbSymbolTable
 70
2
  0
LAYER
  5
27
330
1
100
AcDbSymbolTableRecord
100
AcDbLayerTableRecord
  2
0
 70
0
 62
7
  6
Continuous
370
-3
390
13
347
21
  0
LAYER
  5
28
330
1
100
AcDbSymbolTableRecord
100
AcDbLayerTableRecord
  2
Defpoints
 70
0
 62
7
  6
Continuous
290
0
370
-3
390
13
347
21
  0
ENDTAB
  0
TABLE
  2
STYLE
  5
5
330
0
100
AcDbSymbolTable
 70
1
  0
STYLE
  5
29
330
5
100
AcDbSymbolTableRecord
100
AcDbTextStyleTableRecord
  2
Standard
 70
0
 40
0.0
 41
1.0
 50
0.0
 71
0
 42
2.5
  3
txt
  4

  0
ENDTAB
  0
TABLE
  2
VIEW
  5
7
330
0
100
AcDbSymbolTable
 70
0
  0
ENDTAB
  0
TABLE
  2
UCS
  5
6
330
0
100
AcDbSymbolTable
 70
0
  0
ENDTAB
  0
TABLE
  2
APPID
  5
3
330
0
100
AcDbSymbolTable
 70
3
  0
APPID
  5
2A
330
3
100
AcDbSymbolTableRecord
100
AcDbRegAppTableRecord
  2
ACAD
 70
0
  0
APPID
  5
31
330
3
100
AcDbSymbolTableRecord
100
AcDbRegAppTableRecord
  2
HATCHBACKGROUNDCOLOR
 70
0
  0
APPID
  5
32
330
3
100
AcDbSymbolTableRecord
100
AcDbRegAppTableRecord
  2
EZDXF
 70
0
  0
ENDTAB
  0
TABLE
  2
DIMSTYLE
  5
4
330
0
100
AcDbSymbolTable
 70
1
100
AcDbDimStyleTable
  0
DIMSTYLE
105
2B
330
4
100
AcDbSymbolTableRecord
100
AcDbDimStyleTableRecord
  2
Standard
 70
0
 40
1.0
 41
2.5
 42
0.625
 43
3.75
 44
1.25
 45
0.0
 46
0.0
 47
0.0
 48
0.0
 49
2.5
140
2.5
141
2.5
142
0.0
143
0.03937007874
144
1.0
145
0.0
146
1.0
147
0.625
148
0.0
 69
0
 70
0
 71
0
 72
0
 73
0
 74
0
 75
0
 76
0
 77
1
 78
8
 79
3
170
0
171
3
172
1
173
0
174
0
175
0
176
0
177
0
178
0
179
2
271
2
272
2
273
2
274
3
275
0
276
0
277
2
278
44
279
0
280
0
281
0
282
0
283
0
284
8
285
0
286
0
288
0
289
3
290
0
371
-2
372
-2
  0
ENDTAB
  0
TABLE
  2
BLOCK_RECORD
  5
9
330
0
100
AcDbSymbolTable
 70
2
  0
BLOCK_RECORD
  5
17
330
9
100
AcDbSymbolTableRecord
100
AcDbBlockTableRecord
  2
*Model_Space
340
1A
 70
0
280
1
281
0
  0
BLOCK_RECORD
  5
1B
330
9
100
AcDbSymbolTableRecord
100
AcDbBlockTableRecord
  2
*Paper_Space
340
1E
 70
0
280
1
281
0
  0
ENDTAB
  0
ENDSEC
  0
SECTION
  2
BLOCKS
  0
BLOCK
  5
18
330
17
100
AcDbEntity
  8
0
100
AcDbBlockBegin
  2
*Model_Space
 70
0
 10
0.0
 20
0.0
 30
0.0
  3
*Model_Space
  1

  0
ENDBLK
  5
19
330
17
100
AcDbEntity
  8
0
100
AcDbBlockEnd
  0
BLOCK
  5
1C
330
1B
100
AcDbEntity
  8
0
100
AcDbBlockBegin
  2
*Paper_Space
 70
0
 10
0.0
 20
0.0
 30
0.0
  3
*Paper_Space
  1

  0
ENDBLK
  5
1D
330
1B
100
AcDbEntity
  8
0
100
AcDbBlockEnd
  0
ENDSEC
  0
SECTION
  2
ENTITIES
  0
LWPOLYLINE
  5
2F
330
17
100
AcDbEntity
  8
0
100
AcDbPolyline
 90
169
 70
1
 10
174.1498291015625
 20
42.23857421875
 10
174.4682861328125
 20
42.3748046875
 10
174.61455078125
 20
42.4392822265625
 10
174.78853759765624
 20
42.51796875
 10
174.98978271484376
 20
42.6120849609375
 10
175.17257080078124
 20
42.703173828125
 10
175.3605712890625
 20
42.803759765625
 10
175.5454345703125
 20
42.9095458984375
 10
175.71883544921874
 20
43.0161865234375
 10
175.90135498046874
 20
43.140576171875
 10
176.0561279296875
 20
43.2507568359375
 10
176.1836181640625
 20
43.3455322265625
 10
176.4511962890625
 20
43.5607177734375
 10
176.4511962890625
 20
72.6056396484375
 10
176.71602783203124
 20
72.8247314453125
 10
176.84202880859374
 20
72.92529296875
 10
176.99608154296874
 20
73.0447509765625
 10
177.18067626953126
 20
73.1831298828125
 10
177.36063232421876
 20
73.3092529296875
 10
177.55516357421874
 20
73.437939453125
 10
177.76390380859374
 20
73.566748046875
 10
177.9780029296875
 20
73.6899169921875
 10
178.19263916015626
 20
73.806591796875
 10
178.4354736328125
 20
73.9291748046875
 10
178.64774169921876
 20
74.032861328125
 10
178.82843017578125
 20
74.118408203125
 10
179.22926025390626
 20
74.3000244140625
 10
182.580029296875
 20
74.3000244140625
 10
182.8380615234375
 20
74.4639404296875
 10
182.95509033203126
 20
74.5397705078125
 10
183.09324951171874
 20
74.6315673828125
 10
183.25167236328124
 20
74.7406005859375
 10
183.39305419921874
 20
74.844775390625
 10
183.5345703125
 20
74.957177734375
 10
183.67193603515625
 20
75.076416015625
 10
183.800390625
 20
75.2004638671875
 10
183.9200927734375
 20
75.330517578125
 10
184.02952880859374
 20
75.464501953125
 10
184.1286376953125
 20
75.600439453125
 10
184.21885986328124
 20
75.738720703125
 10
184.30032958984376
 20
75.8756591796875
 10
184.3727783203125
 20
76.007568359375
 10
184.44674072265624
 20
76.150244140625
 10
184.50838623046874
 20
76.2725341796875
 10
184.5591552734375
 20
76.3748779296875
 10
184.66866455078124
 20
76.5969970703125
 10
184.66866455078124
 20
94.11885986328124
 10
184.60115966796874
 20
94.3377685546875
 10
184.5704345703125
 20
94.43858642578125
 10
184.53240966796875
 20
94.55909423828125
 10
184.48616943359374
 20
94.6996826171875
 10
184.44049072265625
 20
94.83001708984375
 10
184.38701171875
 20
94.96607666015625
 10
184.32474365234376
 20
95.1045654296875
 10
184.25361328125
 20
95.24222412109376
 10
184.17275390625
 20
95.3799072265625
 10
184.08214111328124
 20
95.51636962890625
 10
183.9813232421875
 20
95.650390625
 10
183.8707275390625
 20
95.78118896484375
 10
183.7521728515625
 20
95.90758056640625
 10
183.6269775390625
 20
96.02916259765625
 10
183.4960693359375
 20
96.14512939453125
 10
183.35982666015624
 20
96.2547119140625
 10
183.22000732421876
 20
96.35670166015625
 10
183.07886962890626
 20
96.45064697265624
 10
182.93597412109375
 20
96.53699951171875
 10
182.79478759765624
 20
96.61531982421874
 10
182.65870361328126
 20
96.68472900390626
 10
182.5114990234375
 20
96.75279541015625
 10
182.38531494140625
 20
96.8083740234375
 10
182.27974853515624
 20
96.85311279296874
 10
182.0506103515625
 20
96.94459228515625
 10
162.1013427734375
 20
96.94459228515625
 10
161.85963134765626
 20
96.86546630859375
 10
161.7494140625
 20
96.82938232421876
 10
161.61875
 20
96.7855224609375
 10
161.46810302734374
 20
96.73270263671876
 10
161.3319091796875
 20
96.68079833984375
 10
161.19381103515624
 20
96.62166748046874
 10
161.05877685546875
 20
96.55416259765624
 10
160.930859375
 20
96.47789306640625
 10
160.80963134765625
 20
96.39166259765625
 10
160.69727783203126
 20
96.29508056640626
 10
160.5947265625
 20
96.18857421875
 10
160.50286865234375
 20
96.07330322265625
 10
160.42169189453125
 20
95.95050048828125
 10
160.35028076171875
 20
95.8221435546875
 10
160.2882080078125
 20
95.6898193359375
 10
160.23546142578124
 20
95.55472412109376
 10
160.19117431640626
 20
95.41806640625
 10
160.1548828125
 20
95.2806396484375
 10
160.12479248046876
 20
95.14283447265625
 10
160.09959716796874
 20
95.0054443359375
 10
160.07840576171876
 20
94.86927490234375
 10
160.0590087890625
 20
94.73310546875
 10
160.04012451171874
 20
94.59974365234375
 10
160.02091064453126
 20
94.47200927734374
 10
159.9934814453125
 20
94.3342041015625
 10
159.96826171875
 20
94.2160888671875
 10
159.9452392578125
 20
94.11724853515625
 10
159.88284912109376
 20
93.90263671875
 10
159.88284912109376
 20
77.3404541015625
 10
159.95010986328126
 20
77.1257568359375
 10
159.97862548828124
 20
77.0268310546875
 10
160.0125
 20
76.908642578125
 10
160.0526123046875
 20
76.7707275390625
 10
160.08914794921876
 20
76.6432861328125
 10
160.1296875
 20
76.510986328125
 10
160.17552490234374
 20
76.377099609375
 10
160.22672119140626
 20
76.2448486328125
 10
160.28544921875
 20
76.1137939453125
 10
160.35172119140626
 20
75.9855224609375
 10
160.4259765625
 20
75.8616943359375
 10
160.50909423828125
 20
75.74228515625
 10
160.60064697265625
 20
75.627685546875
 10
160.6992919921875
 20
75.518310546875
 10
160.80545654296876
 20
75.4149169921875
 10
160.9187255859375
 20
75.3175537109375
 10
161.0390625
 20
75.2261962890625
 10
161.1656005859375
 20
75.1400634765625
 10
161.29744873046874
 20
75.059912109375
 10
161.4341796875
 20
74.9857666015625
 10
161.57578125
 20
74.9176513671875
 10
161.72044677734374
 20
74.8547119140625
 10
161.86644287109374
 20
74.7965576171875
 10
162.01424560546874
 20
74.742041015625
 10
162.16024169921874
 20
74.6919189453125
 10
162.3009033203125
 20
74.6458251953125
 10
162.4531005859375
 20
74.596484375
 10
162.5835693359375
 20
74.5544189453125
 10
162.69271240234374
 20
74.5192138671875
 10
162.92965087890624
 20
74.441162109375
 10
165.51954345703126
 20
74.441162109375
 10
165.86082763671874
 20
74.2122314453125
 10
166.0086669921875
 20
74.1074462890625
 10
166.1780517578125
 20
73.9849609375
 10
166.36553955078125
 20
73.8472900390625
 10
166.5406005859375
 20
73.7095703125
 10
166.69400634765626
 20
73.5869873046875
 10
166.82274169921874
 20
73.482177734375
 10
167.09517822265624
 20
73.2530029296875
 10
167.09517822265624
 20
43.6708984375
 10
167.34417724609375
 20
43.4678955078125
 10
167.45887451171876
 20
43.3796142578125
 10
167.59593505859374
 20
43.2781005859375
 10
167.75582275390624
 20
43.1650146484375
 10
167.90401611328124
 20
43.0717529296875
 10
168.05870361328124
 20
42.9845458984375
 10
168.21661376953125
 20
42.9070068359375
 10
168.37449951171874
 20
42.8414306640625
 10
168.5337646484375
 20
42.7854736328125
 10
168.69344482421874
 20
42.7394775390625
 10
168.85311279296874
 20
42.702734375
 10
169.01275634765625
 20
42.6731689453125
 10
169.17237548828126
 20
42.6487548828125
 10
169.33197021484375
 20
42.6275634765625
 10
169.4915771484375
 20
42.6091552734375
 10
169.65115966796876
 20
42.5935546875
 10
169.81075439453124
 20
42.5787353515625
 10
169.9703369140625
 20
42.562744140625
 10
170.1294921875
 20
42.5439453125
 10
170.28724365234376
 20
42.521923828125
 10
170.44500732421875
 20
42.4963134765625
 10
170.59952392578126
 20
42.467041015625
 10
170.74754638671874
 20
42.4340576171875
 10
170.90721435546874
 20
42.3916748046875
 10
171.0440673828125
 20
42.3529296875
 10
171.15860595703126
 20
42.3189453125
 10
171.40726318359376
 20
42.23857421875
  0
LWPOLYLINE
  5
30
330
17
100
AcDbEntity
  8
0
100
AcDbPolyline
 90
143
 70
1
 10
173.8340576171875
 20
88.4705810546875
 10
173.686767578125
 20
88.4346435546875
 10
173.53841552734374
 20
88.40322265625
 10
173.38912353515624
 20
88.3761474609375
 10
173.239111328125
 20
88.353369140625
 10
173.08856201171875
 20
88.334765625
 10
172.9375732421875
 20
88.3202392578125
 10
172.78629150390626
 20
88.309814453125
 10
172.63480224609376
 20
88.303369140625
 10
172.48321533203125
 20
88.3010009765625
 10
172.331591796875
 20
88.3026611328125
 10
172.18006591796876
 20
88.3084716796875
 10
172.0287109375
 20
88.3184814453125
 10
171.87764892578124
 20
88.3328125
 10
171.7269775390625
 20
88.3515869140625
 10
171.57686767578124
 20
88.374951171875
 10
171.42740478515626
 20
88.4030517578125
 10
171.27884521484376
 20
88.43603515625
 10
171.13133544921874
 20
88.4740966796875
 10
170.98509521484374
 20
88.5173095703125
 10
170.84036865234376
 20
88.5657958984375
 10
170.6974609375
 20
88.6196533203125
 10
170.556640625
 20
88.6789306640625
 10
170.4182373046875
 20
88.74365234375
 10
170.2826171875
 20
88.81376953125
 10
170.15013427734374
 20
88.8892822265625
 10
170.0211181640625
 20
88.9700927734375
 10
169.8959716796875
 20
89.0560302734375
 10
169.77513427734374
 20
89.1469482421875
 10
169.65892333984374
 20
89.2426513671875
 10
169.5477783203125
 20
89.34287109375
 10
169.442041015625
 20
89.4473876953125
 10
169.3421142578125
 20
89.5558349609375
 10
169.24835205078125
 20
89.6679931640625
 10
169.161083984375
 20
89.783447265625
 10
169.08062744140625
 20
89.9019775390625
 10
169.00728759765624
 20
90.0231201171875
 10
168.94132080078126
 20
90.14658203125
 10
168.882958984375
 20
90.2720458984375
 10
168.8324462890625
 20
90.39912109375
 10
168.78992919921876
 20
90.5275390625
 10
168.7555908203125
 20
90.65693359375
 10
168.72952880859376
 20
90.786962890625
 10
168.71187744140624
 20
90.917333984375
 10
168.7026611328125
 20
91.04775390625
 10
168.70194091796876
 20
91.1778564453125
 10
168.70972900390626
 20
91.3074462890625
 10
168.7260009765625
 20
91.4361328125
 10
168.75072021484374
 20
91.563720703125
 10
168.78375244140625
 20
91.68984375
 10
168.82503662109374
 20
91.8142578125
 10
168.8744140625
 20
91.936669921875
 10
168.931689453125
 20
92.0568115234375
 10
168.9966796875
 20
92.1744140625
 10
169.069140625
 20
92.28919677734375
 10
169.1488037109375
 20
92.40089111328125
 10
169.23536376953126
 20
92.50928955078125
 10
169.32850341796876
 20
92.614111328125
 10
169.4279052734375
 20
92.71519775390625
 10
169.5331787109375
 20
92.8122802734375
 10
169.64395751953126
 20
92.9052001953125
 10
169.75985107421874
 20
92.99381103515626
 10
169.88048095703124
 20
93.07794189453125
 10
170.0053955078125
 20
93.15750732421876
 10
170.134228515625
 20
93.23240966796875
 10
170.26658935546874
 20
93.302587890625
 10
170.40208740234374
 20
93.36798095703125
 10
170.5403564453125
 20
93.4285888671875
 10
170.6810546875
 20
93.48441162109376
 10
170.8238525390625
 20
93.5354736328125
 10
170.9684814453125
 20
93.58177490234375
 10
171.1146240234375
 20
93.6234130859375
 10
171.262060546875
 20
93.6604248046875
 10
171.41055908203126
 20
93.6928955078125
 10
171.5599365234375
 20
93.72088623046875
 10
171.7099853515625
 20
93.74444580078125
 10
171.86058349609374
 20
93.7636474609375
 10
172.011572265625
 20
93.778564453125
 10
172.16285400390626
 20
93.7892333984375
 10
172.31429443359374
 20
93.795703125
 10
172.4658203125
 20
93.7979736328125
 10
172.61732177734376
 20
93.7960693359375
 10
172.768701171875
 20
93.789990234375
 10
172.919873046875
 20
93.77969970703126
 10
173.07071533203126
 20
93.76519775390625
 10
173.22109375
 20
93.74642333984374
 10
173.3708740234375
 20
93.7233154296875
 10
173.5199462890625
 20
93.695849609375
 10
173.66805419921874
 20
93.66392822265625
 10
173.8150634765625
 20
93.62750244140625
 10
173.9607421875
 20
93.58651123046874
 10
174.10484619140624
 20
93.54088134765625
 10
174.2470947265625
 20
93.49056396484374
 10
174.3872314453125
 20
93.43553466796875
 10
174.52489013671874
 20
93.3757568359375
 10
174.659814453125
 20
93.31124267578124
 10
174.7916015625
 20
93.24197998046876
 10
174.919921875
 20
93.168017578125
 10
175.04439697265624
 20
93.089404296875
 10
175.16468505859376
 20
93.00623779296875
 10
175.28040771484376
 20
92.9186279296875
 10
175.3912109375
 20
92.82669677734376
 10
175.496728515625
 20
92.73055419921874
 10
175.59664306640624
 20
92.63045654296874
 10
175.6906005859375
 20
92.5265625
 10
175.7783203125
 20
92.4190673828125
 10
175.85950927734376
 20
92.30821533203125
 10
175.93389892578125
 20
92.19423828125
 10
176.00123291015626
 20
92.0774169921875
 10
176.06131591796876
 20
91.9579833984375
 10
176.11392822265626
 20
91.8362548828125
 10
176.158935546875
 20
91.712451171875
 10
176.19615478515624
 20
91.5868896484375
 10
176.22552490234375
 20
91.4598876953125
 10
176.24688720703125
 20
91.33173828125
 10
176.26019287109375
 20
91.202685546875
 10
176.2654052734375
 20
91.073095703125
 10
176.2624755859375
 20
90.94326171875
 10
176.251416015625
 20
90.8135009765625
 10
176.2322265625
 20
90.6841064453125
 10
176.20496826171876
 20
90.5554931640625
 10
176.1697265625
 20
90.4278564453125
 10
176.1265625
 20
90.30166015625
 10
176.075634765625
 20
90.1771728515625
 10
176.01707763671874
 20
90.054736328125
 10
175.9510986328125
 20
89.9346923828125
 10
175.877880859375
 20
89.8174072265625
 10
175.79766845703125
 20
89.7031494140625
 10
175.7107421875
 20
89.59228515625
 10
175.61739501953124
 20
89.48505859375
 10
175.517919921875
 20
89.381787109375
 10
175.4126953125
 20
89.2827392578125
 10
175.30203857421876
 20
89.1881103515625
 10
175.1863525390625
 20
89.098095703125
 10
175.0659912109375
 20
89.0128662109375
 10
174.941357421875
 20
88.932568359375
 10
174.81280517578125
 20
88.8572509765625
 10
174.68072509765625
 20
88.7869873046875
 10
174.54552001953124
 20
88.721826171875
 10
174.4074951171875
 20
88.6616943359375
 10
174.267041015625
 20
88.606591796875
 10
174.12445068359375
 20
88.5564453125
 10
173.980029296875
 20
88.5111572265625
  0
ENDSEC
  0
SECTION
  2
OBJECTS
  0
DICTIONARY
  5
A
330
0
100
AcDbDictionary
281
1
  3
ACAD_COLOR
350
B
  3
ACAD_GROUP
350
C
  3
ACAD_LAYOUT
350
D
  3
ACAD_MATERIAL
350
E
  3
ACAD_MLEADERSTYLE
350
F
  3
ACAD_MLINESTYLE
350
10
  3
ACAD_PLOTSETTINGS
350
11
  3
ACAD_PLOTSTYLENAME
350
12
  3
ACAD_SCALELIST
350
14
  3
ACAD_TABLESTYLE
350
15
  3
ACAD_VISUALSTYLE
350
16
  3
EZDXF_META
350
2D
  0
DICTIONARY
  5
B
330
A
100
AcDbDictionary
281
1
  0
DICTIONARY
  5
C
330
A
100
AcDbDictionary
281
1
  0
DICTIONARY
  5
D
330
A
100
AcDbDictionary
281
1
  3
Model
350
1A
  3
Layout1
350
1E
  0
DICTIONARY
  5
E
330
A
100
AcDbDictionary
281
1
  3
ByBlock
350
1F
  3
ByLayer
350
20
  3
Global
350
21
  0
DICTIONARY
  5
F
330
A
100
AcDbDictionary
281
1
  3
Standard
350
2C
  0
DICTIONARY
  5
10
330
A
100
AcDbDictionary
281
1
  3
Standard
350
22
  0
DICTIONARY
  5
11
330
A
100
AcDbDictionary
281
1
  0
ACDBDICTIONARYWDFLT
  5
12
330
A
100
AcDbDictionary
281
1
  3
Normal
350
13
100
AcDbDictionaryWithDefault
340
13
  0
ACDBPLACEHOLDER
  5
13
330
12
  0
DICTIONARY
  5
14
330
A
100
AcDbDictionary
281
1
  0
DICTIONARY
  5
15
330
A
100
AcDbDictionary
281
1
  0
DICTIONARY
  5
16
330
A
100
AcDbDictionary
281
1
  0
LAYOUT
  5
1A
330
D
100
AcDbPlotSettings
  1

  4
A3
  6

 40
7.5
 41
20.0
 42
7.5
 43
20.0
 44
420.0
 45
297.0
 46
0.0
 47
0.0
 48
0.0
 49
0.0
140
0.0
141
0.0
142
1.0
143
1.0
 70
1024
 72
1
 73
0
 74
5
  7

 75
16
 76
0
 77
2
 78
300
147
1.0
148
0.0
149
0.0
100
AcDbLayout
  1
Model
 70
1
 71
0
 10
0.0
 20
0.0
 11
420.0
 21
297.0
 12
0.0
 22
0.0
 32
0.0
 14
1e+20
 24
1e+20
 34
1e+20
 15
-1e+20
 25
-1e+20
 35
-1e+20
146
0.0
 13
0.0
 23
0.0
 33
0.0
 16
1.0
 26
0.0
 36
0.0
 17
0.0
 27
1.0
 37
0.0
 76
1
330
17
  0
LAYOUT
  5
1E
330
D
100
AcDbPlotSettings
  1

  4
A3
  6

 40
7.5
 41
20.0
 42
7.5
 43
20.0
 44
420.0
 45
297.0
 46
0.0
 47
0.0
 48
0.0
 49
0.0
140
0.0
141
0.0
142
1.0
143
1.0
 70
0
 72
1
 73
0
 74
5
  7

 75
16
 76
0
 77
2
 78
300
147
1.0
148
0.0
149
0.0
100
AcDbLayout
  1
Layout1
 70
1
 71
1
 10
0.0
 20
0.0
 11
420.0
 21
297.0
 12
0.0
 22
0.0
 32
0.0
 14
1e+20
 24
1e+20
 34
1e+20
 15
-1e+20
 25
-1e+20
 35
-1e+20
146
0.0
 13
0.0
 23
0.0
 33
0.0
 16
1.0
 26
0.0
 36
0.0
 17
0.0
 27
1.0
 37
0.0
 76
1
330
1B
  0
MATERIAL
  5
1F
102
{ACAD_REACTORS
330
E
102
}
330
E
100
AcDbMaterial
  1
ByBlock
  2

 70
0
 40
1.0
 71
1
 41
1.0
 91
-1023410177
 42
1.0
 72
1
  3

 73
1
 74
1
 75
1
 44
0.5
 73
0
 45
1.0
 46
1.0
 77
1
  4

 78
1
 79
1
170
1
 48
1.0
171
1
  6

172
1
173
1
174
1
140
1.0
141
1.0
175
1
  7

176
1
177
1
178
1
143
1.0
179
1
  8

270
1
271
1
272
1
145
1.0
146
1.0
273
1
  9

274
1
275
1
276
1
 42
1.0
 72
1
  3

 73
1
 74
1
 75
1
 94
63
  0
MATERIAL
  5
20
102
{ACAD_REACTORS
330
E
102
}
330
E
100
AcDbMaterial
  1
ByLayer
  2

 70
0
 40
1.0
 71
1
 41
1.0
 91
-1023410177
 42
1.0
 72
1
  3

 73
1
 74
1
 75
1
 44
0.5
 73
0
 45
1.0
 46
1.0
 77
1
  4

 78
1
 79
1
170
1
 48
1.0
171
1
  6

172
1
173
1
174
1
140
1.0
141
1.0
175
1
  7

176
1
177
1
178
1
143
1.0
179
1
  8

270
1
271
1
272
1
145
1.0
146
1.0
273
1
  9

274
1
275
1
276
1
 42
1.0
 72
1
  3

 73
1
 74
1
 75
1
 94
63
  0
MATERIAL
  5
21
102
{ACAD_REACTORS
330
E
102
}
330
E
100
AcDbMaterial
  1
Global
  2

 70
0
 40
1.0
 71
1
 41
1.0
 91
-1023410177
 42
1.0
 72
1
  3

 73
1
 74
1
 75
1
 44
0.5
 73
0
 45
1.0
 46
1.0
 77
1
  4

 78
1
 79
1
170
1
 48
1.0
171
1
  6

172
1
173
1
174
1
140
1.0
141
1.0
175
1
  7

176
1
177
1
178
1
143
1.0
179
1
  8

270
1
271
1
272
1
145
1.0
146
1.0
273
1
  9

274
1
275
1
276
1
 42
1.0
 72
1
  3

 73
1
 74
1
 75
1
 94
63
  0
MLINESTYLE
  5
22
102
{ACAD_REACTORS
330
10
102
}
330
10
100
AcDbMlineStyle
  2
Standard
 70
0
  3

 62
256
 51
90.0
 52
90.0
 71
2
 49
0.5
 62
256
  6
BYLAYER
 49
-0.5
 62
256
  6
BYLAYER
  0
MLEADERSTYLE
  5
2C
102
{ACAD_REACTORS
330
F
102
}
330
F
100
AcDbMLeaderStyle
179
2
170
2
171
1
172
0
 90
2
 40
0.0
 41
0.0
173
1
 91
-1056964608
 92
-2
290
1
 42
2.0
291
1
 43
8.0
  3
Standard
 44
4.0
300

342
29
174
1
175
1
176
0
178
1
 93
-1056964608
 45
4.0
292
0
297
0
 46
4.0
 94
-1056964608
 47
1.0
 49
1.0
140
1.0
294
1
141
0.0
177
0
142
1.0
295
0
296
0
143
3.75
271
0
272
9
273
9
  0
DICTIONARY
  5
2D
330
A
100
AcDbDictionary
280
1
281
1
  3
CREATED_BY_EZDXF
350
2E
  3
WRITTEN_BY_EZDXF
350
33
  0
DICTIONARYVAR
  5
2E
330
2D
100
DictionaryVariables
280
0
  1
1.4.4 @ 2026-07-09T13:46:31.173270+00:00
  0
DICTIONARYVAR
  5
33
330
2D
100
DictionaryVariables
280
0
  1
1.4.4 @ 2026-07-09T13:46:31.180216+00:00
  0
ENDSEC
  0
EOF
