  0
SECTION
  2
HEADER
  9
$ACADVER
  1
AC1024
  9
$ACADMAINTVER
 70
6
  9
$DWGCODEPAGE
  3
ANSI_1252
  9
$LASTSAVEDBY
  1
ezdxf
  9
$INSBASE
 10
0.0
 20
0.0
 30
0.0
  9
$EXTMIN
 10
1e+20
 20
1e+20
 30
1e+20
  9
$EXTMAX
 10
-1e+20
 20
-1e+20
 30
-1e+20
  9
$LIMMIN
 10
0.0
 20
0.0
  9
$LIMMAX
 10
420.0
 20
297.0
  9
$ORTHOMODE
 70
0
  9
$REGENMODE
 70
1
  9
$FILLMODE
 70
1
  9
$QTEXTMODE
 70
0
  9
$MIRRTEXT
 70
1
  9
$LTSCALE
 40
1.0
  9
$ATTMODE
 70
1
  9
$TEXTSIZE
 40
2.5
  9
$TRACEWID
 40
1.0
  9
$TEXTSTYLE
  7
Standard
  9
$CLAYER
  8
0
  9
$CELTYPE
  6
ByLayer
  9
$CECOLOR
 62
256
  9
$CELTSCALE
 40
1.0
  9
$DISPSILH
 70
0
  9
$DIMSCALE
 40
1.0
  9
$DIMASZ
 40
2.5
  9
$DIMEXO
 40
0.625
  9
$DIMDLI
 40
3.75
  9
$DIMRND
 40
0.0
  9
$DIMDLE
 40
0.0
  9
$DIMEXE
 40
1.25
  9
$DIMTP
 40
0.0
  9
$DIMTM
 40
0.0
  9
$DIMTXT
 40
2.5
  9
$DIMCEN
 40
2.5
  9
$DIMTSZ
 40
0.0
  9
$DIMTOL
 70
0
  9
$DIMLIM
 70
0
  9
$DIMTIH
 70
0
  9
$DIMTOH
 70
0
  9
$DIMSE1
 70
0
  9
$DIMSE2
 70
0
  9
$DIMTAD
 70
1
  9
$DIMZIN
 70
8
  9
$DIMBLK
  1

  9
$DIMASO
 70
1
  9
$DIMSHO
 70
1
  9
$DIMPOST
  1

  9
$DIMAPOST
  1

  9
$DIMALT
 70
0
  9
$DIMALTD
 70
3
  9
$DIMALTF
 40
0.03937007874
  9
$DIMLFAC
 40
1.0
  9
$DIMTOFL
 70
1
  9
$DIMTVP
 40
0.0
  9
$DIMTIX
 70
0
  9
$DIMSOXD
 70
0
  9
$DIMSAH
 70
0
  9
$DIMBLK1
  1

  9
$DIMBLK2
  1

  9
$DIMSTYLE
  2
ISO-25
  9
$DIMCLRD
 70
0
  9
$DIMCLRE
 70
0
  9
$DIMCLRT
 70
0
  9
$DIMTFAC
 40
1.0
  9
$DIMGAP
 40
0.625
  9
$DIMJUST
 70
0
  9
$DIMSD1
 70
0
  9
$DIMSD2
 70
0
  9
$DIMTOLJ
 70
0
  9
$DIMTZIN
 70
8
  9
$DIMALTZ
 70
0
  9
$DIMALTTZ
 70
0
  9
$DIMUPT
 70
0
  9
$DIMDEC
 70
2
  9
$DIMTDEC
 70
2
  9
$DIMALTU
 70
2
  9
$DIMALTTD
 70
3
  9
$DIMTXSTY
  7
Standard
  9
$DIMAUNIT
 70
0
  9
$DIMADEC
 70
0
  9
$DIMALTRND
 40
0.0
  9
$DIMAZIN
 70
0
  9
$DIMDSEP
 70
44
  9
$DIMATFIT
 70
3
  9
$DIMFRAC
 70
0
  9
$DIMLDRBLK
  1

  9
$DIMLUNIT
 70
2
  9
$DIMLWD
 70
-2
  9
$DIMLWE
 70
-2
  9
$DIMTMOVE
 70
0
  9
$DIMFXL
 40
1.0
  9
$DIMFXLON
 70
0
  9
$DIMJOGANG
 40
0.785398163397
  9
$DIMTFILL
 70
0
  9
$DIMTFILLCLR
 70
0
  9
$DIMARCSYM
 70
0
  9
$DIMLTYPE
  6

  9
$DIMLTEX1
  6

  9
$DIMLTEX2
  6

  9
$DIMTXTDIRECTION
 70
0
  9
$LUNITS
 70
2
  9
$LUPREC
 70
4
  9
$SKETCHINC
 40
1.0
  9
$FILLETRAD
 40
10.0
  9
$AUNITS
 70
0
  9
$AUPREC
 70
2
  9
$MENU
  1
.
  9
$ELEVATION
 40
0.0
  9
$PELEVATION
 40
0.0
  9
$THICKNESS
 40
0.0
  9
$LIMCHECK
 70
0
  9
$CHAMFERA
 40
0.0
  9
$CHAMFERB
 40
0.0
  9
$CHAMFERC
 40
0.0
  9
$CHAMFERD
 40
0.0
  9
$SKPOLY
 70
0
  9
$TDCREATE
 40
2461238.4658449073
  9
$TDUCREATE
 40
2458532.153996898
  9
$TDUPDATE
 40
2461238.4658449073
  9
$TDUUPDATE
 40
2458532.1544311
  9
$TDINDWG
 40
0.0
  9
$TDUSRTIMER
 40
0.0
  9
$USRTIMER
 70
1
  9
$ANGBASE
 50
0.0
  9
$ANGDIR
 70
0
  9
$PDMODE
 70
0
  9
$PDSIZE
 40
0.0
  9
$PLINEWID
 40
0.0
  9
$SPLFRAME
 70
0
  9
$SPLINETYPE
 70
6
  9
$SPLINESEGS
 70
8
  9
$HANDSEED
  5
37
  9
$SURFTAB1
 70
6
  9
$SURFTAB2
 70
6
  9
$SURFTYPE
 70
6
  9
$SURFU
 70
6
  9
$SURFV
 70
6
  9
$UCSBASE
  2

  9
$UCSNAME
  2

  9
$UCSORG
 10
0.0
 20
0.0
 30
0.0
  9
$UCSXDIR
 10
1.0
 20
0.0
 30
0.0
  9
$UCSYDIR
 10
0.0
 20
1.0
 30
0.0
  9
$UCSORTHOREF
  2

  9
$UCSORTHOVIEW
 70
0
  9
$UCSORGTOP
 10
0.0
 20
0.0
 30
0.0
  9
$UCSORGBOTTOM
 10
0.0
 20
0.0
 30
0.0
  9
$UCSORGLEFT
 10
0.0
 20
0.0
 30
0.0
  9
$UCSORGRIGHT
 10
0.0
 20
0.0
 30
0.0
  9
$UCSORGFRONT
 10
0.0
 20
0.0
 30
0.0
  9
$UCSORGBACK
 10
0.0
 20
0.0
 30
0.0
  9
$PUCSBASE
  2

  9
$PUCSNAME
  2

  9
$PUCSORG
 10
0.0
 20
0.0
 30
0.0
  9
$PUCSXDIR
 10
1.0
 20
0.0
 30
0.0
  9
$PUCSYDIR
 10
0.0
 20
1.0
 30
0.0
  9
$PUCSORTHOREF
  2

  9
$PUCSORTHOVIEW
 70
0
  9
$PUCSORGTOP
 10
0.0
 20
0.0
 30
0.0
  9
$PUCSORGBOTTOM
 10
0.0
 20
0.0
 30
0.0
  9
$PUCSORGLEFT
 10
0.0
 20
0.0
 30
0.0
  9
$PUCSORGRIGHT
 10
0.0
 20
0.0
 30
0.0
  9
$PUCSORGFRONT
 10
0.0
 20
0.0
 30
0.0
  9
$PUCSORGBACK
 10
0.0
 20
0.0
 30
0.0
  9
$USERI1
 70
0
  9
$USERI2
 70
0
  9
$USERI3
 70
0
  9
$USERI4
 70
0
  9
$USERI5
 70
0
  9
$USERR1
 40
0.0
  9
$USERR2
 40
0.0
  9
$USERR3
 40
0.0
  9
$USERR4
 40
0.0
  9
$USERR5
 40
0.0
  9
$WORLDVIEW
 70
1
  9
$SHADEDGE
 70
3
  9
$SHADEDIF
 70
70
  9
$TILEMODE
 70
1
  9
$MAXACTVP
 70
64
  9
$PINSBASE
 10
0.0
 20
0.0
 30
0.0
  9
$PLIMCHECK
 70
0
  9
$PEXTMIN
 10
1e+20
 20
1e+20
 30
1e+20
  9
$PEXTMAX
 10
-1e+20
 20
-1e+20
 30
-1e+20
  9
$PLIMMIN
 10
0.0
 20
0.0
  9
$PLIMMAX
 10
420.0
 20
297.0
  9
$UNITMODE
 70
0
  9
$VISRETAIN
 70
1
  9
$PLINEGEN
 70
0
  9
$PSLTSCALE
 70
1
  9
$TREEDEPTH
 70
3020
  9
$CMLSTYLE
  2
Standard
  9
$CMLJUST
 70
0
  9
$CMLSCALE
 40
20.0
  9
$PROXYGRAPHICS
 70
1
  9
$MEASUREMENT
 70
1
  9
$CELWEIGHT
370
-1
  9
$ENDCAPS
280
0
  9
$JOINSTYLE
280
0
  9
$LWDISPLAY
290
0
  9
$INSUNITS
 70
6
  9
$HYPERLINKBASE
  1

  9
$STYLESHEET
  1

  9
$XEDIT
290
1
  9
$CEPSNTYPE
380
0
  9
$PSTYLEMODE
290
1
  9
$FINGERPRINTGUID
  2
{198EC119-890A-4957-9979-A238EB1E761A}
  9
$VERSIONGUID
  2
{9052A115-7D6A-4155-A9F0-6F88311C15EA}
  9
$EXTNAMES
290
1
  9
$PSVPSCALE
 40
0.0
  9
$OLESTARTUP
290
0
  9
$SORTENTS
280
127
  9
$INDEXCTL
280
0
  9
$HIDETEXT
280
1
  9
$XCLIPFRAME
280
1
  9
$HALOGAP
280
0
  9
$OBSCOLOR
 70
257
  9
$OBSLTYPE
280
0
  9
$INTERSECTIONDISPLAY
280
0
  9
$INTERSECTIONCOLOR
 70
257
  9
$DIMASSOC
280
2
  9
$PROJECTNAME
  1

  9
$CAMERADISPLAY
290
0
  9
$LENSLENGTH
 40
50.0
  9
$CAMERAHEIGHT
 40
0.0
  9
$STEPSPERSEC
 40
24.0
  9
$STEPSIZE
 40
100.0
  9
$3DDWFPREC
 40
2.0
  9
$PSOLWIDTH
 40
0.005
  9
$PSOLHEIGHT
 40
0.08
  9
$LOFTANG1
 40
1.570796326795
  9
$LOFTANG2
 40
1.570796326795
  9
$LOFTMAG1
 40
0.0
  9
$LOFTMAG2
 40
0.0
  9
$LOFTPARAM
 70
7
  9
$LOFTNORMALS
280
1
  9
$LATITUDE
 40
37.795
  9
$LONGITUDE
 40
-122.394
  9
$NORTHDIRECTION
 40
0.0
  9
$TIMEZONE
 70
-8000
  9
$LIGHTGLYPHDISPLAY
280
1
  9
$TILEMODELIGHTSYNCH
280
1
  9
$CMATERIAL
347
20
  9
$SOLIDHIST
280
0
  9
$SHOWHIST
280
1
  9
$DWFFRAME
280
2
  9
$DGNFRAME
280
2
  9
$REALWORLDSCALE
290
1
  9
$INTERFERECOLOR
 62
256
  9
$CSHADOW
280
0
  9
$SHADOWPLANELOCATION
 40
0.0
  0
ENDSEC
  0
SECTION
  2
CLASSES
  0
CLASS
  1
ACDBDICTIONARYWDFLT
  2
AcDbDictionaryWithDefault
  3
ObjectDBX Classes
 90
0
 91
0
280
0
281
0
  0
CLASS
  1
SUN
  2
AcDbSun
  3
SCENEOE
 90
1153
 91
0
280
0
281
0
  0
CLASS
  1
VISUALSTYLE
  2
AcDbVisualStyle
  3
ObjectDBX Classes
 90
4095
 91
0
280
0
281
0
  0
CLASS
  1
MATERIAL
  2
AcDbMaterial
  3
ObjectDBX Classes
 90
1153
 91
0
280
0
281
0
  0
CLASS
  1
SCALE
  2
AcDbScale
  3
ObjectDBX Classes
 90
1153
 91
0
280
0
281
0
  0
CLASS
  1
TABLESTYLE
  2
AcDbTableStyle
  3
ObjectDBX Classes
 90
4095
 91
0
280
0
281
0
  0
CLASS
  1
MLEADERSTYLE
  2
AcDbMLeaderStyle
  3
ACDB_MLEADERSTYLE_CLASS
 90
4095
 91
0
280
0
281
0
  0
CLASS
  1
DICTIONARYVAR
  2
AcDbDictionaryVar
  3
ObjectDBX Classes
 90
0
 91
0
280
0
281
0
  0
CLASS
  1
CELLSTYLEMAP
  2
AcDbCellStyleMap
  3
ObjectDBX Classes
 90
1152
 91
0
280
0
281
0
  0
CLASS
  1
MENTALRAYRENDERSETTINGS
  2
AcDbMentalRayRenderSettings
  3
SCENEOE
 90
1024
 91
0
280
0
281
0
  0
CLASS
  1
ACDBDETAILVIEWSTYLE
  2
AcDbDetailViewStyle
  3
ObjectDBX Classes
 90
1025
 91
0
280
0
281
0
  0
CLASS
  1
ACDBSECTIONVIEWSTYLE
  2
AcDbSectionViewStyle
  3
ObjectDBX Classes
 90
1025
 91
0
280
0
281
0
  0
CLASS
  1
RASTERVARIABLES
  2
AcDbRasterVariables
  3
ISM
 90
0
 91
0
280
0
281
0
  0
CLASS
  1
LAYOUT
  2
AcDbLayout
  3
ObjectDBX Classes
 90
0
 91
0
280
0
281
0
  0
CLASS
  1
ACDBPLACEHOLDER
  2
AcDbPlaceHolder
  3
ObjectDBX Classes
 90
0
 91
0
280
0
281
0
  0
ENDSEC
  0
SECTION
  2
TABLES
  0
TABLE
  2
VPORT
  5
8
330
0
100
AcDbSymbolTable
 70
1
  0
VPORT
  5
23
330
8
100
AcDbSymbolTableRecord
100
AcDbViewportTableRecord
  2
*Active
 70
0
 10
0.0
 20
0.0
 11
1.0
 21
1.0
 12
0.0
 22
0.0
 13
0.0
 23
0.0
 14
0.5
 24
0.5
 15
0.5
 25
0.5
 16
0.0
 26
0.0
 36
1.0
 17
0.0
 27
0.0
 37
0.0
 40
1000.0
 41
1.34
 42
50.0
 43
0.0
 44
0.0
 50
0.0
 51
0.0
 71
0
 72
1000
 73
1
 74
3
 75
0
 76
0
 77
0
 78
0
281
0
 65
0
146
0.0
  0
ENDTAB
  0
TABLE
  2
LTYPE
  5
2
330
0
100
AcDbSymbolTable
 70
3
  0
LTYPE
  5
24
330
2
100
AcDbSymbolTableRecord
100
AcDbLinetypeTableRecord
  2
ByBlock
 70
0
  3

 72
65
 73
0
 40
0.0
  0
LTYPE
  5
25
330
2
100
AcDbSymbolTableRecord
100
AcDbLinetypeTableRecord
  2
ByLayer
 70
0
  3

 72
65
 73
0
 40
0.0
  0
LTYPE
  5
26
330
2
100
AcDbSymbolTableRecord
100
AcDbLinetypeTableRecord
  2
Continuous
 70
0
  3

 72
65
 73
0
 40
0.0
  0
ENDTAB
  0
TABLE
  2
LAYER
  5
1
330
0
100
AcDbSymbolTable
 70
2
  0
LAYER
  5
27
330
1
100
AcDbSymbolTableRecord
100
AcDbLayerTableRecord
  2
0
 70
0
 62
7
  6
Continuous
370
-3
390
13
347
21
  0
LAYER
  5
28
330
1
100
AcDbSymbolTableRecord
100
AcDbLayerTableRecord
  2
Defpoints
 70
0
 62
7
  6
Continuous
290
0
370
-3
390
13
347
21
  0
ENDTAB
  0
TABLE
  2
STYLE
  5
5
330
0
100
AcDbSymbolTable
 70
1
  0
STYLE
  5
29
330
5
100
AcDbSymbolTableRecord
100
AcDbTextStyleTableRecord
  2
Standard
 70
0
 40
0.0
 41
1.0
 50
0.0
 71
0
 42
2.5
  3
txt
  4

  0
ENDTAB
  0
TABLE
  2
VIEW
  5
7
330
0
100
AcDbSymbolTable
 70
0
  0
ENDTAB
  0
TABLE
  2
UCS
  5
6
330
0
100
AcDbSymbolTable
 70
0
  0
ENDTAB
  0
TABLE
  2
APPID
  5
3
330
0
100
AcDbSymbolTable
 70
3
  0
APPID
  5
2A
330
3
100
AcDbSymbolTableRecord
100
AcDbRegAppTableRecord
  2
ACAD
 70
0
  0
APPID
  5
34
330
3
100
AcDbSymbolTableRecord
100
AcDbRegAppTableRecord
  2
HATCHBACKGROUNDCOLOR
 70
0
  0
APPID
  5
35
330
3
100
AcDbSymbolTableRecord
100
AcDbRegAppTableRecord
  2
EZDXF
 70
0
  0
ENDTAB
  0
TABLE
  2
DIMSTYLE
  5
4
330
0
100
AcDbSymbolTable
 70
1
100
AcDbDimStyleTable
  0
DIMSTYLE
105
2B
330
4
100
AcDbSymbolTableRecord
100
AcDbDimStyleTableRecord
  2
Standard
 70
0
 40
1.0
 41
2.5
 42
0.625
 43
3.75
 44
1.25
 45
0.0
 46
0.0
 47
0.0
 48
0.0
 49
2.5
140
2.5
141
2.5
142
0.0
143
0.03937007874
144
1.0
145
0.0
146
1.0
147
0.625
148
0.0
 69
0
 70
0
 71
0
 72
0
 73
0
 74
0
 75
0
 76
0
 77
1
 78
8
 79
3
170
0
171
3
172
1
173
0
174
0
175
0
176
0
177
0
178
0
179
2
271
2
272
2
273
2
274
3
275
0
276
0
277
2
278
44
279
0
280
0
281
0
282
0
283
0
284
8
285
0
286
0
288
0
289
3
290
0
371
-2
372
-2
  0
ENDTAB
  0
TABLE
  2
BLOCK_RECORD
  5
9
330
0
100
AcDbSymbolTable
 70
2
  0
BLOCK_RECORD
  5
17
330
9
100
AcDbSymbolTableRecord
100
AcDbBlockTableRecord
  2
*Model_Space
340
1A
 70
0
280
1
281
0
  0
BLOCK_RECORD
  5
1B
330
9
100
AcDbSymbolTableRecord
100
AcDbBlockTableRecord
  2
*Paper_Space
340
1E
 70
0
280
1
281
0
  0
ENDTAB
  0
ENDSEC
  0
SECTION
  2
BLOCKS
  0
BLOCK
  5
18
330
17
100
AcDbEntity
  8
0
100
AcDbBlockBegin
  2
*Model_Space
 70
0
 10
0.0
 20
0.0
 30
0.0
  3
*Model_Space
  1

  0
ENDBLK
  5
19
330
17
100
AcDbEntity
  8
0
100
AcDbBlockEnd
  0
BLOCK
  5
1C
330
1B
100
AcDbEntity
  8
0
100
AcDbBlockBegin
  2
*Paper_Space
 70
0
 10
0.0
 20
0.0
 30
0.0
  3
*Paper_Space
  1

  0
ENDBLK
  5
1D
330
1B
100
AcDbEntity
  8
0
100
AcDbBlockEnd
  0
ENDSEC
  0
SECTION
  2
ENTITIES
  0
LWPOLYLINE
  5
2F
330
17
100
AcDbEntity
  8
0
100
AcDbPolyline
 90
261
 70
1
 10
217.4803955078125
 20
-9.0443115234375
 10
217.635693359375
 20
-8.9107666015625
 10
217.7116943359375
 20
-8.8478271484375
 10
217.804345703125
 20
-8.7715087890625
 10
217.9140380859375
 20
-8.68125
 10
218.0205810546875
 20
-8.5949462890625
 10
218.132763671875
 20
-8.5028564453125
 10
218.247216796875
 20
-8.4063720703125
 10
218.3606201171875
 20
-8.3077880859375
 10
218.4727294921875
 20
-8.206689453125
 10
218.5823974609375
 20
-8.103955078125
 10
218.688623046875
 20
-8.0003173828125
 10
218.7903076171875
 20
-7.8958984375
 10
218.8878173828125
 20
-7.7911865234375
 10
218.98115234375
 20
-7.686376953125
 10
219.0702880859375
 20
-7.581494140625
 10
219.1549072265625
 20
-7.4765380859375
 10
219.2346435546875
 20
-7.371533203125
 10
219.3098876953125
 20
-7.266455078125
 10
219.3816162109375
 20
-7.161328125
 10
219.4495361328125
 20
-7.0561279296875
 10
219.514306640625
 20
-6.9509033203125
 10
219.5762939453125
 20
-6.8456298828125
 10
219.6358642578125
 20
-6.740283203125
 10
219.6933349609375
 20
-6.6349609375
 10
219.7487060546875
 20
-6.5295654296875
 10
219.8016357421875
 20
-6.424169921875
 10
219.8528564453125
 20
-6.3187255859375
 10
219.9019287109375
 20
-6.2132568359375
 10
219.949267578125
 20
-6.108056640625
 10
219.9951416015625
 20
-6.0037841796875
 10
220.0406494140625
 20
-5.8994873046875
 10
220.0852783203125
 20
-5.7973876953125
 10
220.128466796875
 20
-5.6995361328125
 10
220.176904296875
 20
-5.5940673828125
 10
220.2190673828125
 20
-5.503662109375
 10
220.2550537109375
 20
-5.4280029296875
 10
220.3365796881315
 20
-5.263871058042059
 10
224.21792568299446
 20
105.88333592948398
 10
224.1758056640625
 20
106.06158447265625
 10
224.1583251953125
 20
106.1436767578125
 10
224.1379638671875
 20
106.241796875
 10
224.1140380859375
 20
106.35594482421875
 10
224.0927490234375
 20
106.4611328125
 10
224.0689697265625
 20
106.5700927734375
 10
224.0418212890625
 20
106.68013916015624
 10
224.0112060546875
 20
106.788671875
 10
223.975732421875
 20
106.89639892578126
 10
223.9347412109375
 20
107.00235595703126
 10
223.8884765625
 20
107.10677490234374
 10
223.8370361328125
 20
107.21033935546875
 10
223.781689453125
 20
107.3135986328125
 10
223.7236328125
 20
107.4172119140625
 10
223.663818359375
 20
107.52176513671876
 10
223.6029541015625
 20
107.62791748046875
 10
223.5427978515625
 20
107.7362060546875
 10
223.4836669921875
 20
107.84632568359375
 10
223.4262939453125
 20
107.95799560546875
 10
223.3703125
 20
108.07088623046874
 10
223.316064453125
 20
108.18470458984375
 10
223.262890625
 20
108.29912109375
 10
223.211083984375
 20
108.4138427734375
 10
223.1596435546875
 20
108.52855224609375
 10
223.108544921875
 20
108.64326171875
 10
223.0567626953125
 20
108.7579833984375
 10
223.0031982421875
 20
108.87239990234374
 10
222.946533203125
 20
108.98623046875
 10
222.886376953125
 20
109.0991455078125
 10
222.8210205078125
 20
109.21090087890624
 10
222.74970703125
 20
109.3208251953125
 10
222.671435546875
 20
109.42833251953125
 10
222.586181640625
 20
109.53280029296874
 10
222.494677734375
 20
109.63421630859375
 10
222.3975830078125
 20
109.7325927734375
 10
222.295263671875
 20
109.8279296875
 10
222.189111328125
 20
109.91986083984375
 10
222.08017578125
 20
110.00904541015625
 10
221.969482421875
 20
110.09576416015625
 10
221.8577392578125
 20
110.1800048828125
 10
221.7452880859375
 20
110.26177978515625
 10
221.6324951171875
 20
110.34073486328126
 10
221.5197021484375
 20
110.41661376953125
 10
221.4069091796875
 20
110.48968505859375
 10
221.294091796875
 20
110.55936279296876
 10
221.1816162109375
 20
110.6255859375
 10
221.0701416015625
 20
110.6889404296875
 10
220.958642578125
 20
110.75042724609375
 10
220.8494873046875
 20
110.8095947265625
 10
220.744873046875
 20
110.86590576171875
 10
220.632080078125
 20
110.928125
 10
220.535400390625
 20
110.98194580078125
 10
220.4545166015625
 20
111.0277099609375
 10
220.27892605972957
 20
111.1308212932513
 10
166.28777057423574
 20
113.01623398855334
 10
166.09654541015624
 20
112.95855712890625
 10
166.0084716796875
 20
112.93502197265624
 10
165.9031982421875
 20
112.90836181640626
 10
165.7803955078125
 20
112.87860107421875
 10
165.66656494140625
 20
112.85440673828126
 10
165.54769287109374
 20
112.8294677734375
 10
165.4263427734375
 20
112.80430908203125
 10
165.30496826171876
 20
112.77913818359374
 10
165.18253173828126
 20
112.75216064453124
 10
165.05972900390626
 20
112.723046875
 10
164.93692626953126
 20
112.6914306640625
 10
164.81412353515626
 20
112.65765380859375
 10
164.6913330078125
 20
112.62235107421876
 10
164.5685302734375
 20
112.58486328125
 10
164.4457275390625
 20
112.54522705078125
 10
164.32291259765626
 20
112.50372314453125
 10
164.20009765625
 20
112.46036376953126
 10
164.07728271484376
 20
112.41484375
 10
163.95447998046876
 20
112.3665283203125
 10
163.83165283203124
 20
112.31483154296875
 10
163.70882568359374
 20
112.2600341796875
 10
163.58602294921874
 20
112.2021484375
 10
163.46319580078125
 20
112.1408447265625
 10
163.3403564453125
 20
112.07586669921875
 10
163.21754150390626
 20
112.0074462890625
 10
163.0947021484375
 20
111.93597412109375
 10
162.97186279296875
 20
111.8614013671875
 10
162.8490234375
 20
111.78341064453124
 10
162.72652587890624
 20
111.70169677734376
 10
162.6047119140625
 20
111.6166015625
 10
162.48394775390625
 20
111.52840576171874
 10
162.36455078125
 20
111.43709716796874
 10
162.2472412109375
 20
111.34267578125
 10
162.13270263671876
 20
111.2457763671875
 10
162.02161865234376
 20
111.14697265625
 10
161.91400146484375
 20
111.04688720703125
 10
161.80985107421876
 20
110.94586181640625
 10
161.7094970703125
 20
110.84417724609375
 10
161.61329345703126
 20
110.74215087890624
 10
161.52091064453126
 20
110.64010009765624
 10
161.4320068359375
 20
110.53798828125
 10
161.34652099609374
 20
110.4358642578125
 10
161.26488037109374
 20
110.3337158203125
 10
161.18739013671876
 20
110.23153076171874
 10
161.1136962890625
 20
110.129296875
 10
161.04383544921876
 20
110.02703857421875
 10
160.97777099609374
 20
109.9247314453125
 10
160.91588134765624
 20
109.82239990234375
 10
160.85777587890624
 20
109.7200439453125
 10
160.80279541015625
 20
109.6176513671875
 10
160.75059814453124
 20
109.515234375
 10
160.70115966796874
 20
109.41279296875
 10
160.65343017578124
 20
109.3103271484375
 10
160.60745849609376
 20
109.2081298828125
 10
160.56258544921874
 20
109.10684814453126
 10
160.51734619140626
 20
109.00556640625
 10
160.4728759765625
 20
108.90638427734375
 10
160.4296142578125
 20
108.81138916015625
 10
160.3802001953125
 20
108.70894775390624
 10
160.33721923828125
 20
108.62115478515625
 10
160.3003662109375
 20
108.5476806640625
 10
160.2161034195819
 20
108.38824872726437
 10
156.3581910169702
 20
-2.0879079772257683
 10
156.40592041015626
 20
-2.2569091796875
 10
156.42542724609376
 20
-2.3347412109375
 10
156.44803466796876
 20
-2.427734375
 10
156.47408447265624
 20
-2.536181640625
 10
156.49615478515625
 20
-2.6367431640625
 10
156.51915283203124
 20
-2.7417236328125
 10
156.5431396484375
 20
-2.848876953125
 10
156.5684814453125
 20
-2.956103515625
 10
156.59591064453124
 20
-3.064306640625
 10
156.62508544921874
 20
-3.1728515625
 10
156.65594482421875
 20
-3.281396484375
 10
156.6885498046875
 20
-3.3899658203125
 10
156.72286376953124
 20
-3.498583984375
 10
156.75894775390626
 20
-3.6072265625
 10
156.79603271484376
 20
-3.715869140625
 10
156.8348876953125
 20
-3.8245849609375
 10
156.8761474609375
 20
-3.9332763671875
 10
156.91983642578126
 20
-4.0419921875
 10
156.9666259765625
 20
-4.1508056640625
 10
157.01654052734375
 20
-4.2596435546875
 10
157.069921875
 20
-4.3685546875
 10
157.12711181640626
 20
-4.477490234375
 10
157.18741455078126
 20
-4.5864990234375
 10
157.25048828125
 20
-4.695556640625
 10
157.3163330078125
 20
-4.8046142578125
 10
157.38494873046875
 20
-4.9137451171875
 10
157.45667724609376
 20
-5.022900390625
 10
157.53116455078126
 20
-5.1321533203125
 10
157.60911865234374
 20
-5.2413818359375
 10
157.69158935546875
 20
-5.350732421875
 10
157.7788818359375
 20
-5.4601318359375
 10
157.87139892578125
 20
-5.5696044921875
 10
157.96875
 20
-5.6788818359375
 10
158.0705810546875
 20
-5.7875732421875
 10
158.176953125
 20
-5.8953857421875
 10
158.28675537109376
 20
-6.0017333984375
 10
158.39901123046874
 20
-6.1059814453125
 10
158.51300048828125
 20
-6.207421875
 10
158.62802734375
 20
-6.3054931640625
 10
158.74375
 20
-6.4001708984375
 10
158.8598388671875
 20
-6.4911376953125
 10
158.97591552734374
 20
-6.578076171875
 10
159.0920166015625
 20
-6.661328125
 10
159.20811767578124
 20
-6.7411865234375
 10
159.32421875
 20
-6.8176513671875
 10
159.44031982421876
 20
-6.8906982421875
 10
159.55643310546876
 20
-6.960009765625
 10
159.67254638671875
 20
-7.0259765625
 10
159.788671875
 20
-7.0888427734375
 10
159.9048095703125
 20
-7.1485595703125
 10
160.02093505859375
 20
-7.204931640625
 10
160.1370849609375
 20
-7.2584716796875
 10
160.25322265625
 20
-7.3095947265625
 10
160.36939697265626
 20
-7.3585205078125
 10
160.485546875
 20
-7.405615234375
 10
160.60169677734376
 20
-7.450830078125
 10
160.71788330078124
 20
-7.494189453125
 10
160.8340576171875
 20
-7.536328125
 10
160.9502197265625
 20
-7.5765380859375
 10
161.06639404296874
 20
-7.614990234375
 10
161.18258056640624
 20
-7.6515625
 10
161.2987548828125
 20
-7.6853271484375
 10
161.41495361328126
 20
-7.716015625
 10
161.53115234375
 20
-7.7435791015625
 10
161.64735107421876
 20
-7.7677978515625
 10
161.76356201171876
 20
-7.789208984375
 10
161.87977294921876
 20
-7.808154296875
 10
161.99598388671876
 20
-7.8248779296875
 10
162.11219482421876
 20
-7.840771484375
 10
162.22841796875
 20
-7.8569091796875
 10
162.34429931640625
 20
-7.8736572265625
 10
162.4591552734375
 20
-7.8913330078125
 10
162.57401123046876
 20
-7.9108642578125
 10
162.6864990234375
 20
-7.9318359375
 10
162.79423828125
 20
-7.9538818359375
 10
162.91044921875
 20
-7.981494140625
 10
163.01005859375
 20
-8.0060546875
 10
163.09342041015626
 20
-8.0276611328125
 10
163.274340672209
 20
-8.079947451612815
 10
214.4966823018105
 20
-9.86867103648765
 10
214.682470703125
 20
-9.82578125
 10
214.7680419921875
 20
-9.807861328125
 10
214.8703369140625
 20
-9.7870361328125
 10
214.9896484375
 20
-9.7635009765625
 10
215.1002685546875
 20
-9.7439697265625
 10
215.215771484375
 20
-9.7240234375
 10
215.33369140625
 20
-9.703173828125
 10
215.4516357421875
 20
-9.682080078125
 10
215.5706298828125
 20
-9.659765625
 10
215.6899658203125
 20
-9.636279296875
 10
215.8093017578125
 20
-9.6102783203125
 10
215.9286376953125
 20
-9.581201171875
 10
216.0479736328125
 20
-9.5486572265625
 10
216.167333984375
 20
-9.5130615234375
 10
216.286669921875
 20
-9.473681640625
 10
216.4060302734375
 20
-9.430908203125
 10
216.5250732421875
 20
-9.3850830078125
 10
216.6430419921875
 20
-9.3376220703125
 10
216.7610595703125
 20
-9.2898193359375
 10
216.8765869140625
 20
-9.243505859375
 10
216.987255859375
 20
-9.2000732421875
 10
217.1066162109375
 20
-9.157958984375
 10
217.208935546875
 20
-9.123095703125
 10
217.2945556640625
 20
-9.0955810546875
  0
LWPOLYLINE
  5
30
330
17
100
AcDbEntity
  8
0
100
AcDbPolyline
 90
140
 70
1
 10
197.2693115234375
 20
19.475732421875
 10
197.16622314453124
 20
19.439111328125
 10
197.0605224609375
 20
19.406787109375
 10
196.952490234375
 20
19.3785888671875
 10
196.84244384765626
 20
19.3543701171875
 10
196.73070068359374
 20
19.3339599609375
 10
196.61749267578125
 20
19.3171142578125
 10
196.50306396484376
 20
19.3035888671875
 10
196.3876220703125
 20
19.2931884765625
 10
196.2713134765625
 20
19.28564453125
 10
196.154345703125
 20
19.2807373046875
 10
196.0368408203125
 20
19.278173828125
 10
195.918896484375
 20
19.2777587890625
 10
195.80062255859374
 20
19.279248046875
 10
195.68206787109375
 20
19.282421875
 10
195.5633544921875
 20
19.2871337890625
 10
195.44451904296875
 20
19.2932373046875
 10
195.3255859375
 20
19.3005126953125
 10
195.20660400390625
 20
19.308935546875
 10
195.08763427734374
 20
19.318408203125
 10
194.96868896484375
 20
19.3289306640625
 10
194.8498291015625
 20
19.340478515625
 10
194.731103515625
 20
19.353076171875
 10
194.6125732421875
 20
19.366845703125
 10
194.494287109375
 20
19.3818603515625
 10
194.3763427734375
 20
19.3982177734375
 10
194.2588134765625
 20
19.416064453125
 10
194.14183349609374
 20
19.4356201171875
 10
194.025537109375
 20
19.4570556640625
 10
193.91009521484375
 20
19.48056640625
 10
193.7956787109375
 20
19.506396484375
 10
193.68248291015624
 20
19.534765625
 10
193.57078857421874
 20
19.56591796875
 10
193.4608154296875
 20
19.6
 10
193.352880859375
 20
19.637255859375
 10
193.247265625
 20
19.67783203125
 10
193.14429931640626
 20
19.7219482421875
 10
193.04434814453126
 20
19.76962890625
 10
192.947802734375
 20
19.8210205078125
 10
192.855029296875
 20
19.876123046875
 10
192.76640625
 20
19.935009765625
 10
192.6823486328125
 20
19.997607421875
 10
192.6032470703125
 20
20.063818359375
 10
192.5294677734375
 20
20.13359375
 10
192.4614501953125
 20
20.2066650390625
 10
192.3994873046875
 20
20.2828125
 10
192.3439697265625
 20
20.36181640625
 10
192.29517822265626
 20
20.4433349609375
 10
192.25345458984376
 20
20.5270751953125
 10
192.2189697265625
 20
20.6126220703125
 10
192.1919921875
 20
20.699609375
 10
192.17265625
 20
20.787646484375
 10
192.161083984375
 20
20.8762451171875
 10
192.15736083984376
 20
20.9650146484375
 10
192.1614990234375
 20
21.053515625
 10
192.1734619140625
 20
21.1412841796875
 10
192.1931884765625
 20
21.227880859375
 10
192.22054443359374
 20
21.312890625
 10
192.2553955078125
 20
21.395947265625
 10
192.2974853515625
 20
21.4765625
 10
192.34659423828126
 20
21.5544677734375
 10
192.402392578125
 20
21.629345703125
 10
192.4646240234375
 20
21.7009033203125
 10
192.53289794921875
 20
21.7688232421875
 10
192.6068603515625
 20
21.8329345703125
 10
192.68614501953124
 20
21.89306640625
 10
192.770361328125
 20
21.9490966796875
 10
192.8591064453125
 20
22.0009033203125
 10
192.9519775390625
 20
22.048486328125
 10
193.0486083984375
 20
22.091796875
 10
193.1486083984375
 20
22.1308837890625
 10
193.25157470703124
 20
22.1658447265625
 10
193.35721435546876
 20
22.196728515625
 10
193.46517333984374
 20
22.2237548828125
 10
193.5751220703125
 20
22.2470458984375
 10
193.68677978515626
 20
22.266845703125
 10
193.79996337890626
 20
22.2833251953125
 10
193.91434326171876
 20
22.296728515625
 10
194.0297607421875
 20
22.3072998046875
 10
194.14603271484376
 20
22.315234375
 10
194.2629638671875
 20
22.3208251953125
 10
194.38046875
 20
22.3242919921875
 10
194.498388671875
 20
22.32587890625
 10
194.61663818359375
 20
22.325732421875
 10
194.73515625
 20
22.324072265625
 10
194.85386962890624
 20
22.321044921875
 10
194.972705078125
 20
22.316796875
 10
195.09161376953125
 20
22.3114013671875
 10
195.2105712890625
 20
22.30498046875
 10
195.32952880859375
 20
22.2975341796875
 10
195.4484619140625
 20
22.289111328125
 10
195.56727294921876
 20
22.2796875
 10
195.685986328125
 20
22.269189453125
 10
195.80450439453125
 20
22.2575439453125
 10
195.92279052734375
 20
22.2446044921875
 10
196.04071044921875
 20
22.2302490234375
 10
196.158203125
 20
22.21435546875
 10
196.27515869140626
 20
22.1967041015625
 10
196.39141845703125
 20
22.1770751953125
 10
196.5068359375
 20
22.155224609375
 10
196.62122802734376
 20
22.131005859375
 10
196.734375
 20
22.1041748046875
 10
196.84605712890624
 20
22.0744873046875
 10
196.956005859375
 20
22.0417236328125
 10
197.063916015625
 20
22.005712890625
 10
197.16953125
 20
21.9662841796875
 10
197.27249755859376
 20
21.923291015625
 10
197.37247314453126
 20
21.8765869140625
 10
197.46907958984374
 20
21.82607421875
 10
197.56192626953126
 20
21.7717529296875
 10
197.65062255859374
 20
21.71357421875
 10
197.73477783203126
 20
21.6515869140625
 10
197.814013671875
 20
21.5858642578125
 10
197.88790283203124
 20
21.5165283203125
 10
197.9560791015625
 20
21.44375
 10
198.01817626953124
 20
21.3677490234375
 10
198.07384033203124
 20
21.28876953125
 10
198.1227783203125
 20
21.2070556640625
 10
198.16466064453124
 20
21.122998046875
 10
198.19927978515625
 20
21.0369384765625
 10
198.22640380859374
 20
20.9492431640625
 10
198.2458740234375
 20
20.8602783203125
 10
198.25755615234374
 20
20.770556640625
 10
198.26138916015626
 20
20.68046875
 10
198.25733642578126
 20
20.5904541015625
 10
198.24542236328125
 20
20.500927734375
 10
198.22572021484376
 20
20.4124267578125
 10
198.1983642578125
 20
20.3252685546875
 10
198.16351318359375
 20
20.239990234375
 10
198.12137451171876
 20
20.1569580078125
 10
198.0722412109375
 20
20.076513671875
 10
198.016357421875
 20
19.9989990234375
 10
197.9540771484375
 20
19.924853515625
 10
197.8857177734375
 20
19.854248046875
 10
197.8116455078125
 20
19.787451171875
 10
197.7322509765625
 20
19.72470703125
 10
197.6479248046875
 20
19.666162109375
 10
197.55906982421874
 20
19.611962890625
 10
197.46610107421876
 20
19.562109375
 10
197.36937255859374
 20
19.5167236328125
  0
CIRCLE
  5
31
330
17
100
AcDbEntity
  8
0
100
AcDbCircle
 10
206.5777099609375
 20
19.04453125
 30
0.0
 40
7.378305816650391
  0
CIRCLE
  5
32
330
17
100
AcDbEntity
  8
0
100
AcDbCircle
 10
195.4113525390625
 20
11.4406494140625
 30
0.0
 40
4.719032669067383
  0
CIRCLE
  5
33
330
17
100
AcDbEntity
  8
0
100
AcDbCircle
 10
206.09814453125
 20
2.66103515625
 30
0.0
 40
7.55487060546875
  0
ENDSEC
  0
SECTION
  2
OBJECTS
  0
DICTIONARY
  5
A
330
0
100
AcDbDictionary
281
1
  3
ACAD_COLOR
350
B
  3
ACAD_GROUP
350
C
  3
ACAD_LAYOUT
350
D
  3
ACAD_MATERIAL
350
E
  3
ACAD_MLEADERSTYLE
350
F
  3
ACAD_MLINESTYLE
350
10
  3
ACAD_PLOTSETTINGS
350
11
  3
ACAD_PLOTSTYLENAME
350
12
  3
ACAD_SCALELIST
350
14
  3
ACAD_TABLESTYLE
350
15
  3
ACAD_VISUALSTYLE
350
16
  3
EZDXF_META
350
2D
  0
DICTIONARY
  5
B
330
A
100
AcDbDictionary
281
1
  0
DICTIONARY
  5
C
330
A
100
AcDbDictionary
281
1
  0
DICTIONARY
  5
D
330
A
100
AcDbDictionary
281
1
  3
Model
350
1A
  3
Layout1
350
1E
  0
DICTIONARY
  5
E
330
A
100
AcDbDictionary
281
1
  3
ByBlock
350
1F
  3
ByLayer
350
20
  3
Global
350
21
  0
DICTIONARY
  5
F
330
A
100
AcDbDictionary
281
1
  3
Standard
350
2C
  0
DICTIONARY
  5
10
330
A
100
AcDbDictionary
281
1
  3
Standard
350
22
  0
DICTIONARY
  5
11
330
A
100
AcDbDictionary
281
1
  0
ACDBDICTIONARYWDFLT
  5
12
330
A
100
AcDbDictionary
281
1
  3
Normal
350
13
100
AcDbDictionaryWithDefault
340
13
  0
ACDBPLACEHOLDER
  5
13
330
12
  0
DICTIONARY
  5
14
330
A
100
AcDbDictionary
281
1
  0
DICTIONARY
  5
15
330
A
100
AcDbDictionary
281
1
  0
DICTIONARY
  5
16
330
A
100
AcDbDictionary
281
1
  0
LAYOUT
  5
1A
330
D
100
AcDbPlotSettings
  1

  4
A3
  6

 40
7.5
 41
20.0
 42
7.5
 43
20.0
 44
420.0
 45
297.0
 46
0.0
 47
0.0
 48
0.0
 49
0.0
140
0.0
141
0.0
142
1.0
143
1.0
 70
1024
 72
1
 73
0
 74
5
  7

 75
16
 76
0
 77
2
 78
300
147
1.0
148
0.0
149
0.0
100
AcDbLayout
  1
Model
 70
1
 71
0
 10
0.0
 20
0.0
 11
420.0
 21
297.0
 12
0.0
 22
0.0
 32
0.0
 14
1e+20
 24
1e+20
 34
1e+20
 15
-1e+20
 25
-1e+20
 35
-1e+20
146
0.0
 13
0.0
 23
0.0
 33
0.0
 16
1.0
 26
0.0
 36
0.0
 17
0.0
 27
1.0
 37
0.0
 76
1
330
17
  0
LAYOUT
  5
1E
330
D
100
AcDbPlotSettings
  1

  4
A3
  6

 40
7.5
 41
20.0
 42
7.5
 43
20.0
 44
420.0
 45
297.0
 46
0.0
 47
0.0
 48
0.0
 49
0.0
140
0.0
141
0.0
142
1.0
143
1.0
 70
0
 72
1
 73
0
 74
5
  7

 75
16
 76
0
 77
2
 78
300
147
1.0
148
0.0
149
0.0
100
AcDbLayout
  1
Layout1
 70
1
 71
1
 10
0.0
 20
0.0
 11
420.0
 21
297.0
 12
0.0
 22
0.0
 32
0.0
 14
1e+20
 24
1e+20
 34
1e+20
 15
-1e+20
 25
-1e+20
 35
-1e+20
146
0.0
 13
0.0
 23
0.0
 33
0.0
 16
1.0
 26
0.0
 36
0.0
 17
0.0
 27
1.0
 37
0.0
 76
1
330
1B
  0
MATERIAL
  5
1F
102
{ACAD_REACTORS
330
E
102
}
330
E
100
AcDbMaterial
  1
ByBlock
  2

 70
0
 40
1.0
 71
1
 41
1.0
 91
-1023410177
 42
1.0
 72
1
  3

 73
1
 74
1
 75
1
 44
0.5
 73
0
 45
1.0
 46
1.0
 77
1
  4

 78
1
 79
1
170
1
 48
1.0
171
1
  6

172
1
173
1
174
1
140
1.0
141
1.0
175
1
  7

176
1
177
1
178
1
143
1.0
179
1
  8

270
1
271
1
272
1
145
1.0
146
1.0
273
1
  9

274
1
275
1
276
1
 42
1.0
 72
1
  3

 73
1
 74
1
 75
1
 94
63
  0
MATERIAL
  5
20
102
{ACAD_REACTORS
330
E
102
}
330
E
100
AcDbMaterial
  1
ByLayer
  2

 70
0
 40
1.0
 71
1
 41
1.0
 91
-1023410177
 42
1.0
 72
1
  3

 73
1
 74
1
 75
1
 44
0.5
 73
0
 45
1.0
 46
1.0
 77
1
  4

 78
1
 79
1
170
1
 48
1.0
171
1
  6

172
1
173
1
174
1
140
1.0
141
1.0
175
1
  7

176
1
177
1
178
1
143
1.0
179
1
  8

270
1
271
1
272
1
145
1.0
146
1.0
273
1
  9

274
1
275
1
276
1
 42
1.0
 72
1
  3

 73
1
 74
1
 75
1
 94
63
  0
MATERIAL
  5
21
102
{ACAD_REACTORS
330
E
102
}
330
E
100
AcDbMaterial
  1
Global
  2

 70
0
 40
1.0
 71
1
 41
1.0
 91
-1023410177
 42
1.0
 72
1
  3

 73
1
 74
1
 75
1
 44
0.5
 73
0
 45
1.0
 46
1.0
 77
1
  4

 78
1
 79
1
170
1
 48
1.0
171
1
  6

172
1
173
1
174
1
140
1.0
141
1.0
175
1
  7

176
1
177
1
178
1
143
1.0
179
1
  8

270
1
271
1
272
1
145
1.0
146
1.0
273
1
  9

274
1
275
1
276
1
 42
1.0
 72
1
  3

 73
1
 74
1
 75
1
 94
63
  0
MLINESTYLE
  5
22
102
{ACAD_REACTORS
330
10
102
}
330
10
100
AcDbMlineStyle
  2
Standard
 70
0
  3

 62
256
 51
90.0
 52
90.0
 71
2
 49
0.5
 62
256
  6
BYLAYER
 49
-0.5
 62
256
  6
BYLAYER
  0
MLEADERSTYLE
  5
2C
102
{ACAD_REACTORS
330
F
102
}
330
F
100
AcDbMLeaderStyle
179
2
170
2
171
1
172
0
 90
2
 40
0.0
 41
0.0
173
1
 91
-1056964608
 92
-2
290
1
 42
2.0
291
1
 43
8.0
  3
Standard
 44
4.0
300

342
29
174
1
175
1
176
0
178
1
 93
-1056964608
 45
4.0
292
0
297
0
 46
4.0
 94
-1056964608
 47
1.0
 49
1.0
140
1.0
294
1
141
0.0
177
0
142
1.0
295
0
296
0
143
3.75
271
0
272
9
273
9
  0
DICTIONARY
  5
2D
330
A
100
AcDbDictionary
280
1
281
1
  3
CREATED_BY_EZDXF
350
2E
  3
WRITTEN_BY_EZDXF
350
36
  0
DICTIONARYVAR
  5
2E
330
2D
100
DictionaryVariables
280
0
  1
1.4.4 @ 2026-07-16T10:10:49.699762+00:00
  0
DICTIONARYVAR
  5
36
330
2D
100
DictionaryVariables
280
0
  1
1.4.4 @ 2026-07-16T10:10:49.719381+00:00
  0
ENDSEC
  0
EOF
