  0
SECTION
  2
HEADER
  9
$ACADVER
  1
AC1024
  9
$ACADMAINTVER
 70
6
  9
$DWGCODEPAGE
  3
ANSI_1252
  9
$LASTSAVEDBY
  1
ezdxf
  9
$INSBASE
 10
0.0
 20
0.0
 30
0.0
  9
$EXTMIN
 10
1e+20
 20
1e+20
 30
1e+20
  9
$EXTMAX
 10
-1e+20
 20
-1e+20
 30
-1e+20
  9
$LIMMIN
 10
0.0
 20
0.0
  9
$LIMMAX
 10
420.0
 20
297.0
  9
$ORTHOMODE
 70
0
  9
$REGENMODE
 70
1
  9
$FILLMODE
 70
1
  9
$QTEXTMODE
 70
0
  9
$MIRRTEXT
 70
1
  9
$LTSCALE
 40
1.0
  9
$ATTMODE
 70
1
  9
$TEXTSIZE
 40
2.5
  9
$TRACEWID
 40
1.0
  9
$TEXTSTYLE
  7
Standard
  9
$CLAYER
  8
0
  9
$CELTYPE
  6
ByLayer
  9
$CECOLOR
 62
256
  9
$CELTSCALE
 40
1.0
  9
$DISPSILH
 70
0
  9
$DIMSCALE
 40
1.0
  9
$DIMASZ
 40
2.5
  9
$DIMEXO
 40
0.625
  9
$DIMDLI
 40
3.75
  9
$DIMRND
 40
0.0
  9
$DIMDLE
 40
0.0
  9
$DIMEXE
 40
1.25
  9
$DIMTP
 40
0.0
  9
$DIMTM
 40
0.0
  9
$DIMTXT
 40
2.5
  9
$DIMCEN
 40
2.5
  9
$DIMTSZ
 40
0.0
  9
$DIMTOL
 70
0
  9
$DIMLIM
 70
0
  9
$DIMTIH
 70
0
  9
$DIMTOH
 70
0
  9
$DIMSE1
 70
0
  9
$DIMSE2
 70
0
  9
$DIMTAD
 70
1
  9
$DIMZIN
 70
8
  9
$DIMBLK
  1

  9
$DIMASO
 70
1
  9
$DIMSHO
 70
1
  9
$DIMPOST
  1

  9
$DIMAPOST
  1

  9
$DIMALT
 70
0
  9
$DIMALTD
 70
3
  9
$DIMALTF
 40
0.03937007874
  9
$DIMLFAC
 40
1.0
  9
$DIMTOFL
 70
1
  9
$DIMTVP
 40
0.0
  9
$DIMTIX
 70
0
  9
$DIMSOXD
 70
0
  9
$DIMSAH
 70
0
  9
$DIMBLK1
  1

  9
$DIMBLK2
  1

  9
$DIMSTYLE
  2
ISO-25
  9
$DIMCLRD
 70
0
  9
$DIMCLRE
 70
0
  9
$DIMCLRT
 70
0
  9
$DIMTFAC
 40
1.0
  9
$DIMGAP
 40
0.625
  9
$DIMJUST
 70
0
  9
$DIMSD1
 70
0
  9
$DIMSD2
 70
0
  9
$DIMTOLJ
 70
0
  9
$DIMTZIN
 70
8
  9
$DIMALTZ
 70
0
  9
$DIMALTTZ
 70
0
  9
$DIMUPT
 70
0
  9
$DIMDEC
 70
2
  9
$DIMTDEC
 70
2
  9
$DIMALTU
 70
2
  9
$DIMALTTD
 70
3
  9
$DIMTXSTY
  7
Standard
  9
$DIMAUNIT
 70
0
  9
$DIMADEC
 70
0
  9
$DIMALTRND
 40
0.0
  9
$DIMAZIN
 70
0
  9
$DIMDSEP
 70
44
  9
$DIMATFIT
 70
3
  9
$DIMFRAC
 70
0
  9
$DIMLDRBLK
  1

  9
$DIMLUNIT
 70
2
  9
$DIMLWD
 70
-2
  9
$DIMLWE
 70
-2
  9
$DIMTMOVE
 70
0
  9
$DIMFXL
 40
1.0
  9
$DIMFXLON
 70
0
  9
$DIMJOGANG
 40
0.785398163397
  9
$DIMTFILL
 70
0
  9
$DIMTFILLCLR
 70
0
  9
$DIMARCSYM
 70
0
  9
$DIMLTYPE
  6

  9
$DIMLTEX1
  6

  9
$DIMLTEX2
  6

  9
$DIMTXTDIRECTION
 70
0
  9
$LUNITS
 70
2
  9
$LUPREC
 70
4
  9
$SKETCHINC
 40
1.0
  9
$FILLETRAD
 40
10.0
  9
$AUNITS
 70
0
  9
$AUPREC
 70
2
  9
$MENU
  1
.
  9
$ELEVATION
 40
0.0
  9
$PELEVATION
 40
0.0
  9
$THICKNESS
 40
0.0
  9
$LIMCHECK
 70
0
  9
$CHAMFERA
 40
0.0
  9
$CHAMFERB
 40
0.0
  9
$CHAMFERC
 40
0.0
  9
$CHAMFERD
 40
0.0
  9
$SKPOLY
 70
0
  9
$TDCREATE
 40
2461238.4658449073
  9
$TDUCREATE
 40
2458532.153996898
  9
$TDUPDATE
 40
2461238.4658449073
  9
$TDUUPDATE
 40
2458532.1544311
  9
$TDINDWG
 40
0.0
  9
$TDUSRTIMER
 40
0.0
  9
$USRTIMER
 70
1
  9
$ANGBASE
 50
0.0
  9
$ANGDIR
 70
0
  9
$PDMODE
 70
0
  9
$PDSIZE
 40
0.0
  9
$PLINEWID
 40
0.0
  9
$SPLFRAME
 70
0
  9
$SPLINETYPE
 70
6
  9
$SPLINESEGS
 70
8
  9
$HANDSEED
  5
37
  9
$SURFTAB1
 70
6
  9
$SURFTAB2
 70
6
  9
$SURFTYPE
 70
6
  9
$SURFU
 70
6
  9
$SURFV
 70
6
  9
$UCSBASE
  2

  9
$UCSNAME
  2

  9
$UCSORG
 10
0.0
 20
0.0
 30
0.0
  9
$UCSXDIR
 10
1.0
 20
0.0
 30
0.0
  9
$UCSYDIR
 10
0.0
 20
1.0
 30
0.0
  9
$UCSORTHOREF
  2

  9
$UCSORTHOVIEW
 70
0
  9
$UCSORGTOP
 10
0.0
 20
0.0
 30
0.0
  9
$UCSORGBOTTOM
 10
0.0
 20
0.0
 30
0.0
  9
$UCSORGLEFT
 10
0.0
 20
0.0
 30
0.0
  9
$UCSORGRIGHT
 10
0.0
 20
0.0
 30
0.0
  9
$UCSORGFRONT
 10
0.0
 20
0.0
 30
0.0
  9
$UCSORGBACK
 10
0.0
 20
0.0
 30
0.0
  9
$PUCSBASE
  2

  9
$PUCSNAME
  2

  9
$PUCSORG
 10
0.0
 20
0.0
 30
0.0
  9
$PUCSXDIR
 10
1.0
 20
0.0
 30
0.0
  9
$PUCSYDIR
 10
0.0
 20
1.0
 30
0.0
  9
$PUCSORTHOREF
  2

  9
$PUCSORTHOVIEW
 70
0
  9
$PUCSORGTOP
 10
0.0
 20
0.0
 30
0.0
  9
$PUCSORGBOTTOM
 10
0.0
 20
0.0
 30
0.0
  9
$PUCSORGLEFT
 10
0.0
 20
0.0
 30
0.0
  9
$PUCSORGRIGHT
 10
0.0
 20
0.0
 30
0.0
  9
$PUCSORGFRONT
 10
0.0
 20
0.0
 30
0.0
  9
$PUCSORGBACK
 10
0.0
 20
0.0
 30
0.0
  9
$USERI1
 70
0
  9
$USERI2
 70
0
  9
$USERI3
 70
0
  9
$USERI4
 70
0
  9
$USERI5
 70
0
  9
$USERR1
 40
0.0
  9
$USERR2
 40
0.0
  9
$USERR3
 40
0.0
  9
$USERR4
 40
0.0
  9
$USERR5
 40
0.0
  9
$WORLDVIEW
 70
1
  9
$SHADEDGE
 70
3
  9
$SHADEDIF
 70
70
  9
$TILEMODE
 70
1
  9
$MAXACTVP
 70
64
  9
$PINSBASE
 10
0.0
 20
0.0
 30
0.0
  9
$PLIMCHECK
 70
0
  9
$PEXTMIN
 10
1e+20
 20
1e+20
 30
1e+20
  9
$PEXTMAX
 10
-1e+20
 20
-1e+20
 30
-1e+20
  9
$PLIMMIN
 10
0.0
 20
0.0
  9
$PLIMMAX
 10
420.0
 20
297.0
  9
$UNITMODE
 70
0
  9
$VISRETAIN
 70
1
  9
$PLINEGEN
 70
0
  9
$PSLTSCALE
 70
1
  9
$TREEDEPTH
 70
3020
  9
$CMLSTYLE
  2
Standard
  9
$CMLJUST
 70
0
  9
$CMLSCALE
 40
20.0
  9
$PROXYGRAPHICS
 70
1
  9
$MEASUREMENT
 70
1
  9
$CELWEIGHT
370
-1
  9
$ENDCAPS
280
0
  9
$JOINSTYLE
280
0
  9
$LWDISPLAY
290
0
  9
$INSUNITS
 70
6
  9
$HYPERLINKBASE
  1

  9
$STYLESHEET
  1

  9
$XEDIT
290
1
  9
$CEPSNTYPE
380
0
  9
$PSTYLEMODE
290
1
  9
$FINGERPRINTGUID
  2
{332BD18E-FAC8-4391-822D-B792C34C8F4F}
  9
$VERSIONGUID
  2
{BF5780FF-1DAE-4529-8B76-55C36959D6A5}
  9
$EXTNAMES
290
1
  9
$PSVPSCALE
 40
0.0
  9
$OLESTARTUP
290
0
  9
$SORTENTS
280
127
  9
$INDEXCTL
280
0
  9
$HIDETEXT
280
1
  9
$XCLIPFRAME
280
1
  9
$HALOGAP
280
0
  9
$OBSCOLOR
 70
257
  9
$OBSLTYPE
280
0
  9
$INTERSECTIONDISPLAY
280
0
  9
$INTERSECTIONCOLOR
 70
257
  9
$DIMASSOC
280
2
  9
$PROJECTNAME
  1

  9
$CAMERADISPLAY
290
0
  9
$LENSLENGTH
 40
50.0
  9
$CAMERAHEIGHT
 40
0.0
  9
$STEPSPERSEC
 40
24.0
  9
$STEPSIZE
 40
100.0
  9
$3DDWFPREC
 40
2.0
  9
$PSOLWIDTH
 40
0.005
  9
$PSOLHEIGHT
 40
0.08
  9
$LOFTANG1
 40
1.570796326795
  9
$LOFTANG2
 40
1.570796326795
  9
$LOFTMAG1
 40
0.0
  9
$LOFTMAG2
 40
0.0
  9
$LOFTPARAM
 70
7
  9
$LOFTNORMALS
280
1
  9
$LATITUDE
 40
37.795
  9
$LONGITUDE
 40
-122.394
  9
$NORTHDIRECTION
 40
0.0
  9
$TIMEZONE
 70
-8000
  9
$LIGHTGLYPHDISPLAY
280
1
  9
$TILEMODELIGHTSYNCH
280
1
  9
$CMATERIAL
347
20
  9
$SOLIDHIST
280
0
  9
$SHOWHIST
280
1
  9
$DWFFRAME
280
2
  9
$DGNFRAME
280
2
  9
$REALWORLDSCALE
290
1
  9
$INTERFERECOLOR
 62
256
  9
$CSHADOW
280
0
  9
$SHADOWPLANELOCATION
 40
0.0
  0
ENDSEC
  0
SECTION
  2
CLASSES
  0
CLASS
  1
ACDBDICTIONARYWDFLT
  2
AcDbDictionaryWithDefault
  3
ObjectDBX Classes
 90
0
 91
0
280
0
281
0
  0
CLASS
  1
SUN
  2
AcDbSun
  3
SCENEOE
 90
1153
 91
0
280
0
281
0
  0
CLASS
  1
VISUALSTYLE
  2
AcDbVisualStyle
  3
ObjectDBX Classes
 90
4095
 91
0
280
0
281
0
  0
CLASS
  1
MATERIAL
  2
AcDbMaterial
  3
ObjectDBX Classes
 90
1153
 91
0
280
0
281
0
  0
CLASS
  1
SCALE
  2
AcDbScale
  3
ObjectDBX Classes
 90
1153
 91
0
280
0
281
0
  0
CLASS
  1
TABLESTYLE
  2
AcDbTableStyle
  3
ObjectDBX Classes
 90
4095
 91
0
280
0
281
0
  0
CLASS
  1
MLEADERSTYLE
  2
AcDbMLeaderStyle
  3
ACDB_MLEADERSTYLE_CLASS
 90
4095
 91
0
280
0
281
0
  0
CLASS
  1
DICTIONARYVAR
  2
AcDbDictionaryVar
  3
ObjectDBX Classes
 90
0
 91
0
280
0
281
0
  0
CLASS
  1
CELLSTYLEMAP
  2
AcDbCellStyleMap
  3
ObjectDBX Classes
 90
1152
 91
0
280
0
281
0
  0
CLASS
  1
MENTALRAYRENDERSETTINGS
  2
AcDbMentalRayRenderSettings
  3
SCENEOE
 90
1024
 91
0
280
0
281
0
  0
CLASS
  1
ACDBDETAILVIEWSTYLE
  2
AcDbDetailViewStyle
  3
ObjectDBX Classes
 90
1025
 91
0
280
0
281
0
  0
CLASS
  1
ACDBSECTIONVIEWSTYLE
  2
AcDbSectionViewStyle
  3
ObjectDBX Classes
 90
1025
 91
0
280
0
281
0
  0
CLASS
  1
RASTERVARIABLES
  2
AcDbRasterVariables
  3
ISM
 90
0
 91
0
280
0
281
0
  0
CLASS
  1
LAYOUT
  2
AcDbLayout
  3
ObjectDBX Classes
 90
0
 91
0
280
0
281
0
  0
CLASS
  1
ACDBPLACEHOLDER
  2
AcDbPlaceHolder
  3
ObjectDBX Classes
 90
0
 91
0
280
0
281
0
  0
ENDSEC
  0
SECTION
  2
TABLES
  0
TABLE
  2
VPORT
  5
8
330
0
100
AcDbSymbolTable
 70
1
  0
VPORT
  5
23
330
8
100
AcDbSymbolTableRecord
100
AcDbViewportTableRecord
  2
*Active
 70
0
 10
0.0
 20
0.0
 11
1.0
 21
1.0
 12
0.0
 22
0.0
 13
0.0
 23
0.0
 14
0.5
 24
0.5
 15
0.5
 25
0.5
 16
0.0
 26
0.0
 36
1.0
 17
0.0
 27
0.0
 37
0.0
 40
1000.0
 41
1.34
 42
50.0
 43
0.0
 44
0.0
 50
0.0
 51
0.0
 71
0
 72
1000
 73
1
 74
3
 75
0
 76
0
 77
0
 78
0
281
0
 65
0
146
0.0
  0
ENDTAB
  0
TABLE
  2
LTYPE
  5
2
330
0
100
AcDbSymbolTable
 70
3
  0
LTYPE
  5
24
330
2
100
AcDbSymbolTableRecord
100
AcDbLinetypeTableRecord
  2
ByBlock
 70
0
  3

 72
65
 73
0
 40
0.0
  0
LTYPE
  5
25
330
2
100
AcDbSymbolTableRecord
100
AcDbLinetypeTableRecord
  2
ByLayer
 70
0
  3

 72
65
 73
0
 40
0.0
  0
LTYPE
  5
26
330
2
100
AcDbSymbolTableRecord
100
AcDbLinetypeTableRecord
  2
Continuous
 70
0
  3

 72
65
 73
0
 40
0.0
  0
ENDTAB
  0
TABLE
  2
LAYER
  5
1
330
0
100
AcDbSymbolTable
 70
2
  0
LAYER
  5
27
330
1
100
AcDbSymbolTableRecord
100
AcDbLayerTableRecord
  2
0
 70
0
 62
7
  6
Continuous
370
-3
390
13
347
21
  0
LAYER
  5
28
330
1
100
AcDbSymbolTableRecord
100
AcDbLayerTableRecord
  2
Defpoints
 70
0
 62
7
  6
Continuous
290
0
370
-3
390
13
347
21
  0
ENDTAB
  0
TABLE
  2
STYLE
  5
5
330
0
100
AcDbSymbolTable
 70
1
  0
STYLE
  5
29
330
5
100
AcDbSymbolTableRecord
100
AcDbTextStyleTableRecord
  2
Standard
 70
0
 40
0.0
 41
1.0
 50
0.0
 71
0
 42
2.5
  3
txt
  4

  0
ENDTAB
  0
TABLE
  2
VIEW
  5
7
330
0
100
AcDbSymbolTable
 70
0
  0
ENDTAB
  0
TABLE
  2
UCS
  5
6
330
0
100
AcDbSymbolTable
 70
0
  0
ENDTAB
  0
TABLE
  2
APPID
  5
3
330
0
100
AcDbSymbolTable
 70
3
  0
APPID
  5
2A
330
3
100
AcDbSymbolTableRecord
100
AcDbRegAppTableRecord
  2
ACAD
 70
0
  0
APPID
  5
34
330
3
100
AcDbSymbolTableRecord
100
AcDbRegAppTableRecord
  2
HATCHBACKGROUNDCOLOR
 70
0
  0
APPID
  5
35
330
3
100
AcDbSymbolTableRecord
100
AcDbRegAppTableRecord
  2
EZDXF
 70
0
  0
ENDTAB
  0
TABLE
  2
DIMSTYLE
  5
4
330
0
100
AcDbSymbolTable
 70
1
100
AcDbDimStyleTable
  0
DIMSTYLE
105
2B
330
4
100
AcDbSymbolTableRecord
100
AcDbDimStyleTableRecord
  2
Standard
 70
0
 40
1.0
 41
2.5
 42
0.625
 43
3.75
 44
1.25
 45
0.0
 46
0.0
 47
0.0
 48
0.0
 49
2.5
140
2.5
141
2.5
142
0.0
143
0.03937007874
144
1.0
145
0.0
146
1.0
147
0.625
148
0.0
 69
0
 70
0
 71
0
 72
0
 73
0
 74
0
 75
0
 76
0
 77
1
 78
8
 79
3
170
0
171
3
172
1
173
0
174
0
175
0
176
0
177
0
178
0
179
2
271
2
272
2
273
2
274
3
275
0
276
0
277
2
278
44
279
0
280
0
281
0
282
0
283
0
284
8
285
0
286
0
288
0
289
3
290
0
371
-2
372
-2
  0
ENDTAB
  0
TABLE
  2
BLOCK_RECORD
  5
9
330
0
100
AcDbSymbolTable
 70
2
  0
BLOCK_RECORD
  5
17
330
9
100
AcDbSymbolTableRecord
100
AcDbBlockTableRecord
  2
*Model_Space
340
1A
 70
0
280
1
281
0
  0
BLOCK_RECORD
  5
1B
330
9
100
AcDbSymbolTableRecord
100
AcDbBlockTableRecord
  2
*Paper_Space
340
1E
 70
0
280
1
281
0
  0
ENDTAB
  0
ENDSEC
  0
SECTION
  2
BLOCKS
  0
BLOCK
  5
18
330
17
100
AcDbEntity
  8
0
100
AcDbBlockBegin
  2
*Model_Space
 70
0
 10
0.0
 20
0.0
 30
0.0
  3
*Model_Space
  1

  0
ENDBLK
  5
19
330
17
100
AcDbEntity
  8
0
100
AcDbBlockEnd
  0
BLOCK
  5
1C
330
1B
100
AcDbEntity
  8
0
100
AcDbBlockBegin
  2
*Paper_Space
 70
0
 10
0.0
 20
0.0
 30
0.0
  3
*Paper_Space
  1

  0
ENDBLK
  5
1D
330
1B
100
AcDbEntity
  8
0
100
AcDbBlockEnd
  0
ENDSEC
  0
SECTION
  2
ENTITIES
  0
LWPOLYLINE
  5
2F
330
17
100
AcDbEntity
  8
0
100
AcDbPolyline
 90
208
 70
1
 10
308.1662900100984
 20
1299.7619228475974
 10
306.27642822265625
 20
1298.61962890625
 10
305.4057922363281
 20
1298.0960083007812
 10
304.3653259277344
 20
1297.4717102050781
 10
303.15142822265625
 20
1296.7404174804688
 10
302.0259704589844
 20
1296.0613708496094
 10
300.8510437011719
 20
1295.3497009277344
 10
299.65130615234375
 20
1294.6173706054688
 10
298.4515075683594
 20
1293.8762512207031
 10
297.24114990234375
 20
1293.1133728027344
 10
296.0272521972656
 20
1292.3266906738281
 10
294.8133239746094
 20
1291.5195922851562
 10
293.59942626953125
 20
1290.6833801269531
 10
292.3855285644531
 20
1289.8092346191406
 10
291.17449951171875
 20
1288.8942565917969
 10
289.9693603515625
 20
1287.9356079101562
 10
288.77294921875
 20
1286.9360961914062
 10
287.5881652832031
 20
1285.898681640625
 10
286.4209289550781
 20
1284.8233947753906
 10
285.2770080566406
 20
1283.7189331054688
 10
284.1622009277344
 20
1282.5940551757812
 10
283.07720947265625
 20
1281.4580078125
 10
282.0261535644531
 20
1280.3233337402344
 10
280.9984436035156
 20
1279.1828002929688
 10
280.0129699707031
 20
1278.0629577636719
 10
279.0828552246094
 20
1276.9903869628906
 10
278.084716796875
 20
1275.8334350585938
 10
277.2308044433594
 20
1274.8417663574219
 10
276.5176086425781
 20
1274.0119934082031
 10
274.9630272873453
 20
1272.2108157325265
 10
237.4887421539485
 20
199.0876950563761
 10
238.58554077148438
 20
197.516357421875
 10
239.07601928710938
 20
196.7923583984375
 10
239.6539306640625
 20
195.927490234375
 10
240.31651306152344
 20
194.9180908203125
 10
240.90316772460938
 20
193.982421875
 10
241.4944305419922
 20
193.0054931640625
 10
242.0778045654297
 20
192.0079345703125
 10
242.6378631591797
 20
191.010498046875
 10
243.1865997314453
 20
190.004150390625
 10
243.7179718017578
 20
188.994873046875
 10
244.23477172851562
 20
187.985595703125
 10
244.74281311035156
 20
186.976318359375
 10
245.24795532226562
 20
185.967041015625
 10
245.7501678466797
 20
184.9576416015625
 10
246.2582244873047
 20
183.9483642578125
 10
246.78085327148438
 20
182.9390869140625
 10
247.3297119140625
 20
181.9298095703125
 10
247.91648864746094
 20
180.9205322265625
 10
248.55282592773438
 20
179.9140625
 10
249.24453735351562
 20
178.9136962890625
 10
250.0004425048828
 20
177.921875
 10
250.82044982910156
 20
176.941650390625
 10
251.69874572753906
 20
175.9791259765625
 10
252.62953186035156
 20
175.039794921875
 10
253.60118103027344
 20
174.132568359375
 10
254.60191345214844
 20
173.2574462890625
 10
255.62307739257812
 20
172.4171142578125
 10
256.6559143066406
 20
171.6148681640625
 10
257.6946105957031
 20
170.8564453125
 10
258.7361755371094
 20
170.138671875
 10
259.7777404785156
 20
169.461669921875
 10
260.8193054199219
 20
168.8167724609375
 10
261.86090087890625
 20
168.2069091796875
 10
262.9024963378906
 20
167.629150390625
 10
263.9440612792969
 20
167.0806884765625
 10
264.98565673828125
 20
166.5521240234375
 10
266.0272521972656
 20
166.0472412109375
 10
267.0688171386719
 20
165.5628662109375
 10
268.11041259765625
 20
165.1046142578125
 10
269.1519775390625
 20
164.669677734375
 10
270.1935729980469
 20
164.2579345703125
 10
271.2351379394531
 20
163.8724365234375
 10
272.2767333984375
 20
163.516357421875
 10
273.31829833984375
 20
163.1834716796875
 10
274.3598937988281
 20
162.8709716796875
 10
275.4014587402344
 20
162.575927734375
 10
276.4430236816406
 20
162.298583984375
 10
277.4845886230469
 20
162.038330078125
 10
278.52618408203125
 20
161.7900390625
 10
279.5677795410156
 20
161.5562744140625
 10
280.6093444824219
 20
161.3399658203125
 10
281.64788818359375
 20
161.144287109375
 10
282.6773376464844
 20
160.9658203125
 10
283.7067565917969
 20
160.7935791015625
 10
284.7149353027344
 20
160.626953125
 10
285.6806335449219
 20
160.4697265625
 10
286.72222900390625
 20
160.2708740234375
 10
287.6150207519531
 20
160.0938720703125
 10
288.3620300292969
 20
159.935546875
 10
289.983607183949
 20
159.5305711675437
 10
733.931121657839
 20
144.02758234816656
 10
735.4881591796875
 20
144.853515625
 10
736.2054443359375
 20
145.2100830078125
 10
737.0626831054688
 20
145.6275634765625
 10
738.0629272460938
 20
146.105712890625
 10
738.9901123046875
 20
146.5228271484375
 10
739.9581298828125
 20
146.9560546875
 10
740.9466552734375
 20
147.3988037109375
 10
741.9351196289062
 20
147.8504638671875
 10
742.9323120117188
 20
148.3226318359375
 10
743.9324951171875
 20
148.818359375
 10
744.9326171875
 20
149.3431396484375
 10
745.9326782226562
 20
149.903076171875
 10
746.9329223632812
 20
150.494873046875
 10
747.9330444335938
 20
151.118896484375
 10
748.9331665039062
 20
151.7750244140625
 10
749.9332885742188
 20
152.4659423828125
 10
750.9334716796875
 20
153.1890869140625
 10
751.93359375
 20
153.9412841796875
 10
752.9307250976562
 20
154.7227783203125
 10
753.9222412109375
 20
155.536376953125
 10
754.9048461914062
 20
156.384765625
 10
755.8758544921875
 20
157.2652587890625
 10
756.8294067382812
 20
158.1749267578125
 10
757.7594604492188
 20
159.1138916015625
 10
758.6605224609375
 20
160.0819091796875
 10
759.5352783203125
 20
161.0731201171875
 10
760.3838500976562
 20
162.08203125
 10
761.2061157226562
 20
163.1025390625
 10
761.9993286132812
 20
164.1318359375
 10
762.7691040039062
 20
165.166748046875
 10
763.5185546875
 20
166.2047119140625
 10
764.25048828125
 20
167.2425537109375
 10
764.9561157226562
 20
168.2806396484375
 10
765.6355590820312
 20
169.318603515625
 10
766.2858276367188
 20
170.3565673828125
 10
766.9098510742188
 20
171.39453125
 10
767.5018310546875
 20
172.4326171875
 10
768.0617065429688
 20
173.470703125
 10
768.5866088867188
 20
174.508544921875
 10
769.0853881835938
 20
175.5465087890625
 10
769.5548095703125
 20
176.5843505859375
 10
769.9981689453125
 20
177.6224365234375
 10
770.4180908203125
 20
178.660400390625
 10
770.8176879882812
 20
179.6953125
 10
771.1968383789062
 20
180.7213134765625
 10
771.5701904296875
 20
181.7470703125
 10
771.9288330078125
 20
182.7518310546875
 10
772.2730102539062
 20
183.714111328125
 10
772.6609497070312
 20
184.7520751953125
 10
772.9963989257812
 20
185.6417236328125
 10
773.2821655273438
 20
186.3861083984375
 10
773.9383032648656
 20
188.0021544974661
 10
809.9067343384132
 20
1218.0032569086698
 10
809.5811767578125
 20
1219.6904602050781
 10
809.458984375
 20
1220.4677429199219
 10
809.3286743164062
 20
1221.3966369628906
 10
809.1931762695312
 20
1222.4803771972656
 10
809.1068115234375
 20
1223.485107421875
 10
809.0411376953125
 20
1224.5340881347656
 10
808.9959106445312
 20
1225.6051635742188
 10
808.9711303710938
 20
1226.67626953125
 10
808.9550170898438
 20
1227.7568664550781
 10
808.9419555664062
 20
1228.8406066894531
 10
808.9259643554688
 20
1229.9243469238281
 10
808.9013061523438
 20
1231.0080871582031
 10
808.8590087890625
 20
1232.0918273925781
 10
808.79345703125
 20
1233.1755676269531
 10
808.69873046875
 20
1234.2593078613281
 10
808.5777587890625
 20
1235.3430480957031
 10
808.4306640625
 20
1236.4267883300781
 10
808.2572021484375
 20
1237.5105285644531
 10
808.0575561523438
 20
1238.59423828125
 10
807.8374633789062
 20
1239.6780090332031
 10
807.6027221679688
 20
1240.76171875
 10
807.359375
 20
1241.845458984375
 10
807.1014404296875
 20
1242.92919921875
 10
806.8317260742188
 20
1244.012939453125
 10
806.5504150390625
 20
1245.0966796875
 10
806.2574462890625
 20
1246.180419921875
 10
805.9500122070312
 20
1247.26416015625
 10
805.6249389648438
 20
1248.347900390625
 10
805.2765502929688
 20
1249.431640625
 10
804.91064453125
 20
1250.515380859375
 10
804.5215454101562
 20
1251.59912109375
 10
804.1119384765625
 20
1252.682861328125
 10
803.6819458007812
 20
1253.7666015625
 10
803.2315063476562
 20
1254.850341796875
 10
802.7607421875
 20
1255.93408203125
 10
802.2753295898438
 20
1257.017822265625
 10
801.76953125
 20
1258.1015625
 10
801.2462158203125
 20
1259.185302734375
 10
800.6966552734375
 20
1260.26904296875
 10
800.1209106445312
 20
1261.3527526855469
 10
799.5189208984375
 20
1262.43359375
 10
798.8876953125
 20
1263.5085754394531
 10
798.2214965820312
 20
1264.5747985839844
 10
797.5233154296875
 20
1265.62939453125
 10
796.79296875
 20
1266.6694030761719
 10
796.0394287109375
 20
1267.69189453125
 10
795.2595825195312
 20
1268.6940307617188
 10
794.4505615234375
 20
1269.6786193847656
 10
793.615234375
 20
1270.6486511230469
 10
792.7567138671875
 20
1271.6070251464844
 10
791.8748168945312
 20
1272.556640625
 10
790.9696044921875
 20
1273.4975280761719
 10
790.0380859375
 20
1274.4296569824219
 10
789.0862426757812
 20
1275.3529968261719
 10
788.1226806640625
 20
1276.2644958496094
 10
787.1563110351562
 20
1277.1577758789062
 10
786.1810913085938
 20
1278.0393371582031
 10
785.2203369140625
 20
1278.8901062011719
 10
784.29736328125
 20
1279.6965637207031
 10
783.3017578125
 20
1280.5646057128906
 10
782.4483642578125
 20
1281.3069152832031
 10
781.734375
 20
1281.9267578125
 10
780.184335898242
 20
1283.2786894711921
  0
LWPOLYLINE
  5
30
330
17
100
AcDbEntity
  8
0
100
AcDbPolyline
 90
119
 70
1
 10
453.0
 20
1016.0
 10
454.0728454589844
 20
1017.5452270507812
 10
454.5830993652344
 20
1018.2420654296875
 10
455.20703125
 20
1019.0612182617188
 10
455.953369140625
 20
1019.9970703125
 10
456.6821594238281
 20
1020.8221435546875
 10
457.47515869140625
 20
1021.6355590820312
 10
458.31781005859375
 20
1022.4081420898438
 10
459.1953430175781
 20
1023.10791015625
 10
460.11370849609375
 20
1023.7376098632812
 10
461.06121826171875
 20
1024.2828369140625
 10
462.0291442871094
 20
1024.7376098632812
 10
463.01165771484375
 20
1025.1049194335938
 10
464.0029296875
 20
1025.3936157226562
 10
465.0
 20
1025.6093139648438
 10
466.0
 20
1025.7638549804688
 10
467.0
 20
1025.8658447265625
 10
468.0
 20
1025.9300537109375
 10
469.0
 20
1025.9678955078125
 10
470.0
 20
1025.9883422851562
 10
471.0
 20
1025.9970703125
 10
472.0
 20
1026.0
 10
473.0
 20
1025.9970703125
 10
474.0
 20
1025.9883422851562
 10
475.0
 20
1025.9708251953125
 10
476.0
 20
1025.9417114257812
 10
477.0
 20
1025.89794921875
 10
478.0
 20
1025.8367309570312
 10
479.0
 20
1025.755126953125
 10
480.0
 20
1025.6588745117188
 10
481.0
 20
1025.553955078125
 10
482.0
 20
1025.4461059570312
 10
483.0
 20
1025.3411254882812
 10
484.0
 20
1025.2449340820312
 10
485.0
 20
1025.1632080078125
 10
486.0
 20
1025.10205078125
 10
487.0
 20
1025.0582885742188
 10
488.0
 20
1025.0291748046875
 10
489.0
 20
1025.0116577148438
 10
490.0
 20
1025.0
 10
491.0
 20
1024.9883422851562
 10
492.0
 20
1024.9708251953125
 10
493.0
 20
1024.9417114257812
 10
494.0
 20
1024.89794921875
 10
495.0
 20
1024.8338012695312
 10
496.0
 20
1024.7405395507812
 10
497.0
 20
1024.6151733398438
 10
498.0
 20
1024.451904296875
 10
499.0
 20
1024.2420043945312
 10
500.0
 20
1023.9737548828125
 10
501.0
 20
1023.6326904296875
 10
502.0
 20
1023.2098999023438
 10
502.9970703125
 20
1022.70263671875
 10
503.98541259765625
 20
1022.1049194335938
 10
504.9562683105469
 20
1021.4168701171875
 10
505.89794921875
 20
1020.6442260742188
 10
506.7958984375
 20
1019.798828125
 10
507.63262939453125
 20
1018.89794921875
 10
508.3877258300781
 20
1017.9562377929688
 10
509.046630859375
 20
1016.9854125976562
 10
509.6005859375
 20
1015.9970703125
 10
510.0466613769531
 20
1015.0
 10
510.3848571777344
 20
1014.0
 10
510.6210021972656
 20
1013.0
 10
510.76385498046875
 20
1012.0
 10
510.8251037597656
 20
1011.0
 10
510.8134460449219
 20
1010.0
 10
510.7318420410156
 20
1009.0
 10
510.5773010253906
 20
1008.0029296875
 10
510.3498840332031
 20
1007.0116577148438
 10
510.0437316894531
 20
1006.0321044921875
 10
509.6559753417969
 20
1005.0700073242188
 10
509.18658447265625
 20
1004.1340942382812
 10
508.63262939453125
 20
1003.2332153320312
 10
507.9970703125
 20
1002.3789672851562
 10
507.2886657714844
 20
1001.5743408203125
 10
506.5131530761719
 20
1000.8250732421875
 10
505.68218994140625
 20
1000.1312255859375
 10
504.8046569824219
 20
999.49560546875
 10
503.88629150390625
 20
998.9154663085938
 10
502.93878173828125
 20
998.3906860351562
 10
501.9708557128906
 20
997.9154663085938
 10
500.98834228515625
 20
997.4956665039062
 10
499.9970703125
 20
997.1312255859375
 10
499.0
 20
996.8250732421875
 10
498.0
 20
996.5772705078125
 10
497.0029296875
 20
996.3906860351562
 10
496.01458740234375
 20
996.2623901367188
 10
495.0262145996094
 20
996.201171875
 10
494.05828857421875
 20
996.1953125
 10
493.13116455078125
 20
996.2361450195312
 10
492.13116455078125
 20
996.3585815429688
 10
491.2740173339844
 20
996.4898071289062
 10
490.5568542480469
 20
996.6209716796875
 10
489.0
 20
997.0
 10
466.0
 20
997.0
 10
464.44317626953125
 20
997.5218505859375
 10
463.7259216308594
 20
997.7754516601562
 10
462.8717346191406
 20
998.0990600585938
 10
461.8804626464844
 20
998.5042724609375
 10
460.9708557128906
 20
998.9329223632812
 10
460.0349426269531
 20
999.440185546875
 10
459.10198974609375
 20
1000.0291137695312
 10
458.2040710449219
 20
1000.69677734375
 10
457.346923828125
 20
1001.4461059570312
 10
456.545166015625
 20
1002.2652587890625
 10
455.8133850097656
 20
1003.1458129882812
 10
455.1661682128906
 20
1004.0728759765625
 10
454.61224365234375
 20
1005.0321044921875
 10
454.15447998046875
 20
1006.0116577148438
 10
453.7900390625
 20
1007.0029296875
 10
453.51019287109375
 20
1007.9970703125
 10
453.3090515136719
 20
1008.9854125976562
 10
453.1749572753906
 20
1009.9737548828125
 10
453.09039306640625
 20
1010.9417114257812
 10
453.0408020019531
 20
1011.8687744140625
 10
453.01458740234375
 20
1012.8687744140625
 10
453.0029296875
 20
1013.7259521484375
 10
453.0
 20
1014.4431762695312
  0
CIRCLE
  5
31
330
17
100
AcDbEntity
  8
0
100
AcDbCircle
 10
386.82489013671875
 20
1026.1587524414062
 30
0.0
 40
62.39228820800781
  0
CIRCLE
  5
32
330
17
100
AcDbEntity
  8
0
100
AcDbCircle
 10
479.92236328125
 20
1098.9642944335938
 30
0.0
 40
39.86279296875
  0
CIRCLE
  5
33
330
17
100
AcDbEntity
  8
0
100
AcDbCircle
 10
390.39410400390625
 20
1177.2742614746094
 30
0.0
 40
63.0893440246582
  0
ENDSEC
  0
SECTION
  2
OBJECTS
  0
DICTIONARY
  5
A
330
0
100
AcDbDictionary
281
1
  3
ACAD_COLOR
350
B
  3
ACAD_GROUP
350
C
  3
ACAD_LAYOUT
350
D
  3
ACAD_MATERIAL
350
E
  3
ACAD_MLEADERSTYLE
350
F
  3
ACAD_MLINESTYLE
350
10
  3
ACAD_PLOTSETTINGS
350
11
  3
ACAD_PLOTSTYLENAME
350
12
  3
ACAD_SCALELIST
350
14
  3
ACAD_TABLESTYLE
350
15
  3
ACAD_VISUALSTYLE
350
16
  3
EZDXF_META
350
2D
  0
DICTIONARY
  5
B
330
A
100
AcDbDictionary
281
1
  0
DICTIONARY
  5
C
330
A
100
AcDbDictionary
281
1
  0
DICTIONARY
  5
D
330
A
100
AcDbDictionary
281
1
  3
Model
350
1A
  3
Layout1
350
1E
  0
DICTIONARY
  5
E
330
A
100
AcDbDictionary
281
1
  3
ByBlock
350
1F
  3
ByLayer
350
20
  3
Global
350
21
  0
DICTIONARY
  5
F
330
A
100
AcDbDictionary
281
1
  3
Standard
350
2C
  0
DICTIONARY
  5
10
330
A
100
AcDbDictionary
281
1
  3
Standard
350
22
  0
DICTIONARY
  5
11
330
A
100
AcDbDictionary
281
1
  0
ACDBDICTIONARYWDFLT
  5
12
330
A
100
AcDbDictionary
281
1
  3
Normal
350
13
100
AcDbDictionaryWithDefault
340
13
  0
ACDBPLACEHOLDER
  5
13
330
12
  0
DICTIONARY
  5
14
330
A
100
AcDbDictionary
281
1
  0
DICTIONARY
  5
15
330
A
100
AcDbDictionary
281
1
  0
DICTIONARY
  5
16
330
A
100
AcDbDictionary
281
1
  0
LAYOUT
  5
1A
330
D
100
AcDbPlotSettings
  1

  4
A3
  6

 40
7.5
 41
20.0
 42
7.5
 43
20.0
 44
420.0
 45
297.0
 46
0.0
 47
0.0
 48
0.0
 49
0.0
140
0.0
141
0.0
142
1.0
143
1.0
 70
1024
 72
1
 73
0
 74
5
  7

 75
16
 76
0
 77
2
 78
300
147
1.0
148
0.0
149
0.0
100
AcDbLayout
  1
Model
 70
1
 71
0
 10
0.0
 20
0.0
 11
420.0
 21
297.0
 12
0.0
 22
0.0
 32
0.0
 14
1e+20
 24
1e+20
 34
1e+20
 15
-1e+20
 25
-1e+20
 35
-1e+20
146
0.0
 13
0.0
 23
0.0
 33
0.0
 16
1.0
 26
0.0
 36
0.0
 17
0.0
 27
1.0
 37
0.0
 76
1
330
17
  0
LAYOUT
  5
1E
330
D
100
AcDbPlotSettings
  1

  4
A3
  6

 40
7.5
 41
20.0
 42
7.5
 43
20.0
 44
420.0
 45
297.0
 46
0.0
 47
0.0
 48
0.0
 49
0.0
140
0.0
141
0.0
142
1.0
143
1.0
 70
0
 72
1
 73
0
 74
5
  7

 75
16
 76
0
 77
2
 78
300
147
1.0
148
0.0
149
0.0
100
AcDbLayout
  1
Layout1
 70
1
 71
1
 10
0.0
 20
0.0
 11
420.0
 21
297.0
 12
0.0
 22
0.0
 32
0.0
 14
1e+20
 24
1e+20
 34
1e+20
 15
-1e+20
 25
-1e+20
 35
-1e+20
146
0.0
 13
0.0
 23
0.0
 33
0.0
 16
1.0
 26
0.0
 36
0.0
 17
0.0
 27
1.0
 37
0.0
 76
1
330
1B
  0
MATERIAL
  5
1F
102
{ACAD_REACTORS
330
E
102
}
330
E
100
AcDbMaterial
  1
ByBlock
  2

 70
0
 40
1.0
 71
1
 41
1.0
 91
-1023410177
 42
1.0
 72
1
  3

 73
1
 74
1
 75
1
 44
0.5
 73
0
 45
1.0
 46
1.0
 77
1
  4

 78
1
 79
1
170
1
 48
1.0
171
1
  6

172
1
173
1
174
1
140
1.0
141
1.0
175
1
  7

176
1
177
1
178
1
143
1.0
179
1
  8

270
1
271
1
272
1
145
1.0
146
1.0
273
1
  9

274
1
275
1
276
1
 42
1.0
 72
1
  3

 73
1
 74
1
 75
1
 94
63
  0
MATERIAL
  5
20
102
{ACAD_REACTORS
330
E
102
}
330
E
100
AcDbMaterial
  1
ByLayer
  2

 70
0
 40
1.0
 71
1
 41
1.0
 91
-1023410177
 42
1.0
 72
1
  3

 73
1
 74
1
 75
1
 44
0.5
 73
0
 45
1.0
 46
1.0
 77
1
  4

 78
1
 79
1
170
1
 48
1.0
171
1
  6

172
1
173
1
174
1
140
1.0
141
1.0
175
1
  7

176
1
177
1
178
1
143
1.0
179
1
  8

270
1
271
1
272
1
145
1.0
146
1.0
273
1
  9

274
1
275
1
276
1
 42
1.0
 72
1
  3

 73
1
 74
1
 75
1
 94
63
  0
MATERIAL
  5
21
102
{ACAD_REACTORS
330
E
102
}
330
E
100
AcDbMaterial
  1
Global
  2

 70
0
 40
1.0
 71
1
 41
1.0
 91
-1023410177
 42
1.0
 72
1
  3

 73
1
 74
1
 75
1
 44
0.5
 73
0
 45
1.0
 46
1.0
 77
1
  4

 78
1
 79
1
170
1
 48
1.0
171
1
  6

172
1
173
1
174
1
140
1.0
141
1.0
175
1
  7

176
1
177
1
178
1
143
1.0
179
1
  8

270
1
271
1
272
1
145
1.0
146
1.0
273
1
  9

274
1
275
1
276
1
 42
1.0
 72
1
  3

 73
1
 74
1
 75
1
 94
63
  0
MLINESTYLE
  5
22
102
{ACAD_REACTORS
330
10
102
}
330
10
100
AcDbMlineStyle
  2
Standard
 70
0
  3

 62
256
 51
90.0
 52
90.0
 71
2
 49
0.5
 62
256
  6
BYLAYER
 49
-0.5
 62
256
  6
BYLAYER
  0
MLEADERSTYLE
  5
2C
102
{ACAD_REACTORS
330
F
102
}
330
F
100
AcDbMLeaderStyle
179
2
170
2
171
1
172
0
 90
2
 40
0.0
 41
0.0
173
1
 91
-1056964608
 92
-2
290
1
 42
2.0
291
1
 43
8.0
  3
Standard
 44
4.0
300

342
29
174
1
175
1
176
0
178
1
 93
-1056964608
 45
4.0
292
0
297
0
 46
4.0
 94
-1056964608
 47
1.0
 49
1.0
140
1.0
294
1
141
0.0
177
0
142
1.0
295
0
296
0
143
3.75
271
0
272
9
273
9
  0
DICTIONARY
  5
2D
330
A
100
AcDbDictionary
280
1
281
1
  3
CREATED_BY_EZDXF
350
2E
  3
WRITTEN_BY_EZDXF
350
36
  0
DICTIONARYVAR
  5
2E
330
2D
100
DictionaryVariables
280
0
  1
1.4.4 @ 2026-07-16T10:10:49.513138+00:00
  0
DICTIONARYVAR
  5
36
330
2D
100
DictionaryVariables
280
0
  1
1.4.4 @ 2026-07-16T10:10:49.527800+00:00
  0
ENDSEC
  0
EOF
