  0
SECTION
  2
HEADER
  9
$ACADVER
  1
AC1024
  9
$ACADMAINTVER
 70
6
  9
$DWGCODEPAGE
  3
ANSI_1252
  9
$LASTSAVEDBY
  1
ezdxf
  9
$INSBASE
 10
0.0
 20
0.0
 30
0.0
  9
$EXTMIN
 10
1e+20
 20
1e+20
 30
1e+20
  9
$EXTMAX
 10
-1e+20
 20
-1e+20
 30
-1e+20
  9
$LIMMIN
 10
0.0
 20
0.0
  9
$LIMMAX
 10
420.0
 20
297.0
  9
$ORTHOMODE
 70
0
  9
$REGENMODE
 70
1
  9
$FILLMODE
 70
1
  9
$QTEXTMODE
 70
0
  9
$MIRRTEXT
 70
1
  9
$LTSCALE
 40
1.0
  9
$ATTMODE
 70
1
  9
$TEXTSIZE
 40
2.5
  9
$TRACEWID
 40
1.0
  9
$TEXTSTYLE
  7
Standard
  9
$CLAYER
  8
0
  9
$CELTYPE
  6
ByLayer
  9
$CECOLOR
 62
256
  9
$CELTSCALE
 40
1.0
  9
$DISPSILH
 70
0
  9
$DIMSCALE
 40
1.0
  9
$DIMASZ
 40
2.5
  9
$DIMEXO
 40
0.625
  9
$DIMDLI
 40
3.75
  9
$DIMRND
 40
0.0
  9
$DIMDLE
 40
0.0
  9
$DIMEXE
 40
1.25
  9
$DIMTP
 40
0.0
  9
$DIMTM
 40
0.0
  9
$DIMTXT
 40
2.5
  9
$DIMCEN
 40
2.5
  9
$DIMTSZ
 40
0.0
  9
$DIMTOL
 70
0
  9
$DIMLIM
 70
0
  9
$DIMTIH
 70
0
  9
$DIMTOH
 70
0
  9
$DIMSE1
 70
0
  9
$DIMSE2
 70
0
  9
$DIMTAD
 70
1
  9
$DIMZIN
 70
8
  9
$DIMBLK
  1

  9
$DIMASO
 70
1
  9
$DIMSHO
 70
1
  9
$DIMPOST
  1

  9
$DIMAPOST
  1

  9
$DIMALT
 70
0
  9
$DIMALTD
 70
3
  9
$DIMALTF
 40
0.03937007874
  9
$DIMLFAC
 40
1.0
  9
$DIMTOFL
 70
1
  9
$DIMTVP
 40
0.0
  9
$DIMTIX
 70
0
  9
$DIMSOXD
 70
0
  9
$DIMSAH
 70
0
  9
$DIMBLK1
  1

  9
$DIMBLK2
  1

  9
$DIMSTYLE
  2
ISO-25
  9
$DIMCLRD
 70
0
  9
$DIMCLRE
 70
0
  9
$DIMCLRT
 70
0
  9
$DIMTFAC
 40
1.0
  9
$DIMGAP
 40
0.625
  9
$DIMJUST
 70
0
  9
$DIMSD1
 70
0
  9
$DIMSD2
 70
0
  9
$DIMTOLJ
 70
0
  9
$DIMTZIN
 70
8
  9
$DIMALTZ
 70
0
  9
$DIMALTTZ
 70
0
  9
$DIMUPT
 70
0
  9
$DIMDEC
 70
2
  9
$DIMTDEC
 70
2
  9
$DIMALTU
 70
2
  9
$DIMALTTD
 70
3
  9
$DIMTXSTY
  7
Standard
  9
$DIMAUNIT
 70
0
  9
$DIMADEC
 70
0
  9
$DIMALTRND
 40
0.0
  9
$DIMAZIN
 70
0
  9
$DIMDSEP
 70
44
  9
$DIMATFIT
 70
3
  9
$DIMFRAC
 70
0
  9
$DIMLDRBLK
  1

  9
$DIMLUNIT
 70
2
  9
$DIMLWD
 70
-2
  9
$DIMLWE
 70
-2
  9
$DIMTMOVE
 70
0
  9
$DIMFXL
 40
1.0
  9
$DIMFXLON
 70
0
  9
$DIMJOGANG
 40
0.785398163397
  9
$DIMTFILL
 70
0
  9
$DIMTFILLCLR
 70
0
  9
$DIMARCSYM
 70
0
  9
$DIMLTYPE
  6

  9
$DIMLTEX1
  6

  9
$DIMLTEX2
  6

  9
$DIMTXTDIRECTION
 70
0
  9
$LUNITS
 70
2
  9
$LUPREC
 70
4
  9
$SKETCHINC
 40
1.0
  9
$FILLETRAD
 40
10.0
  9
$AUNITS
 70
0
  9
$AUPREC
 70
2
  9
$MENU
  1
.
  9
$ELEVATION
 40
0.0
  9
$PELEVATION
 40
0.0
  9
$THICKNESS
 40
0.0
  9
$LIMCHECK
 70
0
  9
$CHAMFERA
 40
0.0
  9
$CHAMFERB
 40
0.0
  9
$CHAMFERC
 40
0.0
  9
$CHAMFERD
 40
0.0
  9
$SKPOLY
 70
0
  9
$TDCREATE
 40
2461238.4658449073
  9
$TDUCREATE
 40
2458532.153996898
  9
$TDUPDATE
 40
2461238.4658449073
  9
$TDUUPDATE
 40
2458532.1544311
  9
$TDINDWG
 40
0.0
  9
$TDUSRTIMER
 40
0.0
  9
$USRTIMER
 70
1
  9
$ANGBASE
 50
0.0
  9
$ANGDIR
 70
0
  9
$PDMODE
 70
0
  9
$PDSIZE
 40
0.0
  9
$PLINEWID
 40
0.0
  9
$SPLFRAME
 70
0
  9
$SPLINETYPE
 70
6
  9
$SPLINESEGS
 70
8
  9
$HANDSEED
  5
33
  9
$SURFTAB1
 70
6
  9
$SURFTAB2
 70
6
  9
$SURFTYPE
 70
6
  9
$SURFU
 70
6
  9
$SURFV
 70
6
  9
$UCSBASE
  2

  9
$UCSNAME
  2

  9
$UCSORG
 10
0.0
 20
0.0
 30
0.0
  9
$UCSXDIR
 10
1.0
 20
0.0
 30
0.0
  9
$UCSYDIR
 10
0.0
 20
1.0
 30
0.0
  9
$UCSORTHOREF
  2

  9
$UCSORTHOVIEW
 70
0
  9
$UCSORGTOP
 10
0.0
 20
0.0
 30
0.0
  9
$UCSORGBOTTOM
 10
0.0
 20
0.0
 30
0.0
  9
$UCSORGLEFT
 10
0.0
 20
0.0
 30
0.0
  9
$UCSORGRIGHT
 10
0.0
 20
0.0
 30
0.0
  9
$UCSORGFRONT
 10
0.0
 20
0.0
 30
0.0
  9
$UCSORGBACK
 10
0.0
 20
0.0
 30
0.0
  9
$PUCSBASE
  2

  9
$PUCSNAME
  2

  9
$PUCSORG
 10
0.0
 20
0.0
 30
0.0
  9
$PUCSXDIR
 10
1.0
 20
0.0
 30
0.0
  9
$PUCSYDIR
 10
0.0
 20
1.0
 30
0.0
  9
$PUCSORTHOREF
  2

  9
$PUCSORTHOVIEW
 70
0
  9
$PUCSORGTOP
 10
0.0
 20
0.0
 30
0.0
  9
$PUCSORGBOTTOM
 10
0.0
 20
0.0
 30
0.0
  9
$PUCSORGLEFT
 10
0.0
 20
0.0
 30
0.0
  9
$PUCSORGRIGHT
 10
0.0
 20
0.0
 30
0.0
  9
$PUCSORGFRONT
 10
0.0
 20
0.0
 30
0.0
  9
$PUCSORGBACK
 10
0.0
 20
0.0
 30
0.0
  9
$USERI1
 70
0
  9
$USERI2
 70
0
  9
$USERI3
 70
0
  9
$USERI4
 70
0
  9
$USERI5
 70
0
  9
$USERR1
 40
0.0
  9
$USERR2
 40
0.0
  9
$USERR3
 40
0.0
  9
$USERR4
 40
0.0
  9
$USERR5
 40
0.0
  9
$WORLDVIEW
 70
1
  9
$SHADEDGE
 70
3
  9
$SHADEDIF
 70
70
  9
$TILEMODE
 70
1
  9
$MAXACTVP
 70
64
  9
$PINSBASE
 10
0.0
 20
0.0
 30
0.0
  9
$PLIMCHECK
 70
0
  9
$PEXTMIN
 10
1e+20
 20
1e+20
 30
1e+20
  9
$PEXTMAX
 10
-1e+20
 20
-1e+20
 30
-1e+20
  9
$PLIMMIN
 10
0.0
 20
0.0
  9
$PLIMMAX
 10
420.0
 20
297.0
  9
$UNITMODE
 70
0
  9
$VISRETAIN
 70
1
  9
$PLINEGEN
 70
0
  9
$PSLTSCALE
 70
1
  9
$TREEDEPTH
 70
3020
  9
$CMLSTYLE
  2
Standard
  9
$CMLJUST
 70
0
  9
$CMLSCALE
 40
20.0
  9
$PROXYGRAPHICS
 70
1
  9
$MEASUREMENT
 70
1
  9
$CELWEIGHT
370
-1
  9
$ENDCAPS
280
0
  9
$JOINSTYLE
280
0
  9
$LWDISPLAY
290
0
  9
$INSUNITS
 70
6
  9
$HYPERLINKBASE
  1

  9
$STYLESHEET
  1

  9
$XEDIT
290
1
  9
$CEPSNTYPE
380
0
  9
$PSTYLEMODE
290
1
  9
$FINGERPRINTGUID
  2
{FBBCAA08-3D08-4C98-A2F8-8EB42A2DC71C}
  9
$VERSIONGUID
  2
{3E26255F-F30F-469C-BAF7-CCE3806E8F97}
  9
$EXTNAMES
290
1
  9
$PSVPSCALE
 40
0.0
  9
$OLESTARTUP
290
0
  9
$SORTENTS
280
127
  9
$INDEXCTL
280
0
  9
$HIDETEXT
280
1
  9
$XCLIPFRAME
280
1
  9
$HALOGAP
280
0
  9
$OBSCOLOR
 70
257
  9
$OBSLTYPE
280
0
  9
$INTERSECTIONDISPLAY
280
0
  9
$INTERSECTIONCOLOR
 70
257
  9
$DIMASSOC
280
2
  9
$PROJECTNAME
  1

  9
$CAMERADISPLAY
290
0
  9
$LENSLENGTH
 40
50.0
  9
$CAMERAHEIGHT
 40
0.0
  9
$STEPSPERSEC
 40
24.0
  9
$STEPSIZE
 40
100.0
  9
$3DDWFPREC
 40
2.0
  9
$PSOLWIDTH
 40
0.005
  9
$PSOLHEIGHT
 40
0.08
  9
$LOFTANG1
 40
1.570796326795
  9
$LOFTANG2
 40
1.570796326795
  9
$LOFTMAG1
 40
0.0
  9
$LOFTMAG2
 40
0.0
  9
$LOFTPARAM
 70
7
  9
$LOFTNORMALS
280
1
  9
$LATITUDE
 40
37.795
  9
$LONGITUDE
 40
-122.394
  9
$NORTHDIRECTION
 40
0.0
  9
$TIMEZONE
 70
-8000
  9
$LIGHTGLYPHDISPLAY
280
1
  9
$TILEMODELIGHTSYNCH
280
1
  9
$CMATERIAL
347
20
  9
$SOLIDHIST
280
0
  9
$SHOWHIST
280
1
  9
$DWFFRAME
280
2
  9
$DGNFRAME
280
2
  9
$REALWORLDSCALE
290
1
  9
$INTERFERECOLOR
 62
256
  9
$CSHADOW
280
0
  9
$SHADOWPLANELOCATION
 40
0.0
  0
ENDSEC
  0
SECTION
  2
CLASSES
  0
CLASS
  1
ACDBDICTIONARYWDFLT
  2
AcDbDictionaryWithDefault
  3
ObjectDBX Classes
 90
0
 91
0
280
0
281
0
  0
CLASS
  1
SUN
  2
AcDbSun
  3
SCENEOE
 90
1153
 91
0
280
0
281
0
  0
CLASS
  1
VISUALSTYLE
  2
AcDbVisualStyle
  3
ObjectDBX Classes
 90
4095
 91
0
280
0
281
0
  0
CLASS
  1
MATERIAL
  2
AcDbMaterial
  3
ObjectDBX Classes
 90
1153
 91
0
280
0
281
0
  0
CLASS
  1
SCALE
  2
AcDbScale
  3
ObjectDBX Classes
 90
1153
 91
0
280
0
281
0
  0
CLASS
  1
TABLESTYLE
  2
AcDbTableStyle
  3
ObjectDBX Classes
 90
4095
 91
0
280
0
281
0
  0
CLASS
  1
MLEADERSTYLE
  2
AcDbMLeaderStyle
  3
ACDB_MLEADERSTYLE_CLASS
 90
4095
 91
0
280
0
281
0
  0
CLASS
  1
DICTIONARYVAR
  2
AcDbDictionaryVar
  3
ObjectDBX Classes
 90
0
 91
0
280
0
281
0
  0
CLASS
  1
CELLSTYLEMAP
  2
AcDbCellStyleMap
  3
ObjectDBX Classes
 90
1152
 91
0
280
0
281
0
  0
CLASS
  1
MENTALRAYRENDERSETTINGS
  2
AcDbMentalRayRenderSettings
  3
SCENEOE
 90
1024
 91
0
280
0
281
0
  0
CLASS
  1
ACDBDETAILVIEWSTYLE
  2
AcDbDetailViewStyle
  3
ObjectDBX Classes
 90
1025
 91
0
280
0
281
0
  0
CLASS
  1
ACDBSECTIONVIEWSTYLE
  2
AcDbSectionViewStyle
  3
ObjectDBX Classes
 90
1025
 91
0
280
0
281
0
  0
CLASS
  1
RASTERVARIABLES
  2
AcDbRasterVariables
  3
ISM
 90
0
 91
0
280
0
281
0
  0
CLASS
  1
LAYOUT
  2
AcDbLayout
  3
ObjectDBX Classes
 90
0
 91
0
280
0
281
0
  0
CLASS
  1
ACDBPLACEHOLDER
  2
AcDbPlaceHolder
  3
ObjectDBX Classes
 90
0
 91
0
280
0
281
0
  0
ENDSEC
  0
SECTION
  2
TABLES
  0
TABLE
  2
VPORT
  5
8
330
0
100
AcDbSymbolTable
 70
1
  0
VPORT
  5
23
330
8
100
AcDbSymbolTableRecord
100
AcDbViewportTableRecord
  2
*Active
 70
0
 10
0.0
 20
0.0
 11
1.0
 21
1.0
 12
0.0
 22
0.0
 13
0.0
 23
0.0
 14
0.5
 24
0.5
 15
0.5
 25
0.5
 16
0.0
 26
0.0
 36
1.0
 17
0.0
 27
0.0
 37
0.0
 40
1000.0
 41
1.34
 42
50.0
 43
0.0
 44
0.0
 50
0.0
 51
0.0
 71
0
 72
1000
 73
1
 74
3
 75
0
 76
0
 77
0
 78
0
281
0
 65
0
146
0.0
  0
ENDTAB
  0
TABLE
  2
LTYPE
  5
2
330
0
100
AcDbSymbolTable
 70
3
  0
LTYPE
  5
24
330
2
100
AcDbSymbolTableRecord
100
AcDbLinetypeTableRecord
  2
ByBlock
 70
0
  3

 72
65
 73
0
 40
0.0
  0
LTYPE
  5
25
330
2
100
AcDbSymbolTableRecord
100
AcDbLinetypeTableRecord
  2
ByLayer
 70
0
  3

 72
65
 73
0
 40
0.0
  0
LTYPE
  5
26
330
2
100
AcDbSymbolTableRecord
100
AcDbLinetypeTableRecord
  2
Continuous
 70
0
  3

 72
65
 73
0
 40
0.0
  0
ENDTAB
  0
TABLE
  2
LAYER
  5
1
330
0
100
AcDbSymbolTable
 70
2
  0
LAYER
  5
27
330
1
100
AcDbSymbolTableRecord
100
AcDbLayerTableRecord
  2
0
 70
0
 62
7
  6
Continuous
370
-3
390
13
347
21
  0
LAYER
  5
28
330
1
100
AcDbSymbolTableRecord
100
AcDbLayerTableRecord
  2
Defpoints
 70
0
 62
7
  6
Continuous
290
0
370
-3
390
13
347
21
  0
ENDTAB
  0
TABLE
  2
STYLE
  5
5
330
0
100
AcDbSymbolTable
 70
1
  0
STYLE
  5
29
330
5
100
AcDbSymbolTableRecord
100
AcDbTextStyleTableRecord
  2
Standard
 70
0
 40
0.0
 41
1.0
 50
0.0
 71
0
 42
2.5
  3
txt
  4

  0
ENDTAB
  0
TABLE
  2
VIEW
  5
7
330
0
100
AcDbSymbolTable
 70
0
  0
ENDTAB
  0
TABLE
  2
UCS
  5
6
330
0
100
AcDbSymbolTable
 70
0
  0
ENDTAB
  0
TABLE
  2
APPID
  5
3
330
0
100
AcDbSymbolTable
 70
3
  0
APPID
  5
2A
330
3
100
AcDbSymbolTableRecord
100
AcDbRegAppTableRecord
  2
ACAD
 70
0
  0
APPID
  5
30
330
3
100
AcDbSymbolTableRecord
100
AcDbRegAppTableRecord
  2
HATCHBACKGROUNDCOLOR
 70
0
  0
APPID
  5
31
330
3
100
AcDbSymbolTableRecord
100
AcDbRegAppTableRecord
  2
EZDXF
 70
0
  0
ENDTAB
  0
TABLE
  2
DIMSTYLE
  5
4
330
0
100
AcDbSymbolTable
 70
1
100
AcDbDimStyleTable
  0
DIMSTYLE
105
2B
330
4
100
AcDbSymbolTableRecord
100
AcDbDimStyleTableRecord
  2
Standard
 70
0
 40
1.0
 41
2.5
 42
0.625
 43
3.75
 44
1.25
 45
0.0
 46
0.0
 47
0.0
 48
0.0
 49
2.5
140
2.5
141
2.5
142
0.0
143
0.03937007874
144
1.0
145
0.0
146
1.0
147
0.625
148
0.0
 69
0
 70
0
 71
0
 72
0
 73
0
 74
0
 75
0
 76
0
 77
1
 78
8
 79
3
170
0
171
3
172
1
173
0
174
0
175
0
176
0
177
0
178
0
179
2
271
2
272
2
273
2
274
3
275
0
276
0
277
2
278
44
279
0
280
0
281
0
282
0
283
0
284
8
285
0
286
0
288
0
289
3
290
0
371
-2
372
-2
  0
ENDTAB
  0
TABLE
  2
BLOCK_RECORD
  5
9
330
0
100
AcDbSymbolTable
 70
2
  0
BLOCK_RECORD
  5
17
330
9
100
AcDbSymbolTableRecord
100
AcDbBlockTableRecord
  2
*Model_Space
340
1A
 70
0
280
1
281
0
  0
BLOCK_RECORD
  5
1B
330
9
100
AcDbSymbolTableRecord
100
AcDbBlockTableRecord
  2
*Paper_Space
340
1E
 70
0
280
1
281
0
  0
ENDTAB
  0
ENDSEC
  0
SECTION
  2
BLOCKS
  0
BLOCK
  5
18
330
17
100
AcDbEntity
  8
0
100
AcDbBlockBegin
  2
*Model_Space
 70
0
 10
0.0
 20
0.0
 30
0.0
  3
*Model_Space
  1

  0
ENDBLK
  5
19
330
17
100
AcDbEntity
  8
0
100
AcDbBlockEnd
  0
BLOCK
  5
1C
330
1B
100
AcDbEntity
  8
0
100
AcDbBlockBegin
  2
*Paper_Space
 70
0
 10
0.0
 20
0.0
 30
0.0
  3
*Paper_Space
  1

  0
ENDBLK
  5
1D
330
1B
100
AcDbEntity
  8
0
100
AcDbBlockEnd
  0
ENDSEC
  0
SECTION
  2
ENTITIES
  0
LWPOLYLINE
  5
2F
330
17
100
AcDbEntity
  8
0
100
AcDbPolyline
 90
357
 70
1
 10
35.29998396131758
 20
274.22717592889614
 10
28.0756583721816
 20
267.4903833298565
 10
28.06461181640625
 20
267.2420379638672
 10
28.0621337890625
 20
267.1352600097656
 10
28.061737060546875
 20
266.9932159423828
 10
28.061334228515626
 20
266.85117492675784
 10
28.063217163085938
 20
266.74440612792966
 10
28.072870855589336
 20
266.49608916208604
 10
31.394530902329358
 20
263.6086141359209
 10
31.377978515625
 20
263.38628845214845
 10
31.370462036132814
 20
263.2853515625
 10
31.361456298828124
 20
263.1643829345703
 10
31.3511474609375
 20
263.02590026855466
 10
31.342047119140624
 20
262.9036865234375
 10
31.33173828125
 20
262.76520385742185
 10
31.3227294921875
 20
262.64423828125
 10
31.315213012695313
 20
262.5432922363281
 10
31.298664227335543
 20
262.3209713624947
 10
23.139125619306093
 20
254.71207851458453
 10
22.83271026611328
 20
254.7307159423828
 10
22.695553588867188
 20
254.7390625
 10
22.538551330566406
 20
254.74861755371094
 10
22.338359069824218
 20
254.76079711914062
 10
22.181358337402344
 20
254.77035217285157
 10
22.04419860839844
 20
254.77869567871093
 10
21.737779497975712
 20
254.79733745316327
 10
17.849133422399515
 20
258.17768591472276
 10
8.55995221774179
 20
249.51538430351303
 10
8.338570404052735
 20
249.26611938476563
 10
8.237157440185547
 20
249.15293884277344
 10
8.116675567626952
 20
249.01731567382814
 10
7.980052947998047
 20
248.86205444335937
 10
7.8605598449707035
 20
248.72503356933595
 10
7.73048095703125
 20
248.5697814941406
 10
7.6181785583496096
 20
248.43417358398438
 10
7.5260368347167965
 20
248.32101440429688
 10
7.333555267344993
 20
248.07179252016644
 10
10.846103594414817
 20
245.01838084350607
 10
10.927458953857421
 20
244.79746704101564
 10
10.962013244628906
 20
244.69716186523436
 10
11.000650787353516
 20
244.57695922851562
 10
11.042382049560548
 20
244.43933715820313
 10
11.074422454833984
 20
244.31786499023437
 10
11.10306625366211
 20
244.1802185058594
 10
11.125889587402344
 20
244.0599792480469
 10
11.142449188232423
 20
243.9596374511719
 10
11.167090448853793
 20
243.73860791934538
 10
2.9171459378918825
 20
236.04541020307482
 10
2.6270374298095702
 20
236.020068359375
 10
2.495296669006348
 20
236.01820068359376
 10
2.337411117553711
 20
236.0224609375
 10
2.1566463470458985
 20
236.03276977539062
 10
1.997085952758789
 20
236.0550964355469
 10
1.8162580490112306
 20
236.09315795898436
 10
1.6582956314086914
 20
236.13101196289062
 10
1.526467227935791
 20
236.16759643554687
 10
1.2360839697950885
 20
236.26298558531917
 10
-1.2244656770802902
 20
238.40190876108636
 10
-1.5157180786132813
 20
238.546142578125
 10
-1.6489538192749023
 20
238.61068115234374
 10
-1.8047603607177733
 20
238.685009765625
 10
-1.9798334121704102
 20
238.7671691894531
 10
-2.154893493652344
 20
238.84299926757814
 10
-2.3106828689575196
 20
238.90905151367187
 10
-2.4438989639282225
 20
238.96386108398437
 10
-2.735079536000729
 20
239.0730371690015
 10
-13.096345215784282
 20
229.41100061112297
 10
-9.309879958428562
 20
226.1194765797017
 10
-9.214919281005859
 20
225.88530883789062
 10
-9.180677032470703
 20
225.77816772460938
 10
-9.145635986328125
 20
225.65285034179686
 10
-9.110923767089844
 20
225.51203002929688
 10
-9.096952056884765
 20
225.37116088867188
 10
-9.088652801513671
 20
225.24578857421875
 10
-9.086065673828125
 20
225.13857421875
 10
-9.105717651959186
 20
224.9041265384536
 10
-16.978779961115517
 20
217.56237716106352
 10
-17.261250305175782
 20
217.355908203125
 10
-17.390492248535157
 20
217.27149658203126
 10
-17.54164276123047
 20
217.17738647460936
 10
-17.71149597167969
 20
217.07578125
 10
-17.88139190673828
 20
216.99317016601563
 10
-18.032594299316408
 20
216.92340087890625
 10
-18.16190185546875
 20
216.86773071289062
 10
-18.444600787754393
 20
216.76549617848954
 10
-21.285027626892827
 20
219.23464155948986
 10
-21.56604766845703
 20
219.39887084960938
 10
-21.694979858398437
 20
219.4749328613281
 10
-21.847593688964842
 20
219.56456909179687
 10
-22.025990295410157
 20
219.66640625
 10
-22.18754425048828
 20
219.7559020996094
 10
-22.34908447265625
 20
219.841015625
 10
-22.52744140625
 20
219.92337036132812
 10
-22.680012512207032
 20
219.99061279296876
 10
-22.808900451660158
 20
220.0437805175781
 10
-23.089779274355134
 20
220.1393313597594
 10
-33.27083241677725
 20
210.6453457116815
 10
-33.11676940917969
 20
210.42424926757812
 10
-33.03720397949219
 20
210.32388305664062
 10
-32.93811950683594
 20
210.20363159179686
 10
-32.8216796875
 20
210.065966796875
 10
-32.70895080566406
 20
209.9445007324219
 10
-32.579400634765626
 20
209.806884765625
 10
-32.464474487304685
 20
209.686669921875
 10
-32.366879272460935
 20
209.58636474609375
 10
-32.15600390346749
 20
209.3654164344176
 10
-29.291301594556916
 20
206.8751687094901
 10
-29.315887451171875
 20
206.64307250976563
 10
-29.330001831054688
 20
206.54326782226562
 10
-29.35301818847656
 20
206.41049194335938
 10
-29.376034545898438
 20
206.27770385742187
 10
-29.396707153320314
 20
206.17788696289062
 10
-29.452425608660416
 20
205.9457088976231
 10
-37.80047153366915
 20
198.1610301327824
 10
-39.164450073242186
 20
196.94934692382813
 10
-39.783749389648435
 20
196.40185546875
 10
-40.52589416503906
 20
195.74822387695312
 10
-41.37552185058594
 20
195.00213623046875
 10
-42.12535705566406
 20
194.34847412109374
 10
-42.975006103515625
 20
193.6140869140625
 10
-43.71718139648438
 20
192.97459716796874
 10
-44.336517333984375
 20
192.4431884765625
 10
-45.70060731609645
 20
191.28217123697377
 10
56.104745814593514
 20
102.78412792176732
 10
56.3042236328125
 20
102.52816162109374
 10
56.389984130859375
 20
102.42081298828126
 10
56.50406494140625
 20
102.2822021484375
 10
56.6181396484375
 20
102.14359130859376
 10
56.703887939453125
 20
102.04207763671874
 10
56.90328971988667
 20
101.81388440066537
 10
64.03757796045463
 20
108.46671581384949
 10
63.864691162109374
 20
108.71602783203124
 10
63.78656005859375
 20
108.82320556640624
 10
63.678643798828126
 20
108.96575927734375
 10
63.57072143554687
 20
109.10831298828126
 10
63.48606567382812
 20
109.2154541015625
 10
63.28214437704473
 20
109.46460434304518
 10
60.42692607057235
 20
111.94660775043174
 10
60.400927734375
 20
112.17708740234374
 10
60.39124755859375
 20
112.2828369140625
 10
60.38203125
 20
112.4080322265625
 10
60.37557373046875
 20
112.55439453125
 10
60.376007080078125
 20
112.6869384765625
 10
60.38187866210937
 20
112.81954345703124
 10
60.40045166015625
 20
112.966015625
 10
60.420654296875
 20
113.09134521484376
 10
60.441455078125
 20
113.1972412109375
 10
60.50475241015723
 20
113.4280876000095
 10
69.02038696518017
 20
121.3690452906036
 10
69.27274780273437
 20
121.3130859375
 10
69.38571166992188
 20
121.28377685546874
 10
69.5150390625
 20
121.2484619140625
 10
69.67993774414063
 20
121.19920654296875
 10
69.80927734375
 20
121.15657958984374
 10
69.922265625
 20
121.1180419921875
 10
70.17472218151708
 20
121.02415882388111
 10
73.98575044296572
 20
117.711282498761
 10
84.5250322762295
 20
127.53932180533604
 10
80.43196736578642
 20
131.09736884900516
 10
80.45293538062934
 20
131.2703648840988
 10
80.47390339547226
 20
131.4433609191924
 10
80.49487751383082
 20
131.61634474725474
 10
80.51584552867374
 20
131.78934078234835
 10
80.53681354351667
 20
131.96233681744198
 10
89.22801620538226
 20
140.06701441631145
 10
89.49891357421875
 20
140.01749267578126
 10
89.62017822265625
 20
139.99276123046874
 10
89.75899047851563
 20
139.96357421875
 10
89.93599853515624
 20
139.9242431640625
 10
90.07481689453125
 20
139.89114990234376
 10
90.19609375
 20
139.8615478515625
 10
90.46704136701317
 20
139.79160167876853
 10
93.75727996217304
 20
136.93144090374494
 10
93.93835909093589
 20
136.92222787531654
 10
94.11985325876124
 20
136.74623017891935
 10
94.30092628400845
 20
136.7370171504909
 10
94.48199930925566
 20
136.7278041220625
 10
104.86840842033318
 20
146.41328730893997
 10
101.17537576469742
 20
149.6235916188064
 10
101.12051391601562
 20
149.87034912109374
 10
101.10266723632813
 20
149.98360595703124
 10
101.08578491210938
 20
150.11767578125
 10
101.07206420898437
 20
150.2744140625
 10
101.07109375
 20
150.41639404296876
 10
101.077734375
 20
150.5583984375
 10
101.09771728515625
 20
150.7152587890625
 10
101.11997680664062
 20
150.84949951171876
 10
101.14235229492188
 20
150.962890625
 10
101.20706556839534
 20
151.2101083896206
 10
109.44147801189759
 20
158.88882221866612
 10
109.74302978515625
 20
158.85198974609375
 10
109.8780029296875
 20
158.83170166015626
 10
110.03253173828125
 20
158.80673828125
 10
110.2295654296875
 20
158.7702880859375
 10
110.38409423828125
 20
158.73802490234374
 10
110.51907958984376
 20
158.70848388671874
 10
110.82072730333132
 20
158.63374808609746
 10
114.42675646492933
 20
155.49907475974175
 10
114.72523193359375
 20
155.72783203125
 10
114.85357666015625
 20
155.82476806640625
 10
115.02430419921875
 20
155.9513427734375
 10
115.19503173828124
 20
156.0779296875
 10
115.3233642578125
 20
156.17147216796874
 10
115.62188440813672
 20
156.38516223909
 10
124.9320060451059
 20
165.0669911193404
 10
124.92715902549833
 20
165.21132189536036
 10
124.92231200589075
 20
165.35564046434905
 10
124.91746498628318
 20
165.499971240369
 10
124.91261796667558
 20
165.6442898093577
 10
124.90775874003677
 20
165.78862058537766
 10
121.30262982796876
 20
168.92251133675623
 10
121.36104736328124
 20
169.1428955078125
 10
121.3853515625
 20
169.24371337890625
 10
121.41236572265625
 20
169.36160888671876
 10
121.44144287109376
 20
169.49405517578126
 10
121.46456298828124
 20
169.62650146484376
 10
121.4839599609375
 20
169.7443603515625
 10
121.4990234375
 20
169.8451416015625
 10
121.52431368470403
 20
170.06540270026522
 10
129.65138398119444
 20
177.6440183578438
 10
129.93135986328124
 20
177.66689453125
 10
130.05667724609376
 20
177.6771484375
 10
130.2001220703125
 20
177.6888671875
 10
130.3830322265625
 20
177.70382080078124
 10
130.5264892578125
 20
177.71553955078124
 10
130.65181884765624
 20
177.72578125
 10
130.93177390579353
 20
177.74867592447052
 10
134.6188134171466
 20
174.54358137544688
 10
134.7976644298007
 20
174.56037821685052
 10
134.976527649486
 20
174.5771628512229
 10
135.1553786621401
 20
174.59394748559532
 10
142.26508466477839
 20
181.22385559105902
 10
142.27686767578126
 20
181.49881591796876
 10
142.28194580078124
 20
181.61705322265624
 10
142.28868408203124
 20
181.77432861328126
 10
142.29542236328126
 20
181.9316162109375
 10
142.30050048828124
 20
182.04984130859376
 10
142.31228149405916
 20
182.3248275024756
 10
134.47935052028294
 20
189.13389051620922
 10
134.49422607421874
 20
189.36553955078125
 10
134.5071533203125
 20
189.4707275390625
 10
134.5275634765625
 20
189.5968017578125
 10
134.55545654296876
 20
189.74114990234375
 10
134.5899658203125
 20
189.8685791015625
 10
134.6401123046875
 20
190.01297607421876
 10
134.68765869140626
 20
190.1391357421875
 10
134.7315185546875
 20
190.24442138671876
 10
134.8435446248405
 20
190.47636205721471
 10
138.20983330182736
 20
193.61547703279936
 10
130.64549533279387
 20
200.1910557096399
 10
130.46571087118164
 20
200.18806190205544
 10
130.28548695644443
 20
200.35166355345535
 10
130.1057024948322
 20
200.3486697458709
 10
129.92591803321997
 20
200.34568204180206
 10
126.37092545346377
 20
197.03059783007197
 10
126.08824462890625
 20
197.05458984375
 10
125.96168212890625
 20
197.06788940429686
 10
125.8168212890625
 20
197.08399658203126
 10
125.63211669921876
 20
197.10665283203124
 10
125.48724365234375
 20
197.12664794921875
 10
125.36068115234374
 20
197.14481201171876
 10
125.07793741291405
 20
197.18920389434834
 10
114.30545247631764
 20
206.55358218305665
 10
114.33055419921875
 20
206.77893676757813
 10
114.34749755859374
 20
206.88234252929686
 10
114.3708740234375
 20
207.00474853515624
 10
114.40299072265626
 20
207.14785766601562
 10
114.44088134765624
 20
207.27747802734376
 10
114.4842041015625
 20
207.40711669921876
 10
114.54129638671876
 20
207.55028686523437
 10
114.5940185546875
 20
207.6727722167969
 10
114.6413818359375
 20
207.77626342773436
 10
114.75554662674908
 20
208.00186282574106
 10
118.09425992801093
 20
211.11526334745622
 10
111.5820910587569
 20
216.77620537991842
 10
111.2751708984375
 20
216.95996704101563
 10
111.13580322265625
 20
217.04688110351563
 10
110.9687744140625
 20
217.1529113769531
 10
110.77757568359375
 20
217.27578125
 10
110.60882568359375
 20
217.38828735351564
 10
110.4176025390625
 20
217.51796264648436
 10
110.2505859375
 20
217.63223876953126
 10
110.1112060546875
 20
217.72887573242187
 10
109.80418189530265
 20
217.9427700467757
 10
106.33073874055867
 20
214.7037319041354
 10
106.05457763671875
 20
214.62462768554687
 10
105.93094482421876
 20
214.59312744140624
 10
105.7894287109375
 20
214.5586364746094
 10
105.60897216796874
 20
214.5193359375
 10
105.46744384765626
 20
214.49213256835938
 10
105.34378662109376
 20
214.46986083984376
 10
105.06751403433134
 20
214.42866495079858
 10
94.0990073040339
 20
223.96344238509414
 10
94.10830078125
 20
224.21026611328125
 10
94.11681518554687
 20
224.32318725585938
 10
94.12902221679687
 20
224.45523681640626
 10
94.14492797851562
 20
224.60364990234376
 10
94.17007446289062
 20
224.75206298828124
 10
94.19423828125
 20
224.88414916992187
 10
94.21689453125
 20
224.99710693359376
 10
94.27727559393637
 20
225.2440469848597
 10
97.74877936109775
 20
228.4812766193214
 10
89.84073165453901
 20
235.3556376126509
 10
89.62547814408079
 20
235.3232295172967
 10
89.41022463362256
 20
235.29081531842684
 10
89.1949650196487
 20
235.25840111955705
 10
86.00298860817259
 20
232.28183496126
 10
85.71591796875
 20
232.23125610351562
 10
85.58556518554687
 20
232.21295166015625
 10
85.42935180664062
 20
232.19527587890624
 10
85.25049438476563
 20
232.17880859375
 10
85.09263305664062
 20
232.17225341796876
 10
84.91373291015626
 20
232.17572021484375
 10
84.75745239257813
 20
232.18234252929688
 10
84.62703247070313
 20
232.191748046875
 10
84.33972841540978
 20
232.2281662705629
 10
74.01296383743616
 20
241.20508576274568
 10
73.88927001953125
 20
241.4207275390625
 10
73.83779907226562
 20
241.5172546386719
 10
73.78059692382813
 20
241.6277648925781
 10
73.71328735351562
 20
241.76867065429687
 10
73.66423950195312
 20
241.8791931152344
 10
73.623095703125
 20
241.9757507324219
 10
73.54184572634443
 20
242.1914831925023
 10
77.51723517890755
 20
245.89859383028997
 10
69.60971572061143
 20
252.77249562441057
 10
69.3901545361456
 20
252.77512591292293
 10
69.17058724816414
 20
252.7777562014353
 10
68.95101996018269
 20
252.78038648994766
 10
65.47482557703138
 20
249.53878278531207
 10
65.17952270507813
 20
249.55645446777345
 10
65.04733276367188
 20
249.56693420410156
 10
64.89600830078125
 20
249.57980041503907
 10
64.70306396484375
 20
249.59833679199218
 10
64.55173950195312
 20
249.61509399414064
 10
64.41953125
 20
249.63043518066405
 10
64.12417610189475
 20
249.66852175727973
 10
53.70752627840238
 20
258.72357730131733
 10
53.631585693359376
 20
258.9749267578125
 10
53.60220947265625
 20
259.0830017089844
 10
53.567596435546875
 20
259.2267822265625
 10
53.532989501953125
 20
259.3705657958984
 10
53.51014404296875
 20
259.47865295410156
 10
53.46522079693542
 20
259.7300588038662
 10
57.332738168577485
 20
263.33657709882186
 10
48.90853160462141
 20
270.6596281414933
 10
45.309602934806094
 20
267.30357286295714
 10
44.991207885742185
 20
267.23069152832034
 10
44.85429992675781
 20
267.20228576660156
 10
44.67216491699219
 20
267.1684814453125
 10
44.49002380371094
 20
267.1346740722656
 10
44.35310668945313
 20
267.1121032714844
 10
44.03463288843779
 20
267.0669425285413
 10
36.06949798989801
 20
273.9909286607591
 10
35.87721866488181
 20
274.0082832481791
 10
35.684551766623414
 20
274.19246522817724
 10
35.492269389849405
 20
274.20981981559726
  0
ENDSEC
  0
SECTION
  2
OBJECTS
  0
DICTIONARY
  5
A
330
0
100
AcDbDictionary
281
1
  3
ACAD_COLOR
350
B
  3
ACAD_GROUP
350
C
  3
ACAD_LAYOUT
350
D
  3
ACAD_MATERIAL
350
E
  3
ACAD_MLEADERSTYLE
350
F
  3
ACAD_MLINESTYLE
350
10
  3
ACAD_PLOTSETTINGS
350
11
  3
ACAD_PLOTSTYLENAME
350
12
  3
ACAD_SCALELIST
350
14
  3
ACAD_TABLESTYLE
350
15
  3
ACAD_VISUALSTYLE
350
16
  3
EZDXF_META
350
2D
  0
DICTIONARY
  5
B
330
A
100
AcDbDictionary
281
1
  0
DICTIONARY
  5
C
330
A
100
AcDbDictionary
281
1
  0
DICTIONARY
  5
D
330
A
100
AcDbDictionary
281
1
  3
Model
350
1A
  3
Layout1
350
1E
  0
DICTIONARY
  5
E
330
A
100
AcDbDictionary
281
1
  3
ByBlock
350
1F
  3
ByLayer
350
20
  3
Global
350
21
  0
DICTIONARY
  5
F
330
A
100
AcDbDictionary
281
1
  3
Standard
350
2C
  0
DICTIONARY
  5
10
330
A
100
AcDbDictionary
281
1
  3
Standard
350
22
  0
DICTIONARY
  5
11
330
A
100
AcDbDictionary
281
1
  0
ACDBDICTIONARYWDFLT
  5
12
330
A
100
AcDbDictionary
281
1
  3
Normal
350
13
100
AcDbDictionaryWithDefault
340
13
  0
ACDBPLACEHOLDER
  5
13
330
12
  0
DICTIONARY
  5
14
330
A
100
AcDbDictionary
281
1
  0
DICTIONARY
  5
15
330
A
100
AcDbDictionary
281
1
  0
DICTIONARY
  5
16
330
A
100
AcDbDictionary
281
1
  0
LAYOUT
  5
1A
330
D
100
AcDbPlotSettings
  1

  4
A3
  6

 40
7.5
 41
20.0
 42
7.5
 43
20.0
 44
420.0
 45
297.0
 46
0.0
 47
0.0
 48
0.0
 49
0.0
140
0.0
141
0.0
142
1.0
143
1.0
 70
1024
 72
1
 73
0
 74
5
  7

 75
16
 76
0
 77
2
 78
300
147
1.0
148
0.0
149
0.0
100
AcDbLayout
  1
Model
 70
1
 71
0
 10
0.0
 20
0.0
 11
420.0
 21
297.0
 12
0.0
 22
0.0
 32
0.0
 14
1e+20
 24
1e+20
 34
1e+20
 15
-1e+20
 25
-1e+20
 35
-1e+20
146
0.0
 13
0.0
 23
0.0
 33
0.0
 16
1.0
 26
0.0
 36
0.0
 17
0.0
 27
1.0
 37
0.0
 76
1
330
17
  0
LAYOUT
  5
1E
330
D
100
AcDbPlotSettings
  1

  4
A3
  6

 40
7.5
 41
20.0
 42
7.5
 43
20.0
 44
420.0
 45
297.0
 46
0.0
 47
0.0
 48
0.0
 49
0.0
140
0.0
141
0.0
142
1.0
143
1.0
 70
0
 72
1
 73
0
 74
5
  7

 75
16
 76
0
 77
2
 78
300
147
1.0
148
0.0
149
0.0
100
AcDbLayout
  1
Layout1
 70
1
 71
1
 10
0.0
 20
0.0
 11
420.0
 21
297.0
 12
0.0
 22
0.0
 32
0.0
 14
1e+20
 24
1e+20
 34
1e+20
 15
-1e+20
 25
-1e+20
 35
-1e+20
146
0.0
 13
0.0
 23
0.0
 33
0.0
 16
1.0
 26
0.0
 36
0.0
 17
0.0
 27
1.0
 37
0.0
 76
1
330
1B
  0
MATERIAL
  5
1F
102
{ACAD_REACTORS
330
E
102
}
330
E
100
AcDbMaterial
  1
ByBlock
  2

 70
0
 40
1.0
 71
1
 41
1.0
 91
-1023410177
 42
1.0
 72
1
  3

 73
1
 74
1
 75
1
 44
0.5
 73
0
 45
1.0
 46
1.0
 77
1
  4

 78
1
 79
1
170
1
 48
1.0
171
1
  6

172
1
173
1
174
1
140
1.0
141
1.0
175
1
  7

176
1
177
1
178
1
143
1.0
179
1
  8

270
1
271
1
272
1
145
1.0
146
1.0
273
1
  9

274
1
275
1
276
1
 42
1.0
 72
1
  3

 73
1
 74
1
 75
1
 94
63
  0
MATERIAL
  5
20
102
{ACAD_REACTORS
330
E
102
}
330
E
100
AcDbMaterial
  1
ByLayer
  2

 70
0
 40
1.0
 71
1
 41
1.0
 91
-1023410177
 42
1.0
 72
1
  3

 73
1
 74
1
 75
1
 44
0.5
 73
0
 45
1.0
 46
1.0
 77
1
  4

 78
1
 79
1
170
1
 48
1.0
171
1
  6

172
1
173
1
174
1
140
1.0
141
1.0
175
1
  7

176
1
177
1
178
1
143
1.0
179
1
  8

270
1
271
1
272
1
145
1.0
146
1.0
273
1
  9

274
1
275
1
276
1
 42
1.0
 72
1
  3

 73
1
 74
1
 75
1
 94
63
  0
MATERIAL
  5
21
102
{ACAD_REACTORS
330
E
102
}
330
E
100
AcDbMaterial
  1
Global
  2

 70
0
 40
1.0
 71
1
 41
1.0
 91
-1023410177
 42
1.0
 72
1
  3

 73
1
 74
1
 75
1
 44
0.5
 73
0
 45
1.0
 46
1.0
 77
1
  4

 78
1
 79
1
170
1
 48
1.0
171
1
  6

172
1
173
1
174
1
140
1.0
141
1.0
175
1
  7

176
1
177
1
178
1
143
1.0
179
1
  8

270
1
271
1
272
1
145
1.0
146
1.0
273
1
  9

274
1
275
1
276
1
 42
1.0
 72
1
  3

 73
1
 74
1
 75
1
 94
63
  0
MLINESTYLE
  5
22
102
{ACAD_REACTORS
330
10
102
}
330
10
100
AcDbMlineStyle
  2
Standard
 70
0
  3

 62
256
 51
90.0
 52
90.0
 71
2
 49
0.5
 62
256
  6
BYLAYER
 49
-0.5
 62
256
  6
BYLAYER
  0
MLEADERSTYLE
  5
2C
102
{ACAD_REACTORS
330
F
102
}
330
F
100
AcDbMLeaderStyle
179
2
170
2
171
1
172
0
 90
2
 40
0.0
 41
0.0
173
1
 91
-1056964608
 92
-2
290
1
 42
2.0
291
1
 43
8.0
  3
Standard
 44
4.0
300

342
29
174
1
175
1
176
0
178
1
 93
-1056964608
 45
4.0
292
0
297
0
 46
4.0
 94
-1056964608
 47
1.0
 49
1.0
140
1.0
294
1
141
0.0
177
0
142
1.0
295
0
296
0
143
3.75
271
0
272
9
273
9
  0
DICTIONARY
  5
2D
330
A
100
AcDbDictionary
280
1
281
1
  3
CREATED_BY_EZDXF
350
2E
  3
WRITTEN_BY_EZDXF
350
32
  0
DICTIONARYVAR
  5
2E
330
2D
100
DictionaryVariables
280
0
  1
1.4.4 @ 2026-07-16T10:10:49.786434+00:00
  0
DICTIONARYVAR
  5
32
330
2D
100
DictionaryVariables
280
0
  1
1.4.4 @ 2026-07-16T10:10:49.807685+00:00
  0
ENDSEC
  0
EOF
