  0
SECTION
  2
HEADER
  9
$ACADVER
  1
AC1024
  9
$ACADMAINTVER
 70
6
  9
$DWGCODEPAGE
  3
ANSI_1252
  9
$LASTSAVEDBY
  1
ezdxf
  9
$INSBASE
 10
0.0
 20
0.0
 30
0.0
  9
$EXTMIN
 10
1e+20
 20
1e+20
 30
1e+20
  9
$EXTMAX
 10
-1e+20
 20
-1e+20
 30
-1e+20
  9
$LIMMIN
 10
0.0
 20
0.0
  9
$LIMMAX
 10
420.0
 20
297.0
  9
$ORTHOMODE
 70
0
  9
$REGENMODE
 70
1
  9
$FILLMODE
 70
1
  9
$QTEXTMODE
 70
0
  9
$MIRRTEXT
 70
1
  9
$LTSCALE
 40
1.0
  9
$ATTMODE
 70
1
  9
$TEXTSIZE
 40
2.5
  9
$TRACEWID
 40
1.0
  9
$TEXTSTYLE
  7
Standard
  9
$CLAYER
  8
0
  9
$CELTYPE
  6
ByLayer
  9
$CECOLOR
 62
256
  9
$CELTSCALE
 40
1.0
  9
$DISPSILH
 70
0
  9
$DIMSCALE
 40
1.0
  9
$DIMASZ
 40
2.5
  9
$DIMEXO
 40
0.625
  9
$DIMDLI
 40
3.75
  9
$DIMRND
 40
0.0
  9
$DIMDLE
 40
0.0
  9
$DIMEXE
 40
1.25
  9
$DIMTP
 40
0.0
  9
$DIMTM
 40
0.0
  9
$DIMTXT
 40
2.5
  9
$DIMCEN
 40
2.5
  9
$DIMTSZ
 40
0.0
  9
$DIMTOL
 70
0
  9
$DIMLIM
 70
0
  9
$DIMTIH
 70
0
  9
$DIMTOH
 70
0
  9
$DIMSE1
 70
0
  9
$DIMSE2
 70
0
  9
$DIMTAD
 70
1
  9
$DIMZIN
 70
8
  9
$DIMBLK
  1

  9
$DIMASO
 70
1
  9
$DIMSHO
 70
1
  9
$DIMPOST
  1

  9
$DIMAPOST
  1

  9
$DIMALT
 70
0
  9
$DIMALTD
 70
3
  9
$DIMALTF
 40
0.03937007874
  9
$DIMLFAC
 40
1.0
  9
$DIMTOFL
 70
1
  9
$DIMTVP
 40
0.0
  9
$DIMTIX
 70
0
  9
$DIMSOXD
 70
0
  9
$DIMSAH
 70
0
  9
$DIMBLK1
  1

  9
$DIMBLK2
  1

  9
$DIMSTYLE
  2
ISO-25
  9
$DIMCLRD
 70
0
  9
$DIMCLRE
 70
0
  9
$DIMCLRT
 70
0
  9
$DIMTFAC
 40
1.0
  9
$DIMGAP
 40
0.625
  9
$DIMJUST
 70
0
  9
$DIMSD1
 70
0
  9
$DIMSD2
 70
0
  9
$DIMTOLJ
 70
0
  9
$DIMTZIN
 70
8
  9
$DIMALTZ
 70
0
  9
$DIMALTTZ
 70
0
  9
$DIMUPT
 70
0
  9
$DIMDEC
 70
2
  9
$DIMTDEC
 70
2
  9
$DIMALTU
 70
2
  9
$DIMALTTD
 70
3
  9
$DIMTXSTY
  7
Standard
  9
$DIMAUNIT
 70
0
  9
$DIMADEC
 70
0
  9
$DIMALTRND
 40
0.0
  9
$DIMAZIN
 70
0
  9
$DIMDSEP
 70
44
  9
$DIMATFIT
 70
3
  9
$DIMFRAC
 70
0
  9
$DIMLDRBLK
  1

  9
$DIMLUNIT
 70
2
  9
$DIMLWD
 70
-2
  9
$DIMLWE
 70
-2
  9
$DIMTMOVE
 70
0
  9
$DIMFXL
 40
1.0
  9
$DIMFXLON
 70
0
  9
$DIMJOGANG
 40
0.785398163397
  9
$DIMTFILL
 70
0
  9
$DIMTFILLCLR
 70
0
  9
$DIMARCSYM
 70
0
  9
$DIMLTYPE
  6

  9
$DIMLTEX1
  6

  9
$DIMLTEX2
  6

  9
$DIMTXTDIRECTION
 70
0
  9
$LUNITS
 70
2
  9
$LUPREC
 70
4
  9
$SKETCHINC
 40
1.0
  9
$FILLETRAD
 40
10.0
  9
$AUNITS
 70
0
  9
$AUPREC
 70
2
  9
$MENU
  1
.
  9
$ELEVATION
 40
0.0
  9
$PELEVATION
 40
0.0
  9
$THICKNESS
 40
0.0
  9
$LIMCHECK
 70
0
  9
$CHAMFERA
 40
0.0
  9
$CHAMFERB
 40
0.0
  9
$CHAMFERC
 40
0.0
  9
$CHAMFERD
 40
0.0
  9
$SKPOLY
 70
0
  9
$TDCREATE
 40
2461231.615636574
  9
$TDUCREATE
 40
2458532.153996898
  9
$TDUPDATE
 40
2461231.615636574
  9
$TDUUPDATE
 40
2458532.1544311
  9
$TDINDWG
 40
0.0
  9
$TDUSRTIMER
 40
0.0
  9
$USRTIMER
 70
1
  9
$ANGBASE
 50
0.0
  9
$ANGDIR
 70
0
  9
$PDMODE
 70
0
  9
$PDSIZE
 40
0.0
  9
$PLINEWID
 40
0.0
  9
$SPLFRAME
 70
0
  9
$SPLINETYPE
 70
6
  9
$SPLINESEGS
 70
8
  9
$HANDSEED
  5
33
  9
$SURFTAB1
 70
6
  9
$SURFTAB2
 70
6
  9
$SURFTYPE
 70
6
  9
$SURFU
 70
6
  9
$SURFV
 70
6
  9
$UCSBASE
  2

  9
$UCSNAME
  2

  9
$UCSORG
 10
0.0
 20
0.0
 30
0.0
  9
$UCSXDIR
 10
1.0
 20
0.0
 30
0.0
  9
$UCSYDIR
 10
0.0
 20
1.0
 30
0.0
  9
$UCSORTHOREF
  2

  9
$UCSORTHOVIEW
 70
0
  9
$UCSORGTOP
 10
0.0
 20
0.0
 30
0.0
  9
$UCSORGBOTTOM
 10
0.0
 20
0.0
 30
0.0
  9
$UCSORGLEFT
 10
0.0
 20
0.0
 30
0.0
  9
$UCSORGRIGHT
 10
0.0
 20
0.0
 30
0.0
  9
$UCSORGFRONT
 10
0.0
 20
0.0
 30
0.0
  9
$UCSORGBACK
 10
0.0
 20
0.0
 30
0.0
  9
$PUCSBASE
  2

  9
$PUCSNAME
  2

  9
$PUCSORG
 10
0.0
 20
0.0
 30
0.0
  9
$PUCSXDIR
 10
1.0
 20
0.0
 30
0.0
  9
$PUCSYDIR
 10
0.0
 20
1.0
 30
0.0
  9
$PUCSORTHOREF
  2

  9
$PUCSORTHOVIEW
 70
0
  9
$PUCSORGTOP
 10
0.0
 20
0.0
 30
0.0
  9
$PUCSORGBOTTOM
 10
0.0
 20
0.0
 30
0.0
  9
$PUCSORGLEFT
 10
0.0
 20
0.0
 30
0.0
  9
$PUCSORGRIGHT
 10
0.0
 20
0.0
 30
0.0
  9
$PUCSORGFRONT
 10
0.0
 20
0.0
 30
0.0
  9
$PUCSORGBACK
 10
0.0
 20
0.0
 30
0.0
  9
$USERI1
 70
0
  9
$USERI2
 70
0
  9
$USERI3
 70
0
  9
$USERI4
 70
0
  9
$USERI5
 70
0
  9
$USERR1
 40
0.0
  9
$USERR2
 40
0.0
  9
$USERR3
 40
0.0
  9
$USERR4
 40
0.0
  9
$USERR5
 40
0.0
  9
$WORLDVIEW
 70
1
  9
$SHADEDGE
 70
3
  9
$SHADEDIF
 70
70
  9
$TILEMODE
 70
1
  9
$MAXACTVP
 70
64
  9
$PINSBASE
 10
0.0
 20
0.0
 30
0.0
  9
$PLIMCHECK
 70
0
  9
$PEXTMIN
 10
1e+20
 20
1e+20
 30
1e+20
  9
$PEXTMAX
 10
-1e+20
 20
-1e+20
 30
-1e+20
  9
$PLIMMIN
 10
0.0
 20
0.0
  9
$PLIMMAX
 10
420.0
 20
297.0
  9
$UNITMODE
 70
0
  9
$VISRETAIN
 70
1
  9
$PLINEGEN
 70
0
  9
$PSLTSCALE
 70
1
  9
$TREEDEPTH
 70
3020
  9
$CMLSTYLE
  2
Standard
  9
$CMLJUST
 70
0
  9
$CMLSCALE
 40
20.0
  9
$PROXYGRAPHICS
 70
1
  9
$MEASUREMENT
 70
1
  9
$CELWEIGHT
370
-1
  9
$ENDCAPS
280
0
  9
$JOINSTYLE
280
0
  9
$LWDISPLAY
290
0
  9
$INSUNITS
 70
6
  9
$HYPERLINKBASE
  1

  9
$STYLESHEET
  1

  9
$XEDIT
290
1
  9
$CEPSNTYPE
380
0
  9
$PSTYLEMODE
290
1
  9
$FINGERPRINTGUID
  2
{07DBF216-12D1-4D4A-A59F-32AB5EDF3BC0}
  9
$VERSIONGUID
  2
{D09DD288-C54C-4C91-818D-CFDEEBD72E69}
  9
$EXTNAMES
290
1
  9
$PSVPSCALE
 40
0.0
  9
$OLESTARTUP
290
0
  9
$SORTENTS
280
127
  9
$INDEXCTL
280
0
  9
$HIDETEXT
280
1
  9
$XCLIPFRAME
280
1
  9
$HALOGAP
280
0
  9
$OBSCOLOR
 70
257
  9
$OBSLTYPE
280
0
  9
$INTERSECTIONDISPLAY
280
0
  9
$INTERSECTIONCOLOR
 70
257
  9
$DIMASSOC
280
2
  9
$PROJECTNAME
  1

  9
$CAMERADISPLAY
290
0
  9
$LENSLENGTH
 40
50.0
  9
$CAMERAHEIGHT
 40
0.0
  9
$STEPSPERSEC
 40
24.0
  9
$STEPSIZE
 40
100.0
  9
$3DDWFPREC
 40
2.0
  9
$PSOLWIDTH
 40
0.005
  9
$PSOLHEIGHT
 40
0.08
  9
$LOFTANG1
 40
1.570796326795
  9
$LOFTANG2
 40
1.570796326795
  9
$LOFTMAG1
 40
0.0
  9
$LOFTMAG2
 40
0.0
  9
$LOFTPARAM
 70
7
  9
$LOFTNORMALS
280
1
  9
$LATITUDE
 40
37.795
  9
$LONGITUDE
 40
-122.394
  9
$NORTHDIRECTION
 40
0.0
  9
$TIMEZONE
 70
-8000
  9
$LIGHTGLYPHDISPLAY
280
1
  9
$TILEMODELIGHTSYNCH
280
1
  9
$CMATERIAL
347
20
  9
$SOLIDHIST
280
0
  9
$SHOWHIST
280
1
  9
$DWFFRAME
280
2
  9
$DGNFRAME
280
2
  9
$REALWORLDSCALE
290
1
  9
$INTERFERECOLOR
 62
256
  9
$CSHADOW
280
0
  9
$SHADOWPLANELOCATION
 40
0.0
  0
ENDSEC
  0
SECTION
  2
CLASSES
  0
CLASS
  1
ACDBDICTIONARYWDFLT
  2
AcDbDictionaryWithDefault
  3
ObjectDBX Classes
 90
0
 91
0
280
0
281
0
  0
CLASS
  1
SUN
  2
AcDbSun
  3
SCENEOE
 90
1153
 91
0
280
0
281
0
  0
CLASS
  1
VISUALSTYLE
  2
AcDbVisualStyle
  3
ObjectDBX Classes
 90
4095
 91
0
280
0
281
0
  0
CLASS
  1
MATERIAL
  2
AcDbMaterial
  3
ObjectDBX Classes
 90
1153
 91
0
280
0
281
0
  0
CLASS
  1
SCALE
  2
AcDbScale
  3
ObjectDBX Classes
 90
1153
 91
0
280
0
281
0
  0
CLASS
  1
TABLESTYLE
  2
AcDbTableStyle
  3
ObjectDBX Classes
 90
4095
 91
0
280
0
281
0
  0
CLASS
  1
MLEADERSTYLE
  2
AcDbMLeaderStyle
  3
ACDB_MLEADERSTYLE_CLASS
 90
4095
 91
0
280
0
281
0
  0
CLASS
  1
DICTIONARYVAR
  2
AcDbDictionaryVar
  3
ObjectDBX Classes
 90
0
 91
0
280
0
281
0
  0
CLASS
  1
CELLSTYLEMAP
  2
AcDbCellStyleMap
  3
ObjectDBX Classes
 90
1152
 91
0
280
0
281
0
  0
CLASS
  1
MENTALRAYRENDERSETTINGS
  2
AcDbMentalRayRenderSettings
  3
SCENEOE
 90
1024
 91
0
280
0
281
0
  0
CLASS
  1
ACDBDETAILVIEWSTYLE
  2
AcDbDetailViewStyle
  3
ObjectDBX Classes
 90
1025
 91
0
280
0
281
0
  0
CLASS
  1
ACDBSECTIONVIEWSTYLE
  2
AcDbSectionViewStyle
  3
ObjectDBX Classes
 90
1025
 91
0
280
0
281
0
  0
CLASS
  1
RASTERVARIABLES
  2
AcDbRasterVariables
  3
ISM
 90
0
 91
0
280
0
281
0
  0
CLASS
  1
LAYOUT
  2
AcDbLayout
  3
ObjectDBX Classes
 90
0
 91
0
280
0
281
0
  0
CLASS
  1
ACDBPLACEHOLDER
  2
AcDbPlaceHolder
  3
ObjectDBX Classes
 90
0
 91
0
280
0
281
0
  0
ENDSEC
  0
SECTION
  2
TABLES
  0
TABLE
  2
VPORT
  5
8
330
0
100
AcDbSymbolTable
 70
1
  0
VPORT
  5
23
330
8
100
AcDbSymbolTableRecord
100
AcDbViewportTableRecord
  2
*Active
 70
0
 10
0.0
 20
0.0
 11
1.0
 21
1.0
 12
0.0
 22
0.0
 13
0.0
 23
0.0
 14
0.5
 24
0.5
 15
0.5
 25
0.5
 16
0.0
 26
0.0
 36
1.0
 17
0.0
 27
0.0
 37
0.0
 40
1000.0
 41
1.34
 42
50.0
 43
0.0
 44
0.0
 50
0.0
 51
0.0
 71
0
 72
1000
 73
1
 74
3
 75
0
 76
0
 77
0
 78
0
281
0
 65
0
146
0.0
  0
ENDTAB
  0
TABLE
  2
LTYPE
  5
2
330
0
100
AcDbSymbolTable
 70
3
  0
LTYPE
  5
24
330
2
100
AcDbSymbolTableRecord
100
AcDbLinetypeTableRecord
  2
ByBlock
 70
0
  3

 72
65
 73
0
 40
0.0
  0
LTYPE
  5
25
330
2
100
AcDbSymbolTableRecord
100
AcDbLinetypeTableRecord
  2
ByLayer
 70
0
  3

 72
65
 73
0
 40
0.0
  0
LTYPE
  5
26
330
2
100
AcDbSymbolTableRecord
100
AcDbLinetypeTableRecord
  2
Continuous
 70
0
  3

 72
65
 73
0
 40
0.0
  0
ENDTAB
  0
TABLE
  2
LAYER
  5
1
330
0
100
AcDbSymbolTable
 70
2
  0
LAYER
  5
27
330
1
100
AcDbSymbolTableRecord
100
AcDbLayerTableRecord
  2
0
 70
0
 62
7
  6
Continuous
370
-3
390
13
347
21
  0
LAYER
  5
28
330
1
100
AcDbSymbolTableRecord
100
AcDbLayerTableRecord
  2
Defpoints
 70
0
 62
7
  6
Continuous
290
0
370
-3
390
13
347
21
  0
ENDTAB
  0
TABLE
  2
STYLE
  5
5
330
0
100
AcDbSymbolTable
 70
1
  0
STYLE
  5
29
330
5
100
AcDbSymbolTableRecord
100
AcDbTextStyleTableRecord
  2
Standard
 70
0
 40
0.0
 41
1.0
 50
0.0
 71
0
 42
2.5
  3
txt
  4

  0
ENDTAB
  0
TABLE
  2
VIEW
  5
7
330
0
100
AcDbSymbolTable
 70
0
  0
ENDTAB
  0
TABLE
  2
UCS
  5
6
330
0
100
AcDbSymbolTable
 70
0
  0
ENDTAB
  0
TABLE
  2
APPID
  5
3
330
0
100
AcDbSymbolTable
 70
3
  0
APPID
  5
2A
330
3
100
AcDbSymbolTableRecord
100
AcDbRegAppTableRecord
  2
ACAD
 70
0
  0
APPID
  5
30
330
3
100
AcDbSymbolTableRecord
100
AcDbRegAppTableRecord
  2
HATCHBACKGROUNDCOLOR
 70
0
  0
APPID
  5
31
330
3
100
AcDbSymbolTableRecord
100
AcDbRegAppTableRecord
  2
EZDXF
 70
0
  0
ENDTAB
  0
TABLE
  2
DIMSTYLE
  5
4
330
0
100
AcDbSymbolTable
 70
1
100
AcDbDimStyleTable
  0
DIMSTYLE
105
2B
330
4
100
AcDbSymbolTableRecord
100
AcDbDimStyleTableRecord
  2
Standard
 70
0
 40
1.0
 41
2.5
 42
0.625
 43
3.75
 44
1.25
 45
0.0
 46
0.0
 47
0.0
 48
0.0
 49
2.5
140
2.5
141
2.5
142
0.0
143
0.03937007874
144
1.0
145
0.0
146
1.0
147
0.625
148
0.0
 69
0
 70
0
 71
0
 72
0
 73
0
 74
0
 75
0
 76
0
 77
1
 78
8
 79
3
170
0
171
3
172
1
173
0
174
0
175
0
176
0
177
0
178
0
179
2
271
2
272
2
273
2
274
3
275
0
276
0
277
2
278
44
279
0
280
0
281
0
282
0
283
0
284
8
285
0
286
0
288
0
289
3
290
0
371
-2
372
-2
  0
ENDTAB
  0
TABLE
  2
BLOCK_RECORD
  5
9
330
0
100
AcDbSymbolTable
 70
2
  0
BLOCK_RECORD
  5
17
330
9
100
AcDbSymbolTableRecord
100
AcDbBlockTableRecord
  2
*Model_Space
340
1A
 70
0
280
1
281
0
  0
BLOCK_RECORD
  5
1B
330
9
100
AcDbSymbolTableRecord
100
AcDbBlockTableRecord
  2
*Paper_Space
340
1E
 70
0
280
1
281
0
  0
ENDTAB
  0
ENDSEC
  0
SECTION
  2
BLOCKS
  0
BLOCK
  5
18
330
17
100
AcDbEntity
  8
0
100
AcDbBlockBegin
  2
*Model_Space
 70
0
 10
0.0
 20
0.0
 30
0.0
  3
*Model_Space
  1

  0
ENDBLK
  5
19
330
17
100
AcDbEntity
  8
0
100
AcDbBlockEnd
  0
BLOCK
  5
1C
330
1B
100
AcDbEntity
  8
0
100
AcDbBlockBegin
  2
*Paper_Space
 70
0
 10
0.0
 20
0.0
 30
0.0
  3
*Paper_Space
  1

  0
ENDBLK
  5
1D
330
1B
100
AcDbEntity
  8
0
100
AcDbBlockEnd
  0
ENDSEC
  0
SECTION
  2
ENTITIES
  0
LWPOLYLINE
  5
2F
330
17
100
AcDbEntity
  8
0
100
AcDbPolyline
 90
285
 70
1
 10
24.20033978342085
 20
263.7179973450992
 10
23.924584019780344
 20
263.52320877900183
 10
23.89275068045624
 20
263.3298362285295
 10
23.86091734113214
 20
263.13645452278365
 10
23.829084001808035
 20
262.9430728170379
 10
23.553311453499557
 20
262.748259836878
 10
23.32683692306297
 20
249.77354267782158
 10
23.05277468967272
 20
249.56275266106923
 10
22.778704826887935
 20
249.35195959255907
 10
22.50493708812659
 20
249.36108839904892
 10
22.230853492431653
 20
249.1502861752653
 10
15.393652358560363
 20
249.26962996498432
 10
15.041123655333347
 20
249.05889863011208
 10
14.6885873227118
 20
248.84816119172416
 10
14.466759583093715
 20
236.139658500366
 10
21.72824920289472
 20
236.01290872757681
 10
21.894338186068744
 20
235.71284976697189
 10
22.060428695121672
 20
235.41278470285133
 10
21.982239724194134
 20
235.1111144141214
 10
22.14833481088378
 20
234.81104935000084
 10
21.82103626447374
 20
216.06012818436625
 10
13.068746259529922
 20
216.21289997467312
 10
12.83507997924309
 20
202.8261677426382
 10
19.474690637309088
 20
202.71027290750357
 10
19.72310791015625
 20
202.48209228515626
 10
19.823533630371095
 20
202.36884765625
 10
19.934794616699218
 20
202.23192138671874
 10
20.054647827148436
 20
202.07415771484375
 10
20.151646423339844
 20
201.89818725585937
 10
20.23362579345703
 20
201.73785400390625
 10
20.299050903320314
 20
201.5966369628906
 10
20.421051573500073
 20
201.26767740489126
 10
20.112003915918393
 20
183.56234895996073
 10
19.8075681904698
 20
183.37375383155745
 10
19.50312330974777
 20
183.18515870315414
 10
19.19866927375231
 20
182.9965513677196
 10
13.073579382904075
 20
183.10346520945555
 10
12.651311492919922
 20
182.94488525390625
 10
12.469744873046874
 20
182.87313232421874
 10
12.228190612792968
 20
182.77208251953124
 10
11.98663558959961
 20
182.67103271484376
 10
11.805052185058594
 20
182.5915283203125
 10
11.382700564199947
 20
182.3961541404546
 10
11.155444745103384
 20
169.37667698404576
 10
18.445254103126793
 20
169.24943288838713
 10
18.732023620605467
 20
168.879296875
 10
18.84617919921875
 20
168.70865478515626
 10
18.970286560058593
 20
168.50457763671875
 10
19.100071716308594
 20
168.2663818359375
 10
19.187350463867187
 20
168.04525146484374
 10
19.25481414794922
 20
167.8141845703125
 10
19.29807891845703
 20
167.57803955078126
 10
19.314187622070314
 20
167.34166259765624
 10
19.308181762695312
 20
167.1030029296875
 10
19.282884216308595
 20
166.86416015625
 10
19.243251037597656
 20
166.6273193359375
 10
19.19218292236328
 20
166.3903564453125
 10
19.134584045410158
 20
166.1582275390625
 10
19.07464599609375
 20
165.93583984375
 10
19.005050659179688
 20
165.69591064453124
 10
18.944065856933594
 20
165.49024658203126
 10
18.892427062988283
 20
165.31815185546876
 10
18.775427845136022
 20
164.94456107202026
 10
18.47336437015903
 20
147.63935618053446
 10
18.28644371481883
 20
147.38923623036527
 10
18.344879809966915
 20
147.14128913175855
 10
18.15794847347437
 20
146.8911569745581
 10
12.5162110625208
 20
146.98963386737424
 10
12.144880676269532
 20
146.84102783203124
 10
11.976356506347656
 20
146.77664794921876
 10
11.777967834472657
 20
146.70009765625
 10
11.55114517211914
 20
146.61009521484374
 10
11.350264739990234
 20
146.52799072265626
 10
11.149633026123047
 20
146.4339599609375
 10
10.959000396728516
 20
146.33094482421876
 10
10.786688995361327
 20
146.22314453125
 10
10.615569305419921
 20
146.08311767578124
 10
10.474314117431641
 20
145.95526123046875
 10
10.361494445800782
 20
145.84085693359376
 10
10.138709913477578
 20
145.55882699281673
 10
9.944618101627919
 20
134.43931453910508
 10
10.039067840576172
 20
134.10018310546874
 10
10.077240753173829
 20
133.95433349609374
 10
10.124848175048829
 20
133.76029052734376
 10
10.172454833984375
 20
133.56627197265624
 10
10.205615234375
 20
133.4203857421875
 10
10.277867477627037
 20
133.0810269594143
 10
17.403598492703498
 20
132.95664686188513
 10
17.63865512147559
 20
132.68076432492438
 10
17.62816884253284
 20
132.40259907311992
 10
17.863230048941656
 20
132.12671653615917
 10
18.098294307108283
 20
131.85082179216718
 10
17.795151914003462
 20
114.48380572253555
 10
17.569728919684685
 20
114.18375484577992
 10
17.590063982006537
 20
113.88609654714931
 10
17.364630306535418
 20
113.58603346336243
 10
10.24629032364612
 20
113.71028454994489
 10
10.01744437848514
 20
113.40136414770407
 10
10.034467116185485
 20
113.09483632358824
 10
9.805611252811612
 20
112.78590371431616
 10
9.822630938754147
 20
112.4793636831691
 10
9.593763631288478
 20
112.17040665983453
 10
9.373807722819652
 20
99.56914110319667
 10
16.855016588666
 20
99.43855611670176
 10
17.08557706232952
 20
99.17536712669191
 10
17.316140587750848
 20
98.91217813668206
 10
17.54670716492999
 20
98.64898914667222
 10
17.303192204765182
 20
84.69802642231426
 10
30.113345391419546
 20
84.4744243667008
 10
30.480084228515626
 20
84.5906982421875
 10
30.64649353027344
 20
84.643701171875
 10
30.842349243164062
 20
84.7095947265625
 10
31.0662109375
 20
84.7896484375
 10
31.264358520507812
 20
84.8680419921875
 10
31.462109375
 20
84.9608154296875
 10
31.649826049804688
 20
85.0651611328125
 10
31.819317626953126
 20
85.177099609375
 10
31.9873046875
 20
85.3216796875
 10
32.125848388671876
 20
85.453369140625
 10
32.23637390136719
 20
85.5708740234375
 10
32.45410522527754
 20
85.85751523280064
 10
32.5593017167531
 20
91.8842181931263
 10
32.81461946012994
 20
92.05787306077536
 10
33.069928048233336
 20
92.23151572139321
 10
49.77768095654988
 20
91.93988080957392
 10
50.0536865234375
 20
91.638916015625
 10
50.166046142578125
 20
91.5094482421875
 10
50.308224487304685
 20
91.337158203125
 10
50.45039672851563
 20
91.1648193359375
 10
50.55130310058594
 20
91.0352294921875
 10
50.7728944240005
 20
90.73367458364324
 10
50.6754093533766
 20
85.14875862802833
 10
50.86844993170142
 20
84.9552996160568
 10
50.815817902604365
 20
84.75922829939778
 10
51.008867636202616
 20
84.56576928742625
 10
72.36016369254496
 20
84.19308102846121
 10
72.58209693731018
 20
84.67923981106523
 10
72.80401797504415
 20
85.16537417960672
 10
72.90910741815743
 20
91.18594434336451
 10
73.12817257402523
 20
91.51257160853375
 10
73.3472316263774
 20
91.83919887370294
 10
88.05258138705506
 20
91.58251603883818
 10
88.30513916015624
 20
91.3555908203125
 10
88.40736694335938
 20
91.2456787109375
 10
88.52127075195312
 20
91.114306640625
 10
88.644677734375
 20
90.9642333984375
 10
88.74810180664062
 20
90.8029052734375
 10
88.83631591796875
 20
90.6569580078125
 10
88.90784301757813
 20
90.529833984375
 10
89.04975025102166
 20
90.24066424379839
 10
88.94940777481654
 20
84.49204763207176
 10
110.77758964629618
 20
84.1110353002401
 10
110.90020560586451
 20
91.1356989192282
 10
111.1287543923434
 20
91.32206352895301
 10
111.3573031788223
 20
91.50842813867784
 10
111.58647452389496
 20
91.47201442809019
 10
111.81499889631134
 20
91.65837903781498
 10
126.499812247748
 20
91.4020546673069
 10
126.69267578125
 20
91.100830078125
 10
126.77061767578125
 20
90.9712646484375
 10
126.8691162109375
 20
90.7988525390625
 10
126.96759033203125
 20
90.626416015625
 10
127.03699951171875
 20
90.4967529296875
 10
127.18920671160929
 20
90.19506148325222
 10
127.09580488972139
 20
84.84407469105199
 10
127.37767333984375
 20
84.653564453125
 10
127.5131103515625
 20
84.5785888671875
 10
127.6745361328125
 20
84.4960693359375
 10
127.85853271484375
 20
84.407568359375
 10
128.05460205078126
 20
84.3373779296875
 10
128.23162841796875
 20
84.2783935546875
 10
128.38551025390626
 20
84.2315673828125
 10
128.7340847788269
 20
84.14248480940846
 10
148.28861299721063
 20
83.80115924971592
 10
148.56217803981758
 20
84.2154427778095
 10
148.8357308753933
 20
84.62970189184061
 10
148.9367280582997
 20
90.41582662536288
 10
149.12018806161672
 20
90.6785539772471
 10
149.3036358579025
 20
90.94130574319388
 10
149.48708365418827
 20
91.2040330950781
 10
163.40183038057975
 20
90.96115028750924
 10
163.76239013671875
 20
90.90361328125
 10
163.9238037109375
 20
90.874365234375
 10
164.10859375
 20
90.838916015625
 10
164.34423828125
 20
90.786083984375
 10
164.52906494140626
 20
90.74091796875
 10
164.69053955078124
 20
90.6993408203125
 10
165.05138898057575
 20
90.59117476139814
 10
164.95420244222058
 20
85.0233617080024
 10
165.1898316274118
 20
84.80577285614454
 10
165.18124694541547
 20
84.58557169959917
 10
165.41687613060668
 20
84.36798284774132
 10
165.40829144861038
 20
84.14778169119595
 10
165.6439206338016
 20
83.93019283933809
 10
180.7762634657898
 20
83.6660568126897
 10
181.15584716796874
 20
84.046337890625
 10
181.3140869140625
 20
84.2097900390625
 10
181.5194091796875
 20
84.4271240234375
 10
181.72471923828124
 20
84.6445068359375
 10
181.8744384765625
 20
84.807861328125
 10
182.2134416246468
 20
85.18772749592563
 10
185.25684700886222
 20
259.5443051844721
 10
185.17842490015738
 20
259.8235564859009
 10
185.1000149984838
 20
260.10280778732965
 10
185.02160509681022
 20
260.3820560370006
 10
170.25604003160078
 20
260.6397899339157
 10
170.15185546875
 20
260.2853668212891
 10
170.10772705078125
 20
260.1329803466797
 10
170.04842529296874
 20
259.9302551269531
 10
169.98909912109374
 20
259.72752990722654
 10
169.9449951171875
 20
259.57514038085935
 10
169.8407986159963
 20
259.22070976523014
 10
169.745301745046
 20
253.74969769262984
 10
169.5357412845191
 20
253.51319846228225
 10
169.32616861696096
 20
253.27669312841903
 10
154.3064168551351
 20
253.53886387062738
 10
154.07958565475047
 20
253.70417554314363
 10
153.8527544543658
 20
253.86948416390206
 10
153.9522111106398
 20
259.5673521857638
 10
153.7979248046875
 20
259.9191162109375
 10
153.72132568359376
 20
260.0714996337891
 10
153.6302978515625
 20
260.2436492919922
 10
153.50281982421876
 20
260.45704956054686
 10
153.39556884765625
 20
260.61953125
 10
153.2985595703125
 20
260.75965881347656
 10
153.05975035289188
 20
261.06112456930833
 10
133.1701699872607
 20
261.4082984859854
 10
132.9079990286347
 20
261.2442732081463
 10
132.6449613707899
 20
261.2992847955415
 10
132.6253197090389
 20
261.1366846886008
 10
132.36313654338164
 20
260.97264415197253
 10
132.2521620447754
 20
254.61491938482726
 10
131.9986495512125
 20
254.33032109108746
 10
131.74513705764966
 20
254.04571669383205
 10
116.93920234024264
 20
254.30415524564734
 10
116.74807494899218
 20
254.52070526849184
 10
116.55694755774175
 20
254.7372522395786
 10
116.36580795946004
 20
254.95379615890747
 10
116.46535586435182
 20
260.65689181057974
 10
116.21575041188262
 20
260.974964140767
 10
116.20893060394467
 20
261.2944677453683
 10
115.95933735850672
 20
261.61253397204
 10
115.95250534353752
 20
261.9320314731257
 10
94.81137399627248
 20
262.30105129344815
 10
94.63220665260583
 20
262.0735047150053
 10
94.69607519761104
 20
261.8473772039453
 10
94.51690175042876
 20
261.6198153667134
 10
94.41750267955612
 20
255.9252464102862
 10
94.21572862797494
 20
255.7030737145852
 10
94.25706981076877
 20
255.4823658626342
 10
94.05528965567197
 20
255.26018095990193
 10
93.85349729354392
 20
255.03798690189623
 10
79.26206926750609
 20
255.29268122548615
 10
78.996923828125
 20
255.6109405517578
 10
78.901806640625
 20
255.7555908203125
 10
78.807666015625
 20
255.92904968261718
 10
78.71719970703126
 20
256.127734375
 10
78.67561645507813
 20
256.3033111572266
 10
78.673828125
 20
256.5025207519531
 10
78.68751220703125
 20
256.67662658691404
 10
78.7158203125
 20
256.82201232910154
 10
78.83798836721104
 20
257.1425765971011
 10
78.89934266519671
 20
260.6575619745819
 10
78.77562866210937
 20
261.02903137207034
 10
78.71200561523438
 20
261.19329528808595
 10
78.63070068359374
 20
261.3838195800781
 10
78.52618408203125
 20
261.60022888183596
 10
78.41638793945313
 20
261.78481140136716
 10
78.29525146484374
 20
261.96165466308594
 10
78.13759765625
 20
262.1425750732422
 10
77.9939453125
 20
262.291796875
 10
77.86512451171875
 20
262.41347045898436
 10
77.55222598026808
 20
262.6591155316989
 10
57.100828463382264
 20
263.0160960032289
 10
56.887731159356846
 20
262.86662658699123
 10
56.674627751815805
 20
262.7171541189957
 10
56.55971116998576
 20
256.1335875552137
 10
56.345568957583865
 20
255.9287961157509
 10
56.13140843463509
 20
255.7239955210147
 10
41.50797223978227
 20
255.9792485492695
 10
41.29146782363712
 20
256.21257780577747
 10
41.07496645924978
 20
256.44590401052767
 10
41.1022578194718
 20
256.6806950590279
 10
40.88575950684228
 20
256.91401821202027
 10
40.999405077066385
 20
263.4247685696653
  0
ENDSEC
  0
SECTION
  2
OBJECTS
  0
DICTIONARY
  5
A
330
0
100
AcDbDictionary
281
1
  3
ACAD_COLOR
350
B
  3
ACAD_GROUP
350
C
  3
ACAD_LAYOUT
350
D
  3
ACAD_MATERIAL
350
E
  3
ACAD_MLEADERSTYLE
350
F
  3
ACAD_MLINESTYLE
350
10
  3
ACAD_PLOTSETTINGS
350
11
  3
ACAD_PLOTSTYLENAME
350
12
  3
ACAD_SCALELIST
350
14
  3
ACAD_TABLESTYLE
350
15
  3
ACAD_VISUALSTYLE
350
16
  3
EZDXF_META
350
2D
  0
DICTIONARY
  5
B
330
A
100
AcDbDictionary
281
1
  0
DICTIONARY
  5
C
330
A
100
AcDbDictionary
281
1
  0
DICTIONARY
  5
D
330
A
100
AcDbDictionary
281
1
  3
Model
350
1A
  3
Layout1
350
1E
  0
DICTIONARY
  5
E
330
A
100
AcDbDictionary
281
1
  3
ByBlock
350
1F
  3
ByLayer
350
20
  3
Global
350
21
  0
DICTIONARY
  5
F
330
A
100
AcDbDictionary
281
1
  3
Standard
350
2C
  0
DICTIONARY
  5
10
330
A
100
AcDbDictionary
281
1
  3
Standard
350
22
  0
DICTIONARY
  5
11
330
A
100
AcDbDictionary
281
1
  0
ACDBDICTIONARYWDFLT
  5
12
330
A
100
AcDbDictionary
281
1
  3
Normal
350
13
100
AcDbDictionaryWithDefault
340
13
  0
ACDBPLACEHOLDER
  5
13
330
12
  0
DICTIONARY
  5
14
330
A
100
AcDbDictionary
281
1
  0
DICTIONARY
  5
15
330
A
100
AcDbDictionary
281
1
  0
DICTIONARY
  5
16
330
A
100
AcDbDictionary
281
1
  0
LAYOUT
  5
1A
330
D
100
AcDbPlotSettings
  1

  4
A3
  6

 40
7.5
 41
20.0
 42
7.5
 43
20.0
 44
420.0
 45
297.0
 46
0.0
 47
0.0
 48
0.0
 49
0.0
140
0.0
141
0.0
142
1.0
143
1.0
 70
1024
 72
1
 73
0
 74
5
  7

 75
16
 76
0
 77
2
 78
300
147
1.0
148
0.0
149
0.0
100
AcDbLayout
  1
Model
 70
1
 71
0
 10
0.0
 20
0.0
 11
420.0
 21
297.0
 12
0.0
 22
0.0
 32
0.0
 14
1e+20
 24
1e+20
 34
1e+20
 15
-1e+20
 25
-1e+20
 35
-1e+20
146
0.0
 13
0.0
 23
0.0
 33
0.0
 16
1.0
 26
0.0
 36
0.0
 17
0.0
 27
1.0
 37
0.0
 76
1
330
17
  0
LAYOUT
  5
1E
330
D
100
AcDbPlotSettings
  1

  4
A3
  6

 40
7.5
 41
20.0
 42
7.5
 43
20.0
 44
420.0
 45
297.0
 46
0.0
 47
0.0
 48
0.0
 49
0.0
140
0.0
141
0.0
142
1.0
143
1.0
 70
0
 72
1
 73
0
 74
5
  7

 75
16
 76
0
 77
2
 78
300
147
1.0
148
0.0
149
0.0
100
AcDbLayout
  1
Layout1
 70
1
 71
1
 10
0.0
 20
0.0
 11
420.0
 21
297.0
 12
0.0
 22
0.0
 32
0.0
 14
1e+20
 24
1e+20
 34
1e+20
 15
-1e+20
 25
-1e+20
 35
-1e+20
146
0.0
 13
0.0
 23
0.0
 33
0.0
 16
1.0
 26
0.0
 36
0.0
 17
0.0
 27
1.0
 37
0.0
 76
1
330
1B
  0
MATERIAL
  5
1F
102
{ACAD_REACTORS
330
E
102
}
330
E
100
AcDbMaterial
  1
ByBlock
  2

 70
0
 40
1.0
 71
1
 41
1.0
 91
-1023410177
 42
1.0
 72
1
  3

 73
1
 74
1
 75
1
 44
0.5
 73
0
 45
1.0
 46
1.0
 77
1
  4

 78
1
 79
1
170
1
 48
1.0
171
1
  6

172
1
173
1
174
1
140
1.0
141
1.0
175
1
  7

176
1
177
1
178
1
143
1.0
179
1
  8

270
1
271
1
272
1
145
1.0
146
1.0
273
1
  9

274
1
275
1
276
1
 42
1.0
 72
1
  3

 73
1
 74
1
 75
1
 94
63
  0
MATERIAL
  5
20
102
{ACAD_REACTORS
330
E
102
}
330
E
100
AcDbMaterial
  1
ByLayer
  2

 70
0
 40
1.0
 71
1
 41
1.0
 91
-1023410177
 42
1.0
 72
1
  3

 73
1
 74
1
 75
1
 44
0.5
 73
0
 45
1.0
 46
1.0
 77
1
  4

 78
1
 79
1
170
1
 48
1.0
171
1
  6

172
1
173
1
174
1
140
1.0
141
1.0
175
1
  7

176
1
177
1
178
1
143
1.0
179
1
  8

270
1
271
1
272
1
145
1.0
146
1.0
273
1
  9

274
1
275
1
276
1
 42
1.0
 72
1
  3

 73
1
 74
1
 75
1
 94
63
  0
MATERIAL
  5
21
102
{ACAD_REACTORS
330
E
102
}
330
E
100
AcDbMaterial
  1
Global
  2

 70
0
 40
1.0
 71
1
 41
1.0
 91
-1023410177
 42
1.0
 72
1
  3

 73
1
 74
1
 75
1
 44
0.5
 73
0
 45
1.0
 46
1.0
 77
1
  4

 78
1
 79
1
170
1
 48
1.0
171
1
  6

172
1
173
1
174
1
140
1.0
141
1.0
175
1
  7

176
1
177
1
178
1
143
1.0
179
1
  8

270
1
271
1
272
1
145
1.0
146
1.0
273
1
  9

274
1
275
1
276
1
 42
1.0
 72
1
  3

 73
1
 74
1
 75
1
 94
63
  0
MLINESTYLE
  5
22
102
{ACAD_REACTORS
330
10
102
}
330
10
100
AcDbMlineStyle
  2
Standard
 70
0
  3

 62
256
 51
90.0
 52
90.0
 71
2
 49
0.5
 62
256
  6
BYLAYER
 49
-0.5
 62
256
  6
BYLAYER
  0
MLEADERSTYLE
  5
2C
102
{ACAD_REACTORS
330
F
102
}
330
F
100
AcDbMLeaderStyle
179
2
170
2
171
1
172
0
 90
2
 40
0.0
 41
0.0
173
1
 91
-1056964608
 92
-2
290
1
 42
2.0
291
1
 43
8.0
  3
Standard
 44
4.0
300

342
29
174
1
175
1
176
0
178
1
 93
-1056964608
 45
4.0
292
0
297
0
 46
4.0
 94
-1056964608
 47
1.0
 49
1.0
140
1.0
294
1
141
0.0
177
0
142
1.0
295
0
296
0
143
3.75
271
0
272
9
273
9
  0
DICTIONARY
  5
2D
330
A
100
AcDbDictionary
280
1
281
1
  3
CREATED_BY_EZDXF
350
2E
  3
WRITTEN_BY_EZDXF
350
32
  0
DICTIONARYVAR
  5
2E
330
2D
100
DictionaryVariables
280
0
  1
1.4.4 @ 2026-07-09T13:46:31.922433+00:00
  0
DICTIONARYVAR
  5
32
330
2D
100
DictionaryVariables
280
0
  1
1.4.4 @ 2026-07-09T13:46:31.929942+00:00
  0
ENDSEC
  0
EOF
