0
SECTION
2
HEADER
9
$ACADVER
1
AC1014
9
$INSUNITS
70
4
9
$HANDSEED
5
FFFF
0
ENDSEC
0
SECTION
2
TABLES
0
TABLE
2
LTYPE
70
1
0
LTYPE
2
CONTINUOUS
70
0
3
Solid line
72
65
73
0
40
0.000000
0
ENDTAB
0
TABLE
2
LAYER
70
3
0
LAYER
2
0
70
0
62
7
6
CONTINUOUS
0
LAYER
2
OUTER
70
0
62
3
6
CONTINUOUS
0
LAYER
2
HOLES
70
0
62
1
6
CONTINUOUS
0
ENDTAB
0
ENDSEC
0
SECTION
2
ENTITIES
0
LWPOLYLINE
100
AcDbEntity
8
OUTER
100
AcDbPolyline
90
172
70
1
10
143.750000
20
143.032876
10
143.382743
20
143.229426
10
142.000000
20
142.750000
10
140.750000
20
142.750000
10
140.500000
20
142.500000
10
140.000000
20
142.500000
10
138.750000
20
143.219480
10
138.750000
20
143.750000
10
138.500000
20
144.000000
10
138.250000
20
148.250000
10
138.000000
20
148.500000
10
138.000000
20
149.500000
10
137.750000
20
149.750000
10
137.750000
20
151.000000
10
137.500000
20
151.250000
10
137.500000
20
152.750000
10
137.250000
20
153.000000
10
136.750000
20
157.250000
10
135.000000
20
161.750000
10
133.500000
20
162.750000
10
132.726688
20
162.750000
10
132.203364
20
162.046636
10
132.500000
20
161.750000
10
132.500000
20
161.250000
10
133.750000
20
159.500000
10
134.750000
20
157.000000
10
135.000000
20
155.000000
10
135.250000
20
154.750000
10
135.250000
20
153.500000
10
135.500000
20
153.250000
10
135.500000
20
151.250000
10
136.000000
20
150.000000
10
136.000000
20
147.750000
10
136.250000
20
147.500000
10
136.250000
20
146.500000
10
136.500000
20
146.250000
10
136.500000
20
144.500000
10
136.750000
20
144.250000
10
136.750000
20
142.437094
10
135.250000
20
141.500000
10
134.000000
20
141.500000
10
133.750000
20
141.250000
10
132.500000
20
141.250000
10
132.250000
20
141.000000
10
131.000000
20
141.000000
10
130.779021
20
140.779021
10
129.750000
20
141.250000
10
129.449532
20
141.750000
10
128.500000
20
141.750000
10
128.250000
20
141.500000
10
127.250000
20
141.500000
10
127.000000
20
141.250000
10
125.750000
20
141.250000
10
125.500000
20
141.000000
10
124.500000
20
141.000000
10
124.250000
20
140.750000
10
123.000000
20
140.750000
10
121.454134
20
140.045866
10
121.250000
20
140.250000
10
120.000000
20
140.250000
10
119.750000
20
140.000000
10
118.000000
20
139.733007
10
118.000000
20
139.187099
10
116.500000
20
138.250000
10
114.000000
20
138.000000
10
112.538648
20
138.788648
10
112.250000
20
138.500000
10
111.000000
20
138.500000
10
111.000000
20
137.962440
10
109.250000
20
137.000000
10
108.750000
20
137.000000
10
107.500000
20
137.750000
10
107.000000
20
137.750000
10
106.750000
20
137.500000
10
106.331342
20
137.500000
10
105.750000
20
136.750000
10
104.000000
20
136.000000
10
99.750000
20
135.500000
10
99.500000
20
135.250000
10
97.000000
20
135.000000
10
96.750000
20
134.750000
10
93.500000
20
134.500000
10
93.250000
20
134.250000
10
92.250000
20
134.250000
10
92.000000
20
134.000000
10
89.750000
20
134.000000
10
88.500000
20
134.719480
10
88.500000
20
136.250000
10
89.000000
20
136.750000
10
89.000000
20
139.250000
10
88.750000
20
139.500000
10
88.250000
20
143.750000
10
87.750000
20
145.000000
10
86.750000
20
145.732712
10
86.750000
20
146.750000
10
86.750000
20
143.500000
10
87.000000
20
143.250000
10
87.000000
20
141.500000
10
87.250000
20
141.250000
10
87.250000
20
140.000000
10
87.500000
20
139.750000
10
87.500000
20
138.250000
10
87.750000
20
138.000000
10
87.750000
20
136.750000
10
88.500000
20
135.500000
10
88.750000
20
133.000000
10
89.000000
20
132.750000
10
89.250000
20
133.000000
10
92.750000
20
133.000000
10
93.000000
20
133.250000
10
94.000000
20
133.250000
10
94.250000
20
133.500000
10
95.250000
20
133.500000
10
95.500000
20
133.750000
10
97.000000
20
133.750000
10
97.250000
20
134.000000
10
97.750000
20
134.000000
10
98.686824
20
133.476241
10
99.000000
20
134.000000
10
100.000000
20
134.500000
10
101.250000
20
134.500000
10
101.500000
20
134.750000
10
102.500000
20
134.750000
10
102.750000
20
135.000000
10
104.250000
20
135.000000
10
104.500000
20
135.250000
10
105.500000
20
135.250000
10
105.750000
20
135.500000
10
106.500000
20
135.500000
10
106.711280
20
135.288720
10
108.250205
20
136.249795
10
108.531442
20
135.968558
10
109.500000
20
136.250000
10
110.500000
20
135.750000
10
110.794992
20
135.260218
10
113.000000
20
135.500000
10
113.250000
20
135.750000
10
114.000000
20
135.750000
10
114.000000
20
136.780520
10
115.324550
20
137.510570
10
115.739449
20
137.288523
10
116.838388
20
137.743718
10
117.478553
20
137.478553
10
117.750000
20
137.750000
10
119.000000
20
137.750000
10
119.250000
20
138.000000
10
120.500000
20
138.000000
10
120.750000
20
138.250000
10
122.000000
20
138.250000
10
122.250000
20
138.500000
10
123.250000
20
138.500000
10
123.500000
20
138.750000
10
124.750000
20
138.750000
10
125.000000
20
139.000000
10
127.500000
20
139.250000
10
127.750000
20
139.500000
10
129.000000
20
139.500000
10
129.250000
20
139.750000
10
131.000000
20
139.750000
10
131.250000
20
140.000000
10
132.250000
20
140.000000
10
133.000000
20
139.500000
10
133.750000
20
139.500000
10
135.750000
20
140.750000
10
137.000000
20
140.750000
10
137.750000
20
141.250000
10
139.750000
20
141.250000
10
140.000000
20
141.500000
10
141.000000
20
141.500000
10
143.122409
20
142.234956
10
143.521415
20
142.021415
10
143.750000
20
142.250000
0
LWPOLYLINE
100
AcDbEntity
8
HOLES
100
AcDbPolyline
90
11
70
1
10
114.250000
20
137.500000
10
113.750000
20
137.000000
10
113.750000
20
136.500000
10
113.000000
20
135.750000
10
111.750000
20
135.750000
10
111.472412
20
135.472412
10
110.250000
20
136.000000
10
109.500000
20
136.750000
10
110.000000
20
137.250000
10
112.559083
20
138.512954
10
113.750000
20
138.000000
0
LWPOLYLINE
100
AcDbEntity
8
HOLES
100
AcDbPolyline
90
27
70
1
10
130.538723
20
140.538723
10
130.000000
20
140.000000
10
129.250000
20
140.000000
10
129.000000
20
139.750000
10
126.250000
20
139.500000
10
126.000000
20
139.250000
10
123.500000
20
139.000000
10
123.250000
20
138.750000
10
120.750000
20
138.500000
10
120.500000
20
138.250000
10
119.250000
20
138.250000
10
119.000000
20
138.000000
10
118.250000
20
138.000000
10
117.750000
20
138.500000
10
119.000000
20
139.750000
10
119.750000
20
139.750000
10
120.000000
20
140.000000
10
121.250000
20
140.000000
10
121.454134
20
139.795866
10
123.000000
20
140.500000
10
124.250000
20
140.500000
10
124.500000
20
140.750000
10
127.000000
20
141.000000
10
127.250000
20
141.250000
10
128.250000
20
141.250000
10
128.500000
20
141.500000
10
129.000000
20
141.500000
0
LWPOLYLINE
100
AcDbEntity
8
HOLES
100
AcDbPolyline
90
38
70
1
10
133.271447
20
162.521447
10
134.000000
20
162.250000
10
134.750000
20
161.500000
10
136.500000
20
157.000000
10
136.750000
20
154.250000
10
137.000000
20
154.000000
10
137.000000
20
152.750000
10
137.250000
20
152.500000
10
137.250000
20
151.000000
10
137.500000
20
150.750000
10
137.500000
20
149.500000
10
137.750000
20
149.250000
10
137.750000
20
148.250000
10
138.000000
20
148.000000
10
138.250000
20
143.750000
10
139.000000
20
142.750000
10
139.750000
20
142.500000
10
140.250000
20
142.000000
10
139.750000
20
141.500000
10
137.750000
20
141.500000
10
137.000000
20
141.000000
10
136.500000
20
141.000000
10
135.984449
20
141.515551
10
137.013106
20
142.266421
10
136.750000
20
146.500000
10
136.500000
20
146.750000
10
136.500000
20
147.750000
10
136.250000
20
148.000000
10
136.250000
20
150.250000
10
135.750000
20
151.500000
10
135.750000
20
153.500000
10
135.500000
20
153.750000
10
135.500000
20
155.000000
10
135.250000
20
155.250000
10
135.000000
20
157.250000
10
134.000000
20
159.750000
10
132.750000
20
161.500000
10
132.750000
20
162.000000
0
ENDSEC
0
EOF
