0
SECTION
2
HEADER
9
$ACADVER
1
AC1014
9
$INSUNITS
70
4
9
$HANDSEED
5
FFFF
0
ENDSEC
0
SECTION
2
TABLES
0
TABLE
2
LTYPE
70
1
0
LTYPE
2
CONTINUOUS
70
0
3
Solid line
72
65
73
0
40
0.000000
0
ENDTAB
0
TABLE
2
LAYER
70
3
0
LAYER
2
0
70
0
62
7
6
CONTINUOUS
0
LAYER
2
OUTER
70
0
62
3
6
CONTINUOUS
0
LAYER
2
HOLES
70
0
62
1
6
CONTINUOUS
0
ENDTAB
0
ENDSEC
0
SECTION
2
ENTITIES
0
LWPOLYLINE
100
AcDbEntity
8
OUTER
100
AcDbPolyline
90
75
70
1
10
94.000000
20
175.750000
10
93.750000
20
175.500000
10
92.500000
20
175.500000
10
92.250000
20
175.250000
10
91.750000
20
175.250000
10
90.250000
20
173.750000
10
89.936835
20
172.673759
10
89.000000
20
172.250000
10
88.750000
20
171.750000
10
88.750000
20
167.250000
10
88.500000
20
167.000000
10
88.500000
20
154.030330
10
89.250000
20
153.750000
10
90.000000
20
153.000000
10
90.250000
20
152.000000
10
91.250000
20
151.000000
10
92.500000
20
150.750000
10
93.750000
20
150.030520
10
93.750000
20
143.780330
10
94.500000
20
143.500000
10
95.250000
20
142.500000
10
95.250000
20
141.500000
10
95.000000
20
141.250000
10
95.000000
20
127.750000
10
94.750000
20
127.500000
10
94.750000
20
126.050468
10
95.250000
20
125.782876
10
95.250000
20
124.717124
10
94.750000
20
124.449532
10
94.750000
20
122.030330
10
95.500000
20
121.750000
10
96.000000
20
121.250000
10
96.000000
20
120.000000
10
96.500000
20
119.250000
10
97.000000
20
119.000000
10
98.000000
20
119.000000
10
100.000000
20
118.000000
10
101.500000
20
118.000000
10
101.750000
20
118.250000
10
102.750000
20
118.250000
10
103.250000
20
118.500000
10
104.250000
20
119.500000
10
104.250000
20
120.000000
10
104.500000
20
120.250000
10
104.500000
20
137.250000
10
104.750000
20
137.500000
10
104.750000
20
141.500000
10
105.250000
20
142.000000
10
105.956023
20
142.262114
10
106.250000
20
142.750000
10
106.250000
20
149.530520
10
107.500000
20
150.250000
10
109.250000
20
150.250000
10
109.500000
20
150.500000
10
110.000000
20
150.500000
10
111.250000
20
151.500000
10
111.750000
20
152.500000
10
111.750000
20
155.250000
10
112.000000
20
155.500000
10
112.000000
20
162.250000
10
112.250000
20
162.500000
10
112.250000
20
171.500000
10
111.250000
20
174.250000
10
110.250000
20
175.000000
10
109.500000
20
175.000000
10
108.250000
20
175.500000
10
103.750000
20
175.500000
10
103.500000
20
175.750000
10
103.250000
20
175.500000
10
102.250000
20
175.500000
10
102.000000
20
175.750000
10
101.000000
20
175.750000
10
100.750000
20
175.500000
10
100.250000
20
175.500000
10
100.000000
20
175.750000
0
LWPOLYLINE
100
AcDbEntity
8
HOLES
100
AcDbPolyline
90
16
70
1
10
96.203361
20
142.546639
10
96.750000
20
142.000000
10
96.750000
20
136.000000
10
96.500000
20
135.750000
10
96.500000
20
122.226682
10
95.796639
20
121.703361
10
95.000000
20
122.500000
10
95.000000
20
124.000000
10
95.500000
20
124.500000
10
95.500000
20
126.000000
10
95.000000
20
126.500000
10
95.000000
20
127.250000
10
95.250000
20
127.500000
10
95.250000
20
141.000000
10
95.500000
20
141.250000
10
95.500000
20
142.023317
0
LWPOLYLINE
100
AcDbEntity
8
HOLES
100
AcDbPolyline
90
7
70
1
10
94.301869
20
151.051869
10
95.250000
20
150.267288
10
95.250000
20
144.000000
10
94.750000
20
143.500000
10
94.000000
20
144.250000
10
94.000000
20
150.250000
10
93.750000
20
150.500000
0
LWPOLYLINE
100
AcDbEntity
8
HOLES
100
AcDbPolyline
90
12
70
1
10
98.000000
20
169.250000
10
98.750000
20
170.000000
10
99.750000
20
170.500000
10
102.000000
20
170.500000
10
103.513020
20
169.263020
10
103.000000
20
168.750000
10
102.750000
20
167.500000
10
102.000000
20
166.750000
10
99.500000
20
166.750000
10
99.250000
20
167.000000
10
98.723671
20
167.000000
10
97.713767
20
168.265182
0
LWPOLYLINE
100
AcDbEntity
8
HOLES
100
AcDbPolyline
90
14
70
1
10
89.750000
20
172.250000
10
90.250000
20
171.750000
10
90.250000
20
163.500000
10
90.000000
20
163.250000
10
90.000000
20
162.500000
10
90.250000
20
162.250000
10
90.250000
20
159.750000
10
90.000000
20
159.500000
10
90.000000
20
154.250000
10
89.500000
20
153.750000
10
88.750000
20
154.500000
10
88.750000
20
166.750000
10
89.000000
20
167.000000
10
89.000000
20
171.500000
0
ENDSEC
0
EOF
