0
SECTION
2
HEADER
9
$ACADVER
1
AC1014
9
$INSUNITS
70
4
9
$HANDSEED
5
FFFF
0
ENDSEC
0
SECTION
2
TABLES
0
TABLE
2
LTYPE
70
1
0
LTYPE
2
CONTINUOUS
70
0
3
Solid line
72
65
73
0
40
0.000000
0
ENDTAB
0
TABLE
2
LAYER
70
3
0
LAYER
2
0
70
0
62
7
6
CONTINUOUS
0
LAYER
2
OUTER
70
0
62
3
6
CONTINUOUS
0
LAYER
2
HOLES
70
0
62
1
6
CONTINUOUS
0
ENDTAB
0
ENDSEC
0
SECTION
2
ENTITIES
0
LWPOLYLINE
100
AcDbEntity
8
OUTER
100
AcDbPolyline
90
254
70
1
10
98.734681
20
235.793092
10
96.250000
20
233.515956
10
96.250000
20
233.250000
10
94.000000
20
231.000000
10
93.000000
20
229.500000
10
93.000000
20
229.000000
10
93.500000
20
228.250000
10
95.000000
20
226.750000
10
95.000000
20
225.500000
10
94.500000
20
224.750000
10
92.250000
20
222.500000
10
91.250000
20
222.000000
10
90.750000
20
222.000000
10
90.000000
20
222.500000
10
86.500000
20
222.500000
10
86.000000
20
222.250000
10
78.972055
20
214.446353
10
79.250000
20
213.250000
10
81.000000
20
211.250000
10
81.000000
20
210.250000
10
78.250000
20
207.250000
10
78.250000
20
206.969480
10
77.000000
20
206.280520
10
75.750000
20
207.000000
10
72.250000
20
207.000000
10
71.500000
20
206.418652
10
71.500000
20
206.250000
10
65.000000
20
199.250000
10
65.000000
20
198.000000
10
67.000000
20
195.750000
10
67.000000
20
194.750000
10
65.500000
20
193.250000
10
65.500000
20
193.000000
10
63.750000
20
191.250000
10
62.649749
20
190.742534
10
61.250000
20
191.500000
10
58.250000
20
191.500000
10
57.750000
20
191.250000
10
55.000000
20
188.250000
10
55.000000
20
187.967132
10
54.500000
20
187.750000
10
54.250000
20
187.250000
10
52.000000
20
185.000000
10
50.740680
20
183.259320
10
51.000000
20
183.000000
10
51.250000
20
181.750000
10
52.750000
20
180.250000
10
52.750000
20
179.250000
10
51.250000
20
177.250000
10
50.750000
20
177.000000
10
49.000000
20
175.000000
10
48.000000
20
174.543886
10
47.000000
20
175.000000
10
46.418656
20
175.750000
10
45.750000
20
175.750000
10
45.500000
20
176.000000
10
44.250000
20
176.000000
10
43.750000
20
175.750000
10
39.250000
20
171.000000
10
38.500000
20
170.000000
10
38.500000
20
169.250000
10
39.000000
20
168.250000
10
40.250000
20
167.000000
10
40.250000
20
166.750000
10
43.500000
20
163.500000
10
43.500000
20
162.500000
10
41.750000
20
160.500000
10
41.750000
20
159.250000
10
42.250000
20
158.750000
10
42.530330
20
158.000000
10
42.773315
20
158.000000
10
43.250000
20
157.250000
10
47.000000
20
153.500000
10
49.500000
20
152.250000
10
50.000000
20
151.750000
10
50.268237
20
151.750000
10
50.750000
20
152.500000
10
52.795647
20
153.471162
10
54.250000
20
152.562904
10
54.250000
20
152.250000
10
57.500000
20
149.000000
10
57.500000
20
148.000000
10
55.750000
20
146.000000
10
55.750000
20
145.000000
10
56.250000
20
144.500000
10
56.250000
20
144.000000
10
58.000000
20
142.250000
10
58.000000
20
142.000000
10
58.269090
20
142.000000
10
60.500000
20
139.500000
10
62.750000
20
138.000000
10
63.250000
20
138.000000
10
64.000000
20
137.500000
10
64.500000
20
137.500000
10
64.000000
20
137.717124
10
64.000000
20
139.000000
10
64.500000
20
139.500000
10
65.495041
20
139.953574
10
67.000000
20
139.250000
10
71.500000
20
134.750000
10
71.500000
20
133.500000
10
70.000000
20
131.750000
10
70.000000
20
130.250000
10
71.500000
20
128.250000
10
75.000000
20
124.750000
10
76.000000
20
124.250000
10
76.750000
20
123.500000
10
77.250000
20
123.500000
10
78.500000
20
124.750000
10
79.522693
20
125.217738
10
80.250000
20
124.750000
10
80.750000
20
124.750000
10
81.750000
20
124.250000
10
85.500000
20
120.250000
10
85.500000
20
119.000000
10
84.000000
20
117.250000
10
84.000000
20
116.000000
10
84.500000
20
115.000000
10
85.000000
20
114.750000
10
85.500000
20
114.000000
10
89.250000
20
110.250000
10
90.000000
20
110.000000
10
91.021447
20
108.978553
10
91.750000
20
109.250000
10
92.750000
20
110.500000
10
93.745041
20
110.953574
10
95.250000
20
110.250000
10
99.500000
20
106.000000
10
99.500000
20
104.750000
10
98.250000
20
103.000000
10
98.000000
20
101.750000
10
98.500000
20
100.750000
10
101.250000
20
98.000000
10
101.250000
20
97.750000
10
101.480216
20
97.750000
10
103.000000
20
96.000000
10
103.750000
20
95.750000
10
105.250000
20
94.500000
10
105.500000
20
94.500000
10
107.000000
20
96.000000
10
108.163712
20
96.500313
10
109.250000
20
96.000000
10
112.750000
20
92.500000
10
113.500000
20
92.250000
10
114.745833
20
91.229212
10
121.000000
20
97.750000
10
121.000000
20
98.750000
10
120.000000
20
100.000000
10
120.000000
20
101.250000
10
119.500000
20
102.000000
10
119.500000
20
103.000000
10
121.500000
20
105.000000
10
121.500000
20
105.250000
10
122.500000
20
106.250000
10
123.490317
20
106.701154
10
126.000000
20
105.500000
10
126.771447
20
104.728553
10
127.500000
20
105.000000
10
130.000000
20
107.500000
10
130.000000
20
107.750000
10
135.000000
20
113.000000
10
135.250000
20
113.500000
10
135.000000
20
114.500000
10
133.750000
20
115.750000
10
133.750000
20
116.750000
10
134.032874
20
117.032874
10
133.750000
20
117.500000
10
133.750000
20
118.500000
10
134.250000
20
119.250000
10
136.500000
20
121.500000
10
137.500000
20
122.000000
10
138.500000
20
121.750000
10
140.000000
20
121.000000
10
140.500000
20
120.500000
10
141.549497
20
120.500000
10
149.283203
20
128.779705
10
149.000000
20
130.000000
10
147.000000
20
132.250000
10
147.000000
20
133.250000
10
149.250000
20
135.500000
10
149.250000
20
135.750000
10
150.500000
20
137.000000
10
151.500000
20
137.500000
10
152.000000
20
137.500000
10
154.750000
20
136.000000
10
155.746137
20
136.000000
10
162.000000
20
142.750000
10
162.000000
20
143.000000
10
163.000000
20
144.000000
10
163.199532
20
144.000000
10
163.500000
20
144.500000
10
163.250000
20
145.500000
10
161.500000
20
147.250000
10
161.250000
20
147.750000
10
161.250000
20
149.000000
10
164.250000
20
152.000000
10
165.330108
20
152.497148
10
165.952950
20
152.239159
10
166.717192
20
152.711486
10
169.372845
20
151.520554
10
170.000000
20
151.750000
10
172.500000
20
154.250000
10
172.500000
20
154.500000
10
174.250000
20
156.250000
10
174.250000
20
156.526329
10
175.500000
20
157.500000
10
175.750000
20
158.500000
10
175.500000
20
159.000000
10
169.250000
20
165.250000
10
169.250000
20
165.523971
10
167.750000
20
166.785617
10
167.750000
20
167.000000
10
149.000000
20
186.000000
10
149.000000
20
186.269264
10
147.500000
20
187.502931
10
147.500000
20
187.750000
10
138.750000
20
196.500000
10
138.750000
20
196.782868
10
138.250000
20
197.000000
10
138.000000
20
197.500000
10
128.500000
20
207.000000
10
128.500000
20
207.250000
10
128.250000
20
207.250000
10
127.250000
20
208.250000
10
127.250000
20
208.500000
10
119.250000
20
216.500000
10
119.250000
20
216.655209
10
118.250000
20
217.482712
10
118.250000
20
217.750000
10
117.000000
20
219.000000
10
117.000000
20
220.217132
10
116.574543
20
219.989434
10
115.250000
20
220.719480
10
115.250000
20
222.000000
10
113.500000
20
223.750000
10
113.500000
20
224.023325
10
112.750000
20
224.500000
10
111.905209
20
225.500000
10
111.726675
20
225.500000
10
111.250000
20
226.250000
10
110.250000
20
227.250000
10
109.967132
20
227.250000
10
109.750000
20
227.750000
10
107.250000
20
230.250000
10
106.500000
20
230.726675
10
106.500000
20
231.000000
10
103.000000
20
234.500000
10
103.000000
20
234.750000
10
102.750000
20
234.750000
10
101.750000
20
235.750000
10
101.000000
20
235.750000
10
100.750000
20
235.500000
10
100.467128
20
235.782872
10
100.000000
20
235.500000
0
LWPOLYLINE
100
AcDbEntity
8
HOLES
100
AcDbPolyline
90
10
70
1
10
100.250000
20
106.500000
10
101.250000
20
105.500000
10
101.250000
20
104.250000
10
99.500000
20
102.000000
10
99.500000
20
101.500000
10
99.000000
20
101.000000
10
98.500000
20
101.500000
10
98.235288
20
102.212296
10
99.750000
20
104.500000
10
99.750000
20
106.000000
0
LWPOLYLINE
100
AcDbEntity
8
HOLES
100
AcDbPolyline
90
9
70
1
10
86.250000
20
120.750000
10
87.000000
20
120.000000
10
87.000000
20
119.000000
10
86.500000
20
117.750000
10
84.749139
20
115.750861
10
84.250000
20
116.250000
10
84.250000
20
117.000000
10
85.750000
20
118.750000
10
85.750000
20
120.250000
0
LWPOLYLINE
100
AcDbEntity
8
HOLES
100
AcDbPolyline
90
8
70
1
10
54.039445
20
153.789445
10
53.511271
20
153.261271
10
52.773856
20
153.717019
10
49.918494
20
152.253431
10
49.250000
20
152.500000
10
48.769918
20
152.980082
10
51.250000
20
155.250000
10
51.750000
20
155.250000
0
LWPOLYLINE
100
AcDbEntity
8
HOLES
100
AcDbPolyline
90
9
70
1
10
44.250000
20
163.750000
10
44.776902
20
163.223098
10
44.500000
20
161.500000
10
43.750000
20
160.250000
10
42.500000
20
159.000000
10
42.000000
20
159.500000
10
42.000000
20
160.250000
10
43.750000
20
162.250000
10
43.750000
20
163.250000
0
LWPOLYLINE
100
AcDbEntity
8
HOLES
100
AcDbPolyline
90
9
70
1
10
44.750000
20
175.750000
10
45.257528
20
175.242472
10
41.250000
20
171.000000
10
41.250000
20
170.750000
10
39.500000
20
169.000000
10
39.226679
20
169.000000
10
38.715352
20
169.687238
10
39.500000
20
170.750000
10
44.235337
20
175.750000
0
LWPOLYLINE
100
AcDbEntity
8
HOLES
100
AcDbPolyline
90
13
70
1
10
54.250000
20
179.750000
10
54.250000
20
178.750000
10
53.750000
20
177.750000
10
49.506823
20
173.250000
10
48.000000
20
173.250000
10
46.743253
20
174.243253
10
47.238729
20
174.738729
10
47.972693
20
174.285114
10
49.500000
20
175.000000
10
52.500000
20
178.250000
10
53.000000
20
179.000000
10
53.000000
20
180.000000
10
53.500000
20
180.500000
0
LWPOLYLINE
100
AcDbEntity
8
HOLES
100
AcDbPolyline
90
10
70
1
10
59.000000
20
191.250000
10
59.500000
20
190.750000
10
58.500000
20
189.750000
10
58.500000
20
189.500000
10
51.728145
20
182.271855
10
51.250000
20
182.750000
10
51.250000
20
183.500000
10
52.250000
20
184.500000
10
52.250000
20
184.750000
10
58.251923
20
191.250000
0
LWPOLYLINE
100
AcDbEntity
8
HOLES
100
AcDbPolyline
90
13
70
1
10
68.500000
20
195.250000
10
68.500000
20
194.500000
10
67.250000
20
192.500000
10
64.250000
20
189.250000
10
61.995706
20
189.004294
10
60.250000
20
190.750000
10
60.750000
20
191.250000
10
61.250000
20
191.250000
10
62.644162
20
190.495363
10
64.250000
20
191.250000
10
67.250000
20
194.500000
10
67.250000
20
195.500000
10
67.750000
20
196.000000
0
LWPOLYLINE
100
AcDbEntity
8
HOLES
100
AcDbPolyline
90
10
70
1
10
73.000000
20
206.750000
10
73.486678
20
206.263322
10
66.214098
20
198.188919
10
66.736626
20
197.486626
10
66.243253
20
196.993253
10
65.250000
20
198.250000
10
65.250000
20
199.000000
10
69.500000
20
203.500000
10
69.500000
20
203.750000
10
72.500000
20
206.750000
0
LWPOLYLINE
100
AcDbEntity
8
HOLES
100
AcDbPolyline
90
17
70
1
10
82.500000
20
211.000000
10
82.500000
20
210.250000
10
81.750000
20
209.250000
10
81.500000
20
208.500000
10
78.500000
20
205.000000
10
77.978590
20
204.771410
10
77.750000
20
205.000000
10
77.250000
20
205.000000
10
76.254806
20
204.446342
10
74.239754
20
206.239754
10
74.750000
20
206.750000
10
75.750000
20
206.750000
10
76.987430
20
206.037448
10
78.000000
20
206.500000
10
81.250000
20
210.000000
10
81.250000
20
211.250000
10
81.750000
20
211.750000
0
LWPOLYLINE
100
AcDbEntity
8
HOLES
100
AcDbPolyline
90
12
70
1
10
86.750000
20
222.250000
10
87.236626
20
221.763374
10
86.750000
20
221.000000
10
81.250000
20
215.000000
10
80.500000
20
214.000000
10
80.500000
20
213.500000
10
80.000000
20
213.000000
10
79.500000
20
213.500000
10
79.227121
20
214.232011
10
85.250000
20
220.750000
10
85.250000
20
221.000000
10
86.500000
20
222.250000
0
LWPOLYLINE
100
AcDbEntity
8
HOLES
100
AcDbPolyline
90
12
70
1
10
95.007661
20
223.742339
10
92.266843
20
220.750000
10
91.750000
20
220.750000
10
90.750000
20
220.250000
10
89.976029
20
220.250000
10
88.730654
20
221.730654
10
89.250000
20
222.250000
10
90.000000
20
222.250000
10
90.750000
20
221.750000
10
91.250000
20
221.750000
10
92.750000
20
222.500000
10
94.500000
20
224.250000
0
LWPOLYLINE
100
AcDbEntity
8
HOLES
100
AcDbPolyline
90
14
70
1
10
101.250000
20
235.500000
10
101.500000
20
235.500000
10
106.250000
20
230.750000
10
106.250000
20
230.467132
10
106.750000
20
230.250000
10
111.000000
20
226.000000
10
111.000000
20
225.732184
10
113.250000
20
223.739253
10
113.250000
20
223.500000
10
115.000000
20
221.750000
10
115.000000
20
221.250000
10
114.486626
20
220.736626
10
114.000000
20
221.500000
10
100.742927
20
234.992927
0
ENDSEC
0
EOF
