0
SECTION
2
HEADER
9
$ACADVER
1
AC1014
9
$INSUNITS
70
4
9
$HANDSEED
5
FFFF
0
ENDSEC
0
SECTION
2
TABLES
0
TABLE
2
LTYPE
70
1
0
LTYPE
2
CONTINUOUS
70
0
3
Solid line
72
65
73
0
40
0.000000
0
ENDTAB
0
TABLE
2
LAYER
70
3
0
LAYER
2
0
70
0
62
7
6
CONTINUOUS
0
LAYER
2
OUTER
70
0
62
3
6
CONTINUOUS
0
LAYER
2
HOLES
70
0
62
1
6
CONTINUOUS
0
ENDTAB
0
ENDSEC
0
SECTION
2
ENTITIES
0
LWPOLYLINE
100
AcDbEntity
8
OUTER
100
AcDbPolyline
90
16
70
1
10
15.000000
20
282.500000
10
14.500000
20
282.000000
10
14.000000
20
280.750000
10
14.000000
20
16.250000
10
14.500000
20
15.000000
10
15.000000
20
14.500000
10
16.250000
20
14.000000
10
193.750000
20
14.000000
10
195.000000
20
14.500000
10
195.500000
20
15.000000
10
196.000000
20
16.250000
10
196.000000
20
280.750000
10
195.500000
20
282.000000
10
195.000000
20
282.500000
10
193.750000
20
283.000000
10
16.250000
20
283.000000
0
LWPOLYLINE
100
AcDbEntity
8
HOLES
100
AcDbPolyline
90
12
70
1
10
147.250000
20
62.000000
10
148.750000
20
63.000000
10
191.000000
20
63.000000
10
192.000000
20
62.500000
10
192.750001
20
61.749999
10
192.749999
20
18.499999
10
192.000000
20
17.750000
10
191.000000
20
17.250000
10
148.750000
20
17.250000
10
147.750000
20
17.750000
10
147.000000
20
18.750000
10
147.000000
20
61.500000
0
LWPOLYLINE
100
AcDbEntity
8
HOLES
100
AcDbPolyline
90
12
70
1
10
17.000001
20
61.750001
10
17.750000
20
62.500000
10
18.750000
20
63.000000
10
61.000000
20
63.000000
10
62.000000
20
62.500000
10
62.750000
20
61.500000
10
62.750000
20
18.750000
10
62.500000
20
18.250000
10
61.000000
20
17.250000
10
18.750000
20
17.250000
10
17.750000
20
17.750000
10
16.999999
20
18.500001
0
LWPOLYLINE
100
AcDbEntity
8
HOLES
100
AcDbPolyline
90
12
70
1
10
147.250000
20
279.000000
10
148.750000
20
280.000000
10
191.000000
20
280.000000
10
192.000000
20
279.500000
10
192.750001
20
278.749999
10
192.749999
20
235.499999
10
192.000000
20
234.750000
10
191.000000
20
234.250000
10
148.750000
20
234.250000
10
147.750000
20
234.750000
10
147.000000
20
235.750000
10
147.000000
20
278.500000
0
LWPOLYLINE
100
AcDbEntity
8
HOLES
100
AcDbPolyline
90
12
70
1
10
17.000001
20
278.750001
10
17.750000
20
279.500000
10
18.750000
20
280.000000
10
61.000000
20
280.000000
10
62.000000
20
279.500000
10
62.750000
20
278.500000
10
62.750000
20
235.750000
10
62.500000
20
235.250000
10
61.000000
20
234.250000
10
18.750000
20
234.250000
10
17.750000
20
234.750000
10
16.999999
20
235.500001
0
LWPOLYLINE
100
AcDbEntity
8
HOLES
100
AcDbPolyline
90
24
70
1
10
64.750000
20
282.250000
10
145.000000
20
282.250000
10
146.500001
20
281.312910
10
146.499999
20
233.750000
10
193.250000
20
233.750000
10
193.706205
20
234.027026
10
195.250004
20
233.062908
10
195.249996
20
64.187092
10
193.706199
20
63.222974
10
193.250000
20
63.500000
10
146.500001
20
63.500000
10
146.499999
20
15.687078
10
145.000000
20
14.750000
10
64.750000
20
14.750000
10
63.249999
20
15.687084
10
63.250001
20
63.500000
10
16.500000
20
63.500000
10
16.250204
20
63.250204
10
14.749996
20
64.187099
10
14.750004
20
233.062909
10
16.250202
20
233.999798
10
16.500000
20
233.750000
10
63.249999
20
233.750000
10
63.250001
20
281.312907
0
ENDSEC
0
EOF
