0
SECTION
2
HEADER
9
$ACADVER
1
AC1014
9
$INSUNITS
70
4
9
$HANDSEED
5
FFFF
0
ENDSEC
0
SECTION
2
TABLES
0
TABLE
2
LTYPE
70
1
0
LTYPE
2
CONTINUOUS
70
0
3
Solid line
72
65
73
0
40
0.000000
0
ENDTAB
0
TABLE
2
LAYER
70
3
0
LAYER
2
0
70
0
62
7
6
CONTINUOUS
0
LAYER
2
OUTER
70
0
62
3
6
CONTINUOUS
0
LAYER
2
HOLES
70
0
62
1
6
CONTINUOUS
0
ENDTAB
0
ENDSEC
0
SECTION
2
ENTITIES
0
LWPOLYLINE
100
AcDbEntity
8
OUTER
100
AcDbPolyline
90
4
70
1
10
75.250003
20
209.250000
10
75.249997
20
87.000000
10
134.999997
20
87.000000
10
135.000003
20
209.250000
0
LWPOLYLINE
100
AcDbEntity
8
HOLES
100
AcDbPolyline
90
52
70
1
10
115.750000
20
136.250000
10
119.500000
20
136.250000
10
119.750000
20
136.000000
10
120.500000
20
136.000000
10
120.750000
20
135.750000
10
122.000000
20
135.500000
10
124.250000
20
134.250000
10
126.500000
20
132.250000
10
128.000000
20
130.250000
10
128.750000
20
128.750000
10
128.750000
20
128.250000
10
129.250000
20
127.250000
10
129.250000
20
126.500000
10
129.500000
20
126.250000
10
129.500000
20
122.500000
10
129.250000
20
122.250000
10
129.250000
20
121.500000
10
129.000000
20
121.250000
10
128.750000
20
120.000000
10
127.500000
20
117.750000
10
125.500000
20
115.500000
10
123.500000
20
114.000000
10
122.000000
20
113.250000
10
121.500000
20
113.250000
10
120.500000
20
112.750000
10
119.750000
20
112.750000
10
119.500000
20
112.500000
10
115.750000
20
112.500000
10
115.500000
20
112.750000
10
114.750000
20
112.750000
10
114.500000
20
113.000000
10
113.250000
20
113.250000
10
111.000000
20
114.500000
10
108.750000
20
116.500000
10
107.250000
20
118.500000
10
106.500000
20
120.000000
10
106.500000
20
120.500000
10
106.000000
20
121.500000
10
106.000000
20
122.250000
10
105.750000
20
122.500000
10
105.750000
20
126.250000
10
106.000000
20
126.500000
10
106.000000
20
127.250000
10
106.250000
20
127.500000
10
106.500000
20
128.750000
10
107.750000
20
131.000000
10
109.750000
20
133.250000
10
111.750000
20
134.750000
10
113.250000
20
135.500000
10
113.750000
20
135.500000
10
114.750000
20
136.000000
10
115.500000
20
136.000000
0
LWPOLYLINE
100
AcDbEntity
8
HOLES
100
AcDbPolyline
90
20
70
1
10
91.250000
20
195.250000
10
94.000000
20
195.250000
10
96.750000
20
194.250000
10
97.750000
20
193.500000
10
100.000000
20
191.000000
10
101.000000
20
188.250000
10
101.000000
20
185.500000
10
100.000000
20
182.750000
10
99.250000
20
181.750000
10
96.750000
20
179.500000
10
94.000000
20
178.500000
10
91.250000
20
178.500000
10
88.500000
20
179.500000
10
87.500000
20
180.250000
10
85.250000
20
182.750000
10
84.250000
20
185.500000
10
84.250000
20
188.250000
10
85.250000
20
191.000000
10
86.000000
20
192.000000
10
88.500000
20
194.250000
0
ENDSEC
0
EOF
