0
SECTION
2
HEADER
9
$ACADVER
1
AC1014
9
$INSUNITS
70
4
9
$HANDSEED
5
FFFF
0
ENDSEC
0
SECTION
2
TABLES
0
TABLE
2
LTYPE
70
1
0
LTYPE
2
CONTINUOUS
70
0
3
Solid line
72
65
73
0
40
0.000000
0
ENDTAB
0
TABLE
2
LAYER
70
3
0
LAYER
2
0
70
0
62
7
6
CONTINUOUS
0
LAYER
2
OUTER
70
0
62
3
6
CONTINUOUS
0
LAYER
2
HOLES
70
0
62
1
6
CONTINUOUS
0
ENDTAB
0
ENDSEC
0
SECTION
2
ENTITIES
0
LWPOLYLINE
100
AcDbEntity
8
OUTER
100
AcDbPolyline
90
12
70
1
10
75.500000
20
210.000000
10
75.000000
20
209.750000
10
74.500000
20
209.000000
10
74.500000
20
87.250000
10
74.750000
20
86.750000
10
75.500000
20
86.250000
10
134.750000
20
86.250000
10
135.250000
20
86.500000
10
135.750000
20
87.250000
10
135.750000
20
209.000000
10
135.500000
20
209.500000
10
134.750000
20
210.000000
0
LWPOLYLINE
100
AcDbEntity
8
HOLES
100
AcDbPolyline
90
8
70
1
10
76.750000
20
209.250000
10
133.500000
20
209.250000
10
135.000003
20
208.312912
10
134.999997
20
87.937092
10
133.500000
20
87.000000
10
76.750000
20
87.000000
10
75.249997
20
87.937100
10
75.250003
20
208.312911
0
ENDSEC
0
EOF
